<svg xmlns="http://www.w3.org/2000/svg" viewBox="0 0 93.33 104.61"><defs><style>.cls-1{fill:none;stroke:#7e767c;stroke-linecap:round;stroke-linejoin:round;stroke-width:4px;}.cls-2{fill:#7e767c;}</style></defs><title>achievements-list-panda</title><g id="Слой_2" data-name="Слой 2"><g id="Слой_1-2" data-name="Слой 1"><path class="cls-1" d="M57.69,93.3s-10.63,2.75-12-4.25c-2-10.26,11.9-13.53,11.9-13.53"/><path class="cls-1" d="M79.52,41c0,9.19-14.15,16.44-32.48,16.64"/><line class="cls-1" x1="47.29" y1="43.43" x2="47.36" y2="50.38"/><path class="cls-1" d="M28,41.48s4.88,1.71,8.89-.7"/><path class="cls-1" d="M66.78,41.48s-4.88,1.71-8.89-.7"/><path class="cls-1" d="M81.25,14.37a5.64,5.64,0,0,0,.4-8.11c-2.13-2.28-6-2.16-8.47.2"/><path class="cls-1" d="M14.49,41c0,9.19,14.16,16.44,32.49,16.64"/><path class="cls-2" d="M47,22C38.73,11.9,27,11.37,15.39,41.83-1.81,32.27,9.69,0,47,0S95.69,32.27,78.49,41.83C66.87,11.37,55.29,11.9,47,22"/><path class="cls-1" d="M12.77,14.37a5.64,5.64,0,0,1-.4-8.11c2.13-2.28,6-2.16,8.47.2"/><line class="cls-1" x1="44.05" y1="50.97" x2="50.59" y2="50.97"/><path class="cls-1" d="M5.37,40.45C-10.87,84.68,36.89,93,36.89,93V69.3"/><path class="cls-1" d="M88,38.81C103.84,87.79,58.31,93,58.31,93V69.3"/><path class="cls-1" d="M36.89,73.5s8.1,1.33,12.38,6.13"/><path class="cls-1" d="M36.89,90.52s2.63,1.26,8.59,0"/><polyline class="cls-1" points="19.3 86.22 7.58 102.61 89.35 102.61 76.41 86.22"/></g></g></svg>