<svg xmlns="http://www.w3.org/2000/svg" viewBox="0 0 111.72 104.51"><defs><style>.cls-1{fill:#7e767c;}.cls-2{fill:none;stroke:#7e767c;stroke-linecap:round;stroke-linejoin:round;stroke-width:4px;}</style></defs><title>achievements-list-headphones</title><g id="Слой_2" data-name="Слой 2"><g id="Слой_1-2" data-name="Слой 1"><path class="cls-1" d="M97.53,24.84a3.59,3.59,0,0,0,.92-5.13C93.85,13.42,81,0,54.75,0S17,13.4,13.07,19.69a3.61,3.61,0,0,0,1.14,5l3.18,2a3.61,3.61,0,0,0,4.68-.77A42.17,42.17,0,0,1,54.75,10.7c18.34,0,30.81,10.74,35.41,15.49a3.6,3.6,0,0,0,4.57.49Z"/><path class="cls-2" d="M104.17,66.07l-6.35-1.41c-.25-1.31-.51-2.49-.76-3.47a4.6,4.6,0,0,0-4.47-3.48h-3L84.5,101.85a4.7,4.7,0,0,0,6.22-1.35c.6-.81,1.25-1.78,1.93-2.87l-.08.47a33.22,33.22,0,0,0,17.11-24.81A6.62,6.62,0,0,0,104.17,66.07Z"/><path class="cls-2" d="M22.14,57.71h-3a4.59,4.59,0,0,0-4.46,3.48c-.25,1-.51,2.16-.76,3.47L7.55,66.07A6.61,6.61,0,0,0,2,73.29,33.23,33.23,0,0,0,19.14,98.1l-.07-.47c.67,1.09,1.33,2.06,1.93,2.87,1.43,2,5.86,2.46,7.92,1.17Z"/><path class="cls-2" d="M97.17,25.42s10.19,9.37,7,40.65"/><path class="cls-2" d="M15.64,25.42s-10.2,9.37-7,40.65"/></g></g></svg>