<svg xmlns="http://www.w3.org/2000/svg" viewBox="0 0 122.72 92.22"><defs><style>.cls-1{fill:none;stroke:#7e767c;stroke-linecap:round;stroke-linejoin:round;stroke-width:4px;}.cls-2{fill:#7e767c;}</style></defs><title>achievements-list-open-book</title><g id="Слой_2" data-name="Слой 2"><g id="Слой_1-2" data-name="Слой 1"><path class="cls-1" d="M108.37,68.56V4.21s-27.64-10.72-46,15.06c0,20.67-.12,71-.12,71"/><path class="cls-1" d="M62.24,90.22s21.86-26.66,58.48-1.43V17.3"/><path class="cls-1" d="M14.53,68.56V4.21S43.27-6.51,62.36,19.27"/><path class="cls-1" d="M62.24,90.22S32.8,63.56,2,88.79V17.3"/><path class="cls-2" d="M50.68,44.61C39.87,36.5,25.27,39.2,25.27,39.2V20.83s14.6-2.71,25.41,5.4Z"/><path class="cls-1" d="M25.27,49.26s14.6-2.7,25.41,5.4"/><path class="cls-1" d="M25.27,60.58s14.6-2.7,25.41,5.4"/><path class="cls-1" d="M92.83,16.61S81.7,17.3,71.76,27.26V60.93s6.42-3.44,12-5.72C95.7,50.36,98,27.62,79.24,38.15"/></g></g></svg>