<svg xmlns="http://www.w3.org/2000/svg" viewBox="0 0 83.37 114.24"><defs><style>.cls-1{fill:none;stroke:#7e767c;stroke-linecap:round;stroke-linejoin:round;stroke-width:4px;}.cls-2{fill:#7e767c;}</style></defs><title>achievements-list-book-with-plus</title><g id="Слой_2" data-name="Слой 2"><g id="Слой_1-2" data-name="Слой 1"><path class="cls-1" d="M69.45,2H14.1a11.92,11.92,0,1,0-.18,23.84H81.37v86.4H12.13A10.13,10.13,0,0,1,2,102.11V13.76"/><line class="cls-1" x1="10.52" y1="13.7" x2="72.86" y2="13.7"/><path class="cls-2" d="M58.69,67.53a4.09,4.09,0,0,1-4.11,4.18H45.8v8.72a4.12,4.12,0,0,1-8.23,0V71.71H28.79a4.15,4.15,0,0,1,0-8.29h8.78V54.64a4.12,4.12,0,1,1,8.23,0v8.78h8.78a4.07,4.07,0,0,1,4.11,4.11"/></g></g></svg>