<svg id="Layer_2" height="512" viewBox="0 0 32 32" width="512" xmlns="http://www.w3.org/2000/svg" data-name="Layer 2"><path d="m6 13.5a.5.5 0 0 1 -.5-.5v-7a.5.5 0 0 1 .5-.5h7a.5.5 0 0 1 0 1h-6.5v6.5a.5.5 0 0 1 -.5.5z"/><path d="m26 13.5a.5.5 0 0 1 -.5-.5v-6.5h-6.5a.5.5 0 0 1 0-1h7a.5.5 0 0 1 .5.5v7a.5.5 0 0 1 -.5.5z"/><path d="m13 26.5h-7a.5.5 0 0 1 -.5-.5v-7a.5.5 0 0 1 1 0v6.5h6.5a.5.5 0 0 1 0 1z"/><path d="m26 26.5h-7a.5.5 0 0 1 0-1h6.5v-6.5a.5.5 0 0 1 1 0v7a.5.5 0 0 1 -.5.5z"/><path d="m16 21.5a.5.5 0 0 1 -.5-.5v-10a.5.5 0 0 1 1 0v10a.5.5 0 0 1 -.5.5z"/><path d="m21 16.5h-10a.5.5 0 0 1 0-1h10a.5.5 0 0 1 0 1z"/></svg>