<svg xmlns="http://www.w3.org/2000/svg" xmlns:xlink="http://www.w3.org/1999/xlink" width="921px" height="838px">
    <path fill-rule="evenodd" fill="#f7fbf8"
          d="M128.949,180.007 C138.414,171.310 149.510,162.348 157.979,155.204 C158.080,155.483 158.182,155.762 158.284,156.040 C150.758,162.751 136.511,172.405 132.921,180.285 C155.430,159.573 177.945,138.853 200.454,118.139 C200.352,118.046 200.250,117.953 200.148,117.862 C195.652,122.092 174.053,143.581 170.507,143.779 C185.881,129.654 206.561,107.063 223.677,98.074 C229.419,95.059 235.389,87.295 238.956,85.813 C247.002,79.404 255.051,72.993 263.097,66.584 C262.558,67.777 262.726,66.912 262.791,67.977 C262.995,67.792 263.199,67.606 263.402,67.420 C266.356,65.098 269.310,62.775 272.264,60.452 C272.125,61.324 271.746,60.827 272.570,61.288 C275.421,59.060 278.274,56.830 281.126,54.599 C280.587,55.794 280.755,54.929 280.820,55.994 C281.024,55.808 281.227,55.622 281.431,55.436 C283.264,53.950 285.098,52.464 286.932,50.977 C287.339,51.349 287.746,51.720 288.154,52.092 C289.885,50.514 291.617,48.934 293.349,47.354 C293.349,47.354 294.326,48.326 295.182,47.912 C296.710,46.519 298.238,45.125 299.766,43.732 C305.338,42.078 320.783,34.976 326.656,29.798 C327.131,30.956 326.380,30.386 327.573,31.191 C328.897,29.984 330.222,28.777 331.546,27.569 C332.021,28.727 331.269,28.156 332.462,28.962 C333.786,27.755 335.111,26.547 336.435,25.339 C336.537,25.803 336.639,26.268 336.740,26.733 C345.145,21.313 352.491,20.396 361.187,17.815 C362.205,16.886 363.224,15.956 364.242,15.028 C377.223,11.490 390.012,8.328 403.967,4.996 C408.569,3.896 423.926,5.053 429.636,1.094 C429.609,1.865 429.479,1.932 429.636,2.766 C438.323,-2.655 476.932,1.424 490.140,2.208 C501.937,2.910 514.371,6.812 529.559,7.503 C530.272,8.154 530.985,8.804 531.698,9.455 C536.113,10.824 550.721,15.307 557.061,15.306 C558.254,15.306 561.563,18.414 563.783,19.208 C571.621,22.010 577.620,23.493 584.563,25.339 C585.887,26.547 587.211,27.755 588.535,28.962 C595.768,29.514 605.839,37.391 613.898,41.504 C624.643,46.984 636.207,51.240 648.428,61.846 C648.734,61.381 649.039,60.917 649.345,60.452 C652.604,63.240 655.864,66.027 659.123,68.813 C659.123,68.255 659.123,67.698 659.123,67.141 C668.535,75.773 678.411,80.831 686.931,88.599 C689.618,91.050 700.238,100.186 699.765,98.074 C707.239,100.526 718.265,118.844 726.350,120.648 C725.637,119.812 724.924,118.975 724.211,118.139 C740.507,132.629 756.807,147.124 773.103,161.614 C779.855,167.771 790.838,175.525 793.882,182.236 C792.834,181.577 792.628,180.651 792.354,181.958 C800.095,189.202 807.838,196.450 815.578,203.696 C815.476,203.788 815.374,203.881 815.273,203.973 C814.865,203.788 814.458,203.603 814.050,203.417 C822.459,213.258 836.671,223.235 840.024,232.120 C843.080,235.093 846.136,238.066 849.192,241.038 C847.883,240.547 848.832,240.700 847.664,240.760 C850.414,243.453 853.164,246.147 855.914,248.842 C855.812,248.934 855.710,249.028 855.609,249.120 C854.434,249.053 855.388,248.926 854.081,249.398 C860.188,255.066 859.808,256.840 865.387,261.940 C864.878,262.033 864.368,262.125 863.859,262.218 C870.313,269.208 872.519,274.235 876.693,281.169 C877.814,282.190 878.934,283.212 880.055,284.234 C881.136,288.552 884.552,294.402 888.916,298.447 C888.407,298.725 887.898,299.005 887.388,299.282 C892.016,303.501 890.336,306.338 895.028,310.709 C894.519,310.801 894.009,310.894 893.500,310.987 C901.671,319.771 899.611,331.713 906.945,338.855 C906.436,338.948 905.927,339.042 905.418,339.134 C910.488,344.794 911.327,357.096 912.751,363.100 C916.394,378.452 919.842,392.817 921.002,407.969 L919.168,433.607 C919.270,433.885 919.372,434.164 919.474,434.443 C919.881,434.258 920.289,434.071 920.696,433.885 C918.712,436.041 916.868,453.040 917.029,456.180 C917.437,455.995 917.844,455.808 918.252,455.622 C918.131,455.735 909.776,484.019 909.696,486.278 C910.205,486.184 910.714,486.092 911.223,485.999 C910.307,487.020 909.390,488.043 908.473,489.063 C908.982,489.157 909.492,489.251 910.001,489.344 C908.161,491.000 900.875,509.329 900.223,512.195 C900.732,512.102 901.241,512.009 901.751,511.917 C900.630,513.123 899.510,514.332 898.389,515.539 C898.898,515.632 899.408,515.725 899.917,515.818 C895.743,519.620 894.515,527.250 892.583,530.867 C887.961,539.518 884.399,544.546 878.832,552.883 C879.342,552.976 879.851,553.068 880.360,553.161 C878.370,554.794 875.999,556.828 875.777,558.456 C876.184,558.456 876.591,558.456 876.999,558.456 C869.294,565.427 863.903,574.880 860.803,581.586 C858.563,583.630 856.321,585.674 854.081,587.718 C853.013,589.526 849.491,593.738 846.747,597.192 C847.256,597.285 847.765,597.379 848.275,597.472 C844.914,600.722 841.552,603.974 838.191,607.225 C838.293,607.318 838.394,607.411 838.496,607.503 C839.006,607.411 839.515,607.318 840.024,607.225 C835.848,611.218 831.671,615.215 827.496,619.209 C827.699,619.393 827.903,619.580 828.107,619.766 C828.616,619.486 829.125,619.209 829.635,618.930 C824.033,624.224 818.430,629.521 812.828,634.815 C813.032,635.000 813.235,635.186 813.439,635.372 C813.948,635.093 814.458,634.815 814.967,634.536 C807.023,641.967 799.076,649.399 791.132,656.831 C791.743,656.831 792.354,656.831 792.966,656.831 C775.133,673.214 755.883,691.765 737.045,708.944 C729.371,715.942 719.916,727.301 711.377,730.681 C712.803,729.194 714.229,727.708 715.655,726.222 C706.794,733.746 697.930,741.271 689.070,748.795 C690.756,747.393 691.959,746.217 692.125,744.894 C686.320,749.816 680.513,754.740 674.708,759.664 C676.254,758.332 677.002,757.538 677.152,756.320 C672.569,760.128 667.984,763.937 663.401,767.745 C663.809,767.188 664.216,766.631 664.624,766.073 C661.059,768.767 657.493,771.462 653.928,774.155 C654.234,773.690 654.540,773.227 654.845,772.762 C651.790,774.990 648.733,777.221 645.678,779.449 C646.217,778.256 646.049,779.122 645.983,778.057 C641.142,782.665 631.347,788.240 632.233,787.253 C632.131,787.160 632.029,787.068 631.927,786.974 C627.450,789.837 623.019,794.488 618.176,796.171 C618.380,795.613 618.584,795.056 618.787,794.499 C616.343,796.356 613.898,798.215 611.453,800.072 C612.561,798.837 612.549,798.891 612.676,797.842 C610.537,799.422 608.397,801.001 606.258,802.580 C607.307,801.302 607.187,801.760 607.175,800.630 C605.240,802.023 603.305,803.417 601.369,804.810 C602.206,803.538 602.006,804.251 601.981,803.138 C592.498,809.951 582.791,809.742 574.479,817.072 C573.952,815.973 574.299,816.425 573.562,815.678 C572.238,816.701 570.914,817.722 569.589,818.745 C569.793,818.187 569.997,817.629 570.201,817.072 C568.571,818.187 566.941,819.301 565.311,820.416 C566.225,819.224 566.113,819.460 566.228,818.466 C562.457,821.239 562.280,821.263 557.978,822.646 C558.181,822.274 558.385,821.903 558.589,821.531 C556.351,822.337 555.330,824.356 555.227,822.924 C553.011,822.997 536.751,827.601 533.837,830.170 C533.142,829.198 534.154,828.970 532.920,829.334 C532.004,829.799 531.087,830.262 530.170,830.728 C530.477,829.990 530.225,830.427 529.559,830.170 C528.642,830.635 527.726,831.099 526.809,831.563 C527.348,830.370 527.180,831.235 527.114,830.170 C524.761,831.959 521.618,832.464 521.614,831.842 C515.189,831.795 508.357,834.261 502.974,836.023 C503.513,834.829 503.345,835.694 503.279,834.628 C494.466,839.903 464.656,837.295 451.637,837.694 C414.857,838.823 347.283,824.025 308.016,797.564 C307.915,798.028 307.813,798.494 307.711,798.957 C302.421,794.013 281.578,781.992 282.348,784.188 C275.650,781.311 271.824,774.110 265.236,773.041 C261.192,772.384 256.291,761.268 254.235,765.237 C249.957,761.521 245.678,757.805 241.401,754.090 C240.764,754.937 241.093,753.995 240.790,755.205 C213.856,730.668 186.802,711.541 158.895,686.092 C149.807,677.804 130.690,663.775 126.504,654.880 C127.930,655.994 129.356,657.109 130.782,658.224 C130.884,658.131 130.986,658.038 131.088,657.945 C121.718,649.028 112.345,640.108 102.975,631.192 C104.710,632.953 106.761,634.901 108.475,635.093 C102.568,629.334 96.659,623.573 90.752,617.815 C91.363,618.373 91.974,618.930 92.585,619.486 C92.687,619.209 92.789,618.930 92.891,618.651 C88.817,614.564 84.742,610.476 80.668,606.389 C81.483,606.947 82.298,607.503 83.112,608.061 C83.214,607.968 83.316,607.876 83.418,607.783 C80.261,604.532 77.102,601.280 73.945,598.028 C74.454,598.493 74.964,598.958 75.473,599.422 C75.575,599.143 75.677,598.864 75.779,598.586 C73.029,595.893 70.278,593.198 67.528,590.504 C68.037,590.411 68.547,590.318 69.056,590.226 C63.973,585.450 60.296,580.633 58.361,576.013 C56.324,573.970 54.286,571.926 52.249,569.882 C52.860,570.068 53.472,570.253 54.083,570.439 C53.879,570.253 53.675,570.068 53.472,569.882 C51.638,567.838 49.804,565.794 47.971,563.751 C48.786,564.308 49.601,564.866 50.416,565.422 C50.518,565.330 50.619,565.238 50.721,565.144 C48.583,562.822 46.443,560.500 44.304,558.177 C44.915,558.549 45.527,558.920 46.138,559.292 C46.239,559.013 46.341,558.734 46.443,558.456 C44.610,556.599 42.776,554.740 40.943,552.883 C42.346,554.131 42.760,554.429 43.999,554.554 C42.267,552.603 40.535,550.653 38.804,548.702 C40.198,549.466 39.417,549.283 40.637,549.259 C39.110,547.495 37.581,545.729 36.054,543.965 C37.448,544.728 36.667,544.545 37.887,544.522 C36.563,542.943 35.239,541.363 33.915,539.785 C34.511,539.905 34.169,540.237 34.526,539.785 C33.314,536.423 30.577,531.195 26.581,527.522 C27.192,527.522 27.803,527.522 28.414,527.522 C27.090,525.943 25.766,524.364 24.442,522.785 C24.951,523.064 25.460,523.342 25.970,523.621 C26.072,523.342 26.173,523.064 26.275,522.785 C25.155,521.578 24.034,520.369 22.914,519.162 C24.221,519.995 23.962,519.894 25.053,519.998 C24.849,519.812 24.645,519.626 24.442,519.441 C23.321,518.047 22.201,516.653 21.080,515.261 C21.793,515.725 22.506,516.189 23.219,516.654 C23.321,516.560 23.423,516.467 23.525,516.375 C22.303,515.075 21.080,513.774 19.858,512.473 C20.949,511.835 20.548,512.801 20.775,511.638 C19.960,510.522 19.145,509.408 18.330,508.294 C19.725,509.057 18.944,508.874 20.164,508.850 C19.145,507.551 18.126,506.250 17.108,504.950 C18.156,505.609 18.362,506.534 18.636,505.228 C17.617,504.113 16.599,502.998 15.580,501.884 C16.483,502.020 16.787,502.244 17.719,502.163 C16.802,501.141 15.886,500.119 14.969,499.097 C16.223,498.701 15.252,499.192 16.191,498.539 C14.581,497.027 13.185,494.796 12.524,492.408 C14.046,492.713 12.944,492.608 14.052,492.130 C10.857,489.163 9.695,483.296 8.552,479.868 C9.860,480.359 8.912,480.207 10.080,480.147 C9.876,479.775 9.672,479.404 9.469,479.032 C8.857,478.475 8.246,477.917 7.635,477.360 C9.159,477.336 8.173,477.548 9.163,477.081 C7.875,475.591 5.532,468.492 5.190,466.212 C5.700,466.305 6.209,466.398 6.718,466.491 C4.772,464.067 5.018,463.493 3.968,460.639 C5.277,461.130 4.328,460.977 5.496,460.918 C3.779,458.711 4.022,458.064 3.051,455.344 C4.360,455.836 3.411,455.682 4.579,455.622 C3.968,454.880 3.357,454.136 2.746,453.394 C3.591,453.418 3.665,453.536 4.579,453.394 C-0.731,447.780 5.912,435.141 0.301,429.427 C1.462,429.056 1.720,429.879 1.524,428.311 C1.149,425.326 0.375,421.479 -0.004,416.329 C1.122,415.508 1.552,411.383 1.218,409.640 C1.116,409.919 1.014,410.198 0.912,410.476 C-0.142,394.625 4.768,380.039 7.635,365.331 C7.228,365.516 6.820,365.702 6.413,365.887 C6.311,365.795 6.209,365.702 6.107,365.609 C11.206,360.794 11.526,345.152 15.886,338.855 C15.376,338.763 14.867,338.669 14.358,338.576 C17.448,335.738 16.060,335.393 18.330,332.167 C17.821,332.074 17.312,331.981 16.802,331.888 C18.439,330.463 31.746,302.432 31.776,302.069 C31.368,302.069 30.961,302.069 30.553,302.069 C32.366,300.582 34.033,299.049 34.220,297.611 C33.813,297.611 33.405,297.611 32.998,297.611 C39.575,291.629 49.640,273.167 52.249,267.235 C54.243,262.701 60.658,259.881 61.417,255.530 C61.009,255.715 60.602,255.901 60.194,256.087 C60.092,255.994 59.990,255.901 59.889,255.808 C62.462,253.645 67.173,250.041 67.528,247.726 C66.064,247.148 73.172,241.568 74.862,239.366 C74.251,239.366 73.639,239.366 73.028,239.366 C81.028,232.039 89.878,223.462 93.502,216.793 C96.813,210.699 105.918,206.573 107.864,201.465 C114.892,194.870 121.921,188.274 128.949,181.679 C128.949,181.122 128.949,180.564 128.949,180.007 ZM101.447,214.006 C102.262,213.264 103.077,212.520 103.892,211.777 C103.077,212.520 102.262,213.264 101.447,214.006 Z"/>
</svg>