<svg id="Icons" height="512" viewBox="0 0 24 24" width="512" xmlns="http://www.w3.org/2000/svg"><path d="m20.828 9.917-7.984 7.983a4.93 4.93 0 0 1 -6.807.273 4.766 4.766 0 0 1 -.1-6.843l6.8-6.8a2.845 2.845 0 0 1 4.023 4.023l-6.8 6.8a.944.944 0 0 1 -1.3 0 .925.925 0 0 1 0-1.3l5.437-5.437a1 1 0 0 0 -1.424-1.416l-5.437 5.435a2.927 2.927 0 0 0 0 4.133 2.992 2.992 0 0 0 4.132 0l6.8-6.8a4.845 4.845 0 1 0 -6.855-6.848l-6.8 6.8a6.765 6.765 0 0 0 .148 9.713 6.607 6.607 0 0 0 4.562 1.767 7.122 7.122 0 0 0 5.035-2.087l7.984-7.984a1 1 0 1 0 -1.414-1.414z"/></svg>