<svg height="20" viewBox="0 0 32 32" width="20" xmlns="http://www.w3.org/2000/svg">
    <g id="group_friend_team_unity" data-name="group, friend, team, unity">
        <path d="m15.1479 19.2617a.9992.9992 0 0 0 -.0649 1.4121 6.5573 6.5573 0 0 1 1.667 4.4453c0 .6631-2.0884 1.8809-5.5 1.8809s-5.5-1.2187-5.5-1.8818a6.6583 6.6583 0 0 1 1.6455-4.4219 1 1 0 1 0 -1.4853-1.34 8.568 8.568 0 0 0 -2.16 5.7627c-.0002 2.213 3.2239 3.881 7.4998 3.881s7.5-1.668 7.5-3.8809a8.5483 8.5483 0 0 0 -2.1895-5.7929.9989.9989 0 0 0 -1.4126-.0645z"/>
        <path d="m26.0605 13.3262a1 1 0 1 0 -1.4775 1.3476 6.559 6.559 0 0 1 1.667 4.4453c0 .6631-2.0884 1.8809-5.5 1.8809a1 1 0 0 0 0 2c4.2759 0 7.5-1.668 7.5-3.8809a8.551 8.551 0 0 0 -2.1895-5.7929z"/>
        <path d="m11.25 19a5 5 0 1 0 -5-5 5.0059 5.0059 0 0 0 5 5zm0-8a3 3 0 1 1 -3 3 3.0033 3.0033 0 0 1 3-3z"/>
        <path d="m20.75 13a5 5 0 1 0 -5-5 5.0059 5.0059 0 0 0 5 5zm0-8a3 3 0 1 1 -3 3 3.0033 3.0033 0 0 1 3-3z"/>
    </g>
</svg>