<svg
        xmlns="http://www.w3.org/2000/svg"
        xmlns:xlink="http://www.w3.org/1999/xlink"
        width="258px" height="105px">
    <path fill-rule="evenodd"  fill="rgb(232, 235, 236)"
          d="M257.000,105.000 L256.406,105.000 L207.406,105.000 L206.406,105.000 L154.594,105.000 L153.594,105.000 L151.156,105.000 L105.844,105.000 L104.594,105.000 L103.594,105.000 L53.000,105.000 L52.000,105.000 L2.000,105.000 L1.000,105.000 L-0.000,105.000 L-0.000,104.437 L1.000,104.437 L1.000,84.906 L-0.000,84.906 L-0.000,84.344 L1.000,84.344 L1.000,63.844 L-0.000,63.844 L-0.000,63.250 L1.000,63.250 L1.000,42.750 L-0.000,42.750 L-0.000,42.187 L1.000,42.187 L1.000,21.656 L-0.000,21.656 L-0.000,21.094 L1.000,21.094 L1.000,1.000 L2.000,1.000 L2.000,21.094 L52.000,21.094 L52.000,1.000 L53.000,1.000 L53.000,21.094 L103.594,21.094 L103.594,1.000 L104.594,1.000 L104.594,21.094 L105.844,21.094 L151.156,21.094 L153.594,21.094 L153.594,1.000 L154.594,1.000 L154.594,21.094 L206.406,21.094 L206.406,1.000 L207.406,1.000 L207.406,21.094 L256.406,21.094 L256.406,1.000 L257.406,1.000 L257.406,105.000 L257.000,105.000 ZM52.000,21.656 L2.000,21.656 L2.000,42.187 L52.000,42.187 L52.000,21.656 ZM52.000,42.750 L2.000,42.750 L2.000,63.250 L52.000,63.250 L52.000,42.750 ZM52.000,63.844 L2.000,63.844 L2.000,84.344 L52.000,84.344 L52.000,63.844 ZM52.000,84.906 L2.000,84.906 L2.000,104.437 L52.000,104.437 L52.000,84.906 ZM103.594,21.656 L53.000,21.656 L53.000,42.187 L103.594,42.187 L103.594,21.656 ZM103.594,42.750 L53.000,42.750 L53.000,63.250 L103.594,63.250 L103.594,42.750 ZM103.594,63.844 L53.000,63.844 L53.000,84.344 L103.594,84.344 L103.594,63.844 ZM103.594,84.906 L53.000,84.906 L53.000,104.437 L103.594,104.437 L103.594,84.906 ZM153.594,21.656 L151.156,21.656 L105.844,21.656 L104.594,21.656 L104.594,42.187 L105.844,42.187 L151.156,42.187 L153.594,42.187 L153.594,21.656 ZM153.594,42.750 L151.156,42.750 L105.844,42.750 L104.594,42.750 L104.594,63.250 L105.844,63.250 L151.156,63.250 L153.594,63.250 L153.594,42.750 ZM153.594,63.844 L151.156,63.844 L105.844,63.844 L104.594,63.844 L104.594,84.344 L105.844,84.344 L151.156,84.344 L153.594,84.344 L153.594,63.844 ZM153.594,84.906 L151.156,84.906 L105.844,84.906 L104.594,84.906 L104.594,104.437 L105.844,104.437 L151.156,104.437 L153.594,104.437 L153.594,84.906 ZM206.406,21.656 L154.594,21.656 L154.594,42.187 L206.406,42.187 L206.406,21.656 ZM206.406,42.750 L154.594,42.750 L154.594,63.250 L206.406,63.250 L206.406,42.750 ZM206.406,63.844 L154.594,63.844 L154.594,84.344 L206.406,84.344 L206.406,63.844 ZM206.406,84.906 L154.594,84.906 L154.594,104.437 L206.406,104.437 L206.406,84.906 ZM256.406,21.656 L207.406,21.656 L207.406,42.187 L256.406,42.187 L256.406,21.656 ZM256.406,42.750 L207.406,42.750 L207.406,63.250 L256.406,63.250 L256.406,42.750 ZM256.406,63.844 L207.406,63.844 L207.406,84.344 L256.406,84.344 L256.406,63.844 ZM256.406,84.906 L207.406,84.906 L207.406,104.437 L256.406,104.437 L256.406,84.906 ZM105.844,0.562 L-0.000,0.562 L-0.000,-0.000 L105.844,-0.000 L151.156,-0.000 L257.000,-0.000 L257.000,0.562 L151.156,0.562 L105.844,0.562 Z"/>
</svg>