<svg
        xmlns="http://www.w3.org/2000/svg"
        xmlns:xlink="http://www.w3.org/1999/xlink"
        width="588px" height="246px">
    <path fill-rule="evenodd"  opacity="0.431" fill="rgb(232, 235, 236)"
          d="M587.000,246.000 L507.000,246.000 L506.000,246.000 L436.000,246.000 L435.000,246.000 L365.000,246.000 L364.000,246.000 L284.000,246.000 L283.000,246.000 L213.000,246.000 L212.000,246.000 L142.000,246.000 L141.000,246.000 L72.000,246.000 L71.000,246.000 L1.000,246.000 L-0.000,246.000 L-0.000,1.000 L1.000,1.000 L1.000,41.000 L71.000,41.000 L71.000,1.000 L1.000,1.000 L1.000,-0.000 L588.000,-0.000 L588.000,1.000 L588.000,41.000 L588.000,42.000 L588.000,82.000 L588.000,83.000 L588.000,123.000 L588.000,124.000 L588.000,164.000 L588.000,165.000 L588.000,205.000 L588.000,206.000 L588.000,245.000 L588.000,246.000 L587.000,246.000 ZM507.000,245.000 L587.000,245.000 L587.000,206.000 L507.000,206.000 L507.000,245.000 ZM507.000,205.000 L587.000,205.000 L587.000,165.000 L507.000,165.000 L507.000,205.000 ZM507.000,164.000 L587.000,164.000 L587.000,124.000 L507.000,124.000 L507.000,164.000 ZM507.000,123.000 L587.000,123.000 L587.000,83.000 L507.000,83.000 L507.000,123.000 ZM507.000,82.000 L587.000,82.000 L587.000,42.000 L507.000,42.000 L507.000,82.000 ZM436.000,245.000 L506.000,245.000 L506.000,206.000 L436.000,206.000 L436.000,245.000 ZM436.000,205.000 L506.000,205.000 L506.000,165.000 L436.000,165.000 L436.000,205.000 ZM436.000,164.000 L506.000,164.000 L506.000,124.000 L436.000,124.000 L436.000,164.000 ZM436.000,123.000 L506.000,123.000 L506.000,83.000 L436.000,83.000 L436.000,123.000 ZM436.000,82.000 L506.000,82.000 L506.000,42.000 L436.000,42.000 L436.000,82.000 ZM365.000,245.000 L435.000,245.000 L435.000,206.000 L365.000,206.000 L365.000,245.000 ZM365.000,205.000 L435.000,205.000 L435.000,165.000 L365.000,165.000 L365.000,205.000 ZM365.000,164.000 L435.000,164.000 L435.000,124.000 L365.000,124.000 L365.000,164.000 ZM365.000,123.000 L435.000,123.000 L435.000,83.000 L365.000,83.000 L365.000,123.000 ZM365.000,82.000 L435.000,82.000 L435.000,42.000 L365.000,42.000 L365.000,82.000 ZM284.000,245.000 L364.000,245.000 L364.000,206.000 L284.000,206.000 L284.000,245.000 ZM284.000,205.000 L364.000,205.000 L364.000,165.000 L284.000,165.000 L284.000,205.000 ZM284.000,164.000 L364.000,164.000 L364.000,124.000 L284.000,124.000 L284.000,164.000 ZM284.000,123.000 L364.000,123.000 L364.000,83.000 L284.000,83.000 L284.000,123.000 ZM284.000,82.000 L364.000,82.000 L364.000,42.000 L284.000,42.000 L284.000,82.000 ZM213.000,245.000 L283.000,245.000 L283.000,206.000 L213.000,206.000 L213.000,245.000 ZM213.000,205.000 L283.000,205.000 L283.000,165.000 L213.000,165.000 L213.000,205.000 ZM213.000,164.000 L283.000,164.000 L283.000,124.000 L213.000,124.000 L213.000,164.000 ZM213.000,123.000 L283.000,123.000 L283.000,83.000 L213.000,83.000 L213.000,123.000 ZM213.000,82.000 L283.000,82.000 L283.000,42.000 L213.000,42.000 L213.000,82.000 ZM142.000,245.000 L212.000,245.000 L212.000,206.000 L142.000,206.000 L142.000,245.000 ZM142.000,205.000 L212.000,205.000 L212.000,165.000 L142.000,165.000 L142.000,205.000 ZM142.000,164.000 L212.000,164.000 L212.000,124.000 L142.000,124.000 L142.000,164.000 ZM142.000,123.000 L212.000,123.000 L212.000,83.000 L142.000,83.000 L142.000,123.000 ZM142.000,82.000 L212.000,82.000 L212.000,42.000 L142.000,42.000 L142.000,82.000 ZM72.000,245.000 L141.000,245.000 L141.000,206.000 L72.000,206.000 L72.000,245.000 ZM72.000,205.000 L141.000,205.000 L141.000,165.000 L72.000,165.000 L72.000,205.000 ZM72.000,164.000 L141.000,164.000 L141.000,124.000 L72.000,124.000 L72.000,164.000 ZM72.000,123.000 L141.000,123.000 L141.000,83.000 L72.000,83.000 L72.000,123.000 ZM72.000,82.000 L141.000,82.000 L141.000,42.000 L72.000,42.000 L72.000,82.000 ZM1.000,245.000 L71.000,245.000 L71.000,206.000 L1.000,206.000 L1.000,245.000 ZM1.000,205.000 L71.000,205.000 L71.000,165.000 L1.000,165.000 L1.000,205.000 ZM1.000,164.000 L71.000,164.000 L71.000,124.000 L1.000,124.000 L1.000,164.000 ZM1.000,123.000 L71.000,123.000 L71.000,83.000 L1.000,83.000 L1.000,123.000 ZM1.000,42.000 L1.000,82.000 L71.000,82.000 L71.000,42.000 L1.000,42.000 ZM72.000,1.000 L72.000,41.000 L141.000,41.000 L141.000,1.000 L72.000,1.000 ZM142.000,1.000 L142.000,41.000 L212.000,41.000 L212.000,1.000 L142.000,1.000 ZM213.000,1.000 L213.000,41.000 L283.000,41.000 L283.000,1.000 L213.000,1.000 ZM284.000,1.000 L284.000,41.000 L364.000,41.000 L364.000,1.000 L284.000,1.000 ZM365.000,1.000 L365.000,41.000 L435.000,41.000 L435.000,1.000 L365.000,1.000 ZM436.000,1.000 L436.000,41.000 L506.000,41.000 L506.000,1.000 L436.000,1.000 ZM507.000,1.000 L507.000,41.000 L587.000,41.000 L587.000,1.000 L507.000,1.000 Z"/>
</svg>