<svg
 xmlns="http://www.w3.org/2000/svg"
 xmlns:xlink="http://www.w3.org/1999/xlink"
 width="999px" height="105px">
<path fill-rule="evenodd"  fill="rgb(232, 235, 236)"
 d="M998.000,105.000 L799.000,105.000 L798.000,105.000 L600.000,105.000 L599.000,105.000 L588.000,105.000 L412.000,105.000 L399.000,105.000 L398.000,105.000 L198.000,105.000 L197.000,105.000 L1.000,105.000 L-0.000,105.000 L-0.000,1.000 L1.000,1.000 L1.000,21.437 L197.000,21.437 L197.000,1.000 L1.000,1.000 L1.000,0.437 L412.000,0.437 L588.000,0.437 L999.000,0.437 L999.000,1.000 L999.000,21.437 L999.000,22.000 L999.000,42.437 L999.000,43.000 L999.000,63.437 L999.000,64.000 L999.000,84.437 L999.000,85.000 L999.000,104.437 L999.000,105.000 L998.000,105.000 ZM197.000,22.000 L1.000,22.000 L1.000,42.437 L197.000,42.437 L197.000,22.000 ZM197.000,43.000 L1.000,43.000 L1.000,63.437 L197.000,63.437 L197.000,43.000 ZM197.000,64.000 L1.000,64.000 L1.000,84.437 L197.000,84.437 L197.000,64.000 ZM197.000,85.000 L1.000,85.000 L1.000,104.437 L197.000,104.437 L197.000,85.000 ZM398.000,1.000 L198.000,1.000 L198.000,21.437 L398.000,21.437 L398.000,1.000 ZM398.000,22.000 L198.000,22.000 L198.000,42.437 L398.000,42.437 L398.000,22.000 ZM398.000,43.000 L198.000,43.000 L198.000,63.437 L398.000,63.437 L398.000,43.000 ZM398.000,64.000 L198.000,64.000 L198.000,84.437 L398.000,84.437 L398.000,64.000 ZM398.000,85.000 L198.000,85.000 L198.000,104.437 L398.000,104.437 L398.000,85.000 ZM799.000,104.437 L998.000,104.437 L998.000,85.000 L799.000,85.000 L799.000,104.437 ZM799.000,84.437 L998.000,84.437 L998.000,64.000 L799.000,64.000 L799.000,84.437 ZM799.000,63.437 L998.000,63.437 L998.000,43.000 L799.000,43.000 L799.000,63.437 ZM799.000,42.437 L998.000,42.437 L998.000,22.000 L799.000,22.000 L799.000,42.437 ZM600.000,104.437 L798.000,104.437 L798.000,85.000 L600.000,85.000 L600.000,104.437 ZM600.000,84.437 L798.000,84.437 L798.000,64.000 L600.000,64.000 L600.000,84.437 ZM600.000,63.437 L798.000,63.437 L798.000,43.000 L600.000,43.000 L600.000,63.437 ZM600.000,42.437 L798.000,42.437 L798.000,22.000 L600.000,22.000 L600.000,42.437 ZM399.000,104.437 L412.000,104.437 L588.000,104.437 L599.000,104.437 L599.000,85.000 L588.000,85.000 L412.000,85.000 L399.000,85.000 L399.000,104.437 ZM399.000,84.437 L412.000,84.437 L588.000,84.437 L599.000,84.437 L599.000,64.000 L588.000,64.000 L412.000,64.000 L399.000,64.000 L399.000,84.437 ZM399.000,63.437 L412.000,63.437 L588.000,63.437 L599.000,63.437 L599.000,43.000 L588.000,43.000 L412.000,43.000 L399.000,43.000 L399.000,63.437 ZM399.000,42.437 L412.000,42.437 L588.000,42.437 L599.000,42.437 L599.000,22.000 L588.000,22.000 L412.000,22.000 L399.000,22.000 L399.000,42.437 ZM588.000,1.000 L412.000,1.000 L399.000,1.000 L399.000,21.437 L412.000,21.437 L588.000,21.437 L599.000,21.437 L599.000,1.000 L588.000,1.000 ZM600.000,1.000 L600.000,21.437 L798.000,21.437 L798.000,1.000 L600.000,1.000 ZM799.000,1.000 L799.000,21.437 L998.000,21.437 L998.000,1.000 L799.000,1.000 Z"/>
</svg>