<svg id="Icons" height="512" viewBox="0 0 24 24" width="512" xmlns="http://www.w3.org/2000/svg"><path d="m16 2.5a5.755 5.755 0 0 0 -4 1.454 5.755 5.755 0 0 0 -4-1.454 5.813 5.813 0 0 0 -4.5 2.109c-.953 1.156-1.951 3.249-1.29 6.661 1.056 5.446 8.966 9.916 9.3 10.1a1 1 0 0 0 .974 0c.337-.187 8.247-4.657 9.3-10.1.661-3.412-.336-5.5-1.289-6.661a5.811 5.811 0 0 0 -4.495-2.109zm3.828 8.389c-.745 3.847-6.158 7.426-7.826 8.448-1.668-1.022-7.081-4.6-7.826-8.448-.513-2.646.189-4.183.869-5.007a3.819 3.819 0 0 1 2.955-1.382 3.493 3.493 0 0 1 3.115 1.469 1 1 0 0 0 .873.524h.012a1.012 1.012 0 0 0 .874-.514 3.489 3.489 0 0 1 3.126-1.479 3.819 3.819 0 0 1 2.959 1.382c.678.824 1.38 2.361.867 5.007z"/></svg>