<svg xmlns="http://www.w3.org/2000/svg" viewBox="0 0 111.58 76.88"><defs><style>.cls-1{fill:none;stroke:#c99d5d;stroke-miterlimit:10;stroke-width:2px;}.cls-2{fill:#c99d5d;}.cls-3{fill:#fff;}</style></defs><title>pro</title><g id="Слой_2" data-name="Слой 2"><g id="Слой_1-2" data-name="Слой 1"><path class="cls-1" d="M82.84,20.39a27.75,27.75,0,0,1,0,55.49H28.74a27.75,27.75,0,0,1,0-55.49"/><path class="cls-2" d="M82.84,70.21H28.74a22.08,22.08,0,0,1,0-44.15h54.1a22.08,22.08,0,0,1,0,44.15"/><path class="cls-3" d="M23.76,56.43V39.84a2.37,2.37,0,0,1,2.64-2.63h7.94c4.83,0,7.66,2.6,7.66,7s-2.86,7-7.66,7H29.47v5.27a2.65,2.65,0,0,1-2.88,2.82,2.62,2.62,0,0,1-2.83-2.82m9.8-9.55c2.08,0,3.1-.84,3.1-2.67s-1-2.69-3.1-2.69H29.47v5.36Z"/><path class="cls-3" d="M63.7,57A2.57,2.57,0,0,1,61,59.34,3,3,0,0,1,58.46,58l-4-5.89a2.39,2.39,0,0,0-2-1.21h-2v5.55a2.59,2.59,0,0,1-2.79,2.82,2.62,2.62,0,0,1-2.82-2.82V39.84a2.37,2.37,0,0,1,2.64-2.63h7.78c5.33,0,8,2.38,8,6.69a6.34,6.34,0,0,1-5.21,6.51,4.7,4.7,0,0,1,3.28,2.27l1.93,2.76A2.89,2.89,0,0,1,63.7,57M57.8,44.09c0-1.83-1-2.57-3.53-2.57h-4V46.6h4c2.54,0,3.53-.74,3.53-2.51"/><path class="cls-3" d="M66,48.12c0-6.85,4.22-11.19,11-11.19s10.91,4.34,10.91,11.19S83.63,59.34,76.9,59.34,66,55,66,48.12m16.22,0c0-4.56-2.08-6.82-5.27-6.82s-5.27,2.23-5.27,6.82S73.67,55,76.9,55s5.27-2.29,5.27-6.85"/><polygon class="cls-1" points="51.95 20.39 46.13 20.39 43.06 10.88 51.34 13.64 55.79 2.66 60.24 13.64 68.52 10.88 65.45 20.39 59.01 20.39 51.95 20.39"/></g></g></svg>