<svg xmlns="http://www.w3.org/2000/svg" viewBox="0 0 155.17 155.35"><defs><style>.cls-1{fill:#f4f19d;}.cls-2{fill:#fffffe;}.cls-3{fill:#292b38;}.cls-4{fill:#dabc7c;}.cls-5{fill:#4f5163;}.cls-6{fill:#61974e;}.cls-10,.cls-7{fill:none;stroke-linecap:round;stroke-linejoin:round;stroke-width:2px;}.cls-7{stroke:#292b38;}.cls-8{fill:#fff;}.cls-9{fill:#e7b4bf;}.cls-10{stroke:#fffffe;}</style></defs><title>sad-panda</title><g id="Слой_2" data-name="Слой 2"><g id="Слой_1-2" data-name="Слой 1"><path class="cls-1" d="M110.11,75.32l-32.6-8.95v-.08l-.06,0-.06,0v.08L41.94,78.12S14.39,93,11.36,133.85c8.25,5.5,37.86,14.67,66.77,14.62s58.25-9.94,66.53-15.16c-2.92-44.84-34.55-58-34.55-58"/><polygon class="cls-2" points="59.88 96.48 73.5 113.27 94.63 96.48 59.88 96.48"/><path class="cls-3" d="M61,14.67a1.19,1.19,0,0,1-.41-.08L45,8.11a1,1,0,1,1,.8-1.91l15.58,6.47A1,1,0,0,1,61.94,14a1,1,0,0,1-.94.64"/><path class="cls-3" d="M94.2,17a1,1,0,0,1-.36-2l15.45-5.49a1,1,0,0,1,1.32.63,1,1,0,0,1-.63,1.33L94.53,17a1,1,0,0,1-.33.06"/><path class="cls-3" d="M29.26,45.68a17.73,17.73,0,0,1-4.62-3c-3.44-3.29-4-8.76-.92-11.95s8.45-3,12,.4a19.67,19.67,0,0,1,4.33,7"/><path class="cls-3" d="M121.89,40.71a17.81,17.81,0,0,0,4.65-3c3.47-3.26,4.06-8.71,1-11.93s-8.43-3.06-12,.27A19.86,19.86,0,0,0,111.2,33"/><path class="cls-4" d="M45.79,4.6A4.67,4.67,0,1,1,41,0a4.68,4.68,0,0,1,4.75,4.6"/><path class="cls-5" d="M96.8,16.94C97,25.86,88.51,33.22,78,33.4S58.72,26.49,58.57,17.57,66.86,1.29,77.42,1.12,96.65,8,96.8,16.94"/><path class="cls-6" d="M91.37,22.41c.1,6.34-5.9,11.58-13.4,11.7S64.29,29.2,64.18,22.86s5.9-11.58,13.4-11.71,13.68,4.92,13.79,11.26"/><path class="cls-2" d="M79.11,100.77c-24.77.27-53.32-13.36-45.36-30C42.89,51.56,53.23,34,78,33.56s36.59,17.26,45.45,35.67c0,0,.65,3.25,1.1,5.24,2.75,12.1-19.53,26-45.43,26.3"/><path class="cls-3" d="M78.54,83.27c-1.13,0-4.27-1.86-4.45-4.31s2.64-2.91,4.46-2.94,4.59.34,4.49,2.8-3.38,4.43-4.5,4.45"/><line class="cls-7" x1="78.7" y1="82.96" x2="78.81" y2="87.83"/><path class="cls-5" d="M78.49,18.1H77.7C28,17.61,7.85,66,32.6,78.71c15-43.58,33.86-43.42,46-29.6,0-2,0-2,.06,0,11.66-14.22,29.49-14.94,45.93,28.13,24.31-13.52,6.34-60.09-46.08-59.14"/><path class="cls-8" d="M50.24,69.35s-4.08-.59-4.23-4.62c-.66,3.47,2.75,5.6,2.75,5.6Z"/><path class="cls-9" d="M117.58,80.81c-2.31,2.07-6.36,1.31-9.06-1.7s-3-7.12-.7-9.19,6.37-1.31,9.06,1.7,3,7.12.7,9.19"/><path class="cls-3" d="M108.41,76.33C103.87,80.39,95.9,78.9,90.6,73s-5.91-14-1.37-18.07,12.51-2.57,17.81,3.34,5.91,14,1.37,18.07"/><path class="cls-9" d="M40.15,83.77C42.87,86,47.48,85,50.45,81.48s3.17-8.26.45-10.54-7.33-1.25-10.3,2.29-3.17,8.26-.45,10.54"/><path class="cls-10" d="M92.49,69.74s5.31-1.26,9.33,1.39"/><path class="cls-7" d="M63,92.45c9.39-5.76,21.47-6.57,31.71.06"/><path class="cls-3" d="M49,75.55c4.43,4.19,12.44,2.9,17.89-2.87s6.27-13.84,1.84-18-12.44-2.9-17.89,2.87-6.27,13.84-1.84,18"/><path class="cls-10" d="M49.65,69.74S55,68.48,59,71.13"/><path class="cls-1" d="M155.14,118c-.86-14.37-13.29-20.17-64.53-22.55,1.21,15.39,1.59,59.92,1.59,59.92s64.58-10.1,62.94-37.37"/><path class="cls-3" d="M93.63,120.57S67.82,117,68.17,106.79c.47-13.32,22.44-11.36,22.44-11.36Z"/><polygon class="cls-6" points="90.61 95.43 92.2 155.35 107.57 152.2 106.43 95.48 90.61 95.43"/><path class="cls-1" d="M0,118c.86-14.37,13.29-20.17,64.53-22.55C63.35,110.82,63,155.35,63,155.35S-1.61,145.25,0,118"/><path class="cls-3" d="M61.54,120.57S87.35,117,87,106.79c-.46-13.32-22.44-11.36-22.44-11.36Z"/><polygon class="cls-6" points="64.56 95.43 62.97 155.35 47.6 152.2 48.74 95.48 64.56 95.43"/></g></g></svg>