<svg xmlns="http://www.w3.org/2000/svg" viewBox="0 0 465.45 205.82"><defs><style>.cls-1{fill:#952b5d;}.cls-2{fill:#fff;}.cls-3{fill:#dfdeee;}.cls-4{fill:#b8587c;}.cls-5{fill:#e7b4bf;}.cls-6{fill:#127cc2;}.cls-7{fill:#e6f3fd;}.cls-8{fill:#292b38;}.cls-9{fill:#64a8df;}.cls-10,.cls-11{fill:none;stroke-linecap:round;stroke-miterlimit:10;stroke-width:2px;}.cls-10{stroke:#292b38;}.cls-11{stroke:#fff;}</style></defs><title>start-slide-bg2</title><g id="Слой_2" data-name="Слой 2"><g id="Слой_1-2" data-name="Слой 1"><path class="cls-1" d="M165.35,142.07a52.71,52.71,0,0,0-29.39,0c-7.87,2.24-8.53,10.26-8.2,14.59s.66,22.45.66,22.45,22.29-10.42,14.09-13.15-8.52-10.9-5.57-14.91c2.77-3.77,24.66-3.77,27.43,0,2.95,4,2.62,12.18-5.57,14.91s14.1,13.15,14.1,13.15.32-18.12.65-22.45-.33-12.35-8.2-14.59"/><path class="cls-1" d="M174.42,183.77a23.88,23.88,0,0,1-11.08,20.17c-3.71,2.35-21.39,2.51-24.94.42a23.89,23.89,0,1,1,36-20.59"/><path class="cls-2" d="M150.24,186.1h-1.3c-1.91.06-3.83.1-5.75.19s-3.9.24-5.85.36a2.13,2.13,0,0,0-1.68,1,1.29,1.29,0,0,0-.21,1,.67.67,0,0,0,.39.56,1.37,1.37,0,0,0,.93.12c.81-.21,1.61-.46,2.43-.63a31.32,31.32,0,0,1,3.17-.54c1.16-.13,2.33-.17,3.49-.2,1.49,0,3,0,4.46,0,.21,0,.29.08.29.29,0,.49,0,1,0,1.47a8.64,8.64,0,0,1-.33,2.26,2.29,2.29,0,0,1-1.45,1.65,3.61,3.61,0,0,1-1.2.21c-.75,0-1.49-.12-2.23-.19a1.74,1.74,0,0,0-.39-.05c-.38,0-.47.26-.3.6q.44.93.84,1.89a.78.78,0,0,0,.47.5,3.74,3.74,0,0,0,.66.16,8.27,8.27,0,0,0,2.58-.12,4.08,4.08,0,0,0,2.73-1.8,5.47,5.47,0,0,0,.81-2.83c.06-1.22,0-2.44,0-3.66,0-.22,0-.28.25-.26l2.64.27a21,21,0,0,1,4.06.88c.77.26,1.54.54,2.33.76a1.87,1.87,0,0,0,1.88-.34,6.26,6.26,0,0,0,1.29-1.47,2.24,2.24,0,0,0,.31-1.56c-.07-.43-.13-.46-.55-.35a12,12,0,0,1-3,.45c-2.39,0-4.78-.13-7.16-.3-.71-.05-1.42-.08-2.14-.1-.24,0-.38-.07-.45-.34a5.13,5.13,0,0,0-.43-1c-.17-.3-.21-.27.1-.54.67-.59,1.35-1.2,2.05-1.76.95-.75,1.92-1.45,2.88-2.18a2.53,2.53,0,0,0,.42-.37A.7.7,0,0,0,157,179a1.76,1.76,0,0,0-.75-.09,20.93,20.93,0,0,1-3.54,0c-1.88,0-3.77,0-5.65,0-.95,0-1.89.11-2.83.19a.87.87,0,0,0-.41.14,1.68,1.68,0,0,0-.78,1.24.52.52,0,0,0,.36.61,2,2,0,0,0,1.2,0c.83-.14,1.65-.32,2.48-.38,1.37-.11,2.74-.14,4.11-.18.59,0,1.19,0,1.79,0a1.12,1.12,0,0,1,.37.17,1.85,1.85,0,0,1-.21.33l-2.36,2.16c-.12.11-.2.11-.33,0a10,10,0,0,0-1.07-.77,5,5,0,0,0-1.89-.75.52.52,0,0,0-.64.45,1,1,0,0,0,.5,1c.32.2.65.39,1,.61a4.65,4.65,0,0,1,1.49,1.47c.16.26.28.54.43.85m1.06-8.92v-.05c2.18.07,4.36.13,6.54.21.85,0,1.7.12,2.56.18.15,0,.21.06.19.23a7.37,7.37,0,0,0-.11.93c0,.88-.1,1.77-.12,2.65a.73.73,0,0,0,.63.8c.57.12,1.13,0,1.21-.69,0-.36.06-.72.11-1.07a15,15,0,0,1,.6-3c.1-.28.23-.55.32-.83a.61.61,0,0,0-.5-.83,2.5,2.5,0,0,0-1,0,6.29,6.29,0,0,1-1.29.14c-1.15,0-2.29-.17-3.44-.22-1.77-.08-3.54-.11-5.31-.16-.22,0-.29-.08-.25-.3.1-.56.18-1.13.27-1.7a1.2,1.2,0,0,0-.53-1.28,1.66,1.66,0,0,0-1.69.14,1.36,1.36,0,0,0-.33,1.37c.11.48.24.95.34,1.44.07.32.05.33-.28.33-1.13,0-2.25,0-3.37,0l-5.49.12a1.12,1.12,0,0,1-.6-.15,1.7,1.7,0,0,0-1.13-.26.82.82,0,0,0-.79,1c.19,1.19.32,2.39.43,3.59.07.67,0,1.35.07,2,0,.32.12.44.44.47a3.49,3.49,0,0,0,.56,0,.88.88,0,0,0,.8-.7,7.63,7.63,0,0,0,.21-1.16c0-.87.07-1.74.1-2.61,0-.17,0-.28.23-.29.54,0,1.08-.12,1.62-.15,2.18-.11,4.37-.22,6.56-.3.82,0,1.64,0,2.46,0"/><path class="cls-2" d="M150.24,186.1c-.15-.31-.27-.59-.43-.85a4.65,4.65,0,0,0-1.49-1.47c-.31-.22-.64-.41-1-.61a1,1,0,0,1-.5-1,.52.52,0,0,1,.64-.45,5,5,0,0,1,1.89.75,10,10,0,0,1,1.07.77c.13.11.21.11.33,0l2.36-2.16a1.85,1.85,0,0,0,.21-.33,1.12,1.12,0,0,0-.37-.17c-.6,0-1.2,0-1.79,0-1.37,0-2.74.07-4.11.18-.83.06-1.65.24-2.48.38a2,2,0,0,1-1.2,0,.52.52,0,0,1-.36-.61,1.68,1.68,0,0,1,.78-1.24.87.87,0,0,1,.41-.14c.94-.08,1.88-.18,2.82-.19,1.89,0,3.78,0,5.66,0a20.93,20.93,0,0,0,3.54,0,1.76,1.76,0,0,1,.75.09.7.7,0,0,1,.32,1.13,2.53,2.53,0,0,1-.42.37c-1,.73-1.93,1.43-2.88,2.18-.7.56-1.38,1.17-2.05,1.76-.31.27-.27.24-.1.54a5.13,5.13,0,0,1,.43,1c.07.27.21.33.45.34.72,0,1.43.05,2.14.1,2.38.17,4.77.31,7.16.3a12,12,0,0,0,3-.45c.42-.11.48-.08.55.35a2.3,2.3,0,0,1-.31,1.56,6.26,6.26,0,0,1-1.29,1.47,1.88,1.88,0,0,1-1.88.34c-.79-.22-1.56-.5-2.33-.76a21,21,0,0,0-4.06-.88l-2.64-.27c-.21,0-.26,0-.25.26,0,1.22,0,2.44,0,3.66a5.47,5.47,0,0,1-.81,2.83,4.07,4.07,0,0,1-2.74,1.8,8.2,8.2,0,0,1-2.57.12,3.74,3.74,0,0,1-.66-.16.82.82,0,0,1-.48-.5c-.26-.64-.54-1.27-.83-1.89-.17-.34-.08-.57.3-.6a1.74,1.74,0,0,1,.39.05c.74.07,1.48.18,2.22.19a3.63,3.63,0,0,0,1.21-.21,2.29,2.29,0,0,0,1.45-1.65,8.64,8.64,0,0,0,.33-2.26c0-.49,0-1,0-1.47,0-.21-.08-.29-.3-.29-1.48,0-3,0-4.45,0-1.16,0-2.33.07-3.49.2a31.32,31.32,0,0,0-3.17.54c-.82.17-1.62.42-2.43.63a1.37,1.37,0,0,1-.93-.12.65.65,0,0,1-.39-.56,1.29,1.29,0,0,1,.21-1,2.13,2.13,0,0,1,1.68-1c1.95-.12,3.9-.26,5.85-.36s3.84-.13,5.75-.19h1.3"/><path class="cls-2" d="M151.3,177.18c-.82,0-1.64,0-2.46,0-2.19.08-4.38.19-6.56.3-.54,0-1.08.1-1.62.15-.2,0-.23.12-.23.29,0,.87-.05,1.74-.1,2.61a7.63,7.63,0,0,1-.21,1.16.88.88,0,0,1-.8.7,3.49,3.49,0,0,1-.56,0c-.32,0-.44-.15-.44-.47,0-.67,0-1.35-.07-2-.11-1.2-.24-2.4-.43-3.59a.82.82,0,0,1,.79-1,1.7,1.7,0,0,1,1.13.26,1.12,1.12,0,0,0,.6.15l5.49-.12c1.12,0,2.24,0,3.37,0,.33,0,.35,0,.28-.33-.1-.49-.23-1-.34-1.44a1.36,1.36,0,0,1,.33-1.37,1.66,1.66,0,0,1,1.69-.14,1.2,1.2,0,0,1,.53,1.28c-.09.57-.17,1.14-.27,1.7,0,.22,0,.3.25.3,1.77.05,3.54.08,5.31.16,1.15.05,2.29.17,3.44.22a6.29,6.29,0,0,0,1.29-.14,2.5,2.5,0,0,1,1,0,.61.61,0,0,1,.5.83c-.09.28-.22.55-.32.83a15,15,0,0,0-.6,3c-.05.35-.07.71-.11,1.07-.08.65-.64.81-1.21.69a.73.73,0,0,1-.63-.8c0-.88.07-1.77.12-2.65a7.37,7.37,0,0,1,.11-.93c0-.17,0-.22-.19-.23-.86-.06-1.71-.15-2.56-.18-2.18-.08-4.36-.14-6.54-.21v.05"/><path class="cls-1" d="M262.37,142.07a52.74,52.74,0,0,0-29.4,0c-7.87,2.24-8.53,10.26-8.2,14.59s.66,22.45.66,22.45,22.29-10.42,14.1-13.15S231,155.06,234,151.05c2.78-3.77,24.66-3.77,27.43,0,2.95,4,2.63,12.18-5.57,14.91s14.1,13.15,14.1,13.15.33-18.12.65-22.45-.32-12.35-8.19-14.59"/><path class="cls-1" d="M271.43,183.77a23.88,23.88,0,0,1-11.08,20.17c-3.7,2.35-21.38,2.51-24.94.42a23.89,23.89,0,1,1,36-20.59"/><path class="cls-2" d="M247.25,186.1H246c-1.92.06-3.84.1-5.76.19s-3.9.24-5.85.36a2.1,2.1,0,0,0-1.67,1,1.25,1.25,0,0,0-.22,1,.67.67,0,0,0,.39.56,1.39,1.39,0,0,0,.94.12c.81-.21,1.61-.46,2.42-.63a31,31,0,0,1,3.18-.54c1.15-.13,2.32-.17,3.48-.2,1.49,0,3,0,4.46,0,.21,0,.29.08.29.29,0,.49,0,1,0,1.47a8.64,8.64,0,0,1-.33,2.26,2.29,2.29,0,0,1-1.45,1.65,3.57,3.57,0,0,1-1.2.21c-.75,0-1.49-.12-2.23-.19a1.74,1.74,0,0,0-.39-.05c-.37,0-.46.26-.3.6.3.62.57,1.25.84,1.89a.8.8,0,0,0,.47.5,3.74,3.74,0,0,0,.66.16,8.27,8.27,0,0,0,2.58-.12,4.05,4.05,0,0,0,2.73-1.8,5.48,5.48,0,0,0,.82-2.83c0-1.22,0-2.44,0-3.66,0-.22,0-.28.25-.26l2.64.27a21,21,0,0,1,4.06.88c.78.26,1.55.54,2.34.76a1.85,1.85,0,0,0,1.87-.34,6,6,0,0,0,1.29-1.47,2.24,2.24,0,0,0,.31-1.56c-.06-.43-.13-.46-.55-.35a11.94,11.94,0,0,1-3,.45c-2.39,0-4.78-.13-7.16-.3-.71-.05-1.42-.08-2.13-.1a.42.42,0,0,1-.46-.34,5.13,5.13,0,0,0-.43-1c-.17-.3-.21-.27.1-.54.68-.59,1.35-1.2,2-1.76,1-.75,1.92-1.45,2.88-2.18a2.53,2.53,0,0,0,.42-.37A.7.7,0,0,0,254,179a1.76,1.76,0,0,0-.75-.09,20.82,20.82,0,0,1-3.53,0c-1.89,0-3.78,0-5.66,0-.94,0-1.88.11-2.83.19a.87.87,0,0,0-.41.14,1.68,1.68,0,0,0-.78,1.24.52.52,0,0,0,.36.61,2,2,0,0,0,1.2,0c.83-.14,1.65-.32,2.48-.38,1.37-.11,2.74-.14,4.11-.18.6,0,1.2,0,1.79,0a1.12,1.12,0,0,1,.37.17,1.85,1.85,0,0,1-.21.33l-2.35,2.16a.22.22,0,0,1-.34,0,9.07,9.07,0,0,0-1.07-.77,4.94,4.94,0,0,0-1.89-.75.52.52,0,0,0-.64.45,1,1,0,0,0,.51,1c.32.2.64.39,1,.61a4.78,4.78,0,0,1,1.5,1.47c.15.26.27.54.42.85m1.06-8.92v-.05c2.18.07,4.36.13,6.54.21.86,0,1.71.12,2.56.18.15,0,.21.06.19.23a7.37,7.37,0,0,0-.11.93c-.05.88-.1,1.77-.12,2.65a.73.73,0,0,0,.63.8c.57.12,1.13,0,1.21-.69,0-.36.06-.72.11-1.07a15.7,15.7,0,0,1,.6-3c.1-.28.24-.55.32-.83a.61.61,0,0,0-.5-.83,2.5,2.5,0,0,0-1,0,6.29,6.29,0,0,1-1.29.14c-1.14,0-2.29-.17-3.43-.22-1.77-.08-3.55-.11-5.32-.16-.22,0-.28-.08-.25-.3.1-.56.18-1.13.27-1.7a1.21,1.21,0,0,0-.52-1.28,1.67,1.67,0,0,0-1.7.14,1.36,1.36,0,0,0-.33,1.37c.11.48.24.95.34,1.44.07.32,0,.33-.28.33-1.13,0-2.25,0-3.37,0l-5.49.12a1.12,1.12,0,0,1-.6-.15,1.68,1.68,0,0,0-1.13-.26.82.82,0,0,0-.79,1c.19,1.19.32,2.39.43,3.59.07.67.05,1.35.07,2,0,.32.12.44.44.47a3.62,3.62,0,0,0,.57,0,.88.88,0,0,0,.79-.7,6.57,6.57,0,0,0,.21-1.16c0-.87.07-1.74.1-2.61,0-.17,0-.28.23-.29.54,0,1.08-.12,1.62-.15,2.19-.11,4.37-.22,6.56-.3.82,0,1.64,0,2.46,0"/><path class="cls-2" d="M247.25,186.1c-.15-.31-.27-.59-.42-.85a4.78,4.78,0,0,0-1.5-1.47c-.31-.22-.63-.41-1-.61a1,1,0,0,1-.51-1,.52.52,0,0,1,.64-.45,4.94,4.94,0,0,1,1.89.75,9.07,9.07,0,0,1,1.07.77.22.22,0,0,0,.34,0l2.35-2.16a1.85,1.85,0,0,0,.21-.33,1.12,1.12,0,0,0-.37-.17c-.59,0-1.19,0-1.79,0-1.37,0-2.74.07-4.11.18-.83.06-1.65.24-2.48.38a2,2,0,0,1-1.2,0,.52.52,0,0,1-.36-.61,1.68,1.68,0,0,1,.78-1.24.87.87,0,0,1,.42-.14c.94-.08,1.88-.18,2.82-.19,1.88,0,3.77,0,5.66,0a20.82,20.82,0,0,0,3.53,0,1.76,1.76,0,0,1,.75.09.7.7,0,0,1,.32,1.13,2.53,2.53,0,0,1-.42.37c-1,.73-1.93,1.43-2.88,2.18-.7.56-1.37,1.17-2,1.76-.31.27-.27.24-.1.54a5.13,5.13,0,0,1,.43,1,.42.42,0,0,0,.46.34c.71,0,1.42.05,2.13.1,2.39.17,4.77.31,7.16.3a11.94,11.94,0,0,0,3-.45c.42-.11.49-.08.55.35a2.29,2.29,0,0,1-.3,1.56,6.3,6.3,0,0,1-1.3,1.47,1.85,1.85,0,0,1-1.87.34c-.79-.22-1.56-.5-2.34-.76a20.85,20.85,0,0,0-4.06-.88l-2.64-.27c-.21,0-.25,0-.25.26,0,1.22,0,2.44,0,3.66a5.48,5.48,0,0,1-.82,2.83,4.05,4.05,0,0,1-2.73,1.8,8.22,8.22,0,0,1-2.57.12,3.84,3.84,0,0,1-.67-.16.8.8,0,0,1-.47-.5c-.27-.64-.54-1.27-.84-1.89-.16-.34-.07-.57.3-.6a1.74,1.74,0,0,1,.39.05c.74.07,1.48.18,2.23.19a3.53,3.53,0,0,0,1.2-.21,2.27,2.27,0,0,0,1.45-1.65,8.64,8.64,0,0,0,.33-2.26c0-.49,0-1,0-1.47,0-.21-.08-.29-.29-.29-1.49,0-3,0-4.46,0-1.16,0-2.33.07-3.48.2a31,31,0,0,0-3.18.54c-.81.17-1.61.42-2.42.63a1.39,1.39,0,0,1-.94-.12.67.67,0,0,1-.39-.56,1.25,1.25,0,0,1,.22-1,2.1,2.1,0,0,1,1.67-1c2-.12,3.9-.26,5.85-.36s3.84-.13,5.76-.19h1.29"/><path class="cls-2" d="M248.31,177.18c-.82,0-1.64,0-2.46,0-2.19.08-4.37.19-6.56.3-.54,0-1.08.1-1.62.15-.2,0-.22.12-.23.29,0,.87-.05,1.74-.1,2.61a6.57,6.57,0,0,1-.21,1.16.88.88,0,0,1-.79.7,3.62,3.62,0,0,1-.57,0c-.32,0-.43-.15-.44-.47,0-.67,0-1.35-.07-2-.11-1.2-.24-2.4-.43-3.59a.82.82,0,0,1,.79-1,1.68,1.68,0,0,1,1.13.26,1.12,1.12,0,0,0,.6.15l5.49-.12c1.12,0,2.24,0,3.37,0,.33,0,.35,0,.28-.33-.1-.49-.23-1-.34-1.44a1.36,1.36,0,0,1,.33-1.37,1.67,1.67,0,0,1,1.7-.14,1.21,1.21,0,0,1,.52,1.28c-.09.57-.17,1.14-.27,1.7,0,.22,0,.3.25.3,1.77.05,3.55.08,5.32.16,1.14.05,2.29.17,3.43.22a6.29,6.29,0,0,0,1.29-.14,2.5,2.5,0,0,1,1,0,.61.61,0,0,1,.5.83c-.08.28-.22.55-.32.83a15.7,15.7,0,0,0-.6,3c-.05.35-.07.71-.11,1.07-.08.65-.64.81-1.21.69a.73.73,0,0,1-.63-.8c0-.88.07-1.77.12-2.65a7.37,7.37,0,0,1,.11-.93c0-.17,0-.22-.19-.23-.85-.06-1.7-.15-2.56-.18-2.18-.08-4.36-.14-6.54-.21v.05"/><path class="cls-1" d="M359.38,142.07a52.74,52.74,0,0,0-29.4,0c-7.87,2.24-8.52,10.26-8.2,14.59s.66,22.45.66,22.45,22.3-10.42,14.1-13.15S328,155.06,331,151.05c2.78-3.77,24.66-3.77,27.43,0,3,4,2.63,12.18-5.57,14.91s14.1,13.15,14.1,13.15.33-18.12.66-22.45-.33-12.35-8.2-14.59"/><path class="cls-1" d="M368.44,183.77a23.88,23.88,0,0,1-11.08,20.17c-3.7,2.35-21.38,2.51-24.94.42a23.89,23.89,0,1,1,36-20.59"/><path class="cls-2" d="M344.26,186.1H343c-1.92.06-3.84.1-5.76.19s-3.89.24-5.84.36a2.1,2.1,0,0,0-1.68,1,1.25,1.25,0,0,0-.22,1,.67.67,0,0,0,.39.56,1.4,1.4,0,0,0,.94.12c.81-.21,1.61-.46,2.43-.63a30.85,30.85,0,0,1,3.17-.54c1.15-.13,2.32-.17,3.48-.2,1.49,0,3,0,4.46,0,.21,0,.29.08.29.29,0,.49,0,1,0,1.47a8.64,8.64,0,0,1-.33,2.26,2.25,2.25,0,0,1-1.45,1.65,3.53,3.53,0,0,1-1.2.21c-.74,0-1.49-.12-2.23-.19a1.74,1.74,0,0,0-.39-.05c-.37,0-.46.26-.3.6.3.62.57,1.25.84,1.89a.8.8,0,0,0,.47.5,3.84,3.84,0,0,0,.67.16,8.22,8.22,0,0,0,2.57-.12,4.05,4.05,0,0,0,2.73-1.8,5.48,5.48,0,0,0,.82-2.83c0-1.22,0-2.44,0-3.66,0-.22,0-.28.25-.26l2.64.27a20.85,20.85,0,0,1,4.06.88c.78.26,1.55.54,2.34.76a1.85,1.85,0,0,0,1.87-.34,6.08,6.08,0,0,0,1.3-1.47,2.36,2.36,0,0,0,.31-1.56c-.07-.43-.14-.46-.56-.35a11.94,11.94,0,0,1-3,.45c-2.39,0-4.77-.13-7.15-.3-.72-.05-1.43-.08-2.14-.1a.42.42,0,0,1-.46-.34,5.13,5.13,0,0,0-.43-1c-.17-.3-.21-.27.1-.54.68-.59,1.35-1.2,2.06-1.76.94-.75,1.91-1.45,2.87-2.18a2.61,2.61,0,0,0,.43-.37A.71.71,0,0,0,351,179a1.74,1.74,0,0,0-.75-.09,20.81,20.81,0,0,1-3.53,0c-1.89,0-3.78,0-5.66,0-.94,0-1.88.11-2.82.19a.91.91,0,0,0-.42.14,1.68,1.68,0,0,0-.78,1.24.52.52,0,0,0,.36.61,2,2,0,0,0,1.21,0c.82-.14,1.64-.32,2.48-.38,1.36-.11,2.73-.14,4.1-.18.6,0,1.2,0,1.8,0a1.18,1.18,0,0,1,.36.17,1.85,1.85,0,0,1-.21.33l-2.35,2.16c-.12.11-.2.11-.33,0a10.1,10.1,0,0,0-1.08-.77,4.89,4.89,0,0,0-1.88-.75.53.53,0,0,0-.65.45,1,1,0,0,0,.51,1c.32.2.64.39.95.61a4.68,4.68,0,0,1,1.5,1.47c.15.26.27.54.42.85m1.06-8.92v-.05c2.18.07,4.36.13,6.54.21.85,0,1.7.12,2.55.18.15,0,.22.06.19.23s-.09.62-.11.93c-.05.88-.1,1.77-.11,2.65a.73.73,0,0,0,.62.8c.57.12,1.13,0,1.21-.69,0-.36.07-.72.11-1.07a15.72,15.72,0,0,1,.61-3c.09-.28.23-.55.31-.83a.61.61,0,0,0-.5-.83,2.5,2.5,0,0,0-1,0,6.29,6.29,0,0,1-1.29.14c-1.14,0-2.29-.17-3.43-.22-1.77-.08-3.54-.11-5.32-.16-.22,0-.28-.08-.25-.3.1-.56.18-1.13.27-1.7a1.21,1.21,0,0,0-.52-1.28,1.67,1.67,0,0,0-1.7.14,1.38,1.38,0,0,0-.33,1.37c.11.48.24.95.35,1.44.06.32,0,.33-.29.33-1.12,0-2.25,0-3.37,0l-5.49.12a1.12,1.12,0,0,1-.6-.15,1.67,1.67,0,0,0-1.13-.26.82.82,0,0,0-.79,1c.2,1.19.32,2.39.44,3.59.06.67,0,1.35.06,2,0,.32.12.44.44.47a3.62,3.62,0,0,0,.57,0,.86.86,0,0,0,.79-.7,5.77,5.77,0,0,0,.21-1.16c.06-.87.08-1.74.1-2.61,0-.17,0-.28.23-.29.54,0,1.08-.12,1.62-.15,2.19-.11,4.37-.22,6.56-.3.82,0,1.64,0,2.46,0"/><path class="cls-2" d="M344.26,186.1c-.15-.31-.27-.59-.42-.85a4.68,4.68,0,0,0-1.5-1.47c-.31-.22-.63-.41-.95-.61a1,1,0,0,1-.51-1,.53.53,0,0,1,.65-.45,4.89,4.89,0,0,1,1.88.75,10.1,10.1,0,0,1,1.08.77c.13.11.21.11.33,0l2.35-2.16a1.85,1.85,0,0,0,.21-.33,1.18,1.18,0,0,0-.36-.17c-.6,0-1.2,0-1.8,0-1.37,0-2.74.07-4.1.18-.84.06-1.66.24-2.48.38a2,2,0,0,1-1.21,0,.53.53,0,0,1-.36-.61,1.66,1.66,0,0,1,.79-1.24.84.84,0,0,1,.41-.14c.94-.08,1.88-.18,2.82-.19,1.89,0,3.77,0,5.66,0a20.8,20.8,0,0,0,3.53,0,1.74,1.74,0,0,1,.75.09.71.71,0,0,1,.33,1.13,2.61,2.61,0,0,1-.43.37c-.95.73-1.93,1.43-2.87,2.18-.71.56-1.38,1.17-2.06,1.76-.31.27-.27.24-.1.54a5.13,5.13,0,0,1,.43,1,.42.42,0,0,0,.46.34c.71,0,1.42.05,2.14.1,2.38.17,4.76.31,7.15.3a12.09,12.09,0,0,0,3-.45c.41-.11.48-.08.55.35a2.36,2.36,0,0,1-.31,1.56,6.08,6.08,0,0,1-1.3,1.47,1.85,1.85,0,0,1-1.87.34c-.79-.22-1.56-.5-2.34-.76a20.85,20.85,0,0,0-4.06-.88c-.87-.1-1.76-.18-2.64-.27-.21,0-.25,0-.25.26,0,1.22,0,2.44,0,3.66a5.48,5.48,0,0,1-.82,2.83,4.05,4.05,0,0,1-2.73,1.8,8.22,8.22,0,0,1-2.57.12,3.84,3.84,0,0,1-.67-.16.8.8,0,0,1-.47-.5c-.27-.64-.54-1.27-.84-1.89-.16-.34-.07-.57.3-.6a1.74,1.74,0,0,1,.39.05c.75.07,1.49.18,2.23.19a3.53,3.53,0,0,0,1.2-.21,2.25,2.25,0,0,0,1.45-1.65,8.24,8.24,0,0,0,.33-2.26c0-.49,0-1,0-1.47,0-.21-.08-.29-.29-.29-1.49,0-3,0-4.46,0-1.16,0-2.33.07-3.48.2a30.85,30.85,0,0,0-3.17.54c-.82.17-1.62.42-2.43.63a1.4,1.4,0,0,1-.94-.12.67.67,0,0,1-.39-.56,1.25,1.25,0,0,1,.22-1,2.1,2.1,0,0,1,1.68-1c1.95-.12,3.89-.26,5.84-.36s3.84-.13,5.76-.19h1.29"/><path class="cls-2" d="M345.32,177.18c-.82,0-1.64,0-2.46,0-2.19.08-4.37.19-6.56.3-.54,0-1.08.1-1.62.15-.2,0-.22.12-.23.29,0,.87,0,1.74-.1,2.61a5.77,5.77,0,0,1-.21,1.16.86.86,0,0,1-.79.7,3.62,3.62,0,0,1-.57,0c-.32,0-.43-.15-.44-.47,0-.67,0-1.35-.06-2-.12-1.2-.24-2.4-.44-3.59a.82.82,0,0,1,.79-1,1.67,1.67,0,0,1,1.13.26,1.12,1.12,0,0,0,.6.15l5.49-.12c1.12,0,2.25,0,3.37,0,.33,0,.35,0,.29-.33-.11-.49-.24-1-.35-1.44a1.38,1.38,0,0,1,.33-1.37,1.67,1.67,0,0,1,1.7-.14,1.21,1.21,0,0,1,.52,1.28c-.09.57-.17,1.14-.27,1.7,0,.22,0,.3.25.3,1.78.05,3.55.08,5.32.16,1.14.05,2.29.17,3.43.22a6.29,6.29,0,0,0,1.29-.14,2.5,2.5,0,0,1,1,0,.61.61,0,0,1,.5.83c-.08.28-.22.55-.31.83a15.72,15.72,0,0,0-.61,3c0,.35-.07.71-.11,1.07-.08.65-.64.81-1.21.69a.73.73,0,0,1-.62-.8c0-.88.06-1.77.11-2.65,0-.31.06-.62.11-.93s0-.22-.19-.23c-.85-.06-1.7-.15-2.55-.18-2.18-.08-4.36-.14-6.54-.21v.05"/><path class="cls-1" d="M456.39,142.07a52.74,52.74,0,0,0-29.4,0c-7.87,2.24-8.52,10.26-8.19,14.59s.65,22.45.65,22.45,22.3-10.42,14.1-13.15S425,155.06,428,151.05c2.77-3.77,24.65-3.77,27.43,0,2.95,4,2.62,12.18-5.58,14.91s14.1,13.15,14.1,13.15.33-18.12.66-22.45-.33-12.35-8.2-14.59"/><path class="cls-1" d="M465.45,183.77a23.88,23.88,0,0,1-11.08,20.17c-3.7,2.35-21.38,2.51-24.94.42a23.89,23.89,0,1,1,36-20.59"/><path class="cls-2" d="M441.27,186.1H440c-1.92.06-3.84.1-5.75.19s-3.9.24-5.85.36a2.1,2.1,0,0,0-1.68,1,1.25,1.25,0,0,0-.22,1,.67.67,0,0,0,.39.56,1.4,1.4,0,0,0,.94.12c.81-.21,1.61-.46,2.43-.63a31.32,31.32,0,0,1,3.17-.54c1.16-.13,2.32-.17,3.49-.2,1.48,0,3,0,4.45,0,.21,0,.3.08.3.29,0,.49,0,1,0,1.47a7.87,7.87,0,0,1-.33,2.26,2.25,2.25,0,0,1-1.45,1.65,3.53,3.53,0,0,1-1.2.21c-.74,0-1.48-.12-2.22-.19a1.81,1.81,0,0,0-.39-.05c-.38,0-.47.26-.31.6q.45.93.84,1.89a.8.8,0,0,0,.47.5,3.84,3.84,0,0,0,.67.16,8.22,8.22,0,0,0,2.57-.12,4.1,4.1,0,0,0,2.74-1.8,5.47,5.47,0,0,0,.81-2.83c.05-1.22,0-2.44,0-3.66,0-.22,0-.28.25-.26.88.09,1.77.17,2.65.27a20.75,20.75,0,0,1,4.05.88c.78.26,1.55.54,2.34.76a1.85,1.85,0,0,0,1.87-.34,6.08,6.08,0,0,0,1.3-1.47,2.3,2.3,0,0,0,.31-1.56c-.07-.43-.13-.46-.55-.35a12.09,12.09,0,0,1-3,.45c-2.39,0-4.77-.13-7.15-.3-.71-.05-1.43-.08-2.14-.1a.42.42,0,0,1-.46-.34,5.13,5.13,0,0,0-.43-1c-.17-.3-.21-.27.1-.54.68-.59,1.35-1.2,2.06-1.76.94-.75,1.92-1.45,2.88-2.18a2.53,2.53,0,0,0,.42-.37A.71.71,0,0,0,448,179a1.72,1.72,0,0,0-.74-.09,20.93,20.93,0,0,1-3.54,0c-1.89,0-3.77,0-5.66,0-.94,0-1.88.11-2.82.19a.87.87,0,0,0-.41.14,1.66,1.66,0,0,0-.79,1.24.54.54,0,0,0,.36.61,2,2,0,0,0,1.21,0c.82-.14,1.65-.32,2.48-.38,1.36-.11,2.73-.14,4.1-.18.6,0,1.2,0,1.8,0a1.18,1.18,0,0,1,.36.17,1.42,1.42,0,0,1-.21.33l-2.35,2.16c-.12.11-.2.11-.33,0a10.1,10.1,0,0,0-1.08-.77,4.89,4.89,0,0,0-1.88-.75.53.53,0,0,0-.65.45,1,1,0,0,0,.51,1c.32.2.64.39,1,.61a4.68,4.68,0,0,1,1.5,1.47c.15.26.27.54.42.85m1.07-8.92v-.05c2.18.07,4.36.13,6.54.21.85,0,1.7.12,2.55.18.15,0,.22.06.19.23s-.09.62-.11.93c-.05.88-.09,1.77-.11,2.65a.73.73,0,0,0,.62.8c.57.12,1.13,0,1.21-.69,0-.36.07-.72.12-1.07a15,15,0,0,1,.6-3c.09-.28.23-.55.31-.83a.6.6,0,0,0-.49-.83,2.55,2.55,0,0,0-1,0,6.19,6.19,0,0,1-1.28.14c-1.15,0-2.29-.17-3.44-.22-1.77-.08-3.54-.11-5.31-.16-.23,0-.29-.08-.25-.3l.27-1.7a1.23,1.23,0,0,0-.53-1.28,1.67,1.67,0,0,0-1.7.14,1.38,1.38,0,0,0-.33,1.37c.11.48.25.95.35,1.44.07.32.05.33-.29.33-1.12,0-2.25,0-3.37,0-1.83,0-3.66.09-5.48.12a1.13,1.13,0,0,1-.61-.15,1.66,1.66,0,0,0-1.12-.26.81.81,0,0,0-.79,1c.19,1.19.32,2.39.43,3.59.06.67,0,1.35.06,2,0,.32.13.44.45.47a3.49,3.49,0,0,0,.56,0,.88.88,0,0,0,.8-.7,6.55,6.55,0,0,0,.2-1.16c.06-.87.08-1.74.1-2.61,0-.17,0-.28.24-.29.54,0,1.07-.12,1.61-.15,2.19-.11,4.38-.22,6.56-.3.82,0,1.65,0,2.47,0"/><path class="cls-2" d="M441.27,186.1c-.15-.31-.27-.59-.42-.85a4.68,4.68,0,0,0-1.5-1.47c-.31-.22-.63-.41-1-.61a1,1,0,0,1-.51-1,.53.53,0,0,1,.65-.45,4.89,4.89,0,0,1,1.88.75,10.1,10.1,0,0,1,1.08.77c.13.11.21.11.33,0l2.35-2.16a1.42,1.42,0,0,0,.21-.33,1.18,1.18,0,0,0-.36-.17c-.6,0-1.2,0-1.8,0-1.37,0-2.74.07-4.1.18-.83.06-1.66.24-2.48.38a2,2,0,0,1-1.21,0,.54.54,0,0,1-.36-.61,1.66,1.66,0,0,1,.79-1.24.87.87,0,0,1,.41-.14c.94-.08,1.88-.18,2.82-.19,1.89,0,3.77,0,5.66,0a20.93,20.93,0,0,0,3.54,0,1.72,1.72,0,0,1,.74.09.71.71,0,0,1,.33,1.13,3,3,0,0,1-.42.37c-1,.73-1.94,1.43-2.88,2.18-.71.56-1.38,1.17-2.06,1.76-.31.27-.27.24-.1.54a5.13,5.13,0,0,1,.43,1,.42.42,0,0,0,.46.34c.71,0,1.43.05,2.14.1,2.38.17,4.76.31,7.15.3a12.09,12.09,0,0,0,3-.45c.42-.11.48-.08.55.35a2.36,2.36,0,0,1-.31,1.56,6.08,6.08,0,0,1-1.3,1.47,1.85,1.85,0,0,1-1.87.34c-.79-.22-1.56-.5-2.34-.76a20.75,20.75,0,0,0-4.05-.88c-.88-.1-1.77-.18-2.65-.27-.21,0-.25,0-.25.26,0,1.22.05,2.44,0,3.66a5.47,5.47,0,0,1-.81,2.83,4.1,4.1,0,0,1-2.74,1.8,8.22,8.22,0,0,1-2.57.12,3.84,3.84,0,0,1-.67-.16.8.8,0,0,1-.47-.5q-.39-1-.84-1.89c-.16-.34-.07-.57.31-.6a1.81,1.81,0,0,1,.39.05c.74.07,1.48.18,2.22.19a3.53,3.53,0,0,0,1.2-.21,2.25,2.25,0,0,0,1.45-1.65,7.87,7.87,0,0,0,.33-2.26c0-.49,0-1,0-1.47,0-.21-.08-.29-.29-.29-1.48,0-3,0-4.45,0-1.17,0-2.33.07-3.49.2a30.85,30.85,0,0,0-3.17.54c-.82.17-1.62.42-2.43.63a1.4,1.4,0,0,1-.94-.12.67.67,0,0,1-.39-.56,1.25,1.25,0,0,1,.22-1,2.1,2.1,0,0,1,1.68-1c1.95-.12,3.9-.26,5.85-.36s3.83-.13,5.75-.19h1.29"/><path class="cls-2" d="M442.34,177.18c-.82,0-1.65,0-2.47,0-2.18.08-4.37.19-6.56.3-.54,0-1.07.1-1.61.15-.21,0-.23.12-.24.29,0,.87,0,1.74-.1,2.61a6.55,6.55,0,0,1-.2,1.16.88.88,0,0,1-.8.7,3.49,3.49,0,0,1-.56,0c-.32,0-.44-.15-.45-.47,0-.67,0-1.35-.06-2-.11-1.2-.24-2.4-.43-3.59a.81.81,0,0,1,.79-1,1.66,1.66,0,0,1,1.12.26,1.13,1.13,0,0,0,.61.15c1.82,0,3.65-.09,5.48-.12,1.12,0,2.25,0,3.37,0,.34,0,.36,0,.29-.33-.1-.49-.24-1-.35-1.44a1.38,1.38,0,0,1,.33-1.37,1.67,1.67,0,0,1,1.7-.14,1.23,1.23,0,0,1,.53,1.28l-.27,1.7c0,.22,0,.3.25.3,1.77.05,3.54.08,5.31.16,1.15.05,2.29.17,3.44.22a6.19,6.19,0,0,0,1.28-.14,2.55,2.55,0,0,1,1,0,.6.6,0,0,1,.49.83c-.08.28-.22.55-.31.83a15,15,0,0,0-.6,3c-.05.35-.07.71-.12,1.07-.08.65-.64.81-1.21.69a.73.73,0,0,1-.62-.8c0-.88.06-1.77.11-2.65,0-.31.06-.62.11-.93s0-.22-.19-.23c-.85-.06-1.7-.15-2.55-.18-2.18-.08-4.36-.14-6.54-.21v.05"/><path class="cls-3" d="M225.38,135.39c0,2.93-13,5.31-28.94,5.31s-28.93-2.38-28.93-5.31,13-5.32,28.93-5.32,28.94,2.38,28.94,5.32"/><path class="cls-4" d="M211.45,72.09a52.74,52.74,0,0,0-29.4,0c-7.87,2.24-8.52,10.26-8.2,14.59s.66,22.45.66,22.45S196.81,98.7,188.61,96s-8.52-10.9-5.57-14.91c2.77-3.77,24.65-3.77,27.43,0,2.95,4,2.62,12.18-5.58,14.91S219,109.13,219,109.13s.33-18.12.66-22.45-.33-12.35-8.2-14.59"/><path class="cls-4" d="M220.51,113.79A23.88,23.88,0,0,1,209.43,134c-3.7,2.35-21.38,2.51-24.94.41a23.89,23.89,0,1,1,36-20.58"/><path class="cls-2" d="M196.33,116.12c-.48,0-.88,0-1.29,0-1.92.06-3.84.1-5.75.19s-3.9.24-5.85.36a2.1,2.1,0,0,0-1.68,1,1.25,1.25,0,0,0-.22.95.68.68,0,0,0,.39.56,1.34,1.34,0,0,0,.94.11c.81-.2,1.61-.45,2.43-.62a30.85,30.85,0,0,1,3.17-.54c1.15-.13,2.32-.17,3.49-.2,1.48,0,3,0,4.45,0,.21,0,.29.08.3.29,0,.49,0,1,0,1.47a7.87,7.87,0,0,1-.33,2.26,2.25,2.25,0,0,1-1.45,1.65,3.79,3.79,0,0,1-1.2.21c-.74,0-1.48-.12-2.22-.2a2.87,2.87,0,0,0-.39,0c-.38,0-.47.26-.31.6.3.62.58,1.25.84,1.88a.78.78,0,0,0,.47.5,3.11,3.11,0,0,0,.67.16,8.21,8.21,0,0,0,2.57-.11,4.1,4.1,0,0,0,2.74-1.8,5.52,5.52,0,0,0,.81-2.83c.05-1.22,0-2.44,0-3.67,0-.21,0-.27.25-.25.88.09,1.77.17,2.65.27a20.75,20.75,0,0,1,4.05.88c.78.26,1.55.54,2.34.75a1.85,1.85,0,0,0,1.87-.33,6.27,6.27,0,0,0,1.3-1.47,2.31,2.31,0,0,0,.31-1.56c-.07-.43-.13-.46-.55-.35a11.62,11.62,0,0,1-3,.44c-2.39,0-4.77-.12-7.15-.29-.71,0-1.43-.08-2.14-.11a.4.4,0,0,1-.46-.33,5.13,5.13,0,0,0-.43-1c-.17-.3-.21-.27.1-.54.68-.59,1.35-1.2,2.06-1.76.94-.75,1.92-1.46,2.88-2.18a3,3,0,0,0,.42-.37.71.71,0,0,0-.33-1.13,1.72,1.72,0,0,0-.74-.09,20.93,20.93,0,0,1-3.54,0c-1.89,0-3.77,0-5.66,0-.94,0-1.88.12-2.82.2a.94.94,0,0,0-.41.13,1.7,1.7,0,0,0-.79,1.25.55.55,0,0,0,.36.61,2,2,0,0,0,1.21,0c.82-.14,1.65-.32,2.48-.39,1.36-.1,2.73-.13,4.1-.17.6,0,1.2,0,1.8,0a1.42,1.42,0,0,1,.36.16,1.63,1.63,0,0,1-.21.34l-2.35,2.16c-.12.11-.2.1-.33,0a11.84,11.84,0,0,0-1.08-.78,5,5,0,0,0-1.88-.74.53.53,0,0,0-.65.45,1,1,0,0,0,.51,1c.32.2.64.39.95.6a4.89,4.89,0,0,1,1.5,1.47c.15.27.27.55.42.86m1.07-8.92v0c2.18.07,4.36.13,6.54.21.85,0,1.7.12,2.55.18.15,0,.22.06.19.23s-.09.62-.11.93c0,.88-.1,1.77-.11,2.65a.73.73,0,0,0,.62.8c.57.12,1.13,0,1.21-.69.05-.36.07-.72.12-1.08a14.85,14.85,0,0,1,.6-2.95c.09-.28.23-.55.31-.83a.61.61,0,0,0-.5-.83,2.51,2.51,0,0,0-1,0,6.19,6.19,0,0,1-1.28.14c-1.15,0-2.29-.18-3.44-.22-1.77-.08-3.54-.12-5.31-.16-.23,0-.29-.08-.25-.3l.27-1.7a1.26,1.26,0,0,0-.53-1.29,1.68,1.68,0,0,0-1.7.15,1.38,1.38,0,0,0-.33,1.37c.11.48.25.95.35,1.43.07.33,0,.33-.29.34-1.12,0-2.25,0-3.37,0-1.83,0-3.66.09-5.49.12a1.12,1.12,0,0,1-.6-.16,1.71,1.71,0,0,0-1.12-.25.81.81,0,0,0-.79,1c.19,1.19.32,2.39.43,3.59.06.67,0,1.34.06,2,0,.32.12.44.44.47a2.72,2.72,0,0,0,.57,0,.86.86,0,0,0,.8-.69,6.55,6.55,0,0,0,.2-1.16c.06-.87.08-1.74.1-2.61,0-.17,0-.28.24-.3.53,0,1.07-.11,1.61-.14,2.19-.11,4.38-.22,6.56-.3.82,0,1.64,0,2.47,0"/><path class="cls-2" d="M196.33,116.12c-.15-.31-.27-.59-.42-.86a4.89,4.89,0,0,0-1.5-1.47c-.31-.21-.63-.4-.95-.6a1,1,0,0,1-.51-1,.53.53,0,0,1,.65-.45,5,5,0,0,1,1.88.74,11.84,11.84,0,0,1,1.08.78c.13.1.21.11.33,0l2.35-2.16a1.3,1.3,0,0,0,.21-.34,1.42,1.42,0,0,0-.36-.16c-.6,0-1.2,0-1.8,0-1.37,0-2.74.07-4.1.17-.83.07-1.66.25-2.48.39a2,2,0,0,1-1.21,0,.56.56,0,0,1-.36-.61,1.72,1.72,0,0,1,.79-1.25,1,1,0,0,1,.41-.13c.94-.08,1.88-.18,2.82-.2,1.89,0,3.77,0,5.66,0a20.93,20.93,0,0,0,3.54,0,1.72,1.72,0,0,1,.74.09.71.71,0,0,1,.33,1.13,3,3,0,0,1-.42.37c-1,.72-1.94,1.43-2.88,2.18-.71.56-1.38,1.17-2.06,1.76-.31.27-.27.24-.1.54a5.13,5.13,0,0,1,.43,1,.4.4,0,0,0,.46.33c.71,0,1.43.06,2.14.11,2.38.17,4.76.3,7.15.29a11.62,11.62,0,0,0,3-.44c.42-.11.48-.08.55.35a2.31,2.31,0,0,1-.31,1.56,6.27,6.27,0,0,1-1.3,1.47,1.85,1.85,0,0,1-1.87.33c-.79-.21-1.56-.49-2.34-.75a20.75,20.75,0,0,0-4.05-.88c-.88-.1-1.77-.18-2.65-.27-.21,0-.25,0-.25.25,0,1.23.05,2.45,0,3.67a5.52,5.52,0,0,1-.81,2.83,4.1,4.1,0,0,1-2.74,1.8,8.21,8.21,0,0,1-2.57.11,3.11,3.11,0,0,1-.67-.16.78.78,0,0,1-.47-.5c-.26-.63-.54-1.26-.84-1.88-.16-.34-.07-.57.31-.6a2.72,2.72,0,0,1,.39,0c.74.08,1.48.18,2.22.2a3.79,3.79,0,0,0,1.2-.21,2.25,2.25,0,0,0,1.45-1.65,7.87,7.87,0,0,0,.33-2.26c0-.49,0-1,0-1.47,0-.21-.09-.29-.3-.29-1.48,0-3,0-4.45,0-1.17,0-2.33.07-3.49.2a30.85,30.85,0,0,0-3.17.54c-.82.17-1.62.42-2.43.62a1.34,1.34,0,0,1-.94-.11.68.68,0,0,1-.39-.56,1.25,1.25,0,0,1,.22-.95,2.1,2.1,0,0,1,1.68-1c1.95-.12,3.9-.26,5.85-.36s3.83-.13,5.75-.19c.41,0,.82,0,1.29,0"/><path class="cls-2" d="M197.4,107.2c-.83,0-1.65,0-2.47,0-2.18.08-4.37.19-6.56.3-.54,0-1.08.1-1.61.14-.21,0-.23.13-.24.3,0,.87,0,1.74-.1,2.61a6.55,6.55,0,0,1-.2,1.16.86.86,0,0,1-.8.69,2.72,2.72,0,0,1-.57,0c-.32,0-.43-.15-.44-.47,0-.68,0-1.35-.06-2-.11-1.2-.24-2.4-.43-3.59a.81.81,0,0,1,.79-1,1.71,1.71,0,0,1,1.12.25,1.12,1.12,0,0,0,.6.16c1.83,0,3.66-.09,5.49-.12,1.12,0,2.25,0,3.37,0,.33,0,.36,0,.29-.34-.1-.48-.24-1-.35-1.43a1.38,1.38,0,0,1,.33-1.37,1.68,1.68,0,0,1,1.7-.15,1.26,1.26,0,0,1,.53,1.29l-.27,1.7c0,.22,0,.29.25.3,1.77,0,3.54.08,5.31.16,1.15,0,2.29.17,3.44.22a6.19,6.19,0,0,0,1.28-.14,2.51,2.51,0,0,1,1,0,.61.61,0,0,1,.5.83c-.08.28-.22.55-.31.83a14.85,14.85,0,0,0-.6,2.95c0,.36-.07.72-.12,1.08-.08.65-.64.81-1.21.69a.73.73,0,0,1-.62-.8c0-.88.06-1.77.11-2.65,0-.31.06-.62.11-.93s0-.22-.19-.23c-.85-.06-1.7-.15-2.55-.18-2.18-.08-4.36-.14-6.54-.21v0"/><path class="cls-3" d="M325.38,135.39c0,2.93-13,5.31-28.94,5.31s-28.93-2.38-28.93-5.31,12.95-5.32,28.93-5.32,28.94,2.38,28.94,5.32"/><path class="cls-4" d="M311.45,72.09a52.74,52.74,0,0,0-29.4,0c-7.87,2.24-8.52,10.26-8.2,14.59s.66,22.45.66,22.45S296.81,98.7,288.61,96s-8.52-10.9-5.57-14.91c2.77-3.77,24.65-3.77,27.43,0,2.95,4,2.62,12.18-5.58,14.91S319,109.13,319,109.13s.33-18.12.66-22.45-.33-12.35-8.2-14.59"/><path class="cls-4" d="M320.51,113.79A23.88,23.88,0,0,1,309.43,134c-3.7,2.35-21.38,2.51-24.94.41a23.89,23.89,0,1,1,36-20.58"/><path class="cls-2" d="M296.33,116.12c-.48,0-.88,0-1.29,0-1.92.06-3.84.1-5.75.19s-3.9.24-5.85.36a2.1,2.1,0,0,0-1.68,1,1.25,1.25,0,0,0-.22.95.68.68,0,0,0,.39.56,1.34,1.34,0,0,0,.94.11c.81-.2,1.61-.45,2.43-.62a30.85,30.85,0,0,1,3.17-.54c1.15-.13,2.32-.17,3.49-.2,1.48,0,3,0,4.45,0,.21,0,.29.08.3.29,0,.49,0,1,0,1.47a7.87,7.87,0,0,1-.33,2.26,2.25,2.25,0,0,1-1.45,1.65,3.79,3.79,0,0,1-1.2.21c-.74,0-1.48-.12-2.22-.2a2.87,2.87,0,0,0-.39,0c-.38,0-.47.26-.31.6.3.62.58,1.25.84,1.88a.78.78,0,0,0,.47.5,3.11,3.11,0,0,0,.67.16,8.21,8.21,0,0,0,2.57-.11,4.1,4.1,0,0,0,2.74-1.8,5.52,5.52,0,0,0,.81-2.83c.05-1.22,0-2.44,0-3.67,0-.21,0-.27.25-.25.88.09,1.77.17,2.65.27a20.75,20.75,0,0,1,4.05.88c.78.26,1.55.54,2.34.75a1.85,1.85,0,0,0,1.87-.33,6.27,6.27,0,0,0,1.3-1.47,2.31,2.31,0,0,0,.31-1.56c-.07-.43-.13-.46-.55-.35a11.62,11.62,0,0,1-3,.44c-2.39,0-4.77-.12-7.15-.29-.71,0-1.43-.08-2.14-.11a.4.4,0,0,1-.46-.33,5.13,5.13,0,0,0-.43-1c-.17-.3-.21-.27.1-.54.68-.59,1.35-1.2,2.06-1.76.94-.75,1.92-1.46,2.88-2.18a3,3,0,0,0,.42-.37.71.71,0,0,0-.33-1.13,1.72,1.72,0,0,0-.74-.09,20.93,20.93,0,0,1-3.54,0c-1.89,0-3.77,0-5.66,0-.94,0-1.88.12-2.82.2a.94.94,0,0,0-.41.13,1.7,1.7,0,0,0-.79,1.25.55.55,0,0,0,.36.61,2,2,0,0,0,1.21,0c.82-.14,1.65-.32,2.48-.39,1.36-.1,2.73-.13,4.1-.17.6,0,1.2,0,1.8,0a1.42,1.42,0,0,1,.36.16,1.63,1.63,0,0,1-.21.34l-2.35,2.16c-.12.11-.2.1-.33,0a11.84,11.84,0,0,0-1.08-.78,5,5,0,0,0-1.88-.74.53.53,0,0,0-.65.45,1,1,0,0,0,.51,1c.32.2.64.39,1,.6a4.89,4.89,0,0,1,1.5,1.47c.15.27.27.55.42.86m1.07-8.92v0c2.18.07,4.36.13,6.54.21.85,0,1.7.12,2.55.18.15,0,.22.06.19.23s-.09.62-.11.93c-.05.88-.1,1.77-.11,2.65a.73.73,0,0,0,.62.8c.57.12,1.13,0,1.21-.69,0-.36.07-.72.12-1.08a14.85,14.85,0,0,1,.6-2.95c.09-.28.23-.55.31-.83a.61.61,0,0,0-.5-.83,2.51,2.51,0,0,0-1,0,6.19,6.19,0,0,1-1.28.14c-1.15,0-2.29-.18-3.44-.22-1.77-.08-3.54-.12-5.31-.16-.23,0-.29-.08-.25-.3l.27-1.7a1.26,1.26,0,0,0-.53-1.29,1.68,1.68,0,0,0-1.7.15,1.38,1.38,0,0,0-.33,1.37c.11.48.25.95.35,1.43.07.33,0,.33-.29.34-1.12,0-2.25,0-3.37,0-1.83,0-3.66.09-5.49.12a1.12,1.12,0,0,1-.6-.16,1.71,1.71,0,0,0-1.12-.25.81.81,0,0,0-.79,1c.19,1.19.32,2.39.43,3.59.06.67,0,1.34.06,2,0,.32.12.44.44.47a2.72,2.72,0,0,0,.57,0,.86.86,0,0,0,.8-.69,6.55,6.55,0,0,0,.2-1.16c.06-.87.08-1.74.1-2.61,0-.17,0-.28.24-.3.53,0,1.07-.11,1.61-.14,2.19-.11,4.38-.22,6.56-.3.82,0,1.64,0,2.47,0"/><path class="cls-2" d="M296.33,116.12c-.15-.31-.27-.59-.42-.86a4.89,4.89,0,0,0-1.5-1.47c-.31-.21-.63-.4-1-.6a1,1,0,0,1-.51-1,.53.53,0,0,1,.65-.45,5,5,0,0,1,1.88.74,11.84,11.84,0,0,1,1.08.78c.13.1.21.11.33,0l2.35-2.16a1.3,1.3,0,0,0,.21-.34,1.42,1.42,0,0,0-.36-.16c-.6,0-1.2,0-1.8,0-1.37,0-2.74.07-4.1.17-.83.07-1.66.25-2.48.39a2,2,0,0,1-1.21,0,.56.56,0,0,1-.36-.61,1.72,1.72,0,0,1,.79-1.25,1,1,0,0,1,.41-.13c.94-.08,1.88-.18,2.82-.2,1.89,0,3.77,0,5.66,0a20.93,20.93,0,0,0,3.54,0,1.72,1.72,0,0,1,.74.09.71.71,0,0,1,.33,1.13,3,3,0,0,1-.42.37c-1,.72-1.94,1.43-2.88,2.18-.71.56-1.38,1.17-2.06,1.76-.31.27-.27.24-.1.54a5.13,5.13,0,0,1,.43,1,.4.4,0,0,0,.46.33c.71,0,1.43.06,2.14.11,2.38.17,4.76.3,7.15.29a11.62,11.62,0,0,0,3-.44c.42-.11.48-.08.55.35a2.31,2.31,0,0,1-.31,1.56,6.27,6.27,0,0,1-1.3,1.47,1.85,1.85,0,0,1-1.87.33c-.79-.21-1.56-.49-2.34-.75a20.75,20.75,0,0,0-4.05-.88c-.88-.1-1.77-.18-2.65-.27-.21,0-.25,0-.25.25,0,1.23.05,2.45,0,3.67a5.52,5.52,0,0,1-.81,2.83,4.1,4.1,0,0,1-2.74,1.8,8.21,8.21,0,0,1-2.57.11,3.11,3.11,0,0,1-.67-.16.78.78,0,0,1-.47-.5c-.26-.63-.54-1.26-.84-1.88-.16-.34-.07-.57.31-.6a2.72,2.72,0,0,1,.39,0c.74.08,1.48.18,2.22.2a3.79,3.79,0,0,0,1.2-.21,2.25,2.25,0,0,0,1.45-1.65,7.87,7.87,0,0,0,.33-2.26c0-.49,0-1,0-1.47,0-.21-.09-.29-.3-.29-1.48,0-3,0-4.45,0-1.17,0-2.33.07-3.49.2a30.85,30.85,0,0,0-3.17.54c-.82.17-1.62.42-2.43.62a1.34,1.34,0,0,1-.94-.11.68.68,0,0,1-.39-.56,1.25,1.25,0,0,1,.22-.95,2.1,2.1,0,0,1,1.68-1c1.95-.12,3.9-.26,5.85-.36s3.83-.13,5.75-.19c.41,0,.82,0,1.29,0"/><path class="cls-2" d="M297.4,107.2c-.83,0-1.65,0-2.47,0-2.18.08-4.37.19-6.56.3-.54,0-1.08.1-1.61.14-.21,0-.23.13-.24.3,0,.87,0,1.74-.1,2.61a6.55,6.55,0,0,1-.2,1.16.86.86,0,0,1-.8.69,2.72,2.72,0,0,1-.57,0c-.32,0-.43-.15-.44-.47,0-.68,0-1.35-.06-2-.11-1.2-.24-2.4-.43-3.59a.81.81,0,0,1,.79-1,1.71,1.71,0,0,1,1.12.25,1.12,1.12,0,0,0,.6.16c1.83,0,3.66-.09,5.49-.12,1.12,0,2.25,0,3.37,0,.33,0,.36,0,.29-.34-.1-.48-.24-1-.35-1.43a1.38,1.38,0,0,1,.33-1.37,1.68,1.68,0,0,1,1.7-.15,1.26,1.26,0,0,1,.53,1.29l-.27,1.7c0,.22,0,.29.25.3,1.77,0,3.54.08,5.31.16,1.15,0,2.29.17,3.44.22a6.19,6.19,0,0,0,1.28-.14,2.51,2.51,0,0,1,1,0,.61.61,0,0,1,.5.83c-.08.28-.22.55-.31.83a14.85,14.85,0,0,0-.6,2.95c-.05.36-.07.72-.12,1.08-.08.65-.64.81-1.21.69a.73.73,0,0,1-.62-.8c0-.88.06-1.77.11-2.65,0-.31.06-.62.11-.93s0-.22-.19-.23c-.85-.06-1.7-.15-2.55-.18-2.18-.08-4.36-.14-6.54-.21v0"/><path class="cls-3" d="M419.38,135.39c0,2.93-13,5.31-28.94,5.31s-28.93-2.38-28.93-5.31,12.95-5.32,28.93-5.32,28.94,2.38,28.94,5.32"/><path class="cls-4" d="M405.45,72.09a52.74,52.74,0,0,0-29.4,0c-7.87,2.24-8.52,10.26-8.2,14.59s.66,22.45.66,22.45S390.81,98.7,382.61,96s-8.52-10.9-5.57-14.91c2.77-3.77,24.65-3.77,27.43,0,2.95,4,2.62,12.18-5.58,14.91S413,109.13,413,109.13s.33-18.12.66-22.45-.33-12.35-8.2-14.59"/><path class="cls-4" d="M414.51,113.79A23.88,23.88,0,0,1,403.43,134c-3.7,2.35-21.38,2.51-24.94.41a23.89,23.89,0,1,1,36-20.58"/><path class="cls-2" d="M390.33,116.12c-.48,0-.88,0-1.29,0-1.92.06-3.84.1-5.75.19s-3.9.24-5.85.36a2.1,2.1,0,0,0-1.68,1,1.25,1.25,0,0,0-.22.95.68.68,0,0,0,.39.56,1.34,1.34,0,0,0,.94.11c.81-.2,1.61-.45,2.43-.62a30.85,30.85,0,0,1,3.17-.54c1.15-.13,2.32-.17,3.49-.2,1.48,0,3,0,4.45,0,.21,0,.29.08.3.29,0,.49,0,1,0,1.47a7.87,7.87,0,0,1-.33,2.26,2.25,2.25,0,0,1-1.45,1.65,3.79,3.79,0,0,1-1.2.21c-.74,0-1.48-.12-2.22-.2a2.87,2.87,0,0,0-.39,0c-.38,0-.47.26-.31.6.3.62.58,1.25.84,1.88a.78.78,0,0,0,.47.5,3.11,3.11,0,0,0,.67.16,8.21,8.21,0,0,0,2.57-.11,4.1,4.1,0,0,0,2.74-1.8,5.52,5.52,0,0,0,.81-2.83c.05-1.22,0-2.44,0-3.67,0-.21,0-.27.25-.25.88.09,1.77.17,2.65.27a20.75,20.75,0,0,1,4.05.88c.78.26,1.55.54,2.34.75a1.85,1.85,0,0,0,1.87-.33,6.27,6.27,0,0,0,1.3-1.47,2.31,2.31,0,0,0,.31-1.56c-.07-.43-.13-.46-.55-.35a11.62,11.62,0,0,1-3,.44c-2.39,0-4.77-.12-7.15-.29-.71,0-1.43-.08-2.14-.11a.4.4,0,0,1-.46-.33,5.13,5.13,0,0,0-.43-1c-.17-.3-.21-.27.1-.54.68-.59,1.35-1.2,2.06-1.76.94-.75,1.92-1.46,2.88-2.18a3,3,0,0,0,.42-.37.71.71,0,0,0-.33-1.13,1.72,1.72,0,0,0-.74-.09,20.93,20.93,0,0,1-3.54,0c-1.89,0-3.77,0-5.66,0-.94,0-1.88.12-2.82.2a.94.94,0,0,0-.41.13,1.7,1.7,0,0,0-.79,1.25.55.55,0,0,0,.36.61,2,2,0,0,0,1.21,0c.82-.14,1.65-.32,2.48-.39,1.36-.1,2.73-.13,4.1-.17.6,0,1.2,0,1.8,0a1.42,1.42,0,0,1,.36.16,1.63,1.63,0,0,1-.21.34l-2.35,2.16c-.12.11-.2.1-.33,0a11.84,11.84,0,0,0-1.08-.78,5,5,0,0,0-1.88-.74.53.53,0,0,0-.65.45,1,1,0,0,0,.51,1c.32.2.64.39,1,.6a4.89,4.89,0,0,1,1.5,1.47c.15.27.27.55.42.86m1.07-8.92v0c2.18.07,4.36.13,6.54.21.85,0,1.7.12,2.55.18.15,0,.22.06.19.23s-.09.62-.11.93c-.05.88-.1,1.77-.11,2.65a.73.73,0,0,0,.62.8c.57.12,1.13,0,1.21-.69,0-.36.07-.72.12-1.08a14.85,14.85,0,0,1,.6-2.95c.09-.28.23-.55.31-.83a.61.61,0,0,0-.5-.83,2.51,2.51,0,0,0-1,0,6.19,6.19,0,0,1-1.28.14c-1.15,0-2.29-.18-3.44-.22-1.77-.08-3.54-.12-5.31-.16-.23,0-.29-.08-.25-.3l.27-1.7a1.26,1.26,0,0,0-.53-1.29,1.68,1.68,0,0,0-1.7.15,1.38,1.38,0,0,0-.33,1.37c.11.48.25.95.35,1.43.07.33,0,.33-.29.34-1.12,0-2.25,0-3.37,0-1.83,0-3.66.09-5.49.12a1.12,1.12,0,0,1-.6-.16,1.71,1.71,0,0,0-1.12-.25.81.81,0,0,0-.79,1c.19,1.19.32,2.39.43,3.59.06.67,0,1.34.06,2,0,.32.12.44.44.47a2.72,2.72,0,0,0,.57,0,.86.86,0,0,0,.8-.69,6.55,6.55,0,0,0,.2-1.16c.06-.87.08-1.74.1-2.61,0-.17,0-.28.24-.3.53,0,1.07-.11,1.61-.14,2.19-.11,4.38-.22,6.56-.3.82,0,1.64,0,2.47,0"/><path class="cls-2" d="M390.33,116.12c-.15-.31-.27-.59-.42-.86a4.89,4.89,0,0,0-1.5-1.47c-.31-.21-.63-.4-1-.6a1,1,0,0,1-.51-1,.53.53,0,0,1,.65-.45,5,5,0,0,1,1.88.74,11.84,11.84,0,0,1,1.08.78c.13.1.21.11.33,0l2.35-2.16a1.3,1.3,0,0,0,.21-.34,1.42,1.42,0,0,0-.36-.16c-.6,0-1.2,0-1.8,0-1.37,0-2.74.07-4.1.17-.83.07-1.66.25-2.48.39a2,2,0,0,1-1.21,0,.56.56,0,0,1-.36-.61,1.72,1.72,0,0,1,.79-1.25,1,1,0,0,1,.41-.13c.94-.08,1.88-.18,2.82-.2,1.89,0,3.77,0,5.66,0a20.93,20.93,0,0,0,3.54,0,1.72,1.72,0,0,1,.74.09.71.71,0,0,1,.33,1.13,3,3,0,0,1-.42.37c-1,.72-1.94,1.43-2.88,2.18-.71.56-1.38,1.17-2.06,1.76-.31.27-.27.24-.1.54a5.13,5.13,0,0,1,.43,1,.4.4,0,0,0,.46.33c.71,0,1.43.06,2.14.11,2.38.17,4.76.3,7.15.29a11.62,11.62,0,0,0,3-.44c.42-.11.48-.08.55.35a2.31,2.31,0,0,1-.31,1.56,6.27,6.27,0,0,1-1.3,1.47,1.85,1.85,0,0,1-1.87.33c-.79-.21-1.56-.49-2.34-.75a20.75,20.75,0,0,0-4.05-.88c-.88-.1-1.77-.18-2.65-.27-.21,0-.25,0-.25.25,0,1.23.05,2.45,0,3.67a5.52,5.52,0,0,1-.81,2.83,4.1,4.1,0,0,1-2.74,1.8,8.21,8.21,0,0,1-2.57.11,3.11,3.11,0,0,1-.67-.16.78.78,0,0,1-.47-.5c-.26-.63-.54-1.26-.84-1.88-.16-.34-.07-.57.31-.6a2.72,2.72,0,0,1,.39,0c.74.08,1.48.18,2.22.2a3.79,3.79,0,0,0,1.2-.21,2.25,2.25,0,0,0,1.45-1.65,7.87,7.87,0,0,0,.33-2.26c0-.49,0-1,0-1.47,0-.21-.09-.29-.3-.29-1.48,0-3,0-4.45,0-1.17,0-2.33.07-3.49.2a30.85,30.85,0,0,0-3.17.54c-.82.17-1.62.42-2.43.62a1.34,1.34,0,0,1-.94-.11.68.68,0,0,1-.39-.56,1.25,1.25,0,0,1,.22-.95,2.1,2.1,0,0,1,1.68-1c1.95-.12,3.9-.26,5.85-.36s3.83-.13,5.75-.19c.41,0,.82,0,1.29,0"/><path class="cls-2" d="M391.4,107.2c-.83,0-1.65,0-2.47,0-2.18.08-4.37.19-6.56.3-.54,0-1.08.1-1.61.14-.21,0-.23.13-.24.3,0,.87,0,1.74-.1,2.61a6.55,6.55,0,0,1-.2,1.16.86.86,0,0,1-.8.69,2.72,2.72,0,0,1-.57,0c-.32,0-.43-.15-.44-.47,0-.68,0-1.35-.06-2-.11-1.2-.24-2.4-.43-3.59a.81.81,0,0,1,.79-1,1.71,1.71,0,0,1,1.12.25,1.12,1.12,0,0,0,.6.16c1.83,0,3.66-.09,5.49-.12,1.12,0,2.25,0,3.37,0,.33,0,.36,0,.29-.34-.1-.48-.24-1-.35-1.43a1.38,1.38,0,0,1,.33-1.37,1.68,1.68,0,0,1,1.7-.15,1.26,1.26,0,0,1,.53,1.29l-.27,1.7c0,.22,0,.29.25.3,1.77,0,3.54.08,5.31.16,1.15,0,2.29.17,3.44.22a6.19,6.19,0,0,0,1.28-.14,2.51,2.51,0,0,1,1,0,.61.61,0,0,1,.5.83c-.08.28-.22.55-.31.83a14.85,14.85,0,0,0-.6,2.95c-.05.36-.07.72-.12,1.08-.08.65-.64.81-1.21.69a.73.73,0,0,1-.62-.8c0-.88.06-1.77.11-2.65,0-.31.06-.62.11-.93s0-.22-.19-.23c-.85-.06-1.7-.15-2.55-.18-2.18-.08-4.36-.14-6.54-.21v0"/><path class="cls-3" d="M276.38,65.39c0,2.93-13,5.31-28.94,5.31s-28.93-2.38-28.93-5.31,13-5.32,28.93-5.32,28.94,2.38,28.94,5.32"/><path class="cls-5" d="M262.45,2.09a52.74,52.74,0,0,0-29.4,0c-7.87,2.24-8.52,10.26-8.2,14.59s.66,22.45.66,22.45S247.81,28.7,239.61,26s-8.52-10.9-5.57-14.91c2.77-3.77,24.65-3.77,27.43,0,2.95,4,2.62,12.18-5.58,14.91S270,39.13,270,39.13s.33-18.12.66-22.45-.33-12.35-8.2-14.59"/><path class="cls-5" d="M271.51,43.79A23.88,23.88,0,0,1,260.43,64c-3.7,2.35-21.38,2.51-24.94.41a23.89,23.89,0,1,1,36-20.58"/><path class="cls-2" d="M247.33,46.12H246c-1.92.06-3.84.1-5.75.19s-3.9.24-5.85.36a2.1,2.1,0,0,0-1.68,1,1.25,1.25,0,0,0-.22,1,.68.68,0,0,0,.39.56,1.34,1.34,0,0,0,.94.11c.81-.2,1.61-.45,2.43-.62a30.85,30.85,0,0,1,3.17-.54c1.15-.13,2.32-.17,3.49-.2,1.48,0,3,0,4.45,0,.21,0,.29.08.3.29,0,.49,0,1,0,1.47a7.87,7.87,0,0,1-.33,2.26,2.25,2.25,0,0,1-1.45,1.65,3.79,3.79,0,0,1-1.2.21c-.74,0-1.48-.12-2.22-.2a2.87,2.87,0,0,0-.39,0c-.38,0-.47.26-.31.6.3.62.58,1.25.84,1.88a.78.78,0,0,0,.47.5,3.11,3.11,0,0,0,.67.16,8.21,8.21,0,0,0,2.57-.11,4.1,4.1,0,0,0,2.74-1.8,5.52,5.52,0,0,0,.81-2.83c.05-1.22,0-2.44,0-3.67,0-.21,0-.27.25-.25.88.09,1.77.17,2.65.27a20.75,20.75,0,0,1,4.05.88c.78.26,1.55.54,2.34.75a1.85,1.85,0,0,0,1.87-.33,6.27,6.27,0,0,0,1.3-1.47,2.31,2.31,0,0,0,.31-1.56c-.07-.43-.13-.46-.55-.35a11.62,11.62,0,0,1-3,.44c-2.39,0-4.77-.12-7.15-.29-.71-.05-1.43-.08-2.14-.11a.4.4,0,0,1-.46-.33,5.13,5.13,0,0,0-.43-1c-.17-.3-.21-.27.1-.54.68-.59,1.35-1.2,2.06-1.76.94-.75,1.92-1.46,2.88-2.18a3,3,0,0,0,.42-.37A.71.71,0,0,0,254.1,39a1.72,1.72,0,0,0-.74-.09,20.93,20.93,0,0,1-3.54,0c-1.89,0-3.77,0-5.66,0-.94,0-1.88.12-2.82.2a.94.94,0,0,0-.41.13,1.7,1.7,0,0,0-.79,1.25.55.55,0,0,0,.36.61,2,2,0,0,0,1.21,0c.82-.14,1.65-.32,2.48-.39,1.36-.1,2.73-.13,4.1-.17.6,0,1.2,0,1.8,0a1.42,1.42,0,0,1,.36.16,1.63,1.63,0,0,1-.21.34l-2.35,2.16c-.12.11-.2.1-.33,0a11.84,11.84,0,0,0-1.08-.78,5,5,0,0,0-1.88-.74.53.53,0,0,0-.65.45,1,1,0,0,0,.51,1c.32.2.64.39.95.6a4.89,4.89,0,0,1,1.5,1.47c.15.27.27.55.42.86"/><path class="cls-2" d="M247.33,46.12c-.15-.31-.27-.59-.42-.86a4.89,4.89,0,0,0-1.5-1.47c-.31-.21-.63-.4-.95-.6a1,1,0,0,1-.51-1,.53.53,0,0,1,.65-.45,5,5,0,0,1,1.88.74,11.84,11.84,0,0,1,1.08.78c.13.1.21.11.33,0l2.35-2.16a1.3,1.3,0,0,0,.21-.34,1.42,1.42,0,0,0-.36-.16c-.6,0-1.2,0-1.8,0-1.37,0-2.74.07-4.1.17-.83.07-1.66.25-2.48.39a2,2,0,0,1-1.21,0,.56.56,0,0,1-.36-.61,1.72,1.72,0,0,1,.79-1.25,1,1,0,0,1,.41-.13c.94-.08,1.88-.18,2.82-.2,1.89,0,3.77,0,5.66,0a20.93,20.93,0,0,0,3.54,0,1.72,1.72,0,0,1,.74.09.71.71,0,0,1,.33,1.13,3,3,0,0,1-.42.37c-1,.72-1.94,1.43-2.88,2.18-.71.56-1.38,1.17-2.06,1.76-.31.27-.27.24-.1.54a5.13,5.13,0,0,1,.43,1,.4.4,0,0,0,.46.33c.71,0,1.43.06,2.14.11,2.38.17,4.76.3,7.15.29a11.62,11.62,0,0,0,3-.44c.42-.11.48-.08.55.35a2.31,2.31,0,0,1-.31,1.56,6.27,6.27,0,0,1-1.3,1.47,1.85,1.85,0,0,1-1.87.33c-.79-.21-1.56-.49-2.34-.75a20.75,20.75,0,0,0-4.05-.88c-.88-.1-1.77-.18-2.65-.27-.21,0-.25,0-.25.25,0,1.23.05,2.45,0,3.67a5.52,5.52,0,0,1-.81,2.83,4.1,4.1,0,0,1-2.74,1.8,8.21,8.21,0,0,1-2.57.11,3.11,3.11,0,0,1-.67-.16.78.78,0,0,1-.47-.5c-.26-.63-.54-1.26-.84-1.88-.16-.34-.07-.57.31-.6a2.72,2.72,0,0,1,.39,0c.74.08,1.48.18,2.22.2a3.79,3.79,0,0,0,1.2-.21,2.25,2.25,0,0,0,1.45-1.65,7.87,7.87,0,0,0,.33-2.26c0-.49,0-1,0-1.47,0-.21-.09-.29-.3-.29-1.48,0-3,0-4.45,0-1.17,0-2.33.07-3.49.2a30.85,30.85,0,0,0-3.17.54c-.82.17-1.62.42-2.43.62a1.34,1.34,0,0,1-.94-.11.68.68,0,0,1-.39-.56,1.25,1.25,0,0,1,.22-1,2.1,2.1,0,0,1,1.68-1c1.95-.12,3.9-.26,5.85-.36s3.83-.13,5.75-.19h1.29"/><path class="cls-3" d="M374.38,65.39c0,2.93-13,5.31-28.94,5.31s-28.93-2.38-28.93-5.31,12.95-5.32,28.93-5.32,28.94,2.38,28.94,5.32"/><path class="cls-5" d="M360.45,2.09a52.74,52.74,0,0,0-29.4,0c-7.87,2.24-8.52,10.26-8.2,14.59s.66,22.45.66,22.45S345.81,28.7,337.61,26s-8.52-10.9-5.57-14.91c2.77-3.77,24.65-3.77,27.43,0,2.95,4,2.62,12.18-5.58,14.91S368,39.13,368,39.13s.33-18.12.66-22.45-.33-12.35-8.2-14.59"/><path class="cls-5" d="M369.51,43.79A23.88,23.88,0,0,1,358.43,64c-3.7,2.35-21.38,2.51-24.94.41a23.89,23.89,0,1,1,36-20.58"/><path class="cls-2" d="M345.33,46.12H344c-1.92.06-3.84.1-5.75.19s-3.9.24-5.85.36a2.1,2.1,0,0,0-1.68,1,1.25,1.25,0,0,0-.22,1,.68.68,0,0,0,.39.56,1.34,1.34,0,0,0,.94.11c.81-.2,1.61-.45,2.43-.62a30.85,30.85,0,0,1,3.17-.54c1.15-.13,2.32-.17,3.49-.2,1.48,0,3,0,4.45,0,.21,0,.29.08.3.29,0,.49,0,1,0,1.47a7.87,7.87,0,0,1-.33,2.26,2.25,2.25,0,0,1-1.45,1.65,3.79,3.79,0,0,1-1.2.21c-.74,0-1.48-.12-2.22-.2a2.87,2.87,0,0,0-.39,0c-.38,0-.47.26-.31.6.3.62.58,1.25.84,1.88a.78.78,0,0,0,.47.5,3.11,3.11,0,0,0,.67.16,8.21,8.21,0,0,0,2.57-.11,4.1,4.1,0,0,0,2.74-1.8,5.52,5.52,0,0,0,.81-2.83c.05-1.22,0-2.44,0-3.67,0-.21,0-.27.25-.25.88.09,1.77.17,2.65.27a20.75,20.75,0,0,1,4.05.88c.78.26,1.55.54,2.34.75a1.85,1.85,0,0,0,1.87-.33,6.27,6.27,0,0,0,1.3-1.47,2.31,2.31,0,0,0,.31-1.56c-.07-.43-.13-.46-.55-.35a11.62,11.62,0,0,1-3,.44c-2.39,0-4.77-.12-7.15-.29-.71-.05-1.43-.08-2.14-.11a.4.4,0,0,1-.46-.33,5.13,5.13,0,0,0-.43-1c-.17-.3-.21-.27.1-.54.68-.59,1.35-1.2,2.06-1.76.94-.75,1.92-1.46,2.88-2.18a3,3,0,0,0,.42-.37A.71.71,0,0,0,352.1,39a1.72,1.72,0,0,0-.74-.09,20.93,20.93,0,0,1-3.54,0c-1.89,0-3.77,0-5.66,0-.94,0-1.88.12-2.82.2a.94.94,0,0,0-.41.13,1.7,1.7,0,0,0-.79,1.25.55.55,0,0,0,.36.61,2,2,0,0,0,1.21,0c.82-.14,1.65-.32,2.48-.39,1.36-.1,2.73-.13,4.1-.17.6,0,1.2,0,1.8,0a1.42,1.42,0,0,1,.36.16,1.63,1.63,0,0,1-.21.34l-2.35,2.16c-.12.11-.2.1-.33,0a11.84,11.84,0,0,0-1.08-.78,5,5,0,0,0-1.88-.74.53.53,0,0,0-.65.45,1,1,0,0,0,.51,1c.32.2.64.39,1,.6a4.89,4.89,0,0,1,1.5,1.47c.15.27.27.55.42.86"/><path class="cls-2" d="M345.33,46.12c-.15-.31-.27-.59-.42-.86a4.89,4.89,0,0,0-1.5-1.47c-.31-.21-.63-.4-1-.6a1,1,0,0,1-.51-1,.53.53,0,0,1,.65-.45,5,5,0,0,1,1.88.74,11.84,11.84,0,0,1,1.08.78c.13.1.21.11.33,0l2.35-2.16a1.3,1.3,0,0,0,.21-.34,1.42,1.42,0,0,0-.36-.16c-.6,0-1.2,0-1.8,0-1.37,0-2.74.07-4.1.17-.83.07-1.66.25-2.48.39a2,2,0,0,1-1.21,0,.56.56,0,0,1-.36-.61,1.72,1.72,0,0,1,.79-1.25,1,1,0,0,1,.41-.13c.94-.08,1.88-.18,2.82-.2,1.89,0,3.77,0,5.66,0a20.93,20.93,0,0,0,3.54,0,1.72,1.72,0,0,1,.74.09.71.71,0,0,1,.33,1.13,3,3,0,0,1-.42.37c-1,.72-1.94,1.43-2.88,2.18-.71.56-1.38,1.17-2.06,1.76-.31.27-.27.24-.1.54a5.13,5.13,0,0,1,.43,1,.4.4,0,0,0,.46.33c.71,0,1.43.06,2.14.11,2.38.17,4.76.3,7.15.29a11.62,11.62,0,0,0,3-.44c.42-.11.48-.08.55.35a2.31,2.31,0,0,1-.31,1.56,6.27,6.27,0,0,1-1.3,1.47,1.85,1.85,0,0,1-1.87.33c-.79-.21-1.56-.49-2.34-.75a20.75,20.75,0,0,0-4.05-.88c-.88-.1-1.77-.18-2.65-.27-.21,0-.25,0-.25.25,0,1.23.05,2.45,0,3.67a5.52,5.52,0,0,1-.81,2.83,4.1,4.1,0,0,1-2.74,1.8,8.21,8.21,0,0,1-2.57.11,3.11,3.11,0,0,1-.67-.16.78.78,0,0,1-.47-.5c-.26-.63-.54-1.26-.84-1.88-.16-.34-.07-.57.31-.6a2.72,2.72,0,0,1,.39,0c.74.08,1.48.18,2.22.2a3.79,3.79,0,0,0,1.2-.21,2.25,2.25,0,0,0,1.45-1.65,7.87,7.87,0,0,0,.33-2.26c0-.49,0-1,0-1.47,0-.21-.09-.29-.3-.29-1.48,0-3,0-4.45,0-1.17,0-2.33.07-3.49.2a30.85,30.85,0,0,0-3.17.54c-.82.17-1.62.42-2.43.62a1.34,1.34,0,0,1-.94-.11.68.68,0,0,1-.39-.56,1.25,1.25,0,0,1,.22-1,2.1,2.1,0,0,1,1.68-1c1.95-.12,3.9-.26,5.85-.36s3.83-.13,5.75-.19h1.29"/><path class="cls-6" d="M71.93,155.88l27.4-1s.5-13.95-9.47-22.43-22.5-9.39-22.5-9.39Z"/><rect class="cls-6" x="35.05" y="106.55" width="35.88" height="52.82"/><path class="cls-7" d="M84.48,92.87C89.72,106,70.83,117,54,117S17.89,105.84,23.49,92.87C29.92,78,37.14,64.34,54,64.34s24.68,14,30.5,28.53"/><path class="cls-8" d="M82.09,155.39v5.42c0,2.29.76,5.08,5.09,5.08h17.94c3.39,0,3.77-4.57,0-4.57-6.13,0-5.29-6.62-5.29-6.62Z"/><path class="cls-6" d="M35.88,155.88l-27.41-1s-.5-13.95,9.47-22.43,22.5-9.39,22.5-9.39Z"/><path class="cls-8" d="M25.72,155.39v5.42c0,2.29-.77,5.08-5.09,5.08H2.68c-3.39,0-3.76-4.57,0-4.57,6.12,0,5.29-6.62,5.29-6.62Z"/><path class="cls-3" d="M61.66,197.37c0,1.28-3.72,2.32-8.33,2.32s-8.33-1-8.33-2.32S48.73,195,53.33,195s8.33,1,8.33,2.33"/><path class="cls-1" d="M68.34,118.07A55.52,55.52,0,0,0,53.64,116,55.46,55.46,0,0,0,39,118.07c-7.87,2.24-8.53,10.26-8.2,14.59s.65,22.45.65,22.45S53.7,144.69,45.5,142s-8.52-10.9-5.57-14.91c2.77-3.77,24.65-3.77,27.43,0,3,4,2.62,12.18-5.58,14.91s14.1,13.15,14.1,13.15.33-18.12.66-22.45-.33-12.35-8.2-14.59"/><path class="cls-1" d="M77.41,159.77a23.86,23.86,0,0,1-11.09,20.17c-3.7,2.35-21.38,2.51-24.93.42a23.89,23.89,0,1,1,36-20.59"/><path class="cls-2" d="M53.23,162.1c-.16-.31-.28-.59-.43-.85a4.58,4.58,0,0,0-1.5-1.47c-.3-.22-.63-.41-.95-.61a1,1,0,0,1-.51-1,.53.53,0,0,1,.65-.45,5,5,0,0,1,1.89.75,11.09,11.09,0,0,1,1.07.77c.13.11.21.11.33,0l2.35-2.16a1.46,1.46,0,0,0,.22-.33,1.34,1.34,0,0,0-.37-.17c-.6,0-1.2,0-1.8,0-1.37,0-2.74.07-4.1.18-.83.06-1.66.24-2.48.38a2,2,0,0,1-1.21,0,.53.53,0,0,1-.35-.61,1.65,1.65,0,0,1,.78-1.24.87.87,0,0,1,.41-.14c.94-.08,1.88-.18,2.82-.19,1.89,0,3.78,0,5.66,0a20.93,20.93,0,0,0,3.54,0A1.76,1.76,0,0,1,60,155a.71.71,0,0,1,.32,1.13,2.53,2.53,0,0,1-.42.37c-1,.73-1.94,1.43-2.88,2.18-.71.56-1.38,1.17-2.06,1.76-.3.27-.26.24-.1.54a4.1,4.1,0,0,1,.43,1,.42.42,0,0,0,.46.34c.71,0,1.43.05,2.14.1,2.38.17,4.76.31,7.15.3a12.09,12.09,0,0,0,3-.45c.42-.11.48-.08.55.35a2.3,2.3,0,0,1-.31,1.56A6.26,6.26,0,0,1,67,165.56a1.88,1.88,0,0,1-1.88.34c-.79-.22-1.56-.5-2.34-.76a20.75,20.75,0,0,0-4-.88L56.07,164c-.22,0-.26,0-.25.26,0,1.22,0,2.44,0,3.66a5.47,5.47,0,0,1-.81,2.83,4.1,4.1,0,0,1-2.74,1.8,8.22,8.22,0,0,1-2.57.12,3.84,3.84,0,0,1-.67-.16.8.8,0,0,1-.47-.5q-.39-1-.84-1.89c-.16-.34-.07-.57.31-.6a1.74,1.74,0,0,1,.39.05c.74.07,1.48.18,2.22.19a3.53,3.53,0,0,0,1.2-.21,2.28,2.28,0,0,0,1.46-1.65,8.64,8.64,0,0,0,.33-2.26c0-.49,0-1,0-1.47,0-.21-.08-.29-.3-.29-1.48,0-3,0-4.45,0-1.17,0-2.33.07-3.49.2a31.32,31.32,0,0,0-3.17.54c-.82.17-1.62.42-2.43.63a1.36,1.36,0,0,1-.93-.12.63.63,0,0,1-.39-.56,1.24,1.24,0,0,1,.21-1,2.1,2.1,0,0,1,1.68-1c2-.12,3.9-.26,5.85-.36s3.83-.13,5.75-.19h1.3"/><path class="cls-2" d="M54.29,153.18c-.82,0-1.64,0-2.46,0-2.19.08-4.38.19-6.56.3-.55,0-1.08.1-1.62.15-.21,0-.23.12-.23.29,0,.87-.05,1.74-.11,2.61a6.55,6.55,0,0,1-.2,1.16.88.88,0,0,1-.8.7,3.49,3.49,0,0,1-.56,0c-.32,0-.44-.15-.45-.47,0-.67,0-1.35-.06-2-.11-1.2-.24-2.4-.43-3.59a.81.81,0,0,1,.79-1,1.66,1.66,0,0,1,1.12.26,1.15,1.15,0,0,0,.61.15c1.83,0,3.65-.09,5.48-.12l3.37,0c.34,0,.36,0,.29-.33-.1-.49-.24-1-.34-1.44a1.38,1.38,0,0,1,.32-1.37,1.68,1.68,0,0,1,1.7-.14,1.22,1.22,0,0,1,.53,1.28c-.09.57-.17,1.14-.27,1.7,0,.22,0,.3.25.3,1.77.05,3.54.08,5.31.16,1.15.05,2.29.17,3.44.22a6.29,6.29,0,0,0,1.29-.14,2.5,2.5,0,0,1,1,0,.6.6,0,0,1,.49.83c-.08.28-.22.55-.31.83a15,15,0,0,0-.6,3c0,.35-.07.71-.12,1.07-.07.65-.64.81-1.21.69a.73.73,0,0,1-.62-.8c0-.88.07-1.77.11-2.65,0-.31.07-.62.11-.93s0-.22-.19-.23c-.85-.06-1.7-.15-2.55-.18-2.18-.08-4.36-.14-6.54-.21v.05"/><path class="cls-8" d="M32.45,75.88a19.56,19.56,0,0,1-3.65-3.35c-2.21-2.37-2.37-6.1-.17-8.15s5.85-1.7,8.11.72A13.46,13.46,0,0,1,39.42,70"/><path class="cls-8" d="M75.17,75.88a19.25,19.25,0,0,0,3.65-3.35c2.22-2.37,2.37-6.1.18-8.15s-5.85-1.7-8.12.72A13.45,13.45,0,0,0,68.21,70"/><path class="cls-9" d="M54,64.34c-15,0-22.41,10.88-28.39,23.81l.05,0s1.46,4,9.69,6.32,10.3-5.94,17.11-4.31h2.29c6.81-1.63,10.14,6.66,18.37,4.31s9.23-6.68,9.23-6.68h0C76.68,75.21,68.83,64.34,54,64.34"/><line class="cls-10" x1="53.45" y1="91.22" x2="53.45" y2="94.48"/><path class="cls-8" d="M53.33,91.83c-1.29,0-4.85-2.2-5-5s3.08-3.29,5.16-3.29,5.26.49,5.09,3.29-4,5-5.24,5"/><path class="cls-10" d="M45.05,97.66s2.75-2.9,8.57-2.9,8.23,2.9,8.23,2.9"/><path class="cls-8" d="M36,85.16c2.77,2.4,7.55,1.42,10.68-2.19s3.41-8.47.64-10.88-7.55-1.42-10.67,2.19S33.25,82.76,36,85.16"/><path class="cls-11" d="M41.2,76.29s2.15-2.42,4.6-.85"/><path class="cls-8" d="M71.46,85.16c-2.77,2.4-7.55,1.42-10.68-2.19s-3.41-8.47-.64-10.88,7.55-1.42,10.67,2.19,3.42,8.48.65,10.88"/><path class="cls-11" d="M66.28,76.29s-1.48-2.09-4.6-.85"/><path class="cls-8" d="M46,109.67s10.2,4.64,6.72,14.06c-1.83,5-9.45,1.32-9.45,1.32Z"/><path class="cls-9" d="M23.34,93.16c-29,26.16,10,47.05,20.27,46,1.17-7.57,3.57-30.4,3.57-30.4s-20.32,4.42-23.84-15.59"/><path class="cls-8" d="M62,109.67s-10.21,4.64-6.73,14.06c1.83,5,9.46,1.32,9.46,1.32Z"/><path class="cls-9" d="M84.65,93.16c29,26.16-10,47.05-20.28,46-1.18-7.57-3.58-30.4-3.58-30.4s20.35,4.42,23.86-15.59"/></g></g></svg>