<svg xmlns="http://www.w3.org/2000/svg" viewBox="0 0 463.39 176.06"><defs><style>.cls-1{fill:#524195;}.cls-2{fill:#fff;}.cls-3{fill:#292b38;}.cls-4,.cls-9{fill:none;stroke-linecap:round;stroke-linejoin:round;stroke-width:1.42px;}.cls-4{stroke:#fffffe;}.cls-5{fill:#e7b4bf;}.cls-6{fill:#56894d;}.cls-7{fill:#80bb6d;}.cls-8{fill:#d0e9fb;}.cls-9{stroke:#292b38;}.cls-10{fill:#7f4a98;}.cls-11{fill:#f4f19d;}.cls-12{fill:#c99d5d;}</style></defs><title>start-slide-bg3</title><g id="Слой_2" data-name="Слой 2"><g id="Слой_1-2" data-name="Слой 1"><path class="cls-1" d="M161.29,117.13c-6.27,9.69-23.36,27-43.11,27.4,2.81,8.94,5.47,15.59,3.25,31.53H38.62l4-51L66.68,91.46,96,96.54s30.07,12.33,65.73-13.33Z"/><path class="cls-1" d="M54.19,95s-25.43,13.18-31.08,38.62c-6,27,15.51,42.48,15.51,42.48l17.71-13.29L54.19,95"/><path class="cls-2" d="M124.8,86.58C132,102.17,106.08,115.29,83,115.29S33.49,102,41.17,86.58C50,68.86,59.89,52.63,83,52.63s33.83,16.64,41.81,33.95"/><path class="cls-3" d="M109.21,90.11c-3.07,2.66-8.37,1.58-11.84-2.42s-3.79-9.41-.72-12.07S105,74,108.5,78s3.79,9.41.71,12.07"/><path class="cls-4" d="M102.33,85.62a4.55,4.55,0,0,1,6.21.17"/><path class="cls-3" d="M56.63,90.11c3.07,2.66,8.37,1.58,11.84-2.42s3.79-9.41.72-12.07S60.81,74,57.34,78s-3.79,9.41-.71,12.07"/><path class="cls-4" d="M68,85.79a6.55,6.55,0,0,1-6.21.52"/><path class="cls-5" d="M107,95c-4.93,0-9.29-1.18-11.88-3,.31,3,5.59,6.44,12,6.44S118.59,95,118.91,92c-2.6,1.8-7,3-11.89,3"/><path class="cls-6" d="M0,106.44c3.51,8.37,43-.2,86-18.25s73.4-38.75,69.89-47.12L66.74,42.19Z"/><path class="cls-7" d="M67.48,49.93c3.73-1.57,7.37-3.16,10.89-4.76l-10.58.14L59.7,53.1c2.57-1,5.17-2.08,7.78-3.17"/><path class="cls-7" d="M71.09,58.55c10.65-4.46,20.47-9.1,29.1-13.65L90.12,45c-6.27,3.06-13,6.12-20.13,9.1-6.5,2.73-12.91,5.22-19.11,7.46l-7.79,7.5c8.87-2.94,18.34-6.49,28-10.54"/><path class="cls-7" d="M78.32,75.79c25.32-10.61,46-22.19,57.15-31.33l-7.1.09c-11.83,8.27-29.84,17.89-51.15,26.83C56.56,80,36.79,86.38,21.9,89.49L16,95.19c15.34-2.34,38.24-9.29,62.34-19.4"/><path class="cls-7" d="M147.25,44.31l-4.54.06C133.48,54,110.31,67.64,80.83,80,52.26,92,25.36,99.53,10.76,100.21l-4.43,4.27c12.37,1.57,42.89-6.34,75.61-20.06C116.39,70,142.21,53.73,147.25,44.31"/><path class="cls-7" d="M74.71,67.17c17.69-7.42,33.11-15.31,44.61-22.51l-8.7.11a346.37,346.37,0,0,1-37,18A373.68,373.68,0,0,1,35.4,76.5l-6.9,6.64a352.66,352.66,0,0,0,46.21-16"/><path class="cls-8" d="M83.67,99.31s10.35-.69,13.2,4.76c4.22,8.07-14.76,28-14.76,28s-17.79-19.88-13.58-28c2.85-5.45,13.2-4.76,13.2-4.76Z"/><line class="cls-9" x1="82.28" y1="101.35" x2="78.95" y2="110.36"/><path class="cls-3" d="M82.21,103.35c-1.46,0-5.49-2.5-5.67-5.67S80,94,82.38,94s5.94.54,5.76,3.72-4.47,5.67-5.93,5.67"/><path class="cls-10" d="M161.72,83.21l-.38,35.44s-6.62,7.78-9,9.23c-.24-6.28-.8-38.15-.8-38.15s6.77-4.1,10.22-6.52"/><path class="cls-3" d="M161.72,83.21s8-4.56,12.66.34,1.16,18.43-13.16,22.33c.26-10.57.5-22.67.5-22.67"/><path class="cls-9" d="M73.25,105.74s5.56,7.05,14.81,7.05"/><path class="cls-3" d="M164,86.66s8.23-2.7,7.15,3c-1,5.15-4.65,5.59-4.65,5.59Z"/><path class="cls-11" d="M215.73,83.8a23.65,23.65,0,1,1-23.65-23.65A23.65,23.65,0,0,1,215.73,83.8"/><polygon class="cls-12" points="192.08 65.69 197.66 76.98 210.12 78.8 201.1 87.59 203.23 100 192.08 94.14 180.93 100 183.06 87.59 174.04 78.8 186.5 76.98 192.08 65.69"/><path class="cls-11" d="M286.85,83.8A23.65,23.65,0,1,1,263.2,60.15,23.65,23.65,0,0,1,286.85,83.8"/><polygon class="cls-12" points="263.2 65.69 268.78 76.98 281.25 78.8 272.23 87.59 274.35 100 263.2 94.14 252.05 100 254.18 87.59 245.16 78.8 257.63 76.98 263.2 65.69"/><path class="cls-11" d="M358,83.8a23.65,23.65,0,1,1-23.64-23.65A23.64,23.64,0,0,1,358,83.8"/><polygon class="cls-12" points="334.33 65.69 339.9 76.98 352.37 78.8 343.35 87.59 345.48 100 334.33 94.14 323.18 100 325.31 87.59 316.29 78.8 328.75 76.98 334.33 65.69"/><path class="cls-11" d="M429.1,83.8a23.65,23.65,0,1,1-23.65-23.65A23.65,23.65,0,0,1,429.1,83.8"/><polygon class="cls-12" points="405.45 65.69 411.03 76.98 423.49 78.8 414.47 87.59 416.6 100 405.45 94.14 394.3 100 396.43 87.59 387.41 78.8 399.88 76.98 405.45 65.69"/><path class="cls-11" d="M250,144.9a23.65,23.65,0,1,1-23.65-23.64A23.65,23.65,0,0,1,250,144.9"/><polygon class="cls-12" points="226.37 126.79 231.95 138.09 244.41 139.9 235.39 148.69 237.52 161.11 226.37 155.25 215.22 161.11 217.35 148.69 208.33 139.9 220.8 138.09 226.37 126.79"/><path class="cls-11" d="M321.14,144.9a23.65,23.65,0,1,1-23.64-23.64,23.65,23.65,0,0,1,23.64,23.64"/><polygon class="cls-12" points="297.5 126.79 303.07 138.09 315.54 139.9 306.52 148.69 308.64 161.11 297.5 155.25 286.35 161.11 288.47 148.69 279.45 139.9 291.92 138.09 297.5 126.79"/><path class="cls-11" d="M392.26,144.9a23.65,23.65,0,1,1-23.64-23.64,23.64,23.64,0,0,1,23.64,23.64"/><polygon class="cls-12" points="368.62 126.79 374.19 138.09 386.66 139.9 377.64 148.69 379.77 161.11 368.62 155.25 357.47 161.11 359.6 148.69 350.58 139.9 363.04 138.09 368.62 126.79"/><path class="cls-11" d="M463.39,144.9a23.65,23.65,0,1,1-23.65-23.64,23.65,23.65,0,0,1,23.65,23.64"/><polygon class="cls-12" points="439.74 126.79 445.32 138.09 457.78 139.9 448.76 148.69 450.89 161.11 439.74 155.25 428.59 161.11 430.72 148.69 421.7 139.9 434.17 138.09 439.74 126.79"/><path class="cls-11" d="M250,23.65A23.65,23.65,0,1,1,226.37,0,23.64,23.64,0,0,1,250,23.65"/><polygon class="cls-12" points="226.37 5.54 231.95 16.83 244.41 18.64 235.39 27.44 237.52 39.85 226.37 33.99 215.22 39.85 217.35 27.44 208.33 18.64 220.8 16.83 226.37 5.54"/><path class="cls-11" d="M321.14,23.65A23.65,23.65,0,1,1,297.5,0a23.64,23.64,0,0,1,23.64,23.65"/><polygon class="cls-12" points="297.5 5.54 303.07 16.83 315.54 18.64 306.52 27.44 308.64 39.85 297.5 33.99 286.35 39.85 288.47 27.44 279.45 18.64 291.92 16.83 297.5 5.54"/><path class="cls-11" d="M392.26,23.65A23.65,23.65,0,1,1,368.62,0a23.63,23.63,0,0,1,23.64,23.65"/><polygon class="cls-12" points="368.62 5.54 374.19 16.83 386.66 18.64 377.64 27.44 379.77 39.85 368.62 33.99 357.47 39.85 359.6 27.44 350.58 18.64 363.04 16.83 368.62 5.54"/><path class="cls-11" d="M463.39,23.65A23.65,23.65,0,1,1,439.74,0a23.64,23.64,0,0,1,23.65,23.65"/><polygon class="cls-12" points="439.74 5.54 445.32 16.83 457.78 18.64 448.76 27.44 450.89 39.85 439.74 33.99 428.59 39.85 430.72 27.44 421.7 18.64 434.17 16.83 439.74 5.54"/><path class="cls-3" d="M167.72,84.29s6.5-.21,5.08,3.25S166.51,90,166.51,90Z"/><path class="cls-10" d="M53.05,109.11S76.55,148.6,78.83,176h7.6s-4.67-35.68-24.19-63.36a58.92,58.92,0,0,1-9.19-3.5"/></g></g></svg>