<svg
        xmlns="http://www.w3.org/2000/svg"
        xmlns:xlink="http://www.w3.org/1999/xlink"
        width="12px" height="12px">
    <path fill-rule="evenodd"  fill="rgb(255, 255, 255)"
          d="M5.570,0.376 C5.807,-0.126 6.194,-0.126 6.430,0.376 L7.570,2.798 C7.806,3.301 8.433,3.777 8.961,3.858 L11.511,4.246 C12.039,4.327 12.159,4.712 11.776,5.103 L9.932,6.988 C9.549,7.379 9.310,8.151 9.400,8.703 L9.836,11.364 C9.926,11.916 9.613,12.154 9.140,11.894 L6.860,10.637 C6.387,10.377 5.613,10.377 5.140,10.637 L2.860,11.894 C2.387,12.154 2.074,11.916 2.165,11.364 L2.600,8.703 C2.690,8.151 2.451,7.379 2.069,6.988 L0.224,5.103 C-0.159,4.712 -0.039,4.327 0.490,4.246 L3.039,3.858 C3.568,3.777 4.194,3.301 4.430,2.798 L5.570,0.376 Z"/>
</svg>