<svg xmlns="http://www.w3.org/2000/svg" viewBox="0 0 177.51 165.76"><defs><style>.cls-1{fill:none;stroke:#127cc2;stroke-linecap:round;stroke-linejoin:round;stroke-width:3px;}.cls-2{fill:#fff;}</style></defs><title>steps-title-img3</title><g id="Слой_2" data-name="Слой 2"><g id="Слой_1-2" data-name="Слой 1"><path class="cls-1" d="M40.82,136s-8.32-.21-18.56-.21c7.16-3.57,4.39-24.52-7.18-24.52-17.36,0-20.14,52.95,3.89,52.95,19.92,0,26.16-16.33,26.16-28,0-39.79-38-71.5-38-105.74,0-14.26,8.79-29,22.05-29C54.43,1.5,53,37.35,38.1,37.35c-7.35,0-10-10.72-10-10.72l20.37-.38"/><path class="cls-1" d="M38.1,37.35H140.85c14.86,0,16.34-35.85-8.89-35.85H27.82"/><path class="cls-1" d="M135.75,96.38c6.73,13.55,12.13,27,12.13,39.85,0,11.7-6.23,28-26.16,28H19"/><path class="cls-1" d="M110.42,37.47C112.15,49.63,118.32,65,125,77.8"/><line class="cls-1" x1="15.08" y1="111.42" x2="40.56" y2="111.42"/><line class="cls-1" x1="67.72" y1="26.7" x2="138.98" y2="26.7"/><path class="cls-1" d="M14.6,120.48s-9.57,16.57.48,33"/><path class="cls-2" d="M58.32,89.81a85.41,85.41,0,0,1-7.16,11.27A35.16,35.16,0,0,0,48,97.31C54.53,89.18,60.64,75.5,64.4,62.23l6,1.65c-.27.72-.91.87-1.7.82a155.78,155.78,0,0,1-6.39,17l2.08.52c-.13.43-.48.79-1.4.89l1,45.3-4.77.11ZM88.13,128c-1.21.09-8,.15-9.59.18a20,20,0,0,0-1.89-4.87c1.78,0,8.86,0,10.22,0l1.78,0m2.17-5L90,80.33l-11.47.26a61.07,61.07,0,0,1-7,13.63,20.53,20.53,0,0,0-3.69-2.84c5-6.74,8.93-18,11.1-29.26l5.95,1.43c-.14.51-.63.8-1.55.75a109.53,109.53,0,0,1-3.16,11.76l31.48-.71,2.5,0a122.44,122.44,0,0,1-2.86,15.74l-4.07-.69c.51-2.65,1.13-6.65,1.68-10.51l-14.17.31.68,30.4M84.41,93.28c-.2.51-.69.8-1.55.82-2.08,8.81-5.79,18.23-10.15,24a22.21,22.21,0,0,0-3.83-2.33c4.23-5.52,7.73-14.79,9.73-24ZM106,103.11a109.27,109.27,0,0,0-5.5-10.76l4.17-1.59a100.81,100.81,0,0,1,5,9.24"/><polyline class="cls-1" points="111.98 111.72 176.01 44.08 104.99 103.97"/><path class="cls-1" d="M103.48,104.33c-3.62.38-12.33,8.94-15.35,23,11.36-1.62,23-8.63,23.85-15.61C111.05,106.41,107.09,104,103.48,104.33Z"/></g></g></svg>