<svg xmlns="http://www.w3.org/2000/svg" viewBox="0 0 230.24 200.32"><defs><style>.cls-1{fill:none;stroke:#127cc2;stroke-linecap:round;stroke-linejoin:round;stroke-width:3px;}</style></defs><title>steps-title-img2</title><g id="Слой_2" data-name="Слой 2"><g id="Слой_1-2" data-name="Слой 1"><path class="cls-1" d="M14.2,46.75c8.47,2.52,14.65,9.8,14.78,17.72"/><path class="cls-1" d="M42.38,107.84a14,14,0,0,0-12.27.56"/><path class="cls-1" d="M8.39,107.84s7.24-3.33,12.27.56"/><path class="cls-1" d="M61,83.2a8.89,8.89,0,0,0,.63-12.76c-3.36-3.59-9.38-3.41-13.33.3"/><path class="cls-1" d="M13.32,153.52c24.76-2,43.05-12.66,43.05-25.89"/><path class="cls-1" d="M7.16,61.84c58.78,0,76.55,50.78,49.49,65.83C38.35,79.73,20.14,80.57,7.16,96.4"/><path class="cls-1" d="M7.06,96.4A35.73,35.73,0,0,0,1.5,90.88"/><line class="cls-1" x1="18.19" y1="54.98" x2="31.71" y2="48.27"/><ellipse class="cls-1" cx="24.46" cy="133.77" rx="9.8" ry="6.81"/><ellipse class="cls-1" cx="203.8" cy="126.95" rx="9.8" ry="6.81"/><line class="cls-1" x1="25.03" y1="118.21" x2="25.03" y2="126.95"/><path class="cls-1" d="M187.9,74.86c-2.16-1.21-15.19-13.26-6.46-20.71,9.86-8.41,18.15,7.45,18.58,8.77"/><path class="cls-1" d="M220,148.9c-28.74-2.58-60.59-21.3-44.71-52.39"/><line class="cls-1" x1="202.64" y1="109.59" x2="202.64" y2="120.14"/><path class="cls-1" d="M200,93.78s-4.3-7.33-12.71-1.64"/><path class="cls-1" d="M224.52,90.54s-4.31-7.32-12.71-1.63"/><path class="cls-1" d="M218.62,55.42C197,58.58,175.29,96.51,175.29,96.51c0,19.61,20.38,14.21,27.35,10"/><path class="cls-1" d="M160.36,143.35a58.06,58.06,0,0,1-86.75,4"/><path class="cls-1" d="M78.81,50.58A58.09,58.09,0,0,1,155.6,54.1"/><path class="cls-1" d="M174.83,154.73a78.45,78.45,0,0,1-115.64,3.93"/><path class="cls-1" d="M64,38.55a78.46,78.46,0,0,1,106,3.31"/><path class="cls-1" d="M187.78,166.77a96.66,96.66,0,0,1-141,2.94"/><path class="cls-1" d="M50.88,26.62a96.65,96.65,0,0,1,133,2.85"/><path class="cls-1" d="M202.64,106.51s17.36,14.7,26.1,2.87"/></g></g></svg>