<svg xmlns="http://www.w3.org/2000/svg" viewBox="0 0 132.47 139.58"><defs><style>.cls-1{fill:none;stroke:#64a8df;stroke-linecap:round;stroke-linejoin:round;stroke-width:3px;}.cls-2{fill:#64a8df;}</style></defs><title>steps-inner-img-family_1</title><g id="Слой_2" data-name="Слой 2"><g id="Слой_1-2" data-name="Слой 1"><circle class="cls-1" cx="27.19" cy="15.38" r="13.88" transform="translate(5.98 38.3) rotate(-76.72)"/><circle class="cls-1" cx="102.32" cy="15.38" r="13.88" transform="translate(63.85 111.43) rotate(-76.72)"/><path class="cls-1" d="M75.37,58.3a9.86,9.86,0,1,1-9.85-9.86A9.85,9.85,0,0,1,75.37,58.3Z"/><path class="cls-1" d="M12.05,88.17A10.56,10.56,0,0,1,1.5,77.61v-30A10.55,10.55,0,0,1,12.05,37.09H41.36A10.54,10.54,0,0,1,51.27,44"/><line class="cls-1" x1="13.31" y1="61.42" x2="13.31" y2="138.08"/><path class="cls-1" d="M113.65,83.17a10.56,10.56,0,0,0,10.56-10.56v-25a10.55,10.55,0,0,0-10.56-10.55H90.35A10.55,10.55,0,0,0,80.43,44"/><line class="cls-1" x1="112.72" y1="55.42" x2="112.72" y2="138.08"/><line class="cls-1" x1="27.19" y1="92.74" x2="27.19" y2="138.08"/><line class="cls-1" x1="54.67" y1="95.28" x2="54.67" y2="138.08"/><line class="cls-1" x1="77.22" y1="95.28" x2="77.22" y2="138.08"/><path class="cls-1" d="M53.82,119.28c-5.4,0-8.78-4.38-8.78-9.78V86.1a9.78,9.78,0,0,1,9.78-9.78H76.15a9.77,9.77,0,0,1,9.77,9.78v23.4c0,5.4-3.3,9.78-8.7,9.78"/><line class="cls-1" x1="94.44" y1="126.29" x2="94.44" y2="137.55"/><path class="cls-2" d="M37.33,37.09c0,12.54-19.72,12.14-19.72,0C15,37.09,9,37.21,7.4,38.18S.61,41.75,2.26,51.06H12V76.32H40.34V37.92"/><polygon class="cls-2" points="92.98 70.32 112.72 70.32 132.47 126.08 92.98 126.29 92.98 70.32"/></g></g></svg>