<svg xmlns="http://www.w3.org/2000/svg" viewBox="0 0 194.19 146.11"><defs><style>.cls-1{fill:#27aae1;}.cls-2{fill:none;stroke:#27aae1;stroke-linecap:round;stroke-linejoin:round;stroke-width:3px;}</style></defs><title>Ресурс 2</title><g id="Слой_2" data-name="Слой 2"><g id="Слой_1-2" data-name="Слой 1"><path class="cls-1" d="M77.7,3.44A3.5,3.5,0,1,1,74.14,0,3.5,3.5,0,0,1,77.7,3.44"/><path class="cls-1" d="M80.68,17.65C80.55,9.77,88,3.26,97.33,3.11s17,6.92,17.13,14.8"/><path class="cls-2" d="M137.71,68.07c0,11.48-17.69,20.55-40.58,20.8"/><line class="cls-2" x1="97.52" y1="68.71" x2="97.62" y2="77.43"/><path class="cls-2" d="M110.16,73.07c-7.47,6.26-17.07,7.16-25.19,0"/><path class="cls-2" d="M121.79,59.49s-7.1-2.14-12.11.88"/><path class="cls-2" d="M73.35,59.49s7.09-2.14,12.1.88"/><path class="cls-2" d="M174,66.66s16.27-3.43,18.39,5.31c3.1,12.82-18.22,16.9-18.22,16.9Z"/><polygon class="cls-2" points="174 66.66 174 119.89 160.1 115.63 160.1 68.18 174 66.66"/><path class="cls-2" d="M139.86,32.78a7.07,7.07,0,0,0,.51-10.14c-2.67-2.84-7.45-2.7-10.59.25"/><path class="cls-2" d="M56.48,68.07c0,11.48,17.68,20.55,40.57,20.8"/><path class="cls-1" d="M97.05,43.25C86.75,30.69,72.11,30,57.59,68.07,36.11,56.13,50.47,15.82,97.13,15.82s60.77,40.31,39.29,52.25c-14.52-38-29-37.38-39.29-24.82"/><path class="cls-2" d="M20.19,66.66S3.92,63.23,1.81,72C-1.29,84.79,20,88.87,20,88.87Z"/><polygon class="cls-2" points="20.19 66.66 20.19 119.89 34.09 115.63 34.09 68.18 20.19 66.66"/><path class="cls-2" d="M56.48,68.07c-10.12,1.35-21.18.9-36.29-1.41-.36,13.64,0,53.23,0,53.23a242.23,242.23,0,0,0,36.36-13.75,113.61,113.61,0,0,0-4.46,26.46c22.86,16.35,68.75,15.68,90,0a113.54,113.54,0,0,0-4.47-26.46A242.12,242.12,0,0,0,174,119.89s.36-39.59,0-53.23c-15.11,2.31-26.17,2.76-36.29,1.41"/><path class="cls-2" d="M54.32,32.78a7.07,7.07,0,0,1-.5-10.14c2.66-2.84,7.44-2.7,10.58.25"/><line class="cls-2" x1="73.48" y1="3.12" x2="83.77" y2="8.61"/><line class="cls-2" x1="105.89" y1="10.38" x2="116.62" y2="5.05"/><path class="cls-2" d="M120.84,84.91S118.05,105,97.13,105,73.35,84.91,73.35,84.91"/></g></g></svg>