<svg xmlns="http://www.w3.org/2000/svg" viewBox="0 0 190.09 204.53"><defs><style>.cls-1,.cls-2{fill:none;stroke:#007dc5;stroke-linecap:round;stroke-width:3px;}.cls-1{stroke-miterlimit:10;}.cls-2{stroke-linejoin:round;}</style></defs><title>steps-title-img</title><g id="Слой_2" data-name="Слой 2"><g id="Слой_1-2" data-name="Слой 1"><line class="cls-1" x1="47.1" y1="191.48" x2="142.98" y2="191.48"/><line class="cls-1" x1="69.25" y1="203.03" x2="120.83" y2="203.03"/><line class="cls-1" x1="69.25" y1="52.77" x2="120.83" y2="52.77"/><line class="cls-2" x1="25.51" y1="177.65" x2="164.58" y2="177.65"/><path class="cls-1" d="M153.24,177.65V138.88c17.53.61,33.64-8.46,33.64-8.46,2.56-.76,2.38-4.84-1.52-4.47-10.75,1-20-4.24-26.56-16.41H140.48V94.9c15.23,1.88,24.24-4.56,25.87-5.63,2.31-1.52,2.52-4.09-1-4.46-14.24-1.5-23.22-10.23-29-19.25H122.73V52.81c9,.14,18.58-4.19,20.84-5.78,2.83-2,1.84-4.24-.48-4.69-13.16-2.55-23.33-9.86-29.1-18.87H76.09c-5.76,9-15.93,16.32-29.1,18.87-2.32.45-3.31,2.7-.47,4.69,2.25,1.59,11.85,5.92,20.83,5.78V65.56H53.69c-5.77,9-14.74,17.75-29,19.25-3.5.37-3.29,2.94-1,4.46,1.63,1.07,10.63,7.51,25.87,5.63v14.64H31.28C24.73,121.71,15.48,127,4.73,126c-3.91-.37-4.09,3.71-1.52,4.47,0,0,16.1,9.07,33.64,8.46v38.77"/><line class="cls-2" x1="84.75" y1="31.36" x2="84.75" y2="51.48"/><line class="cls-2" x1="47.1" y1="138.39" x2="47.1" y2="167.8"/><line class="cls-2" x1="141.45" y1="138.39" x2="141.45" y2="167.8"/><line class="cls-2" x1="74.92" y1="39.82" x2="74.92" y2="51.48"/><polygon class="cls-2" points="81.93 14.66 106.6 14.66 94.27 1.5 81.93 14.66"/><line class="cls-2" x1="94.58" y1="31.36" x2="94.58" y2="51.48"/><line class="cls-2" x1="104.42" y1="31.36" x2="104.42" y2="51.48"/><line class="cls-2" x1="114.25" y1="39.82" x2="114.25" y2="51.48"/></g></g></svg>