<svg xmlns="http://www.w3.org/2000/svg" viewBox="0 0 130.99 143.93"><defs><style>.cls-1{fill:none;stroke:#926eac;stroke-linecap:round;stroke-linejoin:round;stroke-width:3px;}.cls-2{fill:#926eac;}</style></defs><title>steps-inner-img-cup</title><g id="Слой_2" data-name="Слой 2"><g id="Слой_1-2" data-name="Слой 1"><line class="cls-1" x1="13.04" y1="142.43" x2="117.95" y2="142.43"/><path class="cls-1" d="M66.4,33.73H31.49S13.68,90.54,57.28,109.27v20.27H32.41v12.89"/><path class="cls-1" d="M29,45.44H2S-5.13,81,34.06,88.08"/><path class="cls-1" d="M64.59,33.73H99.5s17.81,56.81-25.79,75.54v20.27H98.58v12.89"/><path class="cls-1" d="M102,45.44h27s7.14,35.58-32,42.64"/><path class="cls-2" d="M67.11,46.36l4.8,14.77H87.44a1.7,1.7,0,0,1,1,3.07L75.87,73.33l4.8,14.78A1.7,1.7,0,0,1,78.06,90L65.49,80.88,52.92,90a1.7,1.7,0,0,1-2.61-1.9l4.8-14.78L42.54,64.2a1.7,1.7,0,0,1,1-3.07H59.08l4.8-14.77a1.7,1.7,0,0,1,3.23,0"/><line class="cls-1" x1="39.62" y1="24.73" x2="91.85" y2="24.73"/><path class="cls-1" d="M72.9,8.9a7.41,7.41,0,1,1-7.41-7.4A7.41,7.41,0,0,1,72.9,8.9Z"/></g></g></svg>