<svg id="Layer_1" enable-background="new 0 0 32 32" height="512" viewBox="0 0 32 32" width="512" xmlns="http://www.w3.org/2000/svg"><g><g><path d="m16 24.4c-8.2 0-14.5-9.2-14.8-9.6-.3-.4-.3-1 0-1.4s6.6-9.8 14.8-9.8 14.5 9.4 14.8 9.8.3 1 0 1.4-6.6 9.6-14.8 9.6zm-12.1-10.3c1.6 2 6.5 7.7 12.1 7.7s10.6-5.7 12.1-7.7c-1.6-2.1-6.5-8-12.1-8s-10.6 5.9-12.1 8z"/></g><g><path d="m16 20.3c-3.5 0-6.3-2.8-6.3-6.3s2.8-6.3 6.3-6.3 6.3 2.8 6.3 6.3-2.8 6.3-6.3 6.3zm0-10.1c-2.1 0-3.8 1.7-3.8 3.8s1.7 3.8 3.8 3.8 3.8-1.7 3.8-3.8-1.7-3.8-3.8-3.8z"/></g></g></svg>