<svg
        xmlns="http://www.w3.org/2000/svg"
        xmlns:xlink="http://www.w3.org/1999/xlink"
        width="836px" height="835px">
    <path fill-rule="evenodd"  opacity="0.039" fill="rgb(149, 64, 144)"
          d="M417.505,835.013 C186.921,835.013 -0.006,648.089 -0.006,417.504 C-0.006,186.924 186.921,0.000 417.505,0.000 C648.089,0.000 835.016,186.924 835.016,417.504 C835.016,648.089 648.089,835.013 417.505,835.013 ZM417.508,61.460 C220.867,61.460 61.460,220.869 61.460,417.508 C61.460,614.151 220.867,773.561 417.508,773.561 C614.149,773.561 773.563,614.151 773.563,417.508 C773.563,220.869 614.149,61.460 417.508,61.460 ZM414.842,703.612 C256.835,703.612 128.742,575.521 128.742,417.512 C128.742,259.506 256.835,131.418 414.842,131.418 C572.848,131.418 700.938,259.506 700.938,417.512 C700.938,575.521 572.848,703.612 414.842,703.612 ZM417.450,193.168 C293.577,193.168 193.161,293.582 193.161,417.452 C193.161,541.322 293.577,641.741 417.450,641.741 C541.320,641.741 641.735,541.322 641.735,417.452 C641.735,293.582 541.320,193.168 417.450,193.168 ZM417.392,573.269 C331.310,573.269 261.522,503.480 261.522,417.395 C261.522,331.310 331.310,261.521 417.392,261.521 C503.477,261.521 573.265,331.310 573.265,417.395 C573.265,503.480 503.477,573.269 417.392,573.269 ZM414.909,319.731 C362.345,319.731 319.730,362.348 319.730,414.913 C319.730,467.478 362.345,510.094 414.909,510.094 C467.480,510.094 510.095,467.478 510.095,414.913 C510.095,362.348 467.480,319.731 414.909,319.731 Z"/>
</svg>