<svg
        xmlns="http://www.w3.org/2000/svg"
        xmlns:xlink="http://www.w3.org/1999/xlink"
        width="16px" height="14px">
    <path fill-rule="evenodd" fill="rgb(149, 64, 144)"
          d="M14.000,14.000 L13.625,14.000 C12.520,14.000 11.625,13.104 11.625,12.000
          L11.625,11.812 C11.625,10.708 12.520,9.812 13.625,9.812 L14.000,9.812 C15.104,9.812
          16.000,10.708 16.000,11.812 L16.000,12.000 C16.000,13.104 15.104,14.000 14.000,14.000
          ZM14.000,9.094 L13.625,9.094 C12.520,9.094 11.625,8.198 11.625,7.094 L11.625,6.906 C11.625,5.802
          12.520,4.906 13.625,4.906 L14.000,4.906 C15.104,4.906 16.000,5.802 16.000,6.906 L16.000,7.094
          C16.000,8.198 15.104,9.094 14.000,9.094 ZM14.000,4.187 L13.625,4.187 C12.520,4.187 11.625,3.292
          11.625,2.187 L11.625,2.000 C11.625,0.895 12.520,-0.000 13.625,-0.000 L14.000,-0.000 C15.104,-0.000
          16.000,0.895 16.000,2.000 L16.000,2.187 C16.000,3.292 15.104,4.187 14.000,4.187 ZM8.187,14.000 L7.812,14.000
          C6.708,14.000 5.812,13.104 5.812,12.000 L5.812,11.812 C5.812,10.708 6.708,9.812 7.812,9.812 L8.187,9.812
          C9.292,9.812 10.187,10.708 10.187,11.812 L10.187,12.000 C10.187,13.104 9.292,14.000 8.187,14.000
          ZM8.187,9.094 L7.812,9.094 C6.708,9.094 5.812,8.198 5.812,7.094 L5.812,6.906 C5.812,5.802 6.708,4.906
          7.812,4.906 L8.187,4.906 C9.292,4.906 10.187,5.802 10.187,6.906 L10.187,7.094 C10.187,8.198 9.292,9.094
          8.187,9.094 ZM8.187,4.187 L7.812,4.187 C6.708,4.187 5.812,3.292 5.812,2.187 L5.812,2.000 C5.812,0.895
          6.708,-0.000 7.812,-0.000 L8.187,-0.000 C9.292,-0.000 10.187,0.895 10.187,2.000 L10.187,2.187 C10.187,3.292
          9.292,4.187 8.187,4.187 ZM2.375,14.000 L2.000,14.000 C0.895,14.000 -0.000,13.104 -0.000,12.000
          L-0.000,11.812 C-0.000,10.708 0.895,9.812 2.000,9.812 L2.375,9.812 C3.480,9.812 4.375,10.708 4.375,11.812
          L4.375,12.000 C4.375,13.104 3.480,14.000 2.375,14.000 ZM2.375,9.094 L2.000,9.094 C0.895,9.094 -0.000,8.198
          -0.000,7.094 L-0.000,6.906 C-0.000,5.802 0.895,4.906 2.000,4.906 L2.375,4.906 C3.480,4.906 4.375,5.802
           4.375,6.906 L4.375,7.094 C4.375,8.198 3.480,9.094 2.375,9.094 ZM2.375,4.187 L2.000,4.187 C0.895,4.187
            -0.000,3.292 -0.000,2.187 L-0.000,2.000 C-0.000,0.895 0.895,-0.000 2.000,-0.000 L2.375,-0.000 C3.480,-0.000
             4.375,0.895 4.375,2.000 L4.375,2.187 C4.375,3.292 3.480,4.187 2.375,4.187 Z"/>
</svg>