<svg
        xmlns="http://www.w3.org/2000/svg"
        xmlns:xlink="http://www.w3.org/1999/xlink"
        width="15px" height="13px">
    <path fill-rule="evenodd" fill="rgb(115, 117, 124)"
          d="M13.500,8.000 L1.500,8.000 C0.671,8.000 -0.000,7.328 -0.000,6.500 C-0.000,5.671 0.671,5.000 1.500,5.000
          L13.500,5.000 C14.328,5.000 15.000,5.671 15.000,6.500 C15.000,7.328 14.328,8.000 13.500,8.000 ZM13.500,3.000
          L1.500,3.000 C0.671,3.000 -0.000,2.328 -0.000,1.500 C-0.000,0.672 0.671,-0.000 1.500,-0.000 L13.500,-0.000
          C14.328,-0.000 15.000,0.672 15.000,1.500 C15.000,2.328 14.328,3.000 13.500,3.000 ZM1.500,10.000 L13.500,10.000
          C14.328,10.000 15.000,10.672 15.000,11.500 C15.000,12.328 14.328,13.000 13.500,13.000 L1.500,13.000
          C0.671,13.000 -0.000,12.328 -0.000,11.500 C-0.000,10.672 0.671,10.000 1.500,10.000 Z"/>
</svg>