<svg enable-background="new 0 0 24 24" width="14" height="14" viewBox="0 0 24 24" xmlns="http://www.w3.org/2000/svg"><g id="Safe" display="none"><path d="m22 0h-20-2v2 20 2h2 20 2v-2-20-2zm0 22h-20v-20h20z" display="inline" fill="#00aeef" opacity=".2"/></g><g id="Lineal" display="none" fill="none" stroke="#000" stroke-miterlimit="10" stroke-width="2"><path d="m19 21h-14c-1.105 0-2-.895-2-2v-14c0-1.105.895-2 2-2h14c1.105 0 2 .895 2 2v14c0 1.105-.895 2-2 2z" display="inline"/><g stroke-linecap="round" stroke-linejoin="round"><path d="m7 14 2-2 3 3 5-5" display="inline"/><path d="m14 10h3v3" display="inline"/></g></g><g id="Lineal_Expanded"><g><path d="m19 2h-14c-1.654 0-3 1.346-3 3v14c0 1.654 1.346 3 3 3h14c1.654 0 3-1.346 3-3v-14c0-1.654-1.346-3-3-3zm1 17c0 .551-.449 1-1 1h-14c-.551 0-1-.449-1-1v-14c0-.551.449-1 1-1h14c.551 0 1 .449 1 1z"/><path d="m17.382 9.077c-.122-.05-.252-.077-.382-.077h-3c-.552 0-1 .448-1 1s.448 1 1 1h.586l-2.586 2.586-2.293-2.293c-.391-.391-1.023-.391-1.414 0l-2 2c-.391.391-.391 1.023 0 1.414s1.023.391 1.414 0l1.293-1.293 2.293 2.293c.195.195.451.293.707.293s.512-.098.707-.293l3.293-3.293v.586c0 .552.448 1 1 1s1-.448 1-1v-3c0-.13-.027-.26-.077-.382-.102-.245-.296-.439-.541-.541z"/></g></g><g stroke-miterlimit="10" stroke-width="2"><g id="Filled" display="none"><path d="m19 21h-14c-1.105 0-2-.895-2-2v-14c0-1.105.895-2 2-2h14c1.105 0 2 .895 2 2v14c0 1.105-.895 2-2 2z" display="inline" stroke="#000"/><g fill="none" stroke="#fff" stroke-linecap="round" stroke-linejoin="round"><path d="m7 14 2-2 3 3 5-5" display="inline"/><path d="m14 10h3v3" display="inline"/></g></g><g id="Two" display="none" fill="none"><path d="m19 21h-14c-1.105 0-2-.895-2-2v-14c0-1.105.895-2 2-2h14c1.105 0 2 .895 2 2v14c0 1.105-.895 2-2 2z" display="inline" stroke="#495961"/><g stroke="#32e9b6" stroke-linecap="round" stroke-linejoin="round"><path d="m7 14 2-2 3 3 5-5" display="inline"/><path d="m14 10h3v3" display="inline"/></g></g><g id="Colored" display="none" stroke="#495961"><path d="m19 21h-14c-1.105 0-2-.895-2-2v-14c0-1.105.895-2 2-2h14c1.105 0 2 .895 2 2v14c0 1.105-.895 2-2 2z" display="inline" fill="#83dafd"/><g fill="none" stroke-linecap="round" stroke-linejoin="round"><path d="m7 14 2-2 3 3 5-5" display="inline"/><path d="m14 10h3v3" display="inline"/></g></g></g></svg>