<?xml version="1.0" encoding="utf-8"?>
<!-- Generator: Adobe Illustrator 24.1.1, SVG Export Plug-In . SVG Version: 6.00 Build 0)  -->
<svg version="1.1" id="Layer_1" xmlns="http://www.w3.org/2000/svg" xmlns:xlink="http://www.w3.org/1999/xlink" x="0px" y="0px" width="20" height="20"
	 viewBox="0 0 512 512" style="enable-background:new 0 0 512 512;" xml:space="preserve">
<path d="M416,208h-0.1c0-4.2-1.5-8.3-4.5-11.3c-3.1-1-136.5-142.6-139.3-132.6V64h-96c-44.1,0-80,35.9-80,80c0,0,0,224,0,224
	c2,116.9,168.2,71.7,240,80C452.9,446,407.7,279.8,416,208z M288,118.6l73.4,73.4C304.4,196,284,175.5,288,118.6z M384,368
	c0,26.5-21.5,48-48,48H176c-26.5,0-48-21.5-48-48V144c1.4-66,86.2-44.8,128-48c-6.3,103.3,24.9,134.3,128,128V368z"/>
</svg>
