<svg id="Layer_1" enable-background="new 0 0 512 512" height="15" viewBox="0 0 512 512" width="15"
     xmlns="http://www.w3.org/2000/svg">
    <g>
        <path d="m241 512h-121c-66.168 0-120-53.832-120-120v-272c0-66.168 53.832-120 120-120h121c66.168 0 120 53.832 120 120v20c0 11.046-8.954 20-20 20s-20-8.954-20-20v-20c0-44.112-35.888-80-80-80h-121c-44.112 0-80 35.888-80 80v272c0 44.112 35.888 80 80 80h121c44.112 0 80-35.888 80-80v-20c0-11.046 8.954-20 20-20s20 8.954 20 20v20c0 66.168-53.832 120-120 120z"/>
        <path d="m434 352c-5.128 0-10.254-1.959-14.161-5.877-7.8-7.82-7.783-20.484.038-28.284l46.289-46.166c3.763-3.751 5.834-8.731 5.834-14.024 0-5.275-2.057-10.239-5.792-13.984l-46.222-45.395c-7.881-7.74-7.995-20.402-.256-28.283 7.739-7.88 20.403-7.995 28.283-.256l46.289 45.461c.036.035.071.07.107.106 11.343 11.309 17.59 26.35 17.59 42.351-.001 16.001-6.247 31.041-17.591 42.35l-46.286 46.163c-3.902 3.892-9.013 5.838-14.122 5.838zm-1-96c0-11.046-8.954-20-20-20h-216c-11.046 0-20 8.954-20 20s8.954 20 20 20h216c11.046 0 20-8.954 20-20z"/>
    </g>
</svg>