<svg
        xmlns="http://www.w3.org/2000/svg"
        xmlns:xlink="http://www.w3.org/1999/xlink"
        width="17px" height="17px">
    <path fill-rule="evenodd"  fill="rgb(140, 140, 157)"
          d="M15.647,15.179 L15.179,15.647 C14.708,16.117 13.946,16.117 13.475,15.647 L10.529,12.703 C9.471,13.365 8.221,13.749 6.881,13.749 C3.081,13.749 -0.000,10.671 -0.000,6.874 C-0.000,3.077 3.081,-0.000 6.881,-0.000 C10.681,-0.000 13.762,3.077 13.762,6.874 C13.762,8.221 13.374,9.477 12.704,10.537 L15.647,13.478 C16.117,13.948 16.117,14.709 15.647,15.179 ZM6.881,1.902 C4.132,1.902 1.904,4.128 1.904,6.874 C1.904,9.620 4.132,11.846 6.881,11.846 C9.629,11.846 11.857,9.620 11.857,6.874 C11.857,4.128 9.629,1.902 6.881,1.902 ZM9.441,7.727 L7.734,7.727 L7.734,9.432 C7.734,9.903 7.352,10.285 6.881,10.285 C6.409,10.285 6.027,9.903 6.027,9.432 L6.027,7.727 L4.320,7.727 C3.849,7.727 3.467,7.345 3.467,6.874 C3.467,6.403 3.849,6.022 4.320,6.022 L6.027,6.022 L6.027,4.316 C6.027,3.845 6.409,3.463 6.881,3.463 C7.352,3.463 7.734,3.845 7.734,4.316 L7.734,6.022 L9.441,6.022 C9.913,6.022 10.295,6.403 10.295,6.874 C10.295,7.345 9.913,7.727 9.441,7.727 Z"/>
</svg>