<svg
        xmlns="http://www.w3.org/2000/svg"
        xmlns:xlink="http://www.w3.org/1999/xlink"
        width="38px" height="38px">
    <path fill-rule="evenodd"  fill="rgb(255, 255, 255)"
          d="M37.162,36.051 L36.050,37.162 C34.932,38.278 33.121,38.278 32.004,37.162 L25.006,30.171 C22.494,31.743 19.525,32.653 16.342,32.653 C7.317,32.653 -0.000,25.344 -0.000,16.326 C-0.000,7.309 7.317,-0.001 16.342,-0.001 C25.368,-0.001 32.684,7.309 32.684,16.326 C32.684,19.524 31.763,22.508 30.172,25.026 L37.162,32.010 C38.279,33.126 38.279,34.935 37.162,36.051 ZM16.342,4.518 C9.814,4.518 4.523,9.805 4.523,16.326 C4.523,22.848 9.814,28.134 16.342,28.134 C22.870,28.134 28.161,22.848 28.161,16.326 C28.161,9.805 22.870,4.518 16.342,4.518 ZM22.423,18.351 L18.369,18.351 L18.369,22.402 C18.369,23.520 17.461,24.427 16.342,24.427 C15.222,24.427 14.315,23.520 14.315,22.402 L14.315,18.351 L10.261,18.351 C9.142,18.351 8.234,17.445 8.234,16.326 C8.234,15.208 9.142,14.301 10.261,14.301 L14.315,14.301 L14.315,10.251 C14.315,9.133 15.222,8.226 16.342,8.226 C17.461,8.226 18.369,9.133 18.369,10.251 L18.369,14.301 L22.423,14.301 C23.543,14.301 24.450,15.208 24.450,16.326 C24.450,17.445 23.543,18.351 22.423,18.351 Z"/>
</svg>