<svg xmlns="http://www.w3.org/2000/svg" viewBox="0 0 157.58 159.96"><defs><style>.cls-1{fill:#faf9d5;}.cls-2{fill:none;stroke:#cd733a;stroke-linecap:round;stroke-linejoin:round;stroke-width:3.68px;}</style></defs><title>achievement-1</title><g id="Layer_2" data-name="Layer 2"><g id="Layer_1-2" data-name="Layer 1"><path class="cls-1" d="M157.58,78.79A78.79,78.79,0,1,1,78.79,0a78.79,78.79,0,0,1,78.79,78.79"/><path class="cls-2" d="M2.06,47.18V131.4H64.58s-28.74-10.47-52.77-9.28V32.66S41.22,30,64.58,42.18"/><path class="cls-2" d="M127.11,47.18V131.4H64.59s28.74-10.47,52.77-9.28V32.66S87.95,30,64.59,42.18"/><line class="cls-2" x1="64.59" y1="42.18" x2="64.59" y2="130.87"/><path class="cls-2" d="M106.62,51A65.68,65.68,0,0,0,74.2,58.12"/><path class="cls-2" d="M106.62,62.18A65.69,65.69,0,0,0,74.2,69.32"/><path class="cls-2" d="M106.62,73.38A65.69,65.69,0,0,0,74.2,80.52"/><path class="cls-2" d="M106.62,84.58A65.68,65.68,0,0,0,74.2,91.72"/><path class="cls-2" d="M106.62,95.78a65.69,65.69,0,0,0-32.42,7.14"/><path class="cls-2" d="M106.62,107a65.69,65.69,0,0,0-32.42,7.14"/><line class="cls-2" x1="53.21" y1="76.94" x2="47.26" y2="76.94"/><line class="cls-2" x1="53.21" y1="82.77" x2="47.26" y2="82.77"/><line class="cls-2" x1="28.13" y1="74.94" x2="24.06" y2="74.94"/><line class="cls-2" x1="28.13" y1="80.77" x2="24.06" y2="80.77"/><line class="cls-2" x1="25.44" y1="88.09" x2="41.2" y2="88.09"/><line class="cls-2" x1="34.13" y1="68.08" x2="34.13" y2="92.97"/><line class="cls-2" x1="41.2" y1="70.08" x2="41.2" y2="94.97"/><polyline class="cls-2" points="72.41 31.22 72.41 16.63 84.14 16.63 84.14 27.56"/><polyline class="cls-2" points="41.2 137.91 41.2 158.12 52.74 158.12 52.74 137.91"/><line class="cls-2" x1="41.2" y1="88.09" x2="53.31" y2="92.97"/></g></g></svg>