<svg xmlns="http://www.w3.org/2000/svg" viewBox="0 0 157.59 157.58"><defs><style>.cls-1{fill:#e5f1d4;}.cls-2{fill:none;stroke:#2f8a47;stroke-linecap:round;stroke-linejoin:round;stroke-width:3.68px;}</style></defs><title>achievement-5</title><g id="Layer_2" data-name="Layer 2"><g id="Layer_1-2" data-name="Layer 1"><path class="cls-1" d="M157.59,78.79A78.79,78.79,0,1,1,78.79,0a78.79,78.79,0,0,1,78.79,78.79"/><polyline class="cls-2" points="142.25 102.13 118.38 102.13 118.38 123.91 90.87 123.91 90.87 143.09 64.92 143.09 64.92 154.51 17.7 154.51"/><path class="cls-2" d="M45.62,69.29s-17.52,22.89-22.76,30c-4.07,5.55-10.38-.22-7.59-4.74,4.85-7.84,24.66-44.89,24.66-44.89V42.41c-6.14-3.07-3.1-13.59,5.3-13.59,9.77,0,10.82,7.46,10.82,7.46v8l-6,3.16"/><line class="cls-2" x1="36.81" y1="85.13" x2="36.81" y2="154.51"/><polyline class="cls-2" points="53.44 55.98 56.05 88.37 75.03 109.75 75.46 136.52"/><polyline class="cls-2" points="47.61 146.67 50.85 104.99 64.95 116.66 64.95 143.09"/><polyline class="cls-2" points="95.44 86.17 95.44 57.66 83.4 57.66 105.35 33.89"/><polyline class="cls-2" points="115.27 86.17 115.27 57.66 127.31 57.66 105.35 33.89"/></g></g></svg>