<svg xmlns="http://www.w3.org/2000/svg" viewBox="0 0 157.59 158.56"><defs><style>.cls-1{fill:#fcdee0;}.cls-2{fill:none;stroke:#c0406d;stroke-linecap:round;stroke-linejoin:round;stroke-width:3.68px;}</style></defs><title>achievement-4</title><g id="Layer_2" data-name="Layer 2"><g id="Layer_1-2" data-name="Layer 1"><path class="cls-1" d="M157.59,78.79A78.79,78.79,0,1,1,78.79,0a78.79,78.79,0,0,1,78.79,78.79"/><line class="cls-2" x1="18.93" y1="156.72" x2="123.84" y2="156.72"/><path class="cls-2" d="M72.29,48H37.38s-17.81,56.81,25.79,75.53v20.27H38.3v12.9"/><path class="cls-2" d="M34.87,59.73H7.9S.76,95.31,40,102.37"/><path class="cls-2" d="M70.48,48h34.91s17.81,56.81-25.79,75.53v20.27h24.87v12.9"/><path class="cls-2" d="M107.91,59.73h27s7.14,35.58-32,42.64"/><path class="cls-2" d="M73,60.64l4.8,14.78H93.34a1.7,1.7,0,0,1,1,3.07L81.77,87.62l4.8,14.78a1.7,1.7,0,0,1-2.61,1.9L71.39,95.16l-12.57,9.13a1.7,1.7,0,0,1-2.61-1.9L61,87.62,48.44,78.49a1.7,1.7,0,0,1,1-3.07H65l4.8-14.78A1.7,1.7,0,0,1,73,60.64Z"/><line class="cls-2" x1="45.52" y1="39.01" x2="97.75" y2="39.01"/><circle class="cls-2" cx="71.39" cy="23.19" r="7.41"/></g></g></svg>