<svg xmlns="http://www.w3.org/2000/svg" viewBox="0 0 158.58 174.29"><defs><style>.cls-1{fill:#e0def0;}.cls-2{fill:none;stroke:#8f499c;stroke-linecap:round;stroke-miterlimit:10;stroke-width:3.68px;}</style></defs><title>achievement-2</title><g id="Layer_2" data-name="Layer 2"><g id="Layer_1-2" data-name="Layer 1"><path class="cls-1" d="M158.58,78.79A78.79,78.79,0,1,1,79.79,0a78.79,78.79,0,0,1,78.79,78.79"/><line class="cls-2" x1="65.18" y1="161.8" x2="65.18" y2="149.4"/><line class="cls-2" x1="31.15" y1="164.16" x2="99.13" y2="164.16"/><line class="cls-2" x1="2.12" y1="172.45" x2="128.15" y2="172.45"/><circle class="cls-2" cx="66.48" cy="86.94" r="33.88" transform="translate(-38.45 118.02) rotate(-69.1)"/><path class="cls-2" d="M41.06,47.44A47,47,0,1,1,21.27,74.18"/><path class="cls-2" d="M31.09,38.25A60.19,60.19,0,1,1,9.65,67.13"/><circle class="cls-2" cx="66.48" cy="86.94" r="20.79" transform="translate(-38.45 118.02) rotate(-69.1)"/><circle class="cls-2" cx="66.48" cy="86.94" r="8.52" transform="translate(-38.45 118.02) rotate(-69.1)"/><polyline class="cls-2" points="17.54 50.55 4.66 52.3 23.6 66.72 36.48 64.97"/><polyline class="cls-2" points="17.47 50.64 15.72 37.76 34.66 52.18 36.41 65.06"/><line class="cls-2" x1="66.27" y1="87.49" x2="12.58" y2="46.71"/></g></g></svg>