<svg xmlns="http://www.w3.org/2000/svg" viewBox="0 0 157.59 171.68"><defs><style>.cls-1{fill:#e1f4fd;}.cls-2{fill:none;stroke:#27aae1;stroke-linecap:round;stroke-linejoin:round;stroke-width:3.68px;}</style></defs><title>achievement-3</title><g id="Layer_2" data-name="Layer 2"><g id="Layer_1-2" data-name="Layer 1"><path class="cls-1" d="M157.59,78.79A78.79,78.79,0,1,1,78.79,0a78.79,78.79,0,0,1,78.79,78.79"/><path class="cls-2" d="M69.64,110.22l6.51,20H97.2a2.3,2.3,0,0,1,1.35,4.16l-17,12.38,6.51,20a2.3,2.3,0,0,1-3.54,2.57L67.45,157l-17,12.38a2.3,2.3,0,0,1-3.54-2.57l6.51-20-17-12.38a2.3,2.3,0,0,1,1.35-4.16H58.75l6.51-20A2.3,2.3,0,0,1,69.64,110.22Z"/><polygon class="cls-2" points="105 70.87 67.45 100.41 29.9 70.87 29.9 43.19 105 43.19 105 70.87"/><line class="cls-2" x1="52.68" y1="43.19" x2="52.68" y2="88.47"/><line class="cls-2" x1="82.57" y1="43.19" x2="82.57" y2="88.47"/><line class="cls-2" x1="67.45" y1="100.41" x2="67.45" y2="108.63"/><polyline class="cls-2" points="91.02 96.41 115.96 76.85 115.96 32.83 18.22 32.83 18.22 65.83"/><polyline class="cls-2" points="126.39 55.59 126.39 82.53 107 98.11"/></g></g></svg>