<svg xmlns="http://www.w3.org/2000/svg" viewBox="0 0 205.11 165.66"><defs><style>.cls-1{fill:#e5f1d4;}.cls-2{fill:none;stroke:#2f8a47;stroke-linecap:round;stroke-linejoin:round;stroke-width:3.69px;}</style></defs><title>advantage-2</title><g id="Layer_2" data-name="Layer 2"><g id="Layer_1-2" data-name="Layer 1"><circle class="cls-1" cx="126.32" cy="78.79" r="78.79"/><polyline class="cls-2" points="133.2 131.31 160.41 163.81 38.62 163.81 65.23 132.62"/><path class="cls-2" d="M110.87,141.77c61.94-18.9,53.54-84,53.54-84H34.61s-8.4,65.09,53.54,84"/><path class="cls-2" d="M34.78,76.19s-13.31-14.52-26-7.26C-5.08,76.84-.7,110.29,45.45,110.29"/><path class="cls-2" d="M37.31,90.42s-15.5-20-24.8-13.64c-7.77,5.35,4.11,25.51,28.11,24.95"/><path class="cls-2" d="M164.42,76.19s13.31-14.52,26-7.26c13.84,7.91,9.46,41.36-36.68,41.36"/><path class="cls-2" d="M161.89,90.42s15.5-20,24.8-13.64c7.77,5.35-4.11,25.51-28.11,24.95"/><polygon class="cls-2" points="100.89 74.07 107.14 93.31 127.37 93.31 111.01 105.2 117.26 124.44 100.89 112.55 84.53 124.44 90.78 105.2 74.42 93.31 94.64 93.31 100.89 74.07"/><path class="cls-2" d="M132.57,50.8s4.83-17.07,27-23.83"/><path class="cls-2" d="M116.21,50.8a68.23,68.23,0,0,1,13.52-40.25"/><line class="cls-2" x1="99.72" y1="50.8" x2="99.72" y2="4.76"/><path class="cls-2" d="M67,50.8S62.18,33.74,40,27"/><path class="cls-2" d="M83.36,50.8A68.23,68.23,0,0,0,69.83,10.55"/><line class="cls-2" x1="61.91" y1="154.42" x2="78.06" y2="154.42"/><line class="cls-2" x1="44.4" y1="69.06" x2="80.55" y2="69.06"/></g></g></svg>