<svg xmlns="http://www.w3.org/2000/svg" viewBox="0 0 166.41 171.87"><defs><style>.cls-1{fill:#e0def0;}.cls-2{fill:none;stroke:#8f499c;stroke-linecap:round;stroke-linejoin:round;stroke-width:3.69px;}</style></defs><title>advantage-4</title><g id="Layer_2" data-name="Layer 2"><g id="Layer_1-2" data-name="Layer 1"><circle class="cls-1" cx="87.61" cy="78.79" r="78.79"/><path class="cls-2" d="M80.16,141.91H44.34L20.83,168.51V140.1H15.56A13.71,13.71,0,0,1,1.84,126.38V85.09A13.71,13.71,0,0,1,15.56,71.38H80.49A13.71,13.71,0,0,1,94.2,85.2l-.33,43.1A13.71,13.71,0,0,1,80.16,141.91Z"/><line class="cls-2" x1="25.72" y1="90.01" x2="79.63" y2="90.01"/><line class="cls-2" x1="25.72" y1="106.29" x2="79.63" y2="106.29"/><line class="cls-2" x1="25.72" y1="122.57" x2="79.63" y2="122.57"/><rect class="cls-2" x="104.38" y="49.68" width="14.59" height="98.83"/><rect class="cls-2" x="104.75" y="49.32" width="14.27" height="13.49"/><polygon class="cls-2" points="104.38 148.51 112.04 170.03 118.97 148.51 104.38 148.51"/><line class="cls-2" x1="109.25" y1="158.18" x2="114.96" y2="158.18"/><polyline class="cls-2" points="40.28 64.56 40.28 27.71 134.21 27.71 134.21 128.42 126.92 128.42"/><line class="cls-2" x1="51.91" y1="58.35" x2="76.93" y2="58.35"/><line class="cls-2" x1="51.91" y1="45.07" x2="76.93" y2="45.07"/></g></g></svg>