<svg xmlns="http://www.w3.org/2000/svg" viewBox="0 0 157.91 166.84"><defs><style>.cls-1{fill:#faf9d5;}.cls-2,.cls-3{fill:none;stroke:#cd733a;stroke-linecap:round;stroke-width:3.69px;}.cls-2{stroke-miterlimit:10;}.cls-3{stroke-linejoin:round;}</style></defs><title>advantage-6</title><g id="Layer_2" data-name="Layer 2"><g id="Layer_1-2" data-name="Layer 1"><circle class="cls-1" cx="79.12" cy="78.79" r="78.79"/><line class="cls-2" x1="96.18" y1="122.55" x2="67.32" y2="122.55"/><path class="cls-2" d="M53.43,67.62V38.47a7.85,7.85,0,0,1,7.85-7.85H102.1a10.46,10.46,0,0,1,10.46,10.46v59.25"/><path class="cls-2" d="M106.29,85.06s-2.59-4.86-9.73-10.58"/><path class="cls-2" d="M67.5,55.72s-6.63-5-1.43-9.34c3.48-2.9,8.7,2.61,8.7,2.61"/><path class="cls-2" d="M97.58,55.44s6.22-4.72,1-9.06C95.12,43.48,89.9,49,89.9,49"/><path class="cls-2" d="M102.33,63.77c3.4,7.38-8.86,13.59-19.79,13.59S59.11,71.08,62.75,63.77c4.17-8.39,8.86-16.07,19.79-16.07S98.55,55.58,102.33,63.77Z"/><line class="cls-2" x1="71.62" y1="61.41" x2="77.65" y2="61.41"/><line class="cls-2" x1="88.29" y1="61.41" x2="94.32" y2="61.41"/><path class="cls-2" d="M87.11,69.91s-4.64,3.17-8.55,0"/><line class="cls-2" x1="82.89" y1="65.3" x2="82.89" y2="71.2"/><circle class="cls-2" cx="82.38" cy="107.45" r="5.63"/><path class="cls-2" d="M3,156.5V81.57a8.5,8.5,0,0,1,8.5-8.5H50.75A11.34,11.34,0,0,1,62.09,84.4V156.5a8.5,8.5,0,0,1-8.5,8.5H11.47A8.5,8.5,0,0,1,3,156.5Z"/><circle class="cls-2" cx="33.65" cy="151.64" r="5.63"/><line class="cls-2" x1="22.26" y1="111.71" x2="27.63" y2="111.71"/><line class="cls-2" x1="37.11" y1="111.71" x2="42.48" y2="111.71"/><path class="cls-2" d="M36.05,123.05s-4.13,2.83-7.61,0"/><line class="cls-2" x1="32.3" y1="114.18" x2="32.3" y2="118.63"/><path class="cls-2" d="M24.57,97.7c-5.94,2.88-8.79,8.16-8.79,16,0,10.47,7.41,19,16.55,19s16.55-8.48,16.55-19a18.27,18.27,0,0,0-1.26-6.41"/><path class="cls-2" d="M48.4,119.27c8.75-7.84,11-33.94-16.07-33.94S6.81,111.4,16.5,119.27"/><path class="cls-2" d="M25.13,97.57s13.43,9.83,22.55,9.59"/><path class="cls-3" d="M27.3,58.26C16.14,61.14,5,55.32,2.39,45.25S6.73,24.7,17.9,21.82s22.32,2.94,24.91,13c1.92,7.44-.32,13.61-6.68,18.27l6.21,10.77Z"/><line class="cls-2" x1="11.51" y1="35.71" x2="33.21" y2="35.71"/><line class="cls-2" x1="11.51" y1="43.28" x2="29.23" y2="43.28"/><path class="cls-3" d="M118.74,143c11.16,2.88,22.32-2.94,24.91-13s-4.35-20.56-15.51-23.44-22.32,2.94-24.91,13c-1.92,7.44.32,13.61,6.68,18.27l-6.21,10.77Z"/><line class="cls-2" x1="134.53" y1="120.5" x2="112.84" y2="120.5"/><line class="cls-2" x1="130.56" y1="128.06" x2="112.84" y2="128.06"/></g></g></svg>