<svg xmlns="http://www.w3.org/2000/svg" viewBox="0 0 178.88 174.29"><defs><style>.cls-1{fill:#e0def0;}.cls-2{fill:none;stroke:#8f499c;stroke-linecap:round;stroke-miterlimit:10;stroke-width:3.69px;}</style></defs><title>advantage-1</title><g id="Layer_2" data-name="Layer 2"><g id="Layer_1-2" data-name="Layer 1"><circle class="cls-1" cx="100.09" cy="78.79" r="78.79"/><line class="cls-2" x1="85.48" y1="161.8" x2="85.48" y2="148.14"/><line class="cls-2" x1="51.45" y1="164.16" x2="119.43" y2="164.16"/><line class="cls-2" x1="22.42" y1="172.45" x2="148.45" y2="172.45"/><path class="cls-2" d="M137.79,117.61a61.23,61.23,0,0,1-102.58,5.8"/><path class="cls-2" d="M137,55.61a60.92,60.92,0,0,1,8.81,31.66q0,2.19-.15,4.35"/><path class="cls-2" d="M53.18,34.74a61.27,61.27,0,0,1,63,.08"/><path class="cls-2" d="M24.15,96.84a61.67,61.67,0,0,1-.74-9.57,60.92,60.92,0,0,1,9-32"/><path class="cls-2" d="M122.77,65a44.82,44.82,0,0,1,6.44,23.21"/><path class="cls-2" d="M122.56,111.72a45,45,0,1,1-16.64-63"/><circle class="cls-2" cx="84.18" cy="88.16" r="31.52"/><circle class="cls-2" cx="84.18" cy="88.16" r="18.76"/><circle class="cls-2" cx="84.18" cy="88.16" r="7.71"/><polyline class="cls-2" points="128.53 43.9 128.53 30.91 111.69 47.74 111.69 60.74"/><polyline class="cls-2" points="128.44 43.82 141.44 43.82 124.61 60.66 111.61 60.66"/><line class="cls-2" x1="90.62" y1="82.83" x2="133" y2="39.51"/><polyline class="cls-2" points="142.88 104.69 154.29 98.46 131.45 91.76 120.04 97.99"/><polyline class="cls-2" points="142.91 104.58 149.14 115.99 126.3 109.28 120.07 97.88"/><line class="cls-2" x1="91.94" y1="89.85" x2="148.88" y2="106.52"/><polyline class="cls-2" points="33.01 35.97 33.01 22.97 49.84 39.81 49.84 52.81"/><polyline class="cls-2" points="33.09 35.89 20.09 35.89 36.93 52.72 49.93 52.72"/><line class="cls-2" x1="79.22" y1="81.08" x2="28.53" y2="31.58"/><polyline class="cls-2" points="16.86 115.55 4.82 110.65 26.75 101.39 38.79 106.29"/><polyline class="cls-2" points="16.81 115.44 11.91 127.48 33.85 118.23 38.75 106.19"/><line class="cls-2" x1="76.75" y1="90.81" x2="11.1" y2="118.04"/></g></g></svg>