<svg xmlns="http://www.w3.org/2000/svg" viewBox="0 0 184.37 157.58"><defs><style>.cls-1{fill:#fcdee0;}.cls-2,.cls-3{fill:none;stroke:#c0406d;stroke-linecap:round;stroke-width:3.69px;}.cls-2{stroke-miterlimit:10;}.cls-3{stroke-linejoin:round;}</style></defs><title>advantage-5</title><g id="Layer_2" data-name="Layer 2"><g id="Layer_1-2" data-name="Layer 1"><circle class="cls-1" cx="105.57" cy="78.79" r="78.79"/><path class="cls-2" d="M59.25,36.52h92a8.5,8.5,0,0,1,8.5,8.5v73.8a8.5,8.5,0,0,1-8.5,8.5H21.4a8.5,8.5,0,0,1-8.5-8.5V77.31"/><path class="cls-3" d="M33.89,71.66C19.84,75.29,5.8,68,2.53,55.29S8,29.41,22.05,25.78s28.09,3.71,31.36,16.38c2.42,9.36-.41,17.13-8.4,23l7.81,13.56Z"/><line class="cls-2" x1="43.41" y1="143.83" x2="129.25" y2="143.83"/><line class="cls-2" x1="58.51" y1="152.26" x2="114.15" y2="152.26"/><line class="cls-2" x1="86.33" y1="128.17" x2="86.33" y2="143.83"/><path class="cls-2" d="M143.05,85.85c6.5,14.1-16.93,26-37.81,26s-44.76-12-37.81-26c8-16,16.93-30.7,37.81-30.7S135.83,70.2,143.05,85.85Z"/><path class="cls-2" d="M61,126.52s4.94-9.29,18.59-20.21"/><path class="cls-2" d="M150.62,126.52s-4.94-9.29-18.59-20.21"/><path class="cls-2" d="M76.5,70.47s-12.66-9.56-2.72-17.84c6.65-5.54,16.62,5,16.62,5"/><path class="cls-2" d="M134,69.93s11.89-9,1.95-17.31c-6.65-5.54-16.62,5-16.62,5"/><line class="cls-2" x1="84.16" y1="81.35" x2="95.69" y2="81.35"/><line class="cls-2" x1="116.02" y1="81.35" x2="127.55" y2="81.35"/><path class="cls-2" d="M113.55,97.58s-8.86,6.06-16.33,0"/><line class="cls-2" x1="14.01" y1="43.27" x2="41.32" y2="43.27"/><line class="cls-2" x1="14.01" y1="52.8" x2="36.32" y2="52.8"/><polyline class="cls-2" points="93.95 112.13 104.94 126.38 115.35 112.13"/><line class="cls-2" x1="105.49" y1="89.34" x2="105.49" y2="100.05"/><line class="cls-2" x1="81.38" y1="108.38" x2="94.59" y2="125.61"/><line class="cls-2" x1="127.9" y1="107.81" x2="114.97" y2="126.19"/></g></g></svg>