<svg xmlns="http://www.w3.org/2000/svg" viewBox="0 0 166.44 173.55"><defs><style>.cls-1{fill:#e1f4fd;}.cls-2{fill:none;stroke:#27aae1;stroke-linecap:round;stroke-linejoin:round;stroke-width:3.69px;}</style></defs><title>advantage-3</title><g id="Layer_2" data-name="Layer 2"><g id="Layer_1-2" data-name="Layer 1"><circle class="cls-1" cx="87.65" cy="78.79" r="78.79"/><path class="cls-2" d="M42.27,146.84s1,7.52,11.47,7.52c.3-4.78,3.89-14.65,10.6-14.3,6.29.33,4.17,31.32,4.17,31.32l-14.38.32s-35.09,0-36.54-23.08"/><path class="cls-2" d="M11.76,65.5c-5.08-4.68-5.23-11-1.78-14.4s9.39-3,13.15.8"/><path class="cls-2" d="M123.63,61.43a8.66,8.66,0,0,0,.63-12.51c-3.22-3.63-9.16-3.62-13.17-.07"/><circle class="cls-2" cx="34.88" cy="25.93" r="5.14" transform="translate(8.55 60.5) rotate(-89.33)"/><line class="cls-2" x1="39.84" y1="27.98" x2="56.86" y2="33.91"/><path class="cls-2" d="M56.06,113.16s3.06,5.28,12.45,5.28,12.25-5.28,12.25-5.28"/><line class="cls-2" x1="68.87" y1="106.38" x2="68.87" y2="116.59"/><path class="cls-2" d="M70.56,38.91h-.87c-54.57-2.1-78,50.51-51.25,65.24C36.28,56.71,56.93,57.24,69.82,72.8c0-2.22,0-2-.06.18C83,57.72,102.63,57.49,119.35,105.32,146.48,91.22,128.18,39.49,70.56,38.91Z"/><line class="cls-2" x1="90.49" y1="35.1" x2="101.61" y2="32.06"/><path class="cls-2" d="M36,101.39a13,13,0,0,0,11.75,1.08"/><path class="cls-2" d="M100.06,101.39a13,13,0,0,1-11.75,1.08"/><path class="cls-2" d="M118.76,108.34c22.72,16.84,15.47,39.07,15.47,39.07s-14.53,0-42.56-2.84c.26-2.1,2.72-18.36,2.6-18.7"/><path class="cls-2" d="M41.21,124.93c.29,1.91,4.29,17.88,4.4,19.64C17.58,147.41,3,147.41,3,147.41s-7.76-22.57,16.12-39.49"/><path class="cls-2" d="M68.58,171.48l14.26.23s35.09,0,36.54-23.08"/><path class="cls-2" d="M94.71,146.84s-1,7.52-11.47,7.52c-.3-4.78-3.89-14.65-10.6-14.3-2.29.12-3.47,4.3-4,9.57"/><path class="cls-2" d="M119.53,105l-.06.33a14.73,14.73,0,0,1-.77,2.58c-5.16,12.91-28.67,22.16-50,21.91C46.55,129.5,22,118.88,18.51,105.2"/><path class="cls-2" d="M49,40.78a15.16,15.16,0,0,1-.28-3.08c.11-9.8,9.62-17.63,21.22-17.5s20.92,8.19,20.8,18a15.16,15.16,0,0,1-.33,3"/></g></g></svg>