<svg height="512" viewBox="0 0 24 24" width="512" xmlns="http://www.w3.org/2000/svg"><g id="_08" data-name="08"><path d="m15 22h-1.52a2 2 0 0 1 -1.56-.75l-3.4-4.25h-4.52a2 2 0 0 1 -2-2v-6a2 2 0 0 1 2-2h4.52l3.4-4.25a2 2 0 0 1 1.56-.75h1.52a2 2 0 0 1 2 2v16a2 2 0 0 1 -2 2zm-11-13v6h4.52a2 2 0 0 1 1.56.75l3.4 4.25h1.52v-16h-1.52l-3.4 4.25a2 2 0 0 1 -1.56.75z"/><path d="m18.65 16.87a1 1 0 0 1 0-1.42 5 5 0 0 0 0-6.9 1 1 0 1 1 1.44-1.39 7 7 0 0 1 1.91 4.84 6.88 6.88 0 0 1 -1.94 4.83 1 1 0 0 1 -1.41.04z"/></g></svg>