<svg id="Layer_2" height="32" viewBox="0 0 32 32" width="32" xmlns="http://www.w3.org/2000/svg" data-name="Layer 2"><path d="m29.294 5.044-13-4a1 1 0 0 0 -.588 0l-13 4a1 1 0 0 0 -.706.956v7.482a16.35 16.35 0 0 0 7.73 13.834l5.746 3.536a1 1 0 0 0 1.048 0l5.746-3.536a16.35 16.35 0 0 0 7.73-13.834v-7.482a1 1 0 0 0 -.706-.956zm-1.294 8.438a14.337 14.337 0 0 1 -6.779 12.131l-5.221 3.213-5.221-3.213a14.337 14.337 0 0 1 -6.779-12.131v-6.743l12-3.693 12 3.693z" fill="#fff"/><path d="m13 11v1h-1a1 1 0 0 0 -1 1v6a1 1 0 0 0 1 1h8a1 1 0 0 0 1-1v-6a1 1 0 0 0 -1-1h-1v-1a3 3 0 0 0 -6 0zm6 7h-6v-4h6zm-2-7v1h-2v-1a1 1 0 0 1 2 0z" fill="#fff" /></svg>