<svg
        xmlns="http://www.w3.org/2000/svg"
        xmlns:xlink="http://www.w3.org/1999/xlink"
        width="37px" height="11px">
    <path fill-rule="evenodd"  fill="rgb(250, 198, 42)"
          d="M5.902,-0.001 L7.567,3.835 L11.804,4.201 L8.596,6.938 L9.549,11.000 L5.902,8.856 L2.254,11.000 L3.208,6.938 L-0.001,4.201 L4.237,3.835 L5.902,-0.001 Z"/>
    <path fill-rule="evenodd"  fill="rgb(250, 198, 42)"
          d="M19.295,-0.001 L20.960,3.835 L25.197,4.201 L21.989,6.938 L22.943,11.000 L19.295,8.856 L15.648,11.000 L16.601,6.938 L13.393,4.201 L17.630,3.835 L19.295,-0.001 Z"/>
    <path fill-rule="evenodd"  fill="rgb(251, 209, 81)"
          d="M31.099,-0.001 L32.763,3.835 L37.000,4.201 L33.793,6.938 L34.746,11.000 L31.099,8.856 L27.451,11.000 L28.405,6.938 L25.196,4.201 L29.434,3.835 L31.099,-0.001 Z"/>
</svg>