<svg id="Capa_1" enable-background="new 0 0 512 512" height="512" viewBox="0 0 512 512" width="512" xmlns="http://www.w3.org/2000/svg"><path d="m241.733 126.567c-2.93-2.928-7.678-2.928-10.607 0-9.434 9.436-8.665 25.056 1.888 33.509 8.939 7.162 21.926 6.316 30.212-1.967l71.764-71.765c2.927-2.927 7.671-2.932 10.605.002 3.149 3.149 2.584 8.023-.278 10.883l-43.082 43.082c-8.284 8.285-9.13 21.273-1.968 30.212 8.462 10.562 24.088 11.303 33.51 1.888l95.355-95.355c2.921-2.923 7.68-2.925 10.604 0 3.276 3.276 2.407 8.201-.277 10.885l-79.22 79.219c-9.434 9.436-8.665 25.056 1.888 33.509 8.957 7.179 21.944 6.299 30.212-1.967l68.717-68.717c2.922-2.925 7.68-2.923 10.605.001 2.93 2.93 7.679 2.929 10.606-.001 2.929-2.929 2.929-7.678-.001-10.606-8.772-8.772-23.046-8.771-31.818-.001l-68.717 68.717c-2.819 2.822-7.313 3.203-10.226.868-3.613-2.894-3.769-8.087-.66-11.195l79.221-79.219c8.925-8.926 9.05-23.324.276-32.099-8.771-8.771-23.045-8.772-31.818-.001l-95.354 95.355c-3.119 3.117-8.31 2.945-11.197-.66-2.334-2.912-1.952-7.403.869-10.225l43.082-43.082c8.713-8.715 9.321-23.053.277-32.097-8.784-8.786-23.025-8.796-31.819-.003l-71.763 71.765c-2.82 2.821-7.313 3.203-10.227.868-3.612-2.893-3.771-8.086-.659-11.195 2.929-2.93 2.929-7.678 0-10.608z" fill="#5c5572"/><path d="m474.5 0h-240c-20.738 0-37.5 16.764-37.5 37.5v98.63c0 4.14 3.359 7.5 7.5 7.5 4.14 0 7.5-3.36 7.5-7.5v-98.63c.02-12.38 10.109-22.48 22.5-22.5h240c12.38.02 22.479 10.12 22.5 22.5v240c-.021 12.39-10.12 22.479-22.5 22.5h-133.268c.133-19.973-.133-43.092-.133-65.5 0-20.738-16.764-37.5-37.5-37.5h-91.599v-30.87c0-4.14-3.36-7.5-7.5-7.5-4.141 0-7.5 3.36-7.5 7.5v30.87h-133.4c-20.717 0-37.5 16.762-37.5 37.5 0 88.708 4.225 144.02-24.08 227.85-1.34 3.95-2.02 8.03-2.02 12.15 0 20.328 16.429 37.5 37.439 37.5h222.33c8.46 0 16.96-1.91 24.59-5.521 3.74-1.77 5.341-6.25 3.57-9.989-1.229-2.61-3.9-4.301-6.78-4.301-1.12 0-2.189.25-3.21.73-5.72 2.71-11.84 4.08-18.189 4.08h-222.26c-13.072-.021-22.51-10.746-22.49-22.5 0-8.697 5.735-15.372 14.649-54.63 3.28-14.46 5.761-28.75 7.58-43.69 5.478-45.051 3.87-87.75 3.87-141.68.021-12.391 10.12-22.48 22.5-22.5h240c12.38.02 22.48 10.109 22.5 22.5 0 26.357.33 49.183.069 72.038-1.282 9.936 4.054 76.39-26.389 162.252-.88 2.479-2 4.89-3.319 7.16-2.09 3.579-.88 8.18 2.7 10.26 1.14.67 2.449 1.02 3.77 1.02 2.66 0 5.14-1.42 6.48-3.71 1.8-3.09 3.319-6.359 4.51-9.71 11.63-32.7 18.93-62.99 22.979-95.319 2.61-20.816 3.723-41.254 4.144-63.49h133.457c20.718 0 37.5-16.766 37.5-37.5v-240c0-20.72-16.764-37.5-37.5-37.5z" fill="#5c5572"/><path d="m126.46 345.779 18.79 18.78c1.39 1.4 3.33 2.2 5.3 2.2 1.979 0 3.91-.8 5.3-2.2l58.79-58.78c3.061-3.06 6.9-5.17 11.12-6.079 4.03-.881 6.61-4.881 5.74-8.921-.905-4.126-5.057-6.63-8.91-5.739h-.01c-7.03 1.52-13.44 5.02-18.551 10.13l-53.479 53.479-13.48-13.479c-14.629-14.633-38.391-14.649-53.04 0-14.634 14.638-14.645 38.381 0 53.03l40 40c14.713 14.709 38.484 14.595 53.04 0l80-80c14.692-14.692 14.589-38.441 0-53.03-2.928-2.928-7.665-2.944-10.609 0-2.92 2.93-2.92 7.68 0 10.609 8.781 8.801 8.792 23.008 0 31.82l-80 80c-8.791 8.77-23.023 8.797-31.82 0l-40-40c-8.894-8.915-8.678-23.143 0-31.82 8.783-8.782 23.006-8.79 31.819 0z" fill="#5c5572" /></svg>