<svg xmlns="http://www.w3.org/2000/svg" viewBox="0 0 208.86 187.08"><defs><style>.cls-1{fill:#b6dcae;}.cls-2{fill:#007dc5;}.cls-3{fill:#53b7e8;}.cls-4{fill:#e0def0;}.cls-5{fill:#583f99;}.cls-6{fill:#f5f19a;stroke-width:1.98px;}.cls-15,.cls-6{stroke:#242837;}.cls-10,.cls-15,.cls-6{stroke-linecap:round;stroke-linejoin:round;}.cls-7{fill:#9ddcf9;}.cls-8{fill:#fffffe;}.cls-9{fill:#242837;}.cls-10,.cls-15{fill:none;stroke-width:1.42px;}.cls-10{stroke:#fffffe;}.cls-11{fill:#f8b6c1;}.cls-12{fill:#e5bd79;}.cls-13{fill:#cd733a;}.cls-14{fill:#c7eafb;}.cls-16{fill:#726c7b;}</style></defs><title>figure-7</title><g id="Layer_2" data-name="Layer 2"><g id="Layer_1-2" data-name="Layer 1"><path class="cls-1" d="M194.55,77.27c.84-15.16-2-55.23-36.5-67.38C98.71-11-2.7,61.16,5,109,12.94,158.23,187,213.23,194.55,77.27Z"/><path class="cls-2" d="M170.16,145.6c-38.62,29-113.89-2.08-113.89-2.08L51.2,109.05,79.59,69.51l55.51,9.2S178.76,118.17,170.16,145.6Z"/><path class="cls-3" d="M143,107.37s-.41,28.65-19.1,43.35c13.55,2.54,20-4.34,20-4.34A37.74,37.74,0,0,0,143,107.37Z"/><path class="cls-4" d="M43.61,157.46c10.36-3.34,22.74-6.06,33.57-5,24.21,2.36,61-5.55,75.15-12.63C164.73,144,196.93,153,208.86,156c-39.52,27.64-61.49,11-109.25,31.08C83.06,180.42,55.73,165.42,43.61,157.46Z"/><path class="cls-5" d="M105.09,140.51l-8.87,25.73,15.57-28.36C111.79,137.27,105.09,140.51,105.09,140.51Z"/><path class="cls-2" d="M64.89,73.63s-24,23.53-29.22,48.5C29,154,96.22,166.24,96.22,166.24l15-42.23s-15.1-.16-27-3.41"/><path class="cls-6" d="M67.43,140.5"/><path class="cls-7" d="M95.53,122.71,76.7,160.87c7,3.15,19.46,5.39,19.46,5.39l14.89-42.12S103.85,123.71,95.53,122.71Z"/><path class="cls-8" d="M148,63.76c8.47,18.35-22,33.81-49.24,33.81S40.51,81.93,49.56,63.76c10.38-20.86,22-40,49.24-40S138.63,43.38,148,63.76Z"/><ellipse class="cls-9" cx="122.28" cy="59.39" rx="8.67" ry="11.29" transform="matrix(0.76, -0.66, 0.66, 0.76, -9.01, 94.61)"/><path class="cls-10" d="M118.57,63.63s4.67,2.44,8.73,1.42"/><ellipse class="cls-9" cx="75.15" cy="59.39" rx="11.29" ry="8.67" transform="translate(-18.95 77.27) rotate(-49.08)"/><path class="cls-10" d="M78.16,63.84a7.71,7.71,0,0,1-7.31.61"/><path class="cls-11" d="M127.1,73.7c-5.81,0-10.94-1.39-14-3.5.37,3.52,6.59,7.58,14.09,7.58s13.53-4.06,13.9-7.58C138,72.31,132.91,73.7,127.1,73.7Z"/><path class="cls-11" d="M71.26,73.7c5.81,0,10.94-1.39,14-3.5-.37,3.52-6.59,7.58-14.09,7.58s-13.53-4.06-13.9-7.58C60.32,72.31,65.45,73.7,71.26,73.7Z"/><path class="cls-12" d="M0,39.39C0,50.08,46.75,58.74,101.73,58.74s97.35-8.66,97.35-19.35L101.73,0Z"/><path class="cls-13" d="M99,8.74q7.16,0,14-.2L101.45,3.87,89.12,8.64Q94,8.74,99,8.74Z"/><path class="cls-13" d="M99,19.75c13.59,0,26.37-.56,37.82-1.57l-11-4.45c-8.21.47-16.92.72-26,.72-8.3,0-16.4-.21-24.15-.6L63.8,18.45C74.77,19.29,86.66,19.75,99,19.75Z"/><path class="cls-13" d="M99,41.77c32.33,0,60-3.17,76.33-8l-7.75-3.14C151,34.22,127,36.47,99.82,36.47c-26.37,0-50.73-2.11-68.32-5.52l-9,3.5C40.2,38.89,68.24,41.77,99,41.77Z"/><path class="cls-13" d="M188.19,39l-5-2c-14.39,6.21-45.77,10.52-83.41,10.52-36.49,0-69.13-4-85.29-10L7.76,40.15C20.49,47.48,57.23,52.78,99,52.78,143,52.78,178.43,46.9,188.19,39Z"/><path class="cls-13" d="M99,30.76c22.59,0,42.93-1.55,58.69-4.13l-9.49-3.84a407.8,407.8,0,0,1-48.39,2.67A440.76,440.76,0,0,1,52.07,23L41.55,27.06A416.11,416.11,0,0,0,99,30.76Z"/><path class="cls-14" d="M99.6,78.75s12.19-.8,15.54,5.61c5,9.5-17.38,32.9-17.38,32.9s-20.95-23.4-16-32.9c3.35-6.42,15.54-5.61,15.54-5.61Z"/><line class="cls-15" x1="97.97" y1="81.15" x2="97.97" y2="91"/><path class="cls-9" d="M97.88,83.51c-1.72,0-6.46-2.94-6.68-6.68s4.1-4.38,6.88-4.38,7,.64,6.78,4.38S99.59,83.51,97.88,83.51Z"/><line class="cls-15" x1="92.01" y1="91.03" x2="103.17" y2="91.03"/><polygon class="cls-12" points="114.42 159.02 119.92 159.02 124.41 97.22 114.42 159.02"/><path class="cls-16" d="M114.39,157.7c-5.78,7.26-2.29,14,23.4,11.43-8.08-3.14-17.61-6.45-17.88-10.76C117.59,158.8,116.27,159,114.39,157.7Z"/><path class="cls-9" d="M111,124.13s19.38-1.77,15.51,6.65c-5.13,11.15-22.67,14.4-22.67,14.4"/><path class="cls-9" d="M129.75,166.06a87.88,87.88,0,0,1,20.68-5.17,66.66,66.66,0,0,0-10.34-6l9.48-2.58s15.24,6.31,23.43,8.89c-8.18,3.45-22.13,4-22.13,4l-13.12,4Z"/><path class="cls-9" d="M139.38,161.76s-3.69-3.69-6.46-6.77c-5.54-.92-7.08,2.15-7.08,2.15l13.85,8.31,5.23-1.85Z"/><polygon class="cls-9" points="146.16 165.76 158.47 170.07 146.77 171.92 139.69 165.45 146.16 165.76"/></g></g></svg>