<svg xmlns="http://www.w3.org/2000/svg" viewBox="0 0 534.33 370.02"><defs><style>.cls-1{fill:#583f99;}.cls-2{fill:#242837;}.cls-3{fill:#894b9d;}.cls-4{fill:#faf9d5;}.cls-10,.cls-5{fill:none;stroke-linecap:round;stroke-linejoin:round;stroke-width:4px;}.cls-5{stroke:#fffffe;}.cls-6{fill:#f8b6c1;}.cls-7{fill:#e5bd79;}.cls-8{fill:#d99f59;}.cls-9{fill:#c7eafb;}.cls-10{stroke:#242837;}.cls-11{fill:#c7c4e2;}.cls-12{fill:#c797c5;}.cls-13{fill:#d2587e;}</style></defs><title>figure-17</title><g id="Layer_2" data-name="Layer 2"><g id="Layer_1-2" data-name="Layer 1"><path class="cls-1" d="M144.54,369.34s18.36-59.54,22.7-64.19c7.21,3.19,39.23,15.17,39.23,15.17s-37.35,41.77-61.93,49"/><path class="cls-2" d="M476.36,157.11s8.34,5.59,9.4,8.5c-6.47,5.62-18.26,5.87-18.26,5.87Z"/><path class="cls-3" d="M440.5,214.86c-16.73,25.83-54.35,49.92-107,51-3.34,17.83-1.1,52.27-2.51,68.78-7.87,2.07-23.5,1.14-27.29,1.14-95.76,0-165.21-45.92-165.21-45.92l-6.58-75.93,64.28-89.53L297,160.57s48,57.08,143-11.32Z"/><path class="cls-3" d="M162.92,133.7s-75-4-89.55,64,1.89,119.69,37.33,149.6c7.05-20,93.27-57.55,93.27-57.55"/><path class="cls-4" d="M335.17,144.36c19.17,41.56-49.91,76.55-111.48,76.55s-132-35.4-111.48-76.55c23.5-47.23,49.91-90.52,111.48-90.52s90.2,44.39,111.48,90.52"/><path class="cls-2" d="M293.61,153.78c-8.19,7.1-22.33,4.21-31.58-6.46s-10.11-25.07-1.91-32.18,22.33-4.21,31.58,6.46,10.1,25.07,1.91,32.18"/><path class="cls-5" d="M273.25,141.81s7.49,7.6,19.77,3.22"/><path class="cls-2" d="M153.4,153.78c8.19,7.1,22.33,4.21,31.58-6.46s10.11-25.07,1.91-32.18-22.33-4.21-31.58,6.46-10.1,25.07-1.91,32.18"/><path class="cls-5" d="M180.76,142.27s-7.82,5.52-16.55,1.38"/><path class="cls-6" d="M287.76,166.86c-13.15,0-24.76-3.14-31.68-7.93.83,8,14.91,17.17,31.9,17.17s30.64-9.2,31.47-17.17c-6.92,4.79-18.53,7.93-31.68,7.93"/><path class="cls-6" d="M161.34,166.86c13.15,0,24.76-3.14,31.68-7.93-.83,8-14.91,17.17-31.9,17.17s-30.64-9.2-31.47-17.17c6.92,4.79,18.53,7.93,31.68,7.93"/><path class="cls-7" d="M0,89.19C0,113.38,105.85,133,230.32,133s220.42-19.62,220.42-43.81L230.32,0Z"/><path class="cls-8" d="M224.16,19.79q16.21,0,31.68-.46L229.7,8.75,201.77,19.57q11.06.22,22.39.23"/><path class="cls-8" d="M224.16,44.72c30.77,0,59.69-1.27,85.63-3.56L284.89,31.09c-18.58,1.06-38.32,1.63-58.89,1.63-18.79,0-37.12-.48-54.67-1.36L144.44,41.77c24.84,1.9,51.78,3,79.72,3"/><path class="cls-8" d="M224.16,94.57c73.19,0,135.92-7.19,172.82-18.13l-17.55-7.1C341.81,77.48,287.61,82.57,226,82.57c-59.71,0-114.87-4.79-154.68-12.49L50.88,78C91,88.06,154.49,94.57,224.16,94.57"/><path class="cls-8" d="M426.09,88.22l-11.23-4.54C382.28,97.75,311.23,107.5,226,107.5,143.39,107.5,69.48,98.34,32.89,85L17.57,90.9c28.82,16.6,112,28.6,206.58,28.6,99.59,0,179.82-13.31,201.94-31.27"/><path class="cls-8" d="M224.16,69.65c51.15,0,97.2-3.51,132.89-9.36l-21.49-8.69C304,55.43,266.62,57.65,226,57.65A997.91,997.91,0,0,1,117.9,52L94.08,61.27c36.6,5.26,81.85,8.38,130.07,8.38"/><path class="cls-9" d="M225.5,178.29s27.6-1.82,35.19,12.71c11.24,21.51-39.36,74.49-39.36,74.49s-47.43-53-36.19-74.49c7.59-14.53,35.19-12.71,35.19-12.71Z"/><line class="cls-10" x1="221.81" y1="183.74" x2="221.81" y2="197.65"/><path class="cls-2" d="M221.61,189.07c-3.89,0-14.63-6.65-15.12-15.12s9.29-9.91,15.58-9.91,15.84,1.45,15.36,9.91-11.93,15.12-15.82,15.12"/><ellipse class="cls-10" cx="222.02" cy="204.2" rx="12.35" ry="6.18"/><path class="cls-11" d="M370,94.59c-14.9,1.26-37.9,20.45-66.63,81.24C270.91,244.42,241.4,275.05,200,320.47c-15.28,16.76-12.85,37.26-.43,40.24L365.43,370s-18.55-14,0-32.35c98.06-97.22,92.76-195.86,160.86-225.17C491.4,108.13,384.78,93.34,370,94.59"/><path class="cls-2" d="M460.72,213.23c-5.16.32-25.54.18-30.84-17s19.91-35.37,55.88-30.62c5.66,9.78-6,42.68-25,47.62"/><path class="cls-12" d="M359,133.7s-17.64-4.31-4.72-22.64c12.62,1.5,30.93,4,30.93,4s1.05,16.36-26.2,18.66"/><path class="cls-4" d="M371.22,94.59s17.07.64,14,20.45c-2.7,17.55-26.2,18.66-26.2,18.66s136.91,13.5,151,15.54c22-5,32.79-31.62,16.22-36.74-20.17-3.71-155-20-155.07-17.91"/><path class="cls-2" d="M158.26,318.63s29.86,13.66,57,7.68c20.5-4.51,31.33-27.82,8.35-37.34-33.71-14-65.34,29.66-65.34,29.66"/><path class="cls-13" d="M211.93,285.15s-47.06,33.15-67.39,84.19c-11.74-3.89-34.19-22.46-40-26.94,6-17.2,55.37-69.62,107.35-57.26"/></g></g></svg>