<svg xmlns="http://www.w3.org/2000/svg" viewBox="0 0 524.17 603.56"><defs><style>.cls-1{fill:#faf9d5;}.cls-2{fill:#f5f19a;}.cls-18,.cls-3{fill:#c0406d;}.cls-11,.cls-12,.cls-3,.cls-6,.cls-7,.cls-9{stroke:#242837;}.cls-11,.cls-12,.cls-15,.cls-17,.cls-3,.cls-4,.cls-6,.cls-7,.cls-9{stroke-linecap:round;stroke-linejoin:round;}.cls-11,.cls-12,.cls-15,.cls-3,.cls-4,.cls-6,.cls-7,.cls-9{stroke-width:5.67px;}.cls-4{fill:#3a9948;stroke:#386742;}.cls-5{fill:#84c98b;}.cls-6{fill:#4e5064;}.cls-7{fill:#454546;}.cls-8{fill:#787180;}.cls-9{fill:#27aae1;}.cls-10{fill:#007dc5;}.cls-11,.cls-15,.cls-17{fill:none;}.cls-12{fill:#fffffe;}.cls-13{fill:#e0def0;}.cls-14{fill:#242837;}.cls-15{stroke:#fffffe;}.cls-16{fill:#e7839a;}.cls-17{stroke:#27aae1;stroke-width:1.42px;}.cls-19{fill:#fff;}</style></defs><title>figure-4</title><g id="Layer_2" data-name="Layer 2"><g id="Layer_1-2" data-name="Layer 1"><path class="cls-1" d="M207.68,150.55c-2.83.94-18.85,66,0,50S254.8,160,261.4,171.29s-1.89,35.82,16,36.76,18.85-47.13,36.76-47.13,26.39,37.7,34.87,36.76S357.53,154.32,367,160s19.79,40.53,42.41,41.47-1.89-45.24-1.89-45.24-96.14-33-128.18-27.33S207.68,150.55,207.68,150.55Z"/><path class="cls-2" d="M225.58,149.61s-19.79,26.39-2.83,20.74,33-30.16,45.24-22.62,0,27.33,14.14,24.51-2.83-35.82,21.68-33.93,33.93,35.82,40.53,34.87-.94-32,11.31-26.39,30.16,11.31,30.16,11.31-78.23-33-101.79-30.16S225.58,149.61,225.58,149.61Z"/><path class="cls-1" d="M200.43,141.74S62,49,65.07,44.41s133.84,35,147.53,31.94-19.77-73,0-74.52S270.39,87,281,88.51,332.75.3,343.4,1.82,323.63,91.55,332.75,94.6s126.24-79.09,138.4-73-56.27,94.3-50.19,97.34,65.4-16.73,73-10.65-66.6,54-66.6,54S319.06,129.58,271.92,131.1,200.43,141.74,200.43,141.74Z"/><path class="cls-2" d="M217.93,135.07s-75.29-37.43-64.64-45,66.92,9.13,77.57,7.6-9.13-41.06,3-42.59,39.54,66.92,48.67,68.44S299.29,65.7,313,70.26s-6.08,57.79,6.08,60.84,74.52-63.88,89.73-54.75-48.67,63.88-38,70S425.53,122,436.17,125,414.88,157,414.88,157,319.08,104.06,217.93,135.07Z"/><path class="cls-3" d="M159.52,375.72s9.69,48.48-34.46,86.15C65.19,513,92.9,564.1,114.72,561.8s52.84.11,93,10.45,60.47,17.11,125,19.27C375.8,593,420.32,581,440,547.41c26-44.45,16.22-80.72-14.42-122.57-24.3-33.18-23.36-86.22-23.36-86.22Z"/><rect class="cls-4" x="469.27" y="142.64" width="19.77" height="82.12" transform="translate(166.34 590.5) rotate(-73.42)"/><path class="cls-4" d="M426.74,157.78,348,134.34l-5.64,19,78.71,23.44s-.34,7.28,8.52,9.92,12.79-3.58,12.79-3.58l5.64-19s-.2-7.45-8.75-10S426.74,157.78,426.74,157.78Z"/><path class="cls-5" d="M445.06,163.31a1,1,0,0,1-1.93-.14c0-.11-.58-3-5.44-4.42s-9.26,3.16-9.3,3.21a1,1,0,0,1-1,.28l-77.7-23.14.57-1.9,77.14,23c1.38-1.31,5.72-4.86,10.88-3.32,6.15,1.83,6.81,5.86,6.84,6A1,1,0,0,1,445.06,163.31Z"/><path class="cls-5" d="M517.43,189.06l-67.6-20.13.57-1.9L518,187.16"/><path class="cls-4" d="M242.07,143s50.27-11.68,84.44,5.55c-.08,3.81,2.84,8.67,8.52,9.92,9,2,12.79-3.58,12.79-3.58l5.64-19s-.2-7.45-8.75-10-12.22,1.65-13.25,5c-47.82-18.13-94.56-5.36-94.56-5.36"/><path class="cls-5" d="M350.27,135.08a1,1,0,0,1-1.93-.14c0-.11-.84-2.28-5.44-4.42-6.59-3.06-9.76,5.37-10.13,5.26,0,0-43.8-17.17-92.15-6.23a6.86,6.86,0,0,1-.55-2c49-10.73,92.18,6.18,92.18,6.18,1.66-.62,2.71-8,11.21-5.08,6.06,2.09,6.81,5.86,6.84,6A1,1,0,0,1,350.27,135.08Z"/><path class="cls-6" d="M332.7,531.73c3.43,3.93,30,21.81,53.43,25.08,37.91,5.29,59.77-48,33.86-60.91-14.27-7.13-26.93,10.77-26.93,10.77s-18.9-12-32.32-27.42C366.52,507.91,342.5,511.44,332.7,531.73Z"/><path class="cls-7" d="M393.13,506.51s-5.44,7.15-7.15,20.6"/><path class="cls-8" d="M406.1,501.44s22.34-4.06,17.46,28.43c7.31-14.21,2.84-24.37-2-29.24s-13-2.84-17.46,1.62"/><path class="cls-4" d="M214.6,131.91l-77.19,28,6.75,18.59,77.19-28s4.06,6.06,12.76,2.9,8.15-10.49,8.15-10.49l-6.75-18.59s-4.6-5.86-13-2.82S214.6,131.91,214.6,131.91Z"/><path class="cls-5" d="M232.77,125.39a1,1,0,0,1-1.63,1c-.08-.08-2.23-2-7-.31s-5.56,8.05-5.56,8.12a1,1,0,0,1-.65.83l-76.21,27.68-.68-1.87L216.7,133.4c.33-1.87,1.71-7.31,6.77-9.15,6-2.19,9,.65,9.08.77A1,1,0,0,1,232.77,125.39Z"/><path class="cls-4" d="M121.83,165.6l-77.19,28,6.75,18.59,77.19-28s4.06,6.06,12.76,2.9,8.15-10.49,8.15-10.49L142.74,158s-4.6-5.86-13-2.82S121.83,165.6,121.83,165.6Z"/><path class="cls-5" d="M139.81,159.15a1,1,0,0,1-1.63,1c-.08-.08-2.23-2-7-.31s-5.56,8.05-5.56,8.12a1,1,0,0,1-.65.83L48.76,196.5l-.68-1.87,75.65-27.47c.33-1.87,1.71-7.31,6.77-9.15,6-2.19,9,.65,9.08.77A1,1,0,0,1,139.81,159.15Z"/><path class="cls-9" d="M366.27,319.35s34.82-65.69,34.84-145.5l42.9,3.81c10.36,34.84,24,162.87-53.83,205.22-48.5-9.56-72.41-48.5-72.41-48.5Z"/><path class="cls-10" d="M402.85,199.79c15.45,17.19,40.78,6.46,42.56-2.11-.49-5.38-1.67-15.58-1.67-15.58l-39.68-5.66S403.36,190.73,402.85,199.79Z"/><path class="cls-6" d="M406,145.81s-13.07,23.26-3,39.72c13.55,22.13,35.62,27,50.08-7S406,145.81,406,145.81Z"/><line class="cls-11" x1="413.77" y1="176.49" x2="408.48" y2="192.46"/><line class="cls-11" x1="430.68" y1="182.98" x2="423.63" y2="201.49"/><path class="cls-9" d="M199.71,319.35s-34.82-65.69-34.84-145.5L122,177.66c-10.36,34.84-24,162.87,53.83,205.22,48.5-9.56,72.41-48.5,72.41-48.5Z"/><path class="cls-10" d="M163.12,199.79c-15.45,17.19-40.78,6.46-42.56-2.11.49-5.38,1.67-15.58,1.67-15.58l39.68-5.66S162.62,190.73,163.12,199.79Z"/><path class="cls-6" d="M257.9,571.69v13.46c0,7-2.34,15.57-15.57,15.57H187.41c-10.36,0-11.52-22,.08-22,18.75,0,16.19-20.24,16.19-20.24s-.57-22.48-.57-42.89"/><path class="cls-7" d="M210.64,577s-11.81.51-18.36,1.06"/><path class="cls-9" d="M286.82,329.25a10.78,10.78,0,0,1-1.14,0c-68.37,0-113.31,19.2-113.31,81.53s47,167.48,113.31,167.48a9.63,9.63,0,0,0,1.14,0c66.33,0,113.31-105.16,113.31-167.48S355.19,329.25,286.82,329.25Z"/><path class="cls-10" d="M182.43,458.52s45.06,15,100.43,16.06S390.78,456,390.78,456L381,486.59s-75.32,40.63-187.72,3.18C186.29,475.73,182.43,458.52,182.43,458.52Z"/><path class="cls-6" d="M217.81,229.13c-3.89-2.08-9.36-8.25-11.63-10.68-7.05-7.54-7.55-19.42-.56-26s18.65-5.42,25.86,2.29c3.35,3.58,6.64,9.56,8.52,15.6"/><path class="cls-6" d="M353.91,229.13c3.89-2.08,9.36-8.25,11.63-10.68,7.05-7.54,7.55-19.42.56-26s-18.65-5.42-25.86,2.29c-3.35,3.58-6.64,9.56-8.52,15.6"/><path class="cls-12" d="M383.56,283.25c16.71,41.73-43.5,76.87-97.15,76.87s-115-35.54-97.15-76.87c20.48-47.43,43.5-90.9,97.15-90.9S365,236.93,383.56,283.25Z"/><path class="cls-13" d="M286.4,341.75c-31.66,0-66-10.89-84.94-25.74,9.42,22.43,49.14,37,84.92,37s75-14.37,84.54-36.88C352.08,331,318.09,341.75,286.4,341.75Z"/><path class="cls-9" d="M286.4,192.36c-47.91,0-71.39,34.66-90.46,75.85l.14-.13s4.65,15.07,30.87,22.57,32.82-19.93,54.51-14.73h7.3c21.69-5.21,32.29,22.22,58.51,14.73s29.43-23.72,29.43-23.72l0,0C358.7,227,333.71,192.36,286.4,192.36Z"/><line class="cls-11" x1="284.69" y1="295.65" x2="284.69" y2="277.45"/><path class="cls-14" d="M284.31,282.74c-4.11,0-15.46-7-16-16s9.82-10.47,16.46-10.47,16.73,1.53,16.22,10.47S288.42,282.74,284.31,282.74Z"/><ellipse class="cls-14" cx="245.99" cy="244.83" rx="27.54" ry="21.14" transform="translate(-100.14 270.33) rotate(-49.08)"/><path class="cls-15" d="M258.65,241.35s-5.25-9.73-17.61-4.52"/><ellipse class="cls-14" cx="327.29" cy="244.83" rx="21.14" ry="27.54" transform="translate(-80.38 274.22) rotate(-40.92)"/><path class="cls-15" d="M314.64,241.35s5.25-9.73,17.61-4.52"/><path class="cls-10" d="M288.58,367.28C277.19,401,197,423.85,185.9,367c3.05-7.77,4.2-6.08,4.2-6.08S272.21,362.84,288.58,367.28Z"/><path class="cls-3" d="M215.76,340.7s-14.72,1-28.6,20.25c11.62,53.56,86,33.6,102.79-.77C259.76,360.06,232.57,351.64,215.76,340.7Z"/><path class="cls-3" d="M245.1,369.44a85.55,85.55,0,0,0,45.46-8.21"/><path class="cls-10" d="M286.62,371.08c11.39,33.68,88.53,52.35,99.63-4.52-3.05-7.77-4.2-6.08-4.2-6.08S303,366.65,286.62,371.08Z"/><path class="cls-3" d="M356.38,340.28s14.72,1,28.6,20.25c-11.62,53.56-86,33.6-102.79-.77C312.39,359.64,339.58,351.23,356.38,340.28Z"/><path class="cls-3" d="M327.05,369a85.55,85.55,0,0,1-45.46-8.21"/><path class="cls-6" d="M160.91,146.61s12.64,23.5,2.25,39.77c-14,21.87-36.12,26.38-49.94-8S160.91,146.61,160.91,146.61Z"/><line class="cls-11" x1="152.6" y1="177.14" x2="157.6" y2="193.21"/><line class="cls-11" x1="135.58" y1="183.31" x2="142.28" y2="201.95"/><path class="cls-8" d="M364.44,195.46s5.9,10.32-13.27,24.09A18.2,18.2,0,0,1,355.1,225S376.24,209.71,364.44,195.46Z"/><path class="cls-8" d="M212.81,191.84s12.71-.64,19.27,17.37a14.65,14.65,0,0,0,3-2.54S228.7,187.82,212.81,191.84Z"/><path class="cls-8" d="M250.43,571.87s.58,13.44-1.7,18.91-9.3,7.21-9.3,7.21,12.29,1.82,15-7.74.46-15.94.46-15.94Z"/><path class="cls-11" d="M303,308.87c0,4.16-7.13,5.13-16.22,5.13s-19.95-1-19.95-5.13,9.32-10.77,18.41-10.77S303,304.71,303,308.87Z"/><path class="cls-16" d="M375.8,354.7s-4.32,34.6-40,35.67c13.8,1.25,38.36,0,46.06-29C377,354.71,377.06,355.6,375.8,354.7Z"/><path class="cls-8" d="M408.13,149.36s19.48.18,34.76,12.2c7.57,6,8.84,12.42,8.84,12.42s2.65-10.18-5.27-16.14C439.33,152.48,428.16,147.91,408.13,149.36Z"/><path class="cls-8" d="M122.94,156.43s8.72-6.55,36.21-6.71a32,32,0,0,1,3.09,8.17C158.75,151.66,134.75,152.54,122.94,156.43Z"/><path class="cls-1" d="M143.83,125.13S.67,89.67,0,87s118.4,10,129.77,20.07S143.83,125.13,143.83,125.13Z"/><path class="cls-1" d="M173.66,41.84s-11.43,9.35-22.85,7.27S82.25,12.76,84.33,9.64,169.51,34.57,173.66,41.84Z"/><path class="cls-1" d="M266.11,43.41s12.83,7.22,17.64,4.81,9.62-45.7,8-48.1S267.72,32.19,266.11,43.41Z"/><path class="cls-1" d="M361.68,55.35s12.46,0,18.7-3.12S423,5.49,416.73,2.37,365.83,50.15,361.68,55.35Z"/><path class="cls-17" d="M319.61,496.47s18.2.85,23.3-3.91,4.1-16-6.53-15.27-9.1,13.1-3.59,14.23c8.85,1.81,10.35-7.2,5.85-9.32s-8.08,4.79-3.71,5.94"/><path class="cls-17" d="M330.82,496.08s-13-4.48-7.38-15.2c4.45-8.5,13.18-7.75,17.59-8.3l15.25-3c2.89-.57,11.5,1.41,12.57,8.82s-4.53,11.68-9.5,12.25-13.69-2-10.58-11c1.91-5.56,6.66-7.66,11.92-5.32,4.23,1.88,5.71,5.38,3.47,9.29-2.66,4.65-8.36,4.28-10.33,1.24-2.45-3.78-.1-8.5,4.19-7.65,3.87.76,2.33,6.26-.3,5.61"/><path class="cls-17" d="M368.08,468.07s9.82,5.51,6.71,13.62a43.53,43.53,0,0,1-4.43,6.78"/><path class="cls-17" d="M376.65,487.53a17.07,17.07,0,0,0,3.91-10.93c-.22-6.31-5.4-10-5.4-10"/><path class="cls-17" d="M257.57,498.26s-21.16.78-26.48-3.73-4.85-15.77,5.81-15.57,9.7,12.65,4.26,14c-8.75,2.23-10.68-6.7-6.29-9s8.3,4.4,4,5.75"/><path class="cls-17" d="M243.34,497.48s12.77-5.09,6.65-15.53c-4.85-8.28-13.53-7.12-18-7.46l-15.38-2.32c-2.92-.43-11.42,1.95-12.13,9.4s5.08,11.45,10.07,11.78,13.58-2.64,10-11.52c-2.17-5.46-7-7.34-12.16-4.76-4.14,2.08-5.45,5.64-3,9.44,2.88,4.52,8.55,3.88,10.38.75,2.27-3.9-.3-8.5-4.55-7.45-3.83.95-2,6.37.56,5.59"/><path class="cls-17" d="M206.06,467.84s-10.82,9.39-7.33,17.34a43.53,43.53,0,0,0,4.75,6.56"/><path class="cls-17" d="M197.15,491.1a39.87,39.87,0,0,1-4.42-10.73c-2.32-9.47,3.08-14.51,3.08-14.51"/><circle class="cls-18" cx="289.36" cy="490" r="33.32" transform="translate(-95.8 71.09) rotate(-12.03)"/><path class="cls-19" d="M295.56,496.56l-.06-.27a12.69,12.69,0,0,1,.72-6.74,8.79,8.79,0,0,1,4.74-5l.39-.18a2,2,0,0,1,.4-.14,8.71,8.71,0,0,1,1.22-.46q.62-.18,1.2-.31a10,10,0,0,1,2.31-.27c3.23-.29,3.8-5.47-1.12-5.27a17.21,17.21,0,0,0-3,.41q-.63.13-1.25.32t-1.28.42a15.87,15.87,0,0,0-9.17,7.38c-.11.2-.22.4-.32.6a8.56,8.56,0,0,0-2.23-2,19.34,19.34,0,0,0-6.26-2.64,8.9,8.9,0,0,0-.89-.18l-.88-.13-.86-.16q-.47-.09-.92-.2a10.05,10.05,0,0,1-2.74-1.06,3.07,3.07,0,0,1-1.59-2.1,2.37,2.37,0,0,1,0-.57c0-.21,0-.45,0-.7a1.05,1.05,0,0,0,0-.22,1,1,0,0,1,0-.22,3.35,3.35,0,0,1,1-1.89,4.78,4.78,0,0,1,1.74-1l.23,0,.23,0,.44-.07.44-.07a6.84,6.84,0,0,1,2.82.43c.94.35.32.24,2.3,1.45,3.13,1.91,6.63-2.32,3.16-4.81a12.48,12.48,0,0,0-4.62-2.28,13.37,13.37,0,0,0-5.06-.11l-.2,0-.2,0a13.34,13.34,0,0,0-3.13,1.09,14.69,14.69,0,0,0-2.82,1.82,9.79,9.79,0,0,0-2.72,3.92,8.07,8.07,0,0,0-.43,4.71l.14.18a8.36,8.36,0,0,0,2.56,4.31,11.4,11.4,0,0,0,4.39,2.43q.75.27,1.95.57t2.5.66q.39.08.76.18l.77.23q1.13.34,2.11.69a6,6,0,0,1,1.48.72,2.28,2.28,0,0,1,.64.63,3.37,3.37,0,0,1,.42.84.53.53,0,0,1,.1.22l.06.28,0,.2,0,.2a6.3,6.3,0,0,1-.09,1.21,3.41,3.41,0,0,1-.37,1.11,3.79,3.79,0,0,1-1,1.46,5.18,5.18,0,0,1-1.45.92l-.49.18-.5.13-.61.1a2.63,2.63,0,0,1-.64,0,7.82,7.82,0,0,1-3.39-.71c-1.13-.5-.75-.21-2.66-2-2.56-2.44-6.56,1.63-2.93,5.18a10.56,10.56,0,0,0,5,2.78,14.42,14.42,0,0,0,5.94,0l.33-.07.38-.08a14.48,14.48,0,0,0,6.43-3.62q1.76,7.06,7.44,10a17,17,0,0,0,8.81,2.17c5.28-.28,4.39-6.16,1.62-5.76h-.33l-.32,0a8.69,8.69,0,0,1-7-2.2,11.88,11.88,0,0,1-3.63-6.22l0-.15Z"/></g></g></svg>