<svg xmlns="http://www.w3.org/2000/svg" viewBox="0 0 748.18 449.71"><defs><style>.cls-1{fill:#cd733a;}.cls-2{fill:#e5bd79;}.cls-3{fill:#d99f59;}.cls-4{fill:#f5f19a;}.cls-11,.cls-16,.cls-4,.cls-5,.cls-6,.cls-7,.cls-8{stroke:#242837;}.cls-10,.cls-11,.cls-16,.cls-18,.cls-4,.cls-5,.cls-6,.cls-7,.cls-8{stroke-linecap:round;stroke-linejoin:round;}.cls-10,.cls-11,.cls-4,.cls-5,.cls-6,.cls-7,.cls-8{stroke-width:5.67px;}.cls-5{fill:#4e5064;}.cls-6{fill:#3a9948;}.cls-10,.cls-16,.cls-18,.cls-7{fill:none;}.cls-8{fill:#fffffe;}.cls-9{fill:#242837;}.cls-10{stroke:#fffffe;}.cls-11{fill:#9ddcf9;}.cls-12{fill:#c0406d;}.cls-13{fill:#e5f1d4;}.cls-14{fill:#386742;}.cls-15{fill:#cc612c;}.cls-16,.cls-18{stroke-width:0.85px;}.cls-17{fill:#84c98b;}.cls-18{stroke:#53b7e8;}</style></defs><title>figure-5_2</title><g id="Layer_2" data-name="Layer 2"><g id="Layer_1-2" data-name="Layer 1"><polygon class="cls-1" points="347.66 330.57 347.66 449.7 334.19 449.7 334.19 335.75 347.66 330.57"/><polygon class="cls-2" points="196.46 290.65 48.58 421.82 0 415.81 140.28 291.99 196.46 290.65"/><polygon class="cls-3" points="196.46 290.65 196.46 306.39 49.09 435.97 48.58 421.82 196.46 290.65"/><polygon class="cls-2" points="256.36 290.65 108.48 421.82 59.9 415.81 200.18 291.99 256.36 290.65"/><polygon class="cls-3" points="256.36 290.65 256.36 306.39 108.99 435.97 108.48 421.82 256.36 290.65"/><polygon class="cls-2" points="316.26 290.65 168.38 421.82 119.8 415.81 260.08 291.99 316.26 290.65"/><polygon class="cls-3" points="316.26 290.65 316.26 306.39 168.89 435.97 168.38 421.82 316.26 290.65"/><polygon class="cls-2" points="376.16 290.65 228.28 421.82 179.7 415.81 319.98 291.99 376.16 290.65"/><polygon class="cls-3" points="376.16 290.65 376.16 306.39 228.79 435.97 228.28 421.82 376.16 290.65"/><path class="cls-4" d="M498.9,123s131.28-33.4,175.67-40c-38.64,8.93-149,40.53-172.38,50.79C499.18,131,498.9,123,498.9,123Z"/><path class="cls-5" d="M100.81,303.28s-24.75,7.82-10.74,24c15.12,17.43,79.21,11.83,79.21,11.83Z"/><path class="cls-4" d="M363.77,184.67S446,140.25,491.51,126.77c-1.11-5.36,8.5-7.26,12.45.55s-3.72,11.23-7.92,8c-24.47,8.21-107,48.65-120.75,61.57C371.42,194.29,363.77,184.67,363.77,184.67Z"/><path class="cls-4" d="M294.76,231.11s21.69-16.79,62.25-41.35c-4-7.36,11.13-10,16.18-2.81,6.82,9.66,4,18.47-6.39,16.34-21.59,14.14-40.42,28-54.17,40.95C308.75,241.65,294.76,231.11,294.76,231.11Z"/><path class="cls-6" d="M238.08,85.48S89,109.26,82.32,253.54C78,347.4,212.08,345,248.52,343.6c47.57-1.87,77.42-14.92,76.57-44.43-1.23-43-60.53-47.9-60.53-47.9"/><path class="cls-5" d="M281.16,221s27.78,6.94,33.13,25.48c7.19,24.93-5,44.1-39.88,31.77S281.16,221,281.16,221Z"/><line class="cls-7" x1="300.38" y1="248.31" x2="315.74" y2="255.17"/><line class="cls-7" x1="298.59" y1="265.95" x2="312.18" y2="272.45"/><path class="cls-4" d="M193.21,319.08s12-13.72,50.64-41.2c-4.52-7,10.37-10.76,15.93-4,7.51,9.13,5.33,18.12-5.18,16.77-20.49,15.69-30.64,29.91-43.41,43.8C190,334.45,193.21,319.08,193.21,319.08Z"/><path class="cls-6" d="M139.4,206.26c-7.68,25.25-11.56,62.68,37.33,85.63,53.79,25.25,119.66,1.1,119.66,1.1l-16.47-72.46S237.11,238.1,195.39,226"/><path class="cls-5" d="M293.34,73.19c5.31,4.13,14.18,5.61,18.65-.15s4.06-14.16-1.29-18.31S297.23,52.12,292.65,58,288,69.06,293.34,73.19Z"/><path class="cls-5" d="M186.55,89.57c-3.83,5.53-11.84,9.6-17.84,5.45s-8.11-12.29-4.26-17.85,12.08-6.53,18.21-2.28S190.39,84,186.55,89.57Z"/><path class="cls-8" d="M344.19,125.83c22,33.26-32.88,72.53-85.92,80.67s-118.35-13.06-106.14-51.21c14-43.79,31-84.57,84.07-92.7S319.76,88.9,344.19,125.83Z"/><ellipse class="cls-9" cx="284.24" cy="139.81" rx="19.16" ry="24.95" transform="translate(-6.36 265.87) rotate(-49.64)"/><path class="cls-10" d="M274.87,142.43c14.4-4.8,19.34,1.15,19.34,1.15"/><ellipse class="cls-9" cx="211.6" cy="148.57" rx="24.95" ry="19.16" transform="translate(-26.88 248.44) rotate(-57.8)"/><path class="cls-10" d="M222.46,148.95c-14.33-.4-18.53,7.78-18.53,7.78"/><polygon class="cls-3" points="264.04 11.09 297.68 2.12 265.54 16.32 264.04 11.09"/><path class="cls-11" d="M266.29,16.17C264.22,6.2,245.07,1,226,3.45h-.08c-19,3.34-35.67,14.09-34.66,24.22C193.05,46,213,40.23,218.68,49.41c8.65,14.06-9.17,26.73-2.23,40.83,2.9,5.88,10.86,8.7,23.81,6.72S260,89.9,261,83.42c2.4-15.54-18.4-22.29-14.36-38.29C249.25,34.67,270,34.16,266.29,16.17Z"/><path class="cls-12" d="M221.79,48.89s13.45-7.75,21.53-2.76c-1,5.58,1.66,11.49,1.66,11.49s-5.14-6.19-21.14,3.24C224.6,53.07,221.79,48.89,221.79,48.89Z"/><path class="cls-3" d="M161.58,46.8l7.68,13.53s41.7-22,46.26-24.62,3.72-7-1.18-6S161.58,46.8,161.58,46.8Z"/><ellipse class="cls-1" cx="164.73" cy="53.89" rx="5.21" ry="7.75" transform="matrix(0.82, -0.57, 0.57, 0.82, -1.39, 103.31)"/><path class="cls-9" d="M220.7,10.8s10,6.16,5.88,17.66c4.7-4.8,4.09-14.66-.2-19C224.41,8.42,220.7,10.8,220.7,10.8Z"/><path class="cls-9" d="M234.12,9.6s8.12,6,3.82,14.85c5.4-6.75.49-15.26.49-15.26Z"/><path class="cls-13" d="M256.82,189.77c-31.29,4.8-66.43,2.24-86.94-6.55,12,16.19,53.27,23.17,88.64,17.74s72.13-24.23,78.88-43.36C320.56,172.12,288.15,185,256.82,189.77Z"/><path class="cls-14" d="M230.72,232.95c.75,9.13,6.92,51,8.45,67.62,34-1.81,53.94-10.05,53.94-10.05L277.68,225S246.69,233.25,230.72,232.95Z"/><path class="cls-9" d="M252.66,172.17c-2.41.37-9.7-2.73-10.81-7.93s4.82-7,8.71-7.62,10-.61,10.46,4.68S255.07,171.8,252.66,172.17Z"/><path class="cls-7" d="M229.11,181.06s10.47,5.79,25.53,3.48,22.59-10.86,22.59-10.86"/><line class="cls-7" x1="252.93" y1="171.46" x2="254.85" y2="183.94"/><path class="cls-11" d="M275.44,202.62c-1.75-11.24-30-11.29-34.46,2s20.29,10.3,10.78,26.92c-8.32,14.54-4,27.27,11.42,37.69-2.45-13.9-4.85-25.94,3.63-29.93s5-12.38,3.85-20S277.19,213.86,275.44,202.62Z"/><path class="cls-6" d="M118.3,208.14s-2,24.91,15.94,26.9"/><path class="cls-15" d="M195.55,320.76s.64,12.44,14.8,10.94C209.49,322,203.92,320.33,195.55,320.76Z"/><line class="cls-16" x1="675.14" y1="85.14" x2="675.14" y2="284.57"/><path class="cls-17" d="M156.66,133.55S84.92,173.33,87.31,275.76c-10.66-52,19.23-124.23,75-156.61C160.36,124,156.66,133.55,156.66,133.55Z"/><line class="cls-18" x1="645.92" y1="285.15" x2="698.46" y2="285.15"/><line class="cls-18" x1="624.79" y1="290.63" x2="716.46" y2="290.63"/><line class="cls-18" x1="656.08" y1="303.14" x2="747.76" y2="303.14"/><line class="cls-18" x1="561.41" y1="296.88" x2="723.5" y2="296.88"/></g></g></svg>