<svg xmlns="http://www.w3.org/2000/svg" viewBox="0 0 676.49 583.69"><defs><style>.cls-1{isolation:isolate;}.cls-2{fill:#faf9d5;}.cls-3{fill:#f5f19a;}.cls-4{fill:#e5bd79;}.cls-5{fill:#27aae1;}.cls-6{fill:#242837;}.cls-7,.cls-9{fill:#007dc5;}.cls-8{fill:#53b7e8;}.cls-9{mix-blend-mode:multiply;}.cls-10{fill:#c0406d;}.cls-11{fill:#ae275f;}.cls-12{fill:#4e5064;}.cls-13{fill:#3a9948;}.cls-14{fill:#386742;}.cls-15{fill:#84c98b;}.cls-16{fill:#fffffe;}.cls-17{fill:#e0def0;}.cls-18{fill:#787180;}.cls-19{fill:#fff;}.cls-20{fill:#e7839a;}.cls-21{fill:#72c6ef;}</style></defs><title>figure-1</title><g class="cls-1"><g id="Layer_2" data-name="Layer 2"><g id="Layer_1-2" data-name="Layer 1"><path class="cls-2" d="M95.2,203.09s20.38,70.12-4.1,99.49-73.6,28.81-89.93-6.32c-8.46,17.48,30.27,94,86,93.53s59.4-27.28,59.4-27.28,9.4,54.41-47.3,68.79c29.32,35,131.64,23.74,131.41,6.37-16.8,29.72-40.06,93,20.67,146C283.62,423.46,384.86,508.52,440,408c17.79-32.47,55.36-8.63,55.36-8.63L313.89,265.1Z"/><path class="cls-3" d="M123.39,197.33s49.1,129.22-45.23,146c37.47,27.14,93,6.46,115-25.84,24.55,41.35-11.63,100.79-53,109.83,23.26,9,93,11.63,126.63-22-23.26,37.47-20.67,73.65-18.09,94.33C300.42,426,387.83,476.61,433.51,408c33.6-18.09-131.8-169.27-131.8-169.27Z"/><path class="cls-4" d="M193.17,229.64s6.46,34.89-23.26,59.44c28.43,5.17,56.85-10.34,56.85-10.34s9,32.91-10.38,66.51c18.09,6.46,44,2,56.9-9.65-12.92,28.43-12.92,40.06-46.52,55.56,17.08,15.69,63.32-1.29,63.32-1.29s12.92,20.67-16.8,45.23c31,2.58,90.45-51.69,90.45-51.69Z"/><path class="cls-5" d="M254.66,214.55s-90-30.64-132-44.16L99.08,198.72C126.91,222.1,215,277.2,215,277.2"/><path class="cls-6" d="M214.95,280a2.82,2.82,0,0,1-1.5-.43c-3.6-2.25-88.53-55.48-116.19-78.71a2.83,2.83,0,0,1-.35-4l23.61-28.33a2.84,2.84,0,0,1,3-.88c41.53,13.37,131.12,43.87,132,44.17a2.83,2.83,0,1,1-1.83,5.37c-.89-.3-87.89-29.92-130.11-43.56l-20.56,24.67c29.53,23.91,112.52,75.91,113.38,76.45a2.83,2.83,0,0,1-1.51,5.24Z"/><path class="cls-7" d="M137.3,178.16s5.25,10.71.54,26.19S121,220.6,121,220.6l-14.66-10.44,17.95-36.36Z"/><path class="cls-5" d="M281.1,172.72a10.78,10.78,0,0,1-1,.53C219.51,205,188.61,242.81,217.51,298s119.3,126.59,178.06,95.83a9.63,9.63,0,0,0,1-.53c58.76-30.76,51.61-145.72,22.7-200.93S341.67,141,281.1,172.72Z"/><path class="cls-6" d="M363.93,404.09c-21.13,0-45.07-7.92-70.08-23.5-32.73-20.39-63.68-52.28-78.85-81.25-14.34-27.39-15.06-51.57-2.21-73.93,11.14-19.38,32.72-37.26,66-54.67l.18-.08c.14-.06.45-.22.71-.37l.13-.07c33.26-17.41,60.26-25,82.53-23.07,25.69,2.18,45.15,16.55,59.49,43.94,15.17,29,23.74,72.57,21.84,111.09-2.27,46.11-18.49,79.35-45.67,93.63a12.64,12.64,0,0,1-1.16.61A70.3,70.3,0,0,1,363.93,404.09ZM281.33,175.8c-32.23,16.88-53,34-63.62,52.44-11.81,20.54-11,42.94,2.32,68.48,14.73,28.14,44.88,59.17,76.82,79.07,21.69,13.51,63.18,33.49,97.42,15.57l.16-.08a7,7,0,0,0,.69-.36l.17-.09c34.24-17.92,41.46-63.41,42.71-88.93,1.85-37.58-6.47-80-21.2-108.18-25.23-48.2-66.66-53.91-134.31-18.51C282.1,175.42,281.66,175.64,281.33,175.8Z"/><path class="cls-7" d="M282.58,210.33s46.92,61,154.9,63.4c.93-7.52-.09-28.1-.09-28.1Z"/><path class="cls-7" d="M248.57,335.66S295.44,328,345,303.3,413.49,253,413.49,253l37.29,4.47S389.66,339.35,272.72,358.3C260,349.11,248.57,335.66,248.57,335.66Z"/><path class="cls-8" d="M376.24,314.81a.71.71,0,0,1-.27-1.36c.17-.07,16.58-6.95,19-13.07a9.15,9.15,0,0,0-2.32-9.86c-2.4-2.11-5.63-2.22-9.1-.29-3.73,2.07-5.14,5.37-3.79,8.83,1.13,2.89,3.86,4.8,6.09,4.26,4.26-1,5.51-3.68,5.25-5.81a4,4,0,0,0-3.76-3.72,3.05,3.05,0,0,0-2.85,1.74,3.26,3.26,0,0,0,.06,3.23,1.72,1.72,0,0,0,1.83.58.71.71,0,1,1,.26,1.39,3.11,3.11,0,0,1-3.22-1.12,4.66,4.66,0,0,1-.2-4.71,4.46,4.46,0,0,1,4.12-2.53,5.42,5.42,0,0,1,5.17,5c.33,2.73-1.16,6.1-6.33,7.35-2.94.71-6.35-1.54-7.75-5.12-1.26-3.23-.76-7.71,4.42-10.59,4-2.21,7.88-2,10.72.47a10.63,10.63,0,0,1,2.7,11.45c-2.67,6.67-19.1,13.56-19.8,13.85A.7.7,0,0,1,376.24,314.81Z"/><path class="cls-8" d="M384.79,309.74c-2.26,0-6.58-.4-9.51-3.15-2.1-2-3.08-4.74-2.93-8.26.37-8.59,6.69-12.15,10.87-14.5.68-.38,1.3-.73,1.84-1.07l12.46-9.22a13.51,13.51,0,0,1,9.25-1.63,10.16,10.16,0,0,1,6.89,4.44,11.1,11.1,0,0,1,1.77,8.64,12,12,0,0,1-5.37,7.48c-2.87,1.77-7.52,2.91-11,1.22-1.73-.84-3.88-2.78-4.37-7.23a9.72,9.72,0,0,1,2.08-7.69,9.44,9.44,0,0,1,7.13-3,8,8,0,0,1,6.14,2.16,7,7,0,0,1,1.67,5.53,7.32,7.32,0,0,1-4,6.14,6.12,6.12,0,0,1-9-6.11,4.82,4.82,0,0,1,3.77-4,3.39,3.39,0,0,1,3.45.92,4.11,4.11,0,0,1,.9,3.9,2.51,2.51,0,0,1-1.91,1.78.71.71,0,1,1-.28-1.39,1.09,1.09,0,0,0,.83-.82,2.71,2.71,0,0,0-.58-2.5,2,2,0,0,0-2.07-.51,3.4,3.4,0,0,0-2.72,2.8,4.7,4.7,0,0,0,6.94,4.62,5.93,5.93,0,0,0,3.18-5,5.63,5.63,0,0,0-1.29-4.45,6.53,6.53,0,0,0-5.08-1.71,8.07,8.07,0,0,0-6.1,2.52,8.36,8.36,0,0,0-1.73,6.6c.33,3.05,1.54,5.11,3.58,6.1,2.84,1.39,7,.47,9.61-1.15a10.59,10.59,0,0,0,4.73-6.58,9.71,9.71,0,0,0-1.57-7.56,8.66,8.66,0,0,0-6-3.82,12.15,12.15,0,0,0-8.16,1.38l-12.5,9.25c-.59.38-1.24.74-1.94,1.14-4.14,2.33-9.82,5.52-10.15,13.32-.13,3.09.71,5.5,2.49,7.17,3.58,3.35,9.82,2.71,9.88,2.71a.71.71,0,0,1,.15,1.41A14.91,14.91,0,0,1,384.79,309.74Z"/><path class="cls-8" d="M418.74,285.95l-.18,0a.71.71,0,0,1-.51-.86,43.2,43.2,0,0,0,1.1-7.87c-.59-7.87-10.78-8.7-11.21-8.73A.71.71,0,0,1,408,267c.12,0,11.85,1,12.53,10.12a43.28,43.28,0,0,1-1.14,8.25A.71.71,0,0,1,418.74,285.95Z"/><path class="cls-8" d="M424,282.42a.71.71,0,0,1-.68-.91,16.49,16.49,0,0,0-1.07-11c-2.69-5.22-8.58-6.35-8.64-6.37a.71.71,0,0,1,.25-1.4c.27,0,6.64,1.25,9.65,7.11a17.64,17.64,0,0,1,1.17,12.08A.71.71,0,0,1,424,282.42Z"/><path class="cls-8" d="M297,350.12a14.6,14.6,0,0,1-6.2-1.23,12.42,12.42,0,0,1-7.1-12.11c.42-4.71,3.64-8.21,8.85-9.59s8.46-.17,10.22,1.1a9.35,9.35,0,0,1,3.7,7,10,10,0,0,1-10.74,10.45c-3.84-.28-6.43-2.5-6.93-5.94a8.24,8.24,0,0,1,5-8.78,5.7,5.7,0,0,1,7.43,2.5,5.49,5.49,0,0,1-1.42,7.13c-.6.44-2.71,1.81-4.68,1.09a3.92,3.92,0,0,1-2.34-3,3.27,3.27,0,0,1,1-3.5,3.87,3.87,0,0,1,3.85-.6,1.78,1.78,0,0,1,1.09,1.64.71.71,0,0,1-1.42,0c0-.07,0-.22-.28-.36a2.48,2.48,0,0,0-2.35.41,1.87,1.87,0,0,0-.55,2.06,2.61,2.61,0,0,0,1.44,2c1,.38,2.47-.25,3.37-.9a4,4,0,0,0,1-5.31,4.29,4.29,0,0,0-5.68-1.85,6.81,6.81,0,0,0-4.12,7.25c.41,2.78,2.46,4.5,5.63,4.73a8.46,8.46,0,0,0,6.66-2.42,8.61,8.61,0,0,0,2.57-6.53,7.92,7.92,0,0,0-3.12-5.94c-2.2-1.59-5.24-1.88-9-.88-4.59,1.22-7.44,4.26-7.8,8.34a11,11,0,0,0,6.29,10.7c9.47,4.42,27-6,27.19-6.12a.71.71,0,1,1,.73,1.21C318.74,343.07,306.88,350.12,297,350.12Z"/><path class="cls-8" d="M271.7,356.72c-.38,0-.77,0-1.17,0a.71.71,0,0,1-.66-.76.7.7,0,0,1,.76-.66c3.79.26,6.74-.8,9-3.25a9,9,0,0,0,1.84-9.29c-1.2-3-4-4.74-7.85-5a9.41,9.41,0,0,0-8.84,5.55,5.67,5.67,0,0,0,1.53,6.77c3,2.71,7.07,1.78,9.56-.23,1.65-1.33,3.15-3.64,1.94-5.76l-.16-.29c-.79-1.44-2-3.62-6.41-1.88a3.47,3.47,0,0,0-1.77,4.49,1.8,1.8,0,0,0,2.41,1.25l.1,0a3,3,0,0,0,1.87-1.23,1.83,1.83,0,0,0-.09-1.61.71.71,0,1,1,1.3-.57,3.19,3.19,0,0,1,0,2.83,4.43,4.43,0,0,1-2.78,1.95,3.17,3.17,0,0,1-4.18-2.09,4.87,4.87,0,0,1,2.57-6.31c5.58-2.19,7.39,1.11,8.17,2.52l.15.27c1.36,2.38.47,5.35-2.28,7.57-2.95,2.38-7.77,3.45-11.4.18a7.07,7.07,0,0,1-1.89-8.37,10.74,10.74,0,0,1,10.23-6.41c4.38.26,7.69,2.39,9.08,5.86A10.45,10.45,0,0,1,280.68,353,11.72,11.72,0,0,1,271.7,356.72Z"/><path class="cls-8" d="M260,347.7a.71.71,0,0,1-.7-.6c-.65-4.17,0-7,5.57-10.65,6.35-4.23,21.67-6.68,22.32-6.79a.71.71,0,1,1,.22,1.4c-.16,0-15.66,2.5-21.75,6.57-5,3.31-5.54,5.53-5,9.25a.71.71,0,0,1-.59.81Z"/><path class="cls-9" d="M437.76,256,413.49,253a199.53,199.53,0,0,1-17.07,16.9c11.57,3,26.55,3,40,3.73l1.17-1.2C438,268.32,437.9,261.63,437.76,256Z"/><path class="cls-10" d="M281.66,207.88s68.7,57.66,156.59,52.88c5.09,19.41,14,121.91-58.33,139.5,130.12,80.17,346.44,6.35,282-164.88C422.26,116.94,348.5,151,348.5,151S319.62,185.64,281.66,207.88Z"/><path class="cls-6" d="M498.76,435.48c-43.39,0-85.73-11.49-120.33-32.8a2.84,2.84,0,0,1,.82-5.17c18.68-4.54,33.25-15.4,43.32-32.28,20.34-34.12,17.26-83.91,13.46-101.52-45.06,1.88-84.74-12.52-110.29-25.05-28.15-13.81-45.2-28-45.91-28.6a2.83,2.83,0,0,1,.39-4.62c37.08-21.72,65.81-55.86,66.1-56.2a2.84,2.84,0,0,1,1-.76c.78-.36,19.74-8.8,68.39-2.48,44.37,5.76,123.33,25.5,247.48,86.85a2.84,2.84,0,0,1,1.4,1.54c24,63.8,11.49,120.14-35.24,158.64-30.39,25-72.7,40-119.13,42.19Q504.48,435.48,498.76,435.48ZM387,401.18c74.48,42.54,178.07,37.46,238.73-12.53,44.46-36.63,56.48-90.3,33.92-151.22-224.73-110.87-302.49-86.62-309.46-84-3.78,4.4-29.92,34.11-63.56,54.78,14.4,10.91,76.18,53.83,151.44,49.74A2.82,2.82,0,0,1,441,260c4.15,15.83,8.66,70.84-13.55,108.09C417.74,384.38,404.16,395.48,387,401.18Z"/><path class="cls-11" d="M495.87,254.39S657.44,255.62,650,295.92c-8.78,47.67-72.11,8.48-93.32,31.81-18.72,20.6,45.6,58.32,17,71-28.21,12.54-44.54-32.87-76.35-40.3-39.13-9.13-58.89,12.88-58.89,12.88l-5.08-17.45s17.7-31.34,8.12-91.69C466.39,258.5,487.92,258.1,495.87,254.39Z"/><path class="cls-12" d="M437.45,260.93c14.14,34.16,56.26,22.48,55.07-5.71C466,260.49,437.45,260.93,437.45,260.93Z"/><path class="cls-6" d="M465.79,284.72c-11.07,0-24-5.78-31-22.71a2.83,2.83,0,0,1,2.58-3.92c.28,0,28.64-.5,54.57-5.65a2.84,2.84,0,0,1,3.38,2.66c.58,13.91-8.83,25.79-22.88,28.9A31.1,31.1,0,0,1,465.79,284.72Zm-23.93-21.09c7.52,14,20.24,16.85,29.39,14.83,8.73-1.93,17.33-8.73,18.36-19.8A362.73,362.73,0,0,1,441.86,263.63Z"/><path class="cls-10" d="M223.69,215.24s-26.58,30.68-13.61,62.68c29.88-6.18,72-31.26,70.91-69.48C256.35,215.4,244.55,216.77,223.69,215.24Z"/><path class="cls-6" d="M210.08,280.76a2.83,2.83,0,0,1-2.63-1.77c-13.47-33.23,13-64.3,14.09-65.6a2.83,2.83,0,0,1,2.35-1c20.56,1.51,32.14.13,56.33-6.7a2.84,2.84,0,0,1,3.6,2.65c1.18,41.43-44.26,66.36-73.17,72.34A2.82,2.82,0,0,1,210.08,280.76ZM225,218.17c-4.23,5.43-22.06,30.49-13.09,56.45A109.59,109.59,0,0,0,255.34,253c10.09-8.44,21.89-22.2,22.79-40.84C256.16,218.2,244.36,219.49,225,218.17Zm.87-1.08Z"/><path class="cls-10" d="M280.91,207.69s28.83,5.53,51.53-3.52"/><path class="cls-6" d="M301.24,212.22a120.64,120.64,0,0,1-20.87-1.75,2.83,2.83,0,0,1,1.07-5.57c.28.05,28.31,5.26,50-3.37a2.83,2.83,0,0,1,2.1,5.27C322.84,211.05,311,212.22,301.24,212.22Z"/><path class="cls-10" d="M245.3,235.65a85.55,85.55,0,0,0,36.47-28.36"/><path class="cls-6" d="M245.3,238.49a2.84,2.84,0,0,1-.94-5.51,83.53,83.53,0,0,0,35.13-27.37A2.83,2.83,0,0,1,284,209c-15.82,21.48-36.92,29-37.81,29.36A2.83,2.83,0,0,1,245.3,238.49Z"/><rect class="cls-13" x="164.64" y="386.8" width="19.77" height="82.12" transform="translate(-99.33 55.67) rotate(-14.15)"/><path class="cls-14" d="M175,472.93a2.84,2.84,0,0,1-2.75-2.14l-20.08-79.63a2.83,2.83,0,0,1,2.06-3.44l19.17-4.84a2.83,2.83,0,0,1,3.44,2.06l20.08,79.63a2.84,2.84,0,0,1-2.06,3.44l-19.17,4.84A2.84,2.84,0,0,1,175,472.93Zm-16.64-80.41L177,466.65l13.68-3.45L172,389.07Z"/><path class="cls-13" d="M170,369.56l-20.08-79.63-19.17,4.84,20.08,79.63s-6.44,3.43-4.17,12.4,9.61,9.16,9.61,9.16l19.17-4.84s6.3-4,4.12-12.63S170,369.56,170,369.56Z"/><path class="cls-14" d="M156.29,398.79h-.08c-3.29-.09-10.08-2.56-12.28-11.3-1.78-7.06,1-11.84,3.71-14.25L128,295.46a2.83,2.83,0,0,1,2.06-3.44l19.17-4.84a2.83,2.83,0,0,1,3.44,2.06l19.63,77.84c3.5.93,8.27,3.86,10,10.72,2.65,10.52-5,15.51-5.35,15.72a2.84,2.84,0,0,1-.82.35L157,398.71A2.84,2.84,0,0,1,156.29,398.79Zm-22.08-102L153.6,373.7a2.83,2.83,0,0,1-1.42,3.19c-.42.24-4.39,2.72-2.76,9.2,1.46,5.81,5.39,6.82,6.64,7l18.18-4.59c1-.82,4-3.74,2.58-9.32-1.58-6.28-6.4-6.76-6.95-6.8a2.88,2.88,0,0,1-2.6-2.14l-19.39-76.88Zm41.25,94.3h0Z"/><path class="cls-15" d="M174.63,388.13a1,1,0,0,1-.87-1.73c.08-.07,2.26-2,1-6.93s-7.45-6.34-7.51-6.35a1,1,0,0,1-.76-.73l-19.83-78.61,1.92-.49,19.68,78c1.83.52,7.1,2.44,8.42,7.66,1.57,6.22-1.55,8.85-1.69,9A1,1,0,0,1,174.63,388.13Z"/><path class="cls-15" d="M189.48,463.5l-17.25-68.39,1.92-.49L191.41,463"/><path class="cls-13" d="M145.89,273.86,125.8,194.23l-19.17,4.84,20.08,79.63s-6.44,3.43-4.17,12.4,9.61,9.16,9.61,9.16l19.17-4.84s6.3-4,4.12-12.63S145.89,273.86,145.89,273.86Z"/><path class="cls-14" d="M132.15,303.09h-.08c-3.29-.09-10.08-2.56-12.28-11.3-1.78-7.06,1-11.84,3.71-14.25l-19.62-77.78a2.83,2.83,0,0,1,2.06-3.44l19.17-4.84a2.83,2.83,0,0,1,3.44,2.06l19.63,77.84c3.5.93,8.27,3.86,10,10.72,2.65,10.52-5,15.51-5.35,15.71a2.84,2.84,0,0,1-.82.35L132.84,303A2.84,2.84,0,0,1,132.15,303.09Zm-22.08-102L129.46,278A2.83,2.83,0,0,1,128,281.2c-.42.24-4.39,2.72-2.76,9.2,1.46,5.81,5.39,6.82,6.64,7l18.18-4.59c1-.82,4-3.74,2.58-9.32-1.64-6.52-6.86-6.79-6.92-6.8a2.84,2.84,0,0,1-2.64-2.14l-19.39-76.88Zm41.25,94.3h0Z"/><path class="cls-15" d="M150.45,292.23a1,1,0,0,1-.87-1.73c.08-.07,2.26-2,1-6.93s-7.45-6.34-7.51-6.35a1,1,0,0,1-.76-.73l-19.83-78.61,1.92-.49,19.68,78c1.83.52,7.1,2.44,8.42,7.66,1.57,6.22-1.55,8.85-1.69,9A1,1,0,0,1,150.45,292.23Z"/><path class="cls-13" d="M121.75,178.16,101.67,98.53,82.5,103.37,102.58,183s-6.44,3.43-4.17,12.4,9.61,9.16,9.61,9.16l19.17-4.84s6.3-4,4.12-12.63S121.75,178.16,121.75,178.16Z"/><path class="cls-14" d="M108,207.4h-.08c-3.29-.09-10.08-2.56-12.28-11.3-1.78-7.06,1-11.84,3.71-14.25L79.75,104.06a2.83,2.83,0,0,1,2.06-3.44L101,95.78a2.83,2.83,0,0,1,3.44,2.06l19.63,77.84c3.5.93,8.27,3.86,10,10.72,2.65,10.52-5,15.51-5.35,15.72a2.84,2.84,0,0,1-.82.35l-19.17,4.84A2.84,2.84,0,0,1,108,207.4Zm-22.08-102,19.39,76.88a2.83,2.83,0,0,1-1.42,3.19c-.42.24-4.39,2.72-2.76,9.2,1.46,5.81,5.39,6.82,6.64,7L126,197.11c1-.82,4-3.74,2.58-9.32-1.58-6.28-6.4-6.76-6.95-6.8a2.88,2.88,0,0,1-2.6-2.14L99.61,102Zm41.25,94.3h0Z"/><path class="cls-15" d="M126.41,196.9a1,1,0,0,1-.87-1.73c.08-.07,2.26-2,1-6.93s-7.45-6.34-7.51-6.35a1,1,0,0,1-.76-.73L98.45,102.54l1.92-.49,19.68,78c1.83.52,7.1,2.44,8.42,7.66,1.57,6.22-1.55,8.85-1.69,9A1,1,0,0,1,126.41,196.9Z"/><path class="cls-13" d="M97.62,82.47,77.54,2.83,58.36,7.67,78.44,87.3S72,90.73,74.27,99.7s9.61,9.16,9.61,9.16L103.06,104s6.3-4,4.12-12.63S97.62,82.47,97.62,82.47Z"/><path class="cls-14" d="M83.88,111.7h-.08c-3.28-.09-10.08-2.56-12.28-11.3-1.78-7.06,1-11.84,3.71-14.25L55.61,8.36a2.83,2.83,0,0,1,2.06-3.44L76.84.09a2.83,2.83,0,0,1,3.44,2.06L99.91,80c3.5.93,8.27,3.86,10,10.72,2.65,10.52-5,15.51-5.35,15.72a2.84,2.84,0,0,1-.82.35l-19.17,4.84A2.84,2.84,0,0,1,83.88,111.7ZM61.8,9.72,81.19,86.61a2.83,2.83,0,0,1-1.42,3.19C79.35,90,75.38,92.52,77,99c1.46,5.81,5.39,6.82,6.64,7l18.18-4.59c1-.82,4-3.74,2.58-9.32-1.58-6.28-6.4-6.76-6.95-6.8a2.88,2.88,0,0,1-2.6-2.14L75.48,6.28ZM103.06,104h0Z"/><path class="cls-15" d="M102.22,101a1,1,0,0,1-.87-1.73c.08-.07,2.26-2,1-6.93S94.92,86,94.85,86a1,1,0,0,1-.76-.73L74.27,6.64l1.92-.49,19.68,78c1.83.52,7.1,2.44,8.42,7.66,1.57,6.22-1.55,8.85-1.69,9A1,1,0,0,1,102.22,101Z"/><path class="cls-12" d="M171.69,100.77c-4.28-1.07-11.09-5.71-13.89-7.51-8.68-5.59-12.07-17-6.89-25s16.76-9.81,25.63-4.1c4.12,2.65,8.78,7.65,12.07,13"/><path class="cls-6" d="M171.69,103.61a2.82,2.82,0,0,1-.69-.08c-4-1-9.17-4.25-13.75-7.23l-1-.64a23.22,23.22,0,0,1-9.84-13.21,19.1,19.1,0,0,1,2.1-15.74c6-9.35,19.27-11.57,29.55-5,4.51,2.9,9.47,8.24,13,13.95a2.83,2.83,0,0,1-4.84,3c-3-4.94-7.41-9.71-11.19-12.13-7.65-4.92-17.39-3.46-21.71,3.25a13.51,13.51,0,0,0-1.41,11.13,17.8,17.8,0,0,0,7.45,10l1,.66c2.81,1.83,8.65,5.64,12,6.48a2.84,2.84,0,0,1-.68,5.59Z"/><path class="cls-12" d="M303.66,67.49c3.26-3,7.06-10.28,8.67-13.2,5-9,2.57-20.67-5.8-25.3S287.11,28.3,282,37.54c-2.37,4.29-4.1,10.89-4.44,17.21"/><path class="cls-6" d="M303.66,70.33a2.83,2.83,0,0,1-1.91-4.93c2.57-2.34,5.91-8.46,7.51-11.41l.58-1.06a17.8,17.8,0,0,0,1.83-12.31A13.08,13.08,0,0,0,294,30.74a17.56,17.56,0,0,0-9.49,8.17c-2.17,3.93-3.78,10.2-4.09,16a2.83,2.83,0,1,1-5.66-.31c.36-6.67,2.2-13.73,4.79-18.42A23.22,23.22,0,0,1,292.1,25.39a18.74,18.74,0,0,1,25.1,14,23.22,23.22,0,0,1-2.4,16.29l-.57,1c-2.61,4.79-5.65,10.14-8.67,12.89A2.82,2.82,0,0,1,303.66,70.33Z"/><path class="cls-16" d="M345.64,112.72C372,149.1,322.26,197.9,270.23,211s-120.2-6.34-113-50.78c8.26-51,19.95-98.77,72-111.89S316.33,72.34,345.64,112.72Z"/><path class="cls-6" d="M237,217.85c-27.66,0-54.34-7.8-69.39-21.61-10.89-10-15.46-22.59-13.21-36.46C162.93,107.31,175,59.09,228.52,45.6c24.6-6.21,47.17-2.11,69,12.52,20.68,13.85,37.8,35.57,50.41,52.94h0c8.36,11.52,10.07,25.1,4.94,39.25-9.9,27.29-44.36,54-81.95,63.46A139.48,139.48,0,0,1,237,217.85ZM250,48.5a82,82,0,0,0-20.13,2.59c-50.18,12.66-61.69,59.06-69.87,109.6-2,12.06,1.9,22.62,11.45,31.38,20,18.3,62.11,25.27,98.06,16.2,35.32-8.91,68.85-34.65,78-59.89,4.53-12.48,3.12-23.91-4.2-34h0C318.16,79.69,289.47,48.5,250,48.5Z"/><path class="cls-17" d="M265.5,192.24c-30.69,7.74-65.93,8.49-87.92-1.27C192.19,210.41,234.26,214.8,269,206s69.18-32.27,73-56.44C327.27,168.62,296.22,184.49,265.5,192.24Z"/><path class="cls-5" d="M229.21,48.34C182.75,60.06,168.46,99.41,160,144l.11-.16s10.64,23.18,37.9,24,27.2-26.38,49.5-26.64l7.08-1.78c19.76-10.35,36.5,12.68,60.09-1S335,98.57,335,98.57l0,0C307.79,64.26,275.08,36.78,229.21,48.34Z"/><path class="cls-6" d="M199.3,170.74l-1.33,0c-25.64-.8-37.34-19.88-39.87-24.64a2.84,2.84,0,0,1-.84-2.58c8.22-43.58,22.54-85.6,71.25-97.89C278.64,33,312.76,66.06,336.91,96.49a2.77,2.77,0,0,1,.92,1.73c0,.28,3.25,28.25-21.68,42.7-13.56,7.86-25.19,4.49-35.44,1.51-8.85-2.57-16.49-4.78-24.76-.45a2.84,2.84,0,0,1-.62.24L248.25,144a2.82,2.82,0,0,1-.66.09c-9.25.11-14.11,5.43-19.73,11.6C221.42,162.75,214.14,170.74,199.3,170.74Zm-36.23-27.41c1.93,3.69,12.18,21,35.08,21.72,13.14.4,19.15-6.19,25.52-13.19,5.91-6.48,12-13.19,23.51-13.45l6.44-1.62c10.17-5.18,19.57-2.45,28.66.19,10.06,2.92,19.56,5.68,31-1,19.58-11.35,19.29-31.75,19-36.23-23.08-29-55.53-60.49-102.38-48.68h0C187.17,61.87,172.18,95.74,163.06,143.33Zm66.15-95h0Z"/><path class="cls-6" d="M261,172.38a2.83,2.83,0,0,1-2.16-1c-6.46-7.58-8.52-22-8.6-22.59a2.83,2.83,0,0,1,5.62-.78c0,.13,1.93,13.38,7.31,19.69a2.83,2.83,0,0,1-2.16,4.67Z"/><path class="cls-6" d="M252.92,150.91c-4,1-16.71-3-19.39-11.58s7-12.55,13.4-14.18,16.6-2.61,18.29,6.19S256.91,149.9,252.92,150.91Z"/><ellipse class="cls-6" cx="201.28" cy="128.38" rx="27.54" ry="21.14" transform="translate(-4 250.27) rotate(-63.23)"/><ellipse class="cls-6" cx="288.9" cy="106.29" rx="21.14" ry="27.54" transform="matrix(0.57, -0.82, 0.82, 0.57, 36.37, 282.31)"/><path class="cls-16" d="M288.08,110.57a21.09,21.09,0,0,1-13.66-5,2.83,2.83,0,0,1,3.6-4.38c8.3,6.82,17.64,2,17.73,2a2.83,2.83,0,1,1,2.64,5A23.9,23.9,0,0,1,288.08,110.57Z"/><path class="cls-12" d="M76.31,160.21s26.61-10.56,41.77,1.38c20.38,16.06,21.68,38.72-13.87,49.06S76.31,160.21,76.31,160.21Z"/><path class="cls-6" d="M96.58,214.68A18.84,18.84,0,0,1,84,210.17c-15-12.8-10.65-48.79-10.46-50.31a2.83,2.83,0,0,1,1.77-2.28c1.15-.46,28.32-11,44.57,1.79,11.46,9,16.93,19.88,15,29.77C133.37,196.66,127,207,105,213.38A30.2,30.2,0,0,1,96.58,214.68Zm-17.64-52.4c-.65,7.09-2.34,34.17,8.7,43.58,3.92,3.34,9.08,4,15.77,2.07,15-4.37,24.22-11.44,25.86-19.88,1.5-7.73-3.22-16.56-13-24.23C104.65,154.62,84.69,160.34,78.94,162.28Z"/><path class="cls-6" d="M107.84,174a2.84,2.84,0,0,1-.57-5.61L123.75,165a2.83,2.83,0,1,1,1.14,5.55L108.41,174A2.83,2.83,0,0,1,107.84,174Z"/><path class="cls-6" d="M112.29,191.58a2.84,2.84,0,0,1-.69-5.58l19.21-4.82a2.83,2.83,0,0,1,1.38,5.5L113,191.49A2.84,2.84,0,0,1,112.29,191.58Z"/><path class="cls-18" d="M305.64,32.27s8.24,8.57-7,26.6a18.2,18.2,0,0,1,5.14,4.28S320.56,43.21,305.64,32.27Z"/><path class="cls-18" d="M157.73,65.84S169.89,62.12,180.66,78a14.65,14.65,0,0,0,2.25-3.19S172.15,58.05,157.73,65.84Z"/><path class="cls-6" d="M273.31,196.41a23.07,23.07,0,0,1-8.76-1.8c-9.42-3.89-14.64-13-11.64-20.21,1.52-3.67,4.81-6.29,9.27-7.37a22.81,22.81,0,0,1,23.53,9.73c2.39,3.91,2.88,8.09,1.36,11.76s-4.81,6.29-9.26,7.37A19.06,19.06,0,0,1,273.31,196.41Zm-6.64-24.24a13.42,13.42,0,0,0-3.16.36c-2.65.64-4.55,2.07-5.36,4-1.77,4.29,2.15,10.16,8.56,12.81a16,16,0,0,0,9.75,1c2.65-.64,4.55-2.07,5.36-4h0c.81-2,.47-4.31-1-6.64a16,16,0,0,0-7.61-6.17A17.38,17.38,0,0,0,266.66,172.17Z"/><path class="cls-16" d="M203.84,126.67a20.19,20.19,0,0,1-14.15-5.73,2.83,2.83,0,0,1,4.11-3.9c.3.31,6.85,6.89,16.74,2.45a2.83,2.83,0,0,1,2.32,5.17A21.9,21.9,0,0,1,203.84,126.67Z"/><path class="cls-12" d="M473.27,267.33A102.23,102.23,0,0,0,484.43,274"/><path class="cls-6" d="M484.43,276.87a2.82,2.82,0,0,1-1.27-.3,104.33,104.33,0,0,1-11.52-6.92A2.83,2.83,0,0,1,474.9,265a100.26,100.26,0,0,0,10.81,6.49,2.84,2.84,0,0,1-1.28,5.37Z"/><path class="cls-12" d="M431.62,350.74c1,1.79,14.48,30.58,3.63,39.14-12.25,9.67-26.51-4-26.51-4S419.87,375.82,431.62,350.74Z"/><path class="cls-6" d="M425.55,396.15c-7.77,0-15-4.63-18.76-8.19a2.84,2.84,0,0,1,.06-4.15c.1-.09,10.9-10.12,22.21-34.27a2.83,2.83,0,0,1,5-.17c.17.31,16.24,32.21,2.91,42.73A18.1,18.1,0,0,1,425.55,396.15Zm-12.63-10.46c4,3,12.88,8,20.58,2,6.27-5,1.69-21.14-2-30.27C423.69,372.88,416.46,381.8,412.92,385.68Z"/><path class="cls-12" d="M310.2,386.61s10.82,36.75,34.57,33.46c14.4-2,13.54-18.76,13.54-18.76S338,402.66,310.2,386.61Z"/><path class="cls-6" d="M341.71,423.13c-23.43,0-33.78-34.19-34.23-35.71a2.83,2.83,0,0,1,4.14-3.26c26.71,15.43,46.3,14.34,46.5,14.33a2.83,2.83,0,0,1,3,2.68c.35,6.7-2.55,19.85-16,21.71A25.22,25.22,0,0,1,341.71,423.13Zm-26.19-30.41c4.27,9.88,13.85,26.64,28.85,24.55,8.57-1.18,10.55-8.91,11-13.11C349.19,403.93,334.48,402.28,315.52,392.72Z"/><circle class="cls-10" cx="341.29" cy="321.81" r="33.32" transform="translate(-115.19 213.79) rotate(-30)"/><path class="cls-19" d="M349.21,326.14l-.14-.24a12.69,12.69,0,0,1-1.4-6.63,8.79,8.79,0,0,1,3-6.18l.32-.3a2,2,0,0,1,.34-.25,8.71,8.71,0,0,1,1-.82q.53-.36,1-.66a10,10,0,0,1,2.12-1c3-1.28,1.92-6.38-2.69-4.66a17.21,17.21,0,0,0-2.77,1.32q-.56.32-1.09.69t-1.08.8a15.87,15.87,0,0,0-6.45,9.84c0,.22-.09.45-.12.67a8.56,8.56,0,0,0-2.75-1.26,19.34,19.34,0,0,0-6.77-.58,8.9,8.9,0,0,0-.9.1l-.87.15-.86.11q-.47.06-.94.09a10.05,10.05,0,0,1-2.94-.16,3.07,3.07,0,0,1-2.16-1.51,2.37,2.37,0,0,1-.22-.53c-.06-.21-.12-.43-.18-.67a1.05,1.05,0,0,0,0-.22,1,1,0,0,1,0-.22,3.35,3.35,0,0,1,.4-2.12,4.78,4.78,0,0,1,1.34-1.52l.2-.12.2-.12.39-.2.39-.2a6.84,6.84,0,0,1,2.82-.46c1,0,.38.13,2.63.67,3.57.85,5.59-4.25,1.53-5.55a12.48,12.48,0,0,0-5.1-.74,13.37,13.37,0,0,0-4.85,1.45l-.18.1-.18.1a13.34,13.34,0,0,0-2.64,2,14.69,14.69,0,0,0-2.12,2.6,9.79,9.79,0,0,0-1.38,4.57,8.07,8.07,0,0,0,1,4.61l.19.13a8.36,8.36,0,0,0,3.77,3.31,11.4,11.4,0,0,0,4.93,1q.79,0,2-.06t2.58-.14q.39,0,.78-.06h.8q1.18,0,2.22,0a6,6,0,0,1,1.63.23,2.28,2.28,0,0,1,.8.4,3.37,3.37,0,0,1,.66.67.53.53,0,0,1,.16.18l.14.25.1.18.1.18a6.3,6.3,0,0,1,.29,1.18,3.41,3.41,0,0,1,0,1.17,3.79,3.79,0,0,1-.51,1.7,5.18,5.18,0,0,1-1.09,1.32q-.2.18-.41.33a5.06,5.06,0,0,1-.44.28c-.18.1-.36.2-.55.29a2.63,2.63,0,0,1-.6.2,7.82,7.82,0,0,1-3.44.37c-1.23-.13-.78,0-3.16-1.11-3.18-1.53-5.74,3.57-1.18,5.83a10.56,10.56,0,0,0,5.61,1.1,14.42,14.42,0,0,0,5.64-1.85l.29-.17.34-.19a14.48,14.48,0,0,0,5-5.43q3.85,6.17,10.17,7.25A17,17,0,0,0,363,337c4.93-1.89,2.28-7.21-.24-6a1.92,1.92,0,0,0-.32.1l-.29.14a8.69,8.69,0,0,1-7.37.08,11.88,11.88,0,0,1-5.37-4.79l-.07-.13Z"/><path class="cls-20" d="M351.94,152.79s37.34-10.13,95,3.94C527.2,173,659.71,237.08,659.71,237.08S506.6,174,429.19,167.4c-54.48-4.63-94.81,10.67-94.81,10.67A76.89,76.89,0,0,0,351.94,152.79Z"/><path class="cls-21" d="M231.92,51.44s52.2-9.4,99.22,56.74c.65-5.84,1-8.43,1-8.43S291.26,35.88,231.92,51.44Z"/><path class="cls-18" d="M96.56,159.36s12.82.78,17.8,7.55c3.68-.86,4.36-.95,4.36-.95S113.29,157.93,96.56,159.36Z"/><path class="cls-18" d="M118.15,172a43.92,43.92,0,0,1,5.47,10.84,47.27,47.27,0,0,0,5.34-1.42s-1.28-6.47-5.69-10.74C120.52,171.36,118.15,172,118.15,172Z"/><path class="cls-18" d="M125.18,188.55s.88,5.48-1.44,8.58c5.31-3.6,5.68-10.14,5.68-10.14Z"/></g></g></g></svg>