<svg xmlns="http://www.w3.org/2000/svg" viewBox="0 0 189.86 241.24"><defs><style>.cls-1{fill:#c797c5;}.cls-2{fill:#8f499c;}.cls-3{fill:#242837;}.cls-4{fill:#f5f19a;}.cls-4,.cls-7{stroke:#242837;}.cls-11,.cls-12,.cls-4,.cls-7{stroke-linecap:round;stroke-linejoin:round;stroke-width:1.98px;}.cls-5{fill:#fbfdfb;}.cls-6{fill:#9ddcf9;}.cls-11,.cls-12,.cls-7{fill:none;}.cls-8{fill:#f8b6c1;}.cls-9{fill:#3a9948;}.cls-10{fill:#e5f1d4;}.cls-11{stroke:#fff;}.cls-12{stroke:#e5f1d4;}</style></defs><title>figure-13-mobile</title><g id="Layer_2" data-name="Layer 2"><g id="Layer_1-2" data-name="Layer 1"><path class="cls-1" d="M171.28,115.33l-35.6,54.5S179.94,169.25,171.28,115.33Z"/><path class="cls-2" d="M29,112S11.2,120.84,1.43,155c-15,52.46,93,73,93,73l35-58.65L49.92,175.1"/><polygon class="cls-2" points="125.59 115.51 155.03 140.19 125.17 180.38 26.28 194.02 22.49 137.27 27.22 108.89 125.59 115.51"/><path class="cls-3" d="M34.81,75.93c-2.27-1.21-5.46-4.81-6.79-6.23-4.12-4.4-4.41-11.34-.33-15.15s10.89-3.16,15.1,1.34a25.07,25.07,0,0,1,5,9.11"/><path class="cls-3" d="M110.72,75.93c2.27-1.21,5.46-4.81,6.79-6.23,4.12-4.4,4.41-11.34.33-15.15s-10.89-3.16-15.1,1.34a25.07,25.07,0,0,0-5,9.11"/><path class="cls-4" d="M34.91,190.71"/><path class="cls-5" d="M131.77,98.5c10.18,22.06-26.49,40.63-59.17,40.63s-70-18.79-59.17-40.63c12.47-25.07,26.49-48,59.17-48S120.48,74,131.77,98.5Z"/><path class="cls-6" d="M73.57,116.51s14.65-1,18.68,6.74c6,11.41-20.89,52.92-20.89,52.92s-25.17-41.5-19.21-52.92c4-7.71,18.68-6.74,18.68-6.74Z"/><line class="cls-7" x1="71.61" y1="119.4" x2="71.61" y2="125.92"/><path class="cls-3" d="M71.5,122.22c-2.06,0-7.77-3.53-8-8s4.93-5.26,8.27-5.26,8.41.77,8.15,5.26S73.56,122.22,71.5,122.22Z"/><path class="cls-3" d="M131.44,169"/><path class="cls-7" d="M63.65,129.66c5.71-4.36,9.67-4.74,16.11,0"/><path class="cls-8" d="M41.75,117.57c6.91-1,12.77-3.51,16-6.55.16,4.25-6.54,10.14-15.47,11.42s-16.79-2.53-17.82-6.65C28.5,117.79,34.83,118.56,41.75,117.57Z"/><ellipse class="cls-3" cx="45.26" cy="96.36" rx="19.61" ry="15.06" transform="translate(-57.2 67.44) rotate(-49.08)"/><path class="cls-8" d="M101,117.57c-6.91-1-12.77-3.51-16-6.55-.16,4.25,6.54,10.14,15.47,11.42s16.79-2.53,17.82-6.65C114.21,117.79,107.88,118.56,101,117.57Z"/><ellipse class="cls-3" cx="97.45" cy="96.36" rx="15.06" ry="19.61" transform="translate(-39.3 87.38) rotate(-40.92)"/><polygon class="cls-9" points="90.14 5.84 113.19 2.69 91.17 9.42 90.14 5.84"/><path class="cls-6" d="M97.39,12.81C97,5.84,84.59.3,71.4,0h-.06c-13.2.29-25.63,5.84-26,12.81-.66,12.57,13.47,10.76,16.34,17.57,4.4,10.42-9,17.15-5.75,27.43,1.35,4.29,6.45,7,15.43,7s14.08-2.74,15.43-7C90,47.53,76.65,40.8,81,30.38,83.92,23.57,98.05,25.38,97.39,12.81Z"/><path class="cls-2" d="M63.84,30.35s9.91-3.86,14.87.37a15.12,15.12,0,0,0-.07,8s-2.84-4.73-14.66,0C65.31,33.47,63.84,30.35,63.84,30.35Z"/><path class="cls-9" d="M23.28,22.68l3.8,10S57.6,22.08,61,20.77s3.25-4.36-.18-4.2S23.28,22.68,23.28,22.68Z"/><ellipse class="cls-10" cx="24.67" cy="27.8" rx="3.57" ry="5.31" transform="translate(-9.68 13.61) rotate(-25.96)"/><path class="cls-11" d="M87,98.12s1.67-7.55,9.33-5.67"/><path class="cls-11" d="M57.19,98.12s-1.67-7.55-9.33-5.67"/><polygon class="cls-9" points="88.43 237.41 182.97 79.71 189.86 84.3 96.09 241.24 88.43 237.41"/><polygon class="cls-1" points="94.14 228.09 127.48 172.05 113.85 168.84 79.83 224.58 94.14 228.09"/><path class="cls-3" d="M127.48,172.05s22.74,20.46,7.09,34.16c-8.49,7.43-23.92-5.38-23.92-5.38Z"/><path class="cls-3" d="M171.28,115.33c-3.7-1.77-29.33-8.68-32.82,11.82-1.9,11.13,16,16.27,16,16.27S177.9,143.22,171.28,115.33Z"/><path class="cls-12" d="M93,233.71s3.06-1.59,4.24,1.61"/><path class="cls-12" d="M106.11,211.43s3.06-1.59,4.24,1.61"/><path class="cls-12" d="M136.24,161s3.06-1.59,4.24,1.61"/><path class="cls-12" d="M167.59,109.31s3.06-1.59,4.24,1.61"/><path class="cls-12" d="M161.43,86.4s3.06-1.59,4.24,1.61"/></g></g></svg>