<svg xmlns="http://www.w3.org/2000/svg" viewBox="0 0 221.32 179.03"><defs><style>.cls-1{fill:#b6dcae;}.cls-2{fill:#007dc5;}.cls-3{fill:#f5f19a;stroke-width:1.98px;}.cls-11,.cls-15,.cls-3{stroke:#242837;}.cls-11,.cls-15,.cls-3,.cls-6{stroke-linecap:round;stroke-linejoin:round;}.cls-4{fill:#fffffe;}.cls-5{fill:#242837;}.cls-11,.cls-15,.cls-6{fill:none;}.cls-6{stroke:#fffffe;}.cls-11,.cls-6{stroke-width:1.42px;}.cls-7{fill:#f8b6c1;}.cls-8{fill:#e5bd79;}.cls-9{fill:#cd733a;}.cls-10{fill:#c7eafb;}.cls-12{fill:#583f99;}.cls-13{fill:#c797c5;}.cls-14{fill:#9ddcf9;}.cls-15{stroke-width:0.57px;}.cls-16{fill:#ae275f;}</style></defs><title>figure-11</title><g id="Layer_2" data-name="Layer 2"><g id="Layer_1-2" data-name="Layer 1"><path class="cls-1" d="M213.55,77.27c.84-15.16-2-55.23-36.5-67.38C117.71-11,16.3,61.16,24,109,31.94,158.23,206,213.23,213.55,77.27Z"/><path class="cls-2" d="M201,109.74c-7.39,11.41-37.51,21.78-60.76,22.26-1.47,7.88-.49,23.09-1.11,30.38-3.48.91-10.38.5-12.05.5-42.3,0-73-20.28-73-20.28L51.2,109.05,79.59,69.51l44.51,16s35.41,14.51,77.4-15.7Z"/><path class="cls-2" d="M64.89,73.63S34.95,89.15,28.29,119.1c-7.07,31.83,28.09,31.62,33.37,16.67,3.12-8.83,13.19-7,13.19-7"/><path class="cls-3" d="M67.43,140.5"/><path class="cls-4" d="M148,63.76c8.47,18.35-22,33.81-49.24,33.81S40.51,81.93,49.56,63.76c10.38-20.86,22-40,49.24-40S138.63,43.38,148,63.76Z"/><ellipse class="cls-5" cx="122.28" cy="59.39" rx="8.67" ry="11.29" transform="matrix(0.76, -0.66, 0.66, 0.76, -9.01, 94.61)"/><path class="cls-6" d="M121.57,62.63s4.67,2.44,8.73,1.42"/><ellipse class="cls-5" cx="75.15" cy="59.39" rx="11.29" ry="8.67" transform="translate(-18.95 77.27) rotate(-49.08)"/><path class="cls-6" d="M81.16,62.84a7.71,7.71,0,0,1-7.31.61"/><path class="cls-7" d="M127.1,73.7c-5.81,0-10.94-1.39-14-3.5.37,3.52,6.59,7.58,14.09,7.58s13.53-4.06,13.9-7.58C138,72.31,132.91,73.7,127.1,73.7Z"/><path class="cls-7" d="M71.26,73.7c5.81,0,10.94-1.39,14-3.5-.37,3.52-6.59,7.58-14.09,7.58s-13.53-4.06-13.9-7.58C60.32,72.31,65.45,73.7,71.26,73.7Z"/><path class="cls-8" d="M0,39.39C0,50.08,46.75,58.74,101.73,58.74s97.35-8.66,97.35-19.35L101.73,0Z"/><path class="cls-9" d="M99,8.74q7.16,0,14-.2L101.45,3.87,89.12,8.64Q94,8.74,99,8.74Z"/><path class="cls-9" d="M99,19.75c13.59,0,26.37-.56,37.82-1.57l-11-4.45c-8.21.47-16.92.72-26,.72-8.3,0-16.4-.21-24.15-.6L63.8,18.45C74.77,19.29,86.66,19.75,99,19.75Z"/><path class="cls-9" d="M99,41.77c32.33,0,60-3.17,76.33-8l-7.75-3.14C151,34.22,127,36.47,99.82,36.47c-26.37,0-50.73-2.11-68.32-5.52l-9,3.5C40.2,38.89,68.24,41.77,99,41.77Z"/><path class="cls-9" d="M188.19,39l-5-2c-14.39,6.21-45.77,10.52-83.41,10.52-36.49,0-69.13-4-85.29-10L7.76,40.15C20.49,47.48,57.23,52.78,99,52.78,143,52.78,178.43,46.9,188.19,39Z"/><path class="cls-9" d="M99,30.76c22.59,0,42.93-1.55,58.69-4.13l-9.49-3.84a407.8,407.8,0,0,1-48.39,2.67A440.76,440.76,0,0,1,52.07,23L41.55,27.06A416.11,416.11,0,0,0,99,30.76Z"/><path class="cls-10" d="M99.6,78.75s12.19-.8,15.54,5.61c5,9.5-17.38,32.9-17.38,32.9s-20.95-23.4-16-32.9c3.35-6.42,15.54-5.61,15.54-5.61Z"/><line class="cls-11" x1="97.97" y1="81.15" x2="97.97" y2="87.3"/><path class="cls-5" d="M97.88,83.51c-1.72,0-6.46-2.94-6.68-6.68s4.1-4.38,6.88-4.38,7,.64,6.78,4.38S99.59,83.51,97.88,83.51Z"/><path class="cls-5" d="M51.09,134.1s16,8.4,28,5.76c9.06-2,.28-13.79-3.33-15.53C61.21,117.33,51.09,134.1,51.09,134.1Z"/><path class="cls-12" d="M45.2,145.47s4-9.31,5.89-11.36c3.19,1.41,9.07,3.6,9.07,3.6S56.55,145.5,45.2,145.47Z"/><ellipse class="cls-11" cx="98.06" cy="90.19" rx="5.45" ry="2.73"/><rect class="cls-13" x="137.92" y="97.74" width="2.57" height="72.62"/><path class="cls-14" d="M66.55,122.82s-12.37.1-21.35,22.64a15.52,15.52,0,0,1-11.46-3.77C36.37,134.1,48.15,122.24,66.55,122.82Z"/><path class="cls-13" d="M160.27,179s0-6.68-7.93-7.1S139.4,174,139.4,169h0c0,5-5,2.51-12.94,2.93s-7.93,7.1-7.93,7.1Z"/><path class="cls-14" d="M201.51,69.79l-.45,41.73s-9.74,6.78-12.59,8.49c-.28-7.39,1-42.53,1-42.53S197.44,72.65,201.51,69.79Z"/><path class="cls-5" d="M201.51,69.79s12.76-8.1,18.22-2.34-3.64,20.94-18.81,26.09C201.22,81.11,201.51,69.79,201.51,69.79Z"/><line class="cls-15" x1="93.08" y1="125.68" x2="120.95" y2="136.05"/><path class="cls-13" d="M54.91,135.74H122S90.41,164,54.91,135.74Z"/><line class="cls-15" x1="55.47" y1="135.83" x2="89.51" y2="124.99"/><polyline class="cls-15" points="151.5 118.38 185.09 98.78 217.81 117.86"/><path class="cls-16" d="M207.55,107.12h-2.21a2.69,2.69,0,0,1-1.2-3.21c1.38-.34,2.27-.88,2.27-1.48,0-1-2.64-1.88-5.89-1.88s-5.89.84-5.89,1.88c0,.6.89,1.13,2.27,1.48a2.69,2.69,0,0,1-1.2,3.21h-2.21a2.11,2.11,0,0,0-2.11,2.11v10.32a2.11,2.11,0,0,0,2.11,2.11h14.07a2.11,2.11,0,0,0,2.11-2.11V109.23A2.11,2.11,0,0,0,207.55,107.12Z"/><path class="cls-13" d="M150.7,117.86h67.11S186.2,146.15,150.7,117.86Z"/><rect class="cls-13" x="136.65" y="62.06" width="2.34" height="99.9" transform="translate(208.95 -50.73) rotate(74.51)"/><circle class="cls-16" cx="139.2" cy="112.45" r="5.1"/></g></g></svg>