<svg xmlns="http://www.w3.org/2000/svg" viewBox="0 0 209.49 164.19"><defs><style>.cls-1{fill:#72c6ef;}.cls-2{fill:#242837;}.cls-16,.cls-3{fill:#f5f19a;}.cls-4{fill:#c7c4e2;}.cls-5{fill:#e0def0;}.cls-6{fill:#ae275f;}.cls-7{fill:#4e5064;}.cls-8{fill:#5dbc68;}.cls-9{fill:#fffffe;}.cls-10,.cls-14{fill:none;stroke-width:1.42px;}.cls-10,.cls-16{stroke:#242837;}.cls-10,.cls-14,.cls-16{stroke-linecap:round;stroke-linejoin:round;}.cls-11{fill:#fff;}.cls-12{fill:#f8b6c1;}.cls-13{fill:#9f6eaf;}.cls-14{stroke:#fffffe;}.cls-15{fill:#d2587e;}.cls-16{stroke-width:1.98px;}</style></defs><title>figure-6</title><g id="Layer_2" data-name="Layer 2"><g id="Layer_1-2" data-name="Layer 1"><path class="cls-1" d="M175.63,107.72S201.72,64,180.84,34C145-17.7,19.63-1.89,3.83,25.29-21.22,68.4,81.31,209.11,175.63,107.72Z"/><path class="cls-2" d="M83.28,25a1,1,0,0,1-.39-.08L68,18.53a1,1,0,0,1,.78-1.83l14.87,6.35a1,1,0,0,1-.39,1.9Z"/><path class="cls-2" d="M115.08,27.51a1,1,0,0,1-.32-1.93l14.86-5.12a1,1,0,1,1,.65,1.88L115.4,27.45A1,1,0,0,1,115.08,27.51Z"/><polygon class="cls-3" points="162.9 101.13 59.48 146.75 54.41 112.28 82.8 72.74 145.03 81.56 162.9 101.13"/><polygon class="cls-4" points="75.63 136 115.67 159.09 196.45 129.56 156.4 106.76 75.63 136"/><polygon class="cls-5" points="85.35 135.51 118.95 154.89 186.73 130.1 153.13 110.97 85.35 135.51"/><path class="cls-6" d="M86.06,138.46l-8.87,25.73,15.57-28.36C92.76,135.22,86.06,138.46,86.06,138.46Z"/><path class="cls-2" d="M52.58,54.41a17,17,0,0,1-4.4-2.91c-3.27-3.19-3.73-8.43-.78-11.46s8.13-2.78,11.47.48A19,19,0,0,1,63,47.24"/><path class="cls-2" d="M141.4,50.47a17,17,0,0,0,4.48-2.78c3.36-3.09,4-8.32,1.1-11.43s-8-3-11.48.16a19,19,0,0,0-4.27,6.6"/><circle class="cls-3" cx="64.32" cy="15.21" r="4.48" transform="translate(-0.11 0.47) rotate(-0.42)"/><ellipse class="cls-7" cx="99.25" cy="27.59" rx="18.32" ry="15.47" transform="translate(-0.2 0.72) rotate(-0.42)"/><ellipse class="cls-8" cx="99.29" cy="32.75" rx="13.03" ry="11" transform="translate(-0.24 0.72) rotate(-0.42)"/><path class="cls-9" d="M119.35,104.66a70.46,70.46,0,0,1-19.49,3c-23.74.17-51-13.28-43.2-29.2,8.93-18.28,19-35,42.73-35.21s34.9,16.86,43.24,34.59l4.75,18.36"/><path class="cls-2" d="M99.48,90.87c-1.08,0-4.07-1.82-4.22-4.16s2.56-2.77,4.3-2.78,4.4.37,4.28,2.72S100.55,90.86,99.48,90.87Z"/><line class="cls-10" x1="99.64" y1="90.57" x2="99.68" y2="97.3"/><path class="cls-7" d="M100,28.41h-.76c-47.61-.93-67.2,45.32-43.6,57.72,14.76-41.64,32.67-41.36,44.16-28,0-1.94,0-1.94.06,0,11.3-13.52,28.4-14.05,43.77,27.37C167.07,72.76,150.26,28,100,28.41Z"/><path class="cls-11" d="M72.48,77.28s-3.9-.61-4-4.47c-.66,3.32,2.58,5.39,2.58,5.39Z"/><ellipse class="cls-12" cx="132.29" cy="83.6" rx="5.38" ry="7.01" transform="translate(-22.25 108.21) rotate(-41.34)"/><ellipse class="cls-2" cx="120.13" cy="74.16" rx="10.58" ry="13.77" transform="translate(-19.05 97.83) rotate(-41.34)"/><ellipse class="cls-12" cx="67.89" cy="84.9" rx="8.02" ry="6.16" transform="translate(-40.76 81.38) rotate(-49.49)"/><ellipse class="cls-2" cx="78.24" cy="74.47" rx="13.53" ry="10.39" transform="translate(-29.2 85.58) rotate(-49.49)"/><polygon class="cls-13" points="126.06 90.89 115.67 159.09 196.45 129.56 206.84 61.65 126.06 90.89"/><path class="cls-14" d="M82,79.34a41.19,41.19,0,0,1-6.42-1.48"/><path class="cls-14" d="M126.72,79.89a41.19,41.19,0,0,1-6.42-1.48"/><path class="cls-10" d="M81,92.75s18.1,11.78,35.35-.29"/><path class="cls-2" d="M91.94,122.08s12.87,3.52,9.18,12.37c-4.72,11.33-15.06,4-15.06,4"/><path class="cls-15" d="M182.55,16.14c-14.31,1.07-28.67,7.86-28.67,17.8,0,6.15,7.71,11.57,14.49,14.82l-2,12.83,10.66-10.14c14.11,3.44,32.43-.87,32.41-17.59C209.48,19.8,196.09,15.13,182.55,16.14Z"/><path class="cls-3" d="M64.75,98.52S35,106,29.81,130.94c-6.69,31.92,47.37,33.25,47.37,33.25l14.75-42.66s-14.89.27-26.8-3"/><path class="cls-16" d="M70.63,143.72"/><path class="cls-16" d="M156.81,107.21"/><path class="cls-11" d="M176.44,31.11l.5.17a1.38,1.38,0,0,0,1.67-1c.07-.31,0-.51-.36-.51a13.71,13.71,0,0,0-1.67.05.8.8,0,0,0-.75.92c0,3,.13,2.54,2,4a17.24,17.24,0,0,0,1.95,1.16,1.42,1.42,0,0,0,1.49,0,.45.45,0,0,1,.7.56q-.67,1.62-1.42,3.21a.59.59,0,0,1-.56.07,6.54,6.54,0,0,1-1.07-1.13c-.82-1.17-1.6-2.36-2.4-3.54-.14-.21-.31-.39-.57-.7a7.53,7.53,0,0,0-.12.88c0,1.55,0,3.11,0,4.66,0,.89,0,.89-.9.9l-3.47,0a1.6,1.6,0,0,1-1.27-2.1c.16-.33.43-.3.69-.18s.34.28.53.37a4.84,4.84,0,0,0,1.28.51,1.25,1.25,0,0,0,1.48-1.29c.12-1.64.09-3.28.12-4.93,0,0,0-.09-.12-.22a56.53,56.53,0,0,0-5.09,5.38c-.19-.61-.37-1.11-.5-1.61-.35-1.4-.27-1.67,1-2.37s2.67-1.36,4-2c.46-.22.73-.46.67-1a11.16,11.16,0,0,1,0-1.35c0-.37-.22-.58-.53-.52a4.55,4.55,0,0,0-1.65.56,16.78,16.78,0,0,0-1.86,1.73c-.13.12-.23.28-.36.41-.51.56-.69.54-1.07-.12-.24-.42-.48-.85-.69-1.29s-.14-.83.47-1,1.27-.27,1.89-.43a1.27,1.27,0,0,0,1-1.33c0-.7,0-1.41,0-2.11s.16-.88.88-.92c.38,0,.76-.07,1.14-.08.76,0,1,.29.62,1-.19.39-.42.76-.6,1.15-.27.59-.15.86.5.91s1.55,0,2.32,0l3.3-.07a2.87,2.87,0,0,1,.69.09c.95.23,1.27.88.67,1.63-1,1.17-2,2.24-3.07,3.34-.36.38-.74.26-1.09-.07A1.7,1.7,0,0,1,176.44,31.11Z"/><path class="cls-11" d="M186.1,26.6c.13.16.26.31.38.47a3.49,3.49,0,0,0,2,1.43c.69.18,1-.05,1.09-.77a13.55,13.55,0,0,0,0-1.95.61.61,0,0,1,.52-.74c.56-.13,1.13-.25,1.69-.34.15,0,.32.09.48.14a1.9,1.9,0,0,1-.18.48c-.44.6-.91,1.19-1.36,1.79a1.16,1.16,0,0,0-.14.29c-.33.87-.19,1.06.71,1.08.56,0,1.11.06,1.67.1s.72.27.64.74c-.19,1.06-.38,2.13-.62,3.18s-.48,1.81-.75,2.71c-.13.44-.05.69.44.83,1.69.49,1.69.5,1.8,2.28,0,.34.08.68.07,1a1.75,1.75,0,0,1-.19.52c-.17-.08-.39-.11-.5-.23a16.55,16.55,0,0,1-1.07-1.42c-.64-1-1.19-1-2-.17s-1.26,1.53-1.85,2.33c-.29.39-.53.41-.86.09-.56-.56-1.13-1.11-1.68-1.68-.11-.12-.12-.35-.18-.52a2.29,2.29,0,0,1,.5-.13c.45,0,.9,0,1.35,0a1.78,1.78,0,0,0,1.55-.84.8.8,0,0,0-.36-1.3,9.37,9.37,0,0,0-1.69-.55c-.44-.1-.54-.3-.38-.68l1.39-3.17c.11-.25.22-.5.31-.75.26-.71.11-1-.65-1a18.35,18.35,0,0,0-2,0c-.37,0-.52-.09-.5-.48,0-.88,0-1.75,0-2.63Zm5.83,4.52c0-.56-.47-.5-.75-.63a.48.48,0,0,0-.69.31c-.27.72-.53,1.45-.79,2.18s-.15.75.45,1,.71.17,1-.46c.18-.47.38-.93.54-1.41S191.85,31.4,191.93,31.12Z"/><path class="cls-11" d="M199.76,27.43c-.51.12-1,.23-1.54.37-.83.23-1.66.47-2.49.72-.46.14-.67,0-.72-.5-.09-.73-.22-1.45-.33-2.13.13-.07.17-.11.19-.1,1.64.73,3.29.24,4.94,0,.48-.06,1-.14,1.44-.22a.51.51,0,0,1,.66.39c.17.59.34,1.17.54,1.75.1.29,0,.39-.28.43a3.14,3.14,0,0,0-2.71,2.7c-.25.94.15,1.4,1.1,1.15a11.43,11.43,0,0,0,2.27-.86c.84-.44,1.26.07,1.31.73.13,1.69,0,1.91-1.54,1.26a3.63,3.63,0,0,0-2.54-.07.59.59,0,0,0-.49.69c.08,1.86.12,3.72.14,5.58,0,1-.13,1.13-1.08,1.26a2.87,2.87,0,0,1-2.54-.59,1.19,1.19,0,0,1-.36-.47,1.58,1.58,0,0,1,0-.81c0-.07.44-.05.67-.05a1.56,1.56,0,0,1,.37.09c1,.28,1.06.27,1.09-.79s.07-2.31.07-3.47c0-.67-.11-.82-.77-.84a24.59,24.59,0,0,0-2.48,0c-.37,0-.48-.07-.5-.42-.06-1.07.28-1.37,1.34-1.21.6.09,1.22.13,1.83.19a.56.56,0,0,0,.69-.63c0-.63-.06-1.27,0-1.89a1.61,1.61,0,0,1,.4-.87,9,9,0,0,1,1.11-1,3.47,3.47,0,0,1,.45-.27Z"/><path class="cls-11" d="M167.47,26.41c-.28-.18-.47-.27-.63-.41s-.19-.2-.18-.29.15-.25.23-.25a14.44,14.44,0,0,1,2,.14c.15,0,.36.46.34.68a3.5,3.5,0,0,1-1.64,2.61,1,1,0,0,0-.51.75,50.12,50.12,0,0,0-.71,8,2.32,2.32,0,0,0,.77,2,1,1,0,0,1,.33.86c-.09.21-.55.38-.85.37a18.44,18.44,0,0,1-2-.26c-.35-.05-.42-.27-.36-.59q.74-3.6,1.46-7.21c.2-1,.41-2,.64-3.08L164,31.14c-.57.35-1.13.72-1.71,1a3.46,3.46,0,0,1-.77.22l-.11-.17a5.2,5.2,0,0,1,.55-.68c1.47-1.31,3-2.6,4.42-3.92C166.73,27.28,167.06,26.85,167.47,26.41Z"/><path class="cls-11" d="M167.6,28.89a3.5,3.5,0,0,0,1.64-2.61c0-.22-.18-.65-.34-.68a14.45,14.45,0,0,0-2-.14c-.08,0-.22.16-.23.25s.09.22.18.29.35.23.63.41c-.4.44-.74.86-1.13,1.22-1.46,1.32-2.95,2.61-4.42,3.92a5.2,5.2,0,0,0-.55.68l.11.17a3.46,3.46,0,0,0,.77-.22c.58-.32,1.14-.69,1.71-1l2.37-1.46c-.23,1.11-.44,2.09-.64,3.08q-.73,3.6-1.46,7.21c-.07.32,0,.54.36.59a18.42,18.42,0,0,0,2,.26c.29,0,.76-.16.85-.37a1,1,0,0,0-.32-.86,2.32,2.32,0,0,1-.77-2,50.13,50.13,0,0,1,.71-8A1,1,0,0,1,167.6,28.89Z"/><path class="cls-11" d="M181.29,35.89a1.42,1.42,0,0,1-1.49,0,17.25,17.25,0,0,1-1.95-1.16c-1.9-1.41-2-1-2-4a.8.8,0,0,1,.75-.92,13.7,13.7,0,0,1,1.67-.05c.34,0,.43.19.36.51a1.38,1.38,0,0,1-1.67,1l-.5-.17a1.7,1.7,0,0,0,.42,1.79c.35.34.73.46,1.09.07,1-1.1,2.12-2.17,3.07-3.34.61-.75.28-1.4-.67-1.63a2.87,2.87,0,0,0-.7-.09l-3.3.07c-.77,0-1.55,0-2.32,0s-.78-.32-.5-.91c.18-.39.41-.76.6-1.15.33-.68.14-1-.62-1-.38,0-.76.06-1.14.08-.72,0-.88.2-.88.92s0,1.41,0,2.11a1.27,1.27,0,0,1-1,1.33c-.63.16-1.26.28-1.89.43s-.75.41-.47,1,.44.87.69,1.29c.39.66.56.68,1.07.12.12-.13.23-.28.36-.41A16.77,16.77,0,0,1,172.08,30a4.55,4.55,0,0,1,1.65-.56c.3-.07.53.14.53.52a11.13,11.13,0,0,0,0,1.35c.06.55-.21.8-.67,1-1.35.64-2.71,1.28-4,2s-1.37,1-1,2.37c.13.51.31,1,.5,1.61A56.57,56.57,0,0,1,174.16,33c.07.13.12.18.12.22,0,1.64,0,3.29-.12,4.93a1.25,1.25,0,0,1-1.48,1.29,4.84,4.84,0,0,1-1.28-.51c-.19-.09-.34-.28-.53-.37s-.52-.15-.69.18a1.6,1.6,0,0,0,1.27,2.1l3.47,0c.88,0,.9,0,.9-.9,0-1.55,0-3.11,0-4.66a7.56,7.56,0,0,1,.12-.88c.26.31.43.5.57.7.8,1.18,1.58,2.38,2.4,3.54A6.54,6.54,0,0,0,180,39.72a.59.59,0,0,0,.56-.07q.76-1.58,1.42-3.21a.45.45,0,0,0-.7-.56Z"/><path class="cls-11" d="M192.7,36c-.49-.14-.57-.39-.44-.83.26-.9.54-1.8.75-2.71s.43-2.11.62-3.18c.08-.47-.17-.71-.64-.74s-1.11-.08-1.67-.1c-.9,0-1-.22-.71-1.08a1.16,1.16,0,0,1,.14-.29c.45-.6.92-1.19,1.36-1.79a1.91,1.91,0,0,0,.18-.48c-.16-.05-.33-.16-.48-.14-.57.09-1.14.2-1.69.34a.61.61,0,0,0-.52.74,13.55,13.55,0,0,1,0,1.95c0,.72-.39.95-1.09.77a3.49,3.49,0,0,1-2-1.43c-.12-.16-.25-.31-.38-.47l-.25.07c0,.88,0,1.76,0,2.63,0,.4.13.49.5.48a18.35,18.35,0,0,1,2,0c.77.06.91.32.65,1-.09.25-.2.5-.31.75-.46,1.06-.93,2.11-1.39,3.17-.17.38-.06.58.38.68a9.37,9.37,0,0,1,1.69.55.8.8,0,0,1,.36,1.3,1.78,1.78,0,0,1-1.55.84c-.45,0-.9,0-1.35,0a2.3,2.3,0,0,0-.5.13c.06.18.06.4.18.52.54.58,1.12,1.12,1.68,1.68.32.32.57.31.86-.09.59-.8,1.19-1.59,1.85-2.33s1.32-.8,2,.17a16.58,16.58,0,0,0,1.07,1.42c.11.13.33.16.5.23a1.75,1.75,0,0,0,.19-.52c0-.34,0-.68-.07-1C194.39,36.55,194.39,36.53,192.7,36Zm-1.06-4c-.17.47-.36.94-.54,1.41-.24.63-.35.68-1,.46s-.66-.35-.45-1,.51-1.46.79-2.18a.48.48,0,0,1,.69-.31c.28.12.72.07.75.63C191.85,31.4,191.76,31.75,191.64,32.09Z"/><path class="cls-11" d="M204.13,31.89c-.05-.66-.47-1.17-1.31-.73a11.43,11.43,0,0,1-2.27.86c-.94.26-1.34-.21-1.1-1.15a3.14,3.14,0,0,1,2.71-2.7c.28,0,.38-.14.28-.43-.19-.58-.37-1.17-.54-1.75a.51.51,0,0,0-.66-.39c-.48.08-1,.16-1.44.22-1.65.21-3.3.69-4.94,0,0,0-.06,0-.19.1.11.68.24,1.4.33,2.13.06.47.26.64.72.5.83-.25,1.66-.49,2.49-.72.51-.14,1-.25,1.54-.37l.18.25a3.47,3.47,0,0,0-.45.27,9,9,0,0,0-1.11,1,1.61,1.61,0,0,0-.4.87c-.06.63,0,1.26,0,1.89a.56.56,0,0,1-.69.63c-.61-.06-1.22-.1-1.83-.19-1.06-.16-1.4.14-1.34,1.21,0,.35.13.44.5.42a24.59,24.59,0,0,1,2.48,0c.66,0,.78.17.77.84,0,1.16,0,2.31-.07,3.47s-.05,1.07-1.09.79a1.55,1.55,0,0,0-.37-.09c-.23,0-.65,0-.67.05a1.59,1.59,0,0,0,0,.81,1.19,1.19,0,0,0,.36.47,2.87,2.87,0,0,0,2.54.59c1-.13,1.1-.28,1.08-1.26,0-1.86-.07-3.72-.14-5.58a.59.59,0,0,1,.49-.69,3.63,3.63,0,0,1,2.54.07C204.16,33.8,204.26,33.58,204.13,31.89Z"/><path class="cls-15" d="M76.5,120.66l-18.16,41a104,104,0,0,0,18.84,2.57l14.75-42.66A126.74,126.74,0,0,1,76.5,120.66Z"/></g></g></svg>