<svg xmlns="http://www.w3.org/2000/svg" viewBox="0 0 255.81 432.59"><defs><style>.cls-1{isolation:isolate;}.cls-2{fill:#242837;}.cls-3,.cls-7{fill:#f5f19a;}.cls-4{fill:#583f99;}.cls-5{fill:#c0406d;}.cls-14,.cls-6{fill:none;}.cls-10,.cls-15,.cls-6,.cls-7,.cls-8{stroke:#242837;}.cls-10,.cls-14,.cls-15,.cls-6,.cls-7,.cls-8{stroke-linecap:round;stroke-linejoin:round;stroke-width:5.67px;}.cls-8{fill:#4e5064;}.cls-9{fill:#8f499c;}.cls-10{fill:#fffffe;}.cls-11{fill:#fcdee0;}.cls-12{fill:#fff;}.cls-13{fill:#f8b6c1;}.cls-14{stroke:#fffffe;}.cls-15{fill:#9ddcf9;}.cls-16{fill:#72c6ef;}.cls-17{fill:#faf9d5;}.cls-18{fill:#e7839a;}.cls-19{fill:#c9c3a7;}.cls-19,.cls-20{mix-blend-mode:multiply;}.cls-20{fill:#c797c5;}.cls-21{fill:#787180;}</style></defs><title>figure-3</title><g class="cls-1"><g id="Layer_2" data-name="Layer 2"><g id="Layer_1-2" data-name="Layer 1"><path class="cls-2" d="M18.77,111.07a38.42,38.42,0,0,1-10.68-5.3C-.14,99.53-2.63,87.91,3.15,80.29S20.61,71.8,29,78.17c3.9,3,8.16,8.3,11,13.93"/><path class="cls-2" d="M216.87,77.47A38.42,38.42,0,0,0,226.15,70c6.67-7.87,6.59-19.76-.71-25.95s-18.89-4.5-25.71,3.55c-3.17,3.74-6.16,9.87-7.74,16"/><rect class="cls-3" x="65.24" y="318.01" width="136.64" height="78.17"/><polygon class="cls-4" points="198.13 339.11 69.17 339.11 69.17 392.45 202.66 392.84 198.13 339.11"/><path class="cls-3" d="M134.59,274.92s24.06-53.48,27.2-62.46a176,176,0,0,0,22.89-7.18c8.73,8.73,17.15,21.87,17.15,21.87l27.74,64.72L229,308.31s23.56,7.33,23.56,39.18c0,29.44-25.18,45.15-47.56,47.36l-6.6-11.6L149,341.83"/><path class="cls-3" d="M134.42,275.29s-33.59-63.55-49.51-69.71c-8.73,8.73-18.49,21.57-18.49,21.57L38.68,291.87l.51,16.44s-22.28,10.91-22.28,42.76c0,27.87,24.49,40.69,46.36,43.46"/><path class="cls-5" d="M138.13,339.63s25.4,47.78,61,53.14c13.64.86,26-5.95,26-5.95s-53.59-13.12-68.54-56.08C147,323.75,138.13,339.63,138.13,339.63Z"/><path class="cls-5" d="M131.67,339.63s-21,43.58-62.9,52.74c-12,.28-25.16-5-25.16-5s52.06-18.48,69.63-56.61C122.77,323.75,131.67,339.63,131.67,339.63Z"/><path class="cls-6" d="M167.42,395.51H73c-62.92,0-71.6-61.15-35.35-88.06H37.5c0-62.32,59.54-129.19,96.57-129.19s96.57,66.86,96.57,129.19l.08.17c43.38,27.32,17.84,87.87-29.08,87.87h-40.7"/><circle class="cls-7" cx="34.16" cy="19.88" r="10.12" transform="translate(-2.3 4.63) rotate(-7.5)"/><ellipse class="cls-8" cx="115.96" cy="37.93" rx="41.41" ry="34.97" transform="matrix(0.99, -0.13, 0.13, 0.99, -3.96, 15.46)"/><ellipse class="cls-9" cx="117.48" cy="49.47" rx="29.45" ry="24.87" transform="translate(-5.45 15.76) rotate(-7.5)"/><path class="cls-10" d="M227.27,138.47c21.29,33.73-34.42,71.82-87.61,78.82s-118-15.57-105-53.46c14.93-43.49,32.83-83.89,86-90.89S203.64,101,227.27,138.47Z"/><path class="cls-11" d="M137.67,200.64c-31.38,4.13-66.47.83-86.78-8.4,11.66,16.45,52.76,24.29,88.24,19.62s72.63-22.69,79.78-41.67C201.76,184.35,169.08,196.5,137.67,200.64Z"/><path class="cls-2" d="M134.1,179.77c-2.42.32-9.64-2.94-10.63-8.16s5-6.92,8.87-7.44,10-.39,10.36,4.91S136.52,179.45,134.1,179.77Z"/><path class="cls-6" d="M110.37,188.16s7.43,13.27,25.45,4c17.43,3.14,22.82-10.37,22.82-10.37"/><line class="cls-6" x1="134.38" y1="179.07" x2="136.03" y2="191.59"/><path class="cls-8" d="M117.9,39.55v0l-.85.12-.85.1v0C9.17,51-21.88,160.16,34.51,181.38,56,83.88,96.25,79.51,125.76,106.25c-.57-4.35-.45-4.36.12,0,21.58-33.47,59.78-39.43,105.79,49.19C280.65,120.32,230.46,24.54,117.9,39.55Z"/><line class="cls-6" x1="44" y1="24.16" x2="74.25" y2="31.35"/><line class="cls-6" x1="157.76" y1="27.32" x2="183.04" y2="15.47"/><path class="cls-12" d="M69.76,156.82s-8.91-.27-10.24-8.92c-.55,7.63,7.3,11.38,7.3,11.38Z"/><ellipse class="cls-13" cx="194.9" cy="160.76" rx="20.46" ry="15.12" transform="translate(-55.4 126.42) rotate(-31.71)"/><ellipse class="cls-2" cx="175.77" cy="136.55" rx="19.79" ry="25.77" transform="translate(-43.02 177.42) rotate(-48.42)"/><path class="cls-14" d="M165.61,137.35s8.32-4.67,17.09.13"/><ellipse class="cls-13" cx="69.69" cy="177.25" rx="15.12" ry="20.46" transform="translate(-120.11 193.05) rotate(-73.3)"/><ellipse class="cls-2" cx="81.89" cy="148.91" rx="25.77" ry="19.79" transform="translate(-87.5 135.24) rotate(-56.58)"/><path class="cls-14" d="M91.91,147.06s-9.24-2.36-16.47,4.55"/><path class="cls-7" d="M176.59,238.53c1.64,13.94,3,41.35,2.06,58.09,47.1,4.78,71.51,4.78,71.51,4.78s16.24-58.54-57.47-85.84"/><path class="cls-15" d="M52.93,429.75A142.6,142.6,0,0,1,212,200.13l-55,139.29Z"/><path class="cls-16" d="M156.1,338.21,32.85,395.62S25.3,381.11,22,366.12Z"/><path class="cls-16" d="M155.2,338.48,17,335.55s-.23-16.64,3.43-31.55Z"/><path class="cls-16" d="M155.29,338l-125.74-63s6-15.46,15.88-27.21Z"/><path class="cls-16" d="M155.16,337.52,66.64,224.89s11.43-10.35,25.5-16.51Z"/><path class="cls-16" d="M155.22,337.74,121,197.15s15.53-5.06,30.87-4.36Z"/><path class="cls-16" d="M155.67,335.17l23.6-140.39s17.72,1.92,28.52,7.17Z"/><path class="cls-8" d="M188.83,300.45s-1.6,16.63-26.17,17.93c0-9.1-6.08-18.42-10.93-18-10.55.94-7,41.29-7,41.29l24.17.54s59,0,61.39-38.77"/><path class="cls-5" d="M248.09,299s-48.54-3-66.51-4.89c.1,0,.24-9.93.24-9.93l2-5.09,65,4.95A77.89,77.89,0,0,1,248.09,299Z"/><path class="cls-17" d="M231.49,312.54s21.45,9.8,17.76,41C247,372.78,231,382.73,226.59,385.18,250.31,367.29,253.93,332.24,231.49,312.54Z"/><path class="cls-17" d="M228.17,240.72s19.45,14.73,20.6,43.22a27.54,27.54,0,0,1-4.7-.5S246.63,258.8,228.17,240.72Z"/><path class="cls-18" d="M244.07,283.44s-.4,10.19-1.59,15.37a39.71,39.71,0,0,0,5.61.14s1.27-9.53.68-15C245.36,283.64,244.07,283.44,244.07,283.44Z"/><path class="cls-19" d="M205.18,224.62s3.3-.54,7.85,3.56c-5.7,15.47-32.28,77.73-33.81,82.66-5.21,3.32-9.09,3.32-9.09,3.32Z"/><polygon class="cls-20" points="100.23 392.99 110.54 392.67 164.15 344.9 155.17 344.67 100.23 392.99"/><path class="cls-21" d="M151.76,303.41s5.21,7.47,4.87,16.69a13.27,13.27,0,0,1,3.82.52S159.75,304.45,151.76,303.41Z"/><path class="cls-21" d="M169.78,44.22s100,29.21,58.91,100a70.29,70.29,0,0,1,4,6.44s12.87-9.41,14.85-32.18S222.75,51.64,169.78,44.22Z"/></g></g></g></svg>