<svg xmlns="http://www.w3.org/2000/svg" viewBox="0 0 451.23 189.74"><defs><style>.cls-1{fill:#e5f1d4;}.cls-2{fill:#2b9145;}.cls-3{fill:#242837;}.cls-4{fill:#3a9948;}.cls-5{fill:#f5f19a;}.cls-5,.cls-8{stroke:#242837;}.cls-11,.cls-5,.cls-8{stroke-linecap:round;stroke-linejoin:round;stroke-width:1.98px;}.cls-6{fill:#fbfdfb;}.cls-7{fill:#9ddcf9;}.cls-11,.cls-8{fill:none;}.cls-9{fill:#386742;}.cls-10{fill:#f8b6c1;}.cls-11{stroke:#fff;}.cls-12{fill:#cd733a;}.cls-13{fill:#e5bd79;}</style></defs><title>figure-12</title><g id="Layer_2" data-name="Layer 2"><g id="Layer_1-2" data-name="Layer 1"><path class="cls-1" d="M156,123.17c7.63,23.84-5,51.9-67.66,55.3-52.67,2.86-83.57-3.36-88-36.23C-5.36,99.33,59.25,93,90.93,93.61c45.76,1,57.41,16.21,57.41,16.21l22.56-7.16S160.73,113.63,156,123.17Z"/><path class="cls-2" d="M411.42,89.74a29.12,29.12,0,0,1,8-20.75A4.62,4.62,0,0,1,423,67.28a4,4,0,0,1,2.81,6.86,19,19,0,0,0-5.15,10.45,8.2,8.2,0,0,1,8,8.42c0,5.15-3.59,8.89-8.42,8.89C415.16,101.91,411.42,98.17,411.42,89.74Z"/><path class="cls-2" d="M434.07,89.74A29.12,29.12,0,0,1,442,69a4.62,4.62,0,0,1,3.59-1.72,4,4,0,0,1,2.81,6.86,19,19,0,0,0-5.15,10.45,8.2,8.2,0,0,1,8,8.42c0,5.15-3.59,8.89-8.42,8.89C437.82,101.91,434.07,98.17,434.07,89.74Z"/><path class="cls-3" d="M340.9,62.32s-1.46-35.75,3.65-36.48S355.92,36,355.92,36s22.19,5.19,20,26.35Z"/><path class="cls-4" d="M318,189.74H218.37C131.54,189.74,196.45,81,196.45,81h75.84s2.29,24.35,30.39,19.11c23.2-4.33,18.59-37.79,18.59-37.79h61.55S401.56,159,303.74,159"/><path class="cls-5" d="M192.72,166"/><path class="cls-6" d="M289.58,73.79c10.18,22.06-26.49,40.63-59.17,40.63s-70-18.79-59.17-40.63c12.47-25.07,26.49-48,59.17-48S278.29,49.31,289.58,73.79Z"/><path class="cls-7" d="M231.38,91.8s14.65-1,18.68,6.74c6,11.41-20.89,52.92-20.89,52.92S204,110,210,98.55c4-7.71,18.68-6.74,18.68-6.74Z"/><line class="cls-8" x1="229.42" y1="94.69" x2="229.42" y2="102.63"/><path class="cls-3" d="M229.31,97.52c-2.06,0-7.77-3.53-8-8s4.93-5.26,8.27-5.26,8.41.77,8.15,5.26S231.38,97.52,229.31,97.52Z"/><path class="cls-9" d="M321.26,62.3a89.19,89.19,0,0,1-.16,15.19c7.84.86,62.47,7,62.47,7a84.8,84.8,0,0,0-.76-22.18Z"/><path class="cls-3" d="M289.26,144.28"/><polygon class="cls-9" points="280.61 140.18 298.21 139.86 318.17 189.64 297.96 189.64 280.61 140.18"/><path class="cls-3" d="M297.69,139.83s29.84-6.76,32,13.92C330.85,165,311,170.52,311,170.52Z"/><ellipse class="cls-8" cx="229.52" cy="107.38" rx="8.06" ry="4.68"/><path class="cls-10" d="M199.56,92.87c6.91-1,12.77-3.51,16-6.55.16,4.25-6.54,10.14-15.47,11.42s-16.79-2.53-17.82-6.65C186.31,93.08,192.65,93.86,199.56,92.87Z"/><ellipse class="cls-3" cx="203.07" cy="71.66" rx="19.61" ry="15.06" transform="translate(15.91 178.16) rotate(-49.08)"/><path class="cls-10" d="M258.78,92.87c-6.91-1-12.77-3.51-16-6.55-.16,4.25,6.54,10.14,15.47,11.42S275,95.21,276,91.09C272,93.08,265.69,93.86,258.78,92.87Z"/><ellipse class="cls-3" cx="255.26" cy="71.66" rx="15.06" ry="19.61" transform="translate(15.45 184.72) rotate(-40.92)"/><path class="cls-11" d="M244.79,73.43s1.68-7.44,9.43-5.34"/><path class="cls-11" d="M214.31,73.43s-1.68-7.44-9.43-5.34"/><path class="cls-12" d="M124.43,69.26c2.89,11.32,54.77,7.85,113-7s100.79-35.52,97.9-46.85L221.54,0Z"/><path class="cls-13" d="M221,10q7.58-1.94,14.77-4l-13.5-1.82-11.77,8.4Q215.72,11.35,221,10Z"/><path class="cls-13" d="M224,21.66c14.4-3.68,27.78-7.73,39.64-11.9L250.79,8c-8.57,2.72-17.74,5.34-27.36,7.8-8.79,2.25-17.43,4.21-25.74,5.9l-11.34,8.09C198.19,27.73,210.92,25,224,21.66Z"/><path class="cls-13" d="M230,45c34.25-8.75,62.74-19.61,78.7-29.14l-9.06-1.23c-16.63,8.3-41.38,17.16-70.2,24.53-27.94,7.14-54.32,11.49-73.87,12.65l-8.62,6.15C166.88,57.86,197.36,53.31,230,45Z"/><path class="cls-13" d="M323.68,17.88l-5.8-.78c-13.56,10.48-45.64,23.53-85.52,33.72-38.65,9.87-74.33,14.42-93,12.54L132.85,68c15.47,4.32,55.82,0,100.08-11.31C279.53,44.75,315.48,28.93,323.68,17.88Z"/><path class="cls-13" d="M227,33.32C250.91,27.21,272,20.06,288,13.06l-11.09-1.5A445.89,445.89,0,0,1,226.4,27.49a481.92,481.92,0,0,1-51.25,10.3l-10,7.16A455,455,0,0,0,227,33.32Z"/></g></g></svg>