<svg xmlns="http://www.w3.org/2000/svg" viewBox="0 0 196.37 177.48"><defs><style>.cls-1{fill:#c0406d;}.cls-2{fill:#f5f19a;}.cls-10,.cls-2{stroke:#242837;}.cls-10,.cls-2,.cls-4,.cls-7{stroke-linecap:round;stroke-linejoin:round;stroke-width:1.98px;}.cls-3{fill:#242837;}.cls-10,.cls-4,.cls-7{fill:none;}.cls-4{stroke:#e5f1d4;}.cls-5{fill:#583f99;}.cls-6{fill:#fbfdfb;}.cls-7{stroke:#fff;}.cls-8{fill:#8f499c;}.cls-9{fill:#9ddcf9;}.cls-11{fill:#d99f59;}.cls-12{fill:#ae275f;}</style></defs><title>figure-15-mobile</title><g id="Layer_2" data-name="Layer 2"><g id="Layer_1-2" data-name="Layer 1"><path class="cls-1" d="M16.12,118.24s-2,59.25,55,59.25c21.74,0,40.84-.29,40.84-.29s47.1-2.72,47.1-54.38c0-49.41-65.46-62.44-65.46-62.44L40.77,73.47l-1.51,45.82"/><path class="cls-1" d="M52.86,43.25S20.9,49.62,5,87.06a61.29,61.29,0,0,0,5,57.78l54.68-24.68L55,74.81Z"/><path class="cls-1" d="M117.31,36.71s40.36,7.72,59,58.07c8.39,22.67-16.69,43.13-35.83,30.55-18.13-11.93-22.66-18.63-22.66-18.63"/><path class="cls-2" d="M36.26,153.56"/><path class="cls-3" d="M132.8,131.84"/><path class="cls-4" d="M162.78,49.25s3.06-1.59,4.24,1.61"/><ellipse class="cls-5" cx="83.28" cy="3.1" rx="9.22" ry="2.13"/><path class="cls-3" d="M114.23,22.19c2.6,2.74,7.39,4.32,10.37,1.5s3.46-7.51.84-10.27-7.26-2.59-10.3.29S111.63,19.44,114.23,22.19Z"/><path class="cls-3" d="M53.56,22.19c-2.6,2.74-7.39,4.32-10.37,1.5s-3.46-7.51-.84-10.27,7.26-2.59,10.3.29S56.16,19.44,53.56,22.19Z"/><path class="cls-6" d="M138,55.74c9.38,20.34-24.43,37.46-54.56,37.46S18.83,75.87,28.85,55.74c11.5-23.12,24.43-44.3,54.56-44.3S127.55,33.16,138,55.74Z"/><ellipse class="cls-3" cx="107.53" cy="54.14" rx="9.61" ry="12.51" transform="translate(-9.18 83.67) rotate(-40.92)"/><path class="cls-7" d="M103.25,54.46s4.31,2.83,9,2.32"/><ellipse class="cls-3" cx="60.23" cy="54.14" rx="12.51" ry="9.61" transform="translate(-20.13 64.19) rotate(-49.08)"/><path class="cls-7" d="M64.51,54.46s-4.31,2.83-9,2.32"/><path class="cls-8" d="M67.39,15.31C68.3,3.5,72.64,0,83.58,0S98.86,3.5,99.77,15.31C94.17,20.41,73,20.41,67.39,15.31Z"/><path class="cls-9" d="M80.43,73.38s-19.58-2-26.33,12.49,4.39,57.39-12.15,69.88c10.8-4.39,26.33-13.5,26-32.75-.18-10.49-3.38-31.06,3-40.51C74.36,77.52,80.43,73.38,80.43,73.38Z"/><path class="cls-10" d="M71.28,29.9c5.64-2.09,10.26.68,11.81,3.15,1.34-2.67,7.09-6,12.07-3.15"/><path class="cls-9" d="M99.31,44.4s5.44-16,21.15-14.22,17.21-.6,22.65-5.44c-5.44,12.09-8.14,16.92-20.83,16.92S109,39,99.31,44.4Z"/><path class="cls-9" d="M69.07,45.84s-5.44-16-21.15-14.22S30.71,31,25.27,26.18C30.71,38.27,33.41,43.1,46.11,43.1S59.4,40.4,69.07,45.84Z"/><path class="cls-9" d="M87,73.38s19.58-2,26.33,12.49-4.39,57.39,12.15,69.88c-10.8-4.39-26.33-13.5-26-32.75.18-10.49,3.38-31.06-3-40.51C93.07,77.52,87,73.38,87,73.38Z"/><path class="cls-3" d="M83.14,71.9c-1.37,0-5.15-2.34-5.32-5.32s3.27-3.49,5.49-3.49,5.58.51,5.41,3.49S84.5,71.9,83.14,71.9Z"/><path class="cls-10" d="M79.33,82.84c2-3.27,6.29-3.12,7.86,0"/><line class="cls-10" x1="83.26" y1="70.83" x2="83.26" y2="80.37"/><polygon class="cls-11" points="24.63 138.31 193.46 65.5 196.37 73.25 28.61 145.89 24.63 138.31"/><path class="cls-4" d="M30.5,138s3.41.5,2.5,3.79"/><path class="cls-4" d="M54.15,127.55s3.41.5,2.5,3.79"/><path class="cls-4" d="M108,104.24s3.41.5,2.5,3.79"/><path class="cls-4" d="M163.7,80.55s3.41.5,2.5,3.79"/><path class="cls-3" d="M72.21,117.3s5.75,28.88-15,30.34c-11.26.79-13.63-9.19-15.74-17C46.31,111.34,72.21,117.3,72.21,117.3Z"/><path class="cls-3" d="M156.63,91.32c-1.48-3.82-15.45-26.4-32-13.85-9,6.82,2.86,25.45,2.86,25.45S142.37,116.19,156.63,91.32Z"/><path class="cls-12" d="M72.21,117.3s-25.49-5.88-30.73,13.32c-11.19,4.76-31,13.64-31,13.64S23,99.92,72.21,117.3Z"/><path class="cls-12" d="M109.25,110.94c18.76,19.31,51.57,8.1,47.38-19.62,0,0-7.7,18.58-29.16,11.6Z"/></g></g></svg>