<svg xmlns="http://www.w3.org/2000/svg" viewBox="0 0 259.82 189.74"><defs><style>.cls-1{fill:#242837;}.cls-2{fill:#3a9948;}.cls-3{fill:#f5f19a;}.cls-3,.cls-6{stroke:#242837;}.cls-3,.cls-6,.cls-9{stroke-linecap:round;stroke-linejoin:round;stroke-width:1.98px;}.cls-4{fill:#fbfdfb;}.cls-5{fill:#9ddcf9;}.cls-6,.cls-9{fill:none;}.cls-7{fill:#386742;}.cls-8{fill:#f8b6c1;}.cls-9{stroke:#fff;}.cls-10{fill:#cd733a;}.cls-11{fill:#e5bd79;}</style></defs><title>figure-12-mobile</title><g id="Layer_2" data-name="Layer 2"><g id="Layer_1-2" data-name="Layer 1"><path class="cls-1" d="M216.48,62.32S215,26.58,220.12,25.85,231.49,36,231.49,36s22.19,5.19,20,26.35Z"/><path class="cls-2" d="M193.6,189.74H93.94C7.11,189.74,72,81,72,81h75.84s2.29,24.35,30.39,19.11c23.2-4.33,18.59-37.79,18.59-37.79h61.55S277.13,159,179.31,159"/><path class="cls-3" d="M68.29,166"/><path class="cls-4" d="M165.15,73.79c10.18,22.06-26.49,40.63-59.17,40.63S36,95.63,46.82,73.79c12.47-25.07,26.49-48,59.17-48S153.86,49.31,165.15,73.79Z"/><path class="cls-5" d="M107,91.8s14.65-1,18.68,6.74c6,11.41-20.89,52.92-20.89,52.92S79.57,110,85.53,98.55c4-7.71,18.68-6.74,18.68-6.74Z"/><line class="cls-6" x1="104.99" y1="94.69" x2="104.99" y2="102.63"/><path class="cls-1" d="M104.88,97.52c-2.06,0-7.77-3.53-8-8s4.93-5.26,8.27-5.26,8.41.77,8.15,5.26S106.95,97.52,104.88,97.52Z"/><path class="cls-7" d="M196.84,62.3a89.19,89.19,0,0,1-.16,15.19c7.84.86,62.47,7,62.47,7a84.8,84.8,0,0,0-.76-22.18Z"/><path class="cls-1" d="M164.83,144.28"/><polygon class="cls-7" points="156.19 140.18 173.79 139.86 193.75 189.64 173.53 189.64 156.19 140.18"/><path class="cls-1" d="M173.26,139.83s29.84-6.76,32,13.92c1.17,11.23-18.67,16.77-18.67,16.77Z"/><ellipse class="cls-6" cx="105.09" cy="107.38" rx="8.06" ry="4.68"/><path class="cls-8" d="M75.13,92.87c6.91-1,12.77-3.51,16-6.55.16,4.25-6.54,10.14-15.47,11.42s-16.79-2.53-17.82-6.65C61.88,93.08,68.22,93.86,75.13,92.87Z"/><ellipse class="cls-1" cx="78.65" cy="71.66" rx="19.61" ry="15.06" transform="translate(-27.01 84.15) rotate(-49.08)"/><path class="cls-8" d="M134.35,92.87c-6.91-1-12.77-3.51-16-6.55-.16,4.25,6.54,10.14,15.47,11.42s16.79-2.53,17.82-6.65C147.59,93.08,141.26,93.86,134.35,92.87Z"/><ellipse class="cls-1" cx="130.83" cy="71.66" rx="15.06" ry="19.61" transform="translate(-14.96 103.21) rotate(-40.92)"/><path class="cls-9" d="M120.36,73.43S122,66,129.79,68.09"/><path class="cls-9" d="M89.88,73.43S88.2,66,80.45,68.09"/><path class="cls-10" d="M0,69.26c2.89,11.32,54.77,7.85,113-7s100.79-35.52,97.9-46.85L97.11,0Z"/><path class="cls-11" d="M96.59,10q7.58-1.94,14.77-4L97.86,4.17l-11.77,8.4Q91.29,11.35,96.59,10Z"/><path class="cls-11" d="M99.57,21.66C114,18,127.35,13.93,139.21,9.76L126.36,8c-8.57,2.72-17.74,5.34-27.36,7.8-8.79,2.25-17.43,4.21-25.74,5.9L61.92,29.81C73.77,27.73,86.5,25,99.57,21.66Z"/><path class="cls-11" d="M105.53,45c34.25-8.75,62.74-19.61,78.7-29.14l-9.06-1.23c-16.63,8.3-41.38,17.16-70.2,24.53C77,46.29,50.64,50.64,31.09,51.8l-8.62,6.15C42.45,57.86,72.93,53.31,105.53,45Z"/><path class="cls-11" d="M199.25,17.88l-5.8-.78c-13.56,10.48-45.64,23.53-85.52,33.72-38.65,9.87-74.33,14.42-93,12.54L8.43,68c15.47,4.32,55.82,0,100.08-11.31C155.1,44.75,191.05,28.93,199.25,17.88Z"/><path class="cls-11" d="M102.55,33.32c23.93-6.11,45.06-13.26,61.06-20.26l-11.09-1.5A445.89,445.89,0,0,1,102,27.49a481.92,481.92,0,0,1-51.25,10.3L40.68,45A455,455,0,0,0,102.55,33.32Z"/></g></g></svg>