<svg xmlns="http://www.w3.org/2000/svg" viewBox="0 0 161.16 192.1"><defs><style>.cls-1{fill:#242837;}.cls-2,.cls-6,.cls-7{fill:none;stroke-linecap:round;stroke-linejoin:round;stroke-width:1.98px;}.cls-2{stroke:#e5f1d4;}.cls-3{fill:#27aae1;}.cls-4{fill:#c0406d;}.cls-5{fill:#fbfdfb;}.cls-6{stroke:#242837;}.cls-7{stroke:#fff;}</style></defs><title>figure-14-mobile</title><g id="Layer_2" data-name="Layer 2"><g id="Layer_1-2" data-name="Layer 1"><path class="cls-1" d="M58.29.28S79.2-2.65,77.71,10.48C76.39,22.11,58.4,27.87,58.4,27.87Z"/><path class="cls-1" d="M115.76,149.53"/><path class="cls-2" d="M120.23,142.12s2.85-1.48,4,1.51"/><path class="cls-3" d="M32.56,74.52C13,66.11,29.82,51.92,58.38,38V.23C40.88,2.74-13,23.33,2.91,84.72c-1.06,11.71-3.55,107.21,47,107.21,47.44,0,60-69.93,60-69.93s18.65,13.87,9.12,38.94c20.56,0,42.12.5,42.12.5S141.65,93.53,98.78,96.85C75.72,98.64,53.58,83.56,32.56,74.52Z"/><path class="cls-1" d="M118.95,160.93s-5,16.65,6.41,17.33C135.21,178.85,144,161,144,161Z"/><path class="cls-4" d="M49.08,124.48s-15.5,14-42.85,14C.38,106.69,2.74,84.19,2.74,84.19l10.16-6S10.84,100.53,49.08,124.48Z"/><path class="cls-4" d="M49.08,124.48s59.23,49.72,81.1-16.07c-12-10.09-21.43-11.11-21.43-11.11Z"/><path class="cls-1" d="M38.51,46.06C36.8,44.19,35,39.8,34.25,38c-2.38-5.43-.37-12,4.66-14.17s11.14.63,13.57,6.18a24.67,24.67,0,0,1,1.63,10.08"/><path class="cls-1" d="M112.23,72.08c2.5-.38,6.65-2.68,8.34-3.56,5.26-2.73,7.8-9.07,5.27-14s-9.07-6.5-14.44-3.71a24.67,24.67,0,0,0-7.6,6.82"/><path class="cls-5" d="M117.94,107.08c1.07,25.8-38.26,33.32-67.33,23.06S-4.89,88.89,12.68,69.91C32.85,48.14,53.63,29,82.7,39.26S116.75,78.43,117.94,107.08Z"/><path class="cls-3" d="M82.7,39.26c-26-9.16-45.3,5.12-63.51,23.79l.1,0S17,77.48,29.79,86.55s21.4-4,32.16,3l4,1.4C78.64,92.26,79.33,108.61,95,109.56s22.39-12.64,22.39-12.64h0C115.23,71.85,108.32,48.3,82.7,39.26Z"/><line class="cls-6" x1="62.01" y1="94.88" x2="58.3" y2="105.41"/><path class="cls-1" d="M61.44,95.87c-2.23-.79-7-6.76-5.6-11.7s7.32-3.8,10.92-2.53,8.77,4,6.79,8.78S63.66,96.66,61.44,95.87Z"/><ellipse class="cls-1" cx="43.89" cy="68.67" rx="15.82" ry="12.15" transform="translate(-28.22 30.68) rotate(-29.63)"/><path class="cls-7" d="M46.9,71.68s.74-6.21-5.34-6.69"/><ellipse class="cls-1" cx="92.84" cy="85.96" rx="12.15" ry="15.82" transform="translate(-25.02 39.96) rotate(-21.48)"/><path class="cls-7" d="M88.6,86.4s3.32-5.3,8.36-1.85"/><ellipse class="cls-6" cx="57.66" cy="110.61" rx="9.34" ry="4.91" transform="translate(-3.53 1.91) rotate(-1.84)"/><path class="cls-1" d="M50.57,192.1H79.42c4.08,0,9.07-1.36,9.07-9.07V156c0-6-12.24-6.71-12.24,0,0,8.8-8.32,9.26-11.79,9.26H56C61.88,174,61.19,188.26,50.57,192.1Z"/></g></g></svg>