<svg xmlns="http://www.w3.org/2000/svg" viewBox="0 0 195.12 211.03"><defs><style>.cls-1{fill:#cc612c;}.cls-2{fill:#003058;}.cls-3{fill:#242837;}.cls-4{fill:#d2587e;}.cls-5{fill:#ae275f;}.cls-6{fill:#fffcd5;}.cls-7{fill:#006f45;}.cls-8{fill:#00669b;}.cls-9{fill:#007dc5;}.cls-10{fill:#4e5064;}.cls-11{fill:#7fcbae;}.cls-12{fill:#8f499c;}.cls-13{fill:#c0406d;}.cls-14{fill:#962f34;}.cls-15{fill:#2f8a47;}.cls-16{fill:#faf9d5;}.cls-17{fill:#423a45;}.cls-18{fill:#72c6ef;}.cls-19{fill:#e5bd79;}.cls-20{fill:none;stroke:#d99f59;stroke-linecap:round;stroke-miterlimit:10;stroke-width:2.83px;}</style></defs><title>figure-10</title><g id="Layer_2" data-name="Layer 2"><g id="Layer_1-2" data-name="Layer 1"><path class="cls-1" d="M167.78,81.67s-72.3-19.33-145.26,0C25.49,97.91,42.7,105,42.7,105l67.53,7.5,44.14-1.32Z"/><path class="cls-2" d="M84.53,86.18s-4.74-5-5.89-10.05-2.93-14.36-1.86-14.95,3,4.93,6.65,5.94,6.71-.56,6.28,2.84-1.62,4.73,1.76,6.68S84.53,86.18,84.53,86.18Z"/><path class="cls-2" d="M123,100.77a15.77,15.77,0,0,0,5.69-2.35,21.31,21.31,0,0,0,4.86-5.3s-5.69-1.77-8-.4S123,100.77,123,100.77Z"/><path class="cls-3" d="M134.31,66.64s-4.2,8.67-6,10.44S124,81.5,124,81.5L112.3,62.6l1.4-8.79a3.17,3.17,0,0,0,2.87-2.58c.74-2.6,1.2-2.74,2,.32S122.2,67,134.31,66.64Z"/><path class="cls-3" d="M105.09,42.48s-4.27-11-4.37-13.09-.91-6.55,1-6.56,7.18,10.8,12.15,10.94,14.75-11.55,16.76-9.16-4.2,11.38-8.77,14.88-8.78,6.09-8.78,6.09Z"/><path class="cls-4" d="M90.13,130.81a75.74,75.74,0,0,0-5-9c-2.55-3.77-5.3-13.76-4.81-21s1.78-14.59,6-21.08,6.55-8.4,11.46-17.49,6.78-11.94,7.36-20.32c2.63-2.19,8.33-1.17,10.48,1.67-.64,3.37-2.81,13.55,1.16,20.7s9.52,17.25,9.73,26.18-7.25,23-11.87,28.93-11.27,12.86-11.27,12.86Z"/><path class="cls-2" d="M103.88,119.43s.41-1.89,2.05-1.3,2.88,1.65,4.26-5-.65-10.74-.65-10.74S103,110.06,103.88,119.43Z"/><path class="cls-5" d="M126.5,90.47c-.21-8.93-5.76-19-9.73-26.18S115,47,115.61,43.59A7.73,7.73,0,0,0,111.33,41c-.66,5.9-1.86,17.35-2.49,27.38-.89,14.25-10.36,53.16-10.36,53.16l3.4,10.53,1.47.16s6.64-7,11.27-12.86S126.71,99.4,126.5,90.47Z"/><path class="cls-2" d="M90.94,125.73s3.24-5.35,5.56-5.63,7.61-.09,8.78,5.52-3.57,10.83-7.06,13c-.43-1.37-.28-2.11-1.42-2.94,0,1.31.14,4.8-2.15,4.22s-4.74-7.71-5-10A6.25,6.25,0,0,1,90.94,125.73Z"/><circle class="cls-6" cx="95" cy="129.7" r="2.34" transform="translate(-48 203.15) rotate(-80.96)"/><circle class="cls-7" cx="95.26" cy="129.58" r="0.84" transform="translate(-47.68 203.3) rotate(-80.96)"/><path class="cls-8" d="M149.82,96.64s12.18-3.23,13.92-3.79,5.54-.56,4-3.59-4.19-4.57-5.16-4.62-3.67.1-3.67.1Z"/><path class="cls-9" d="M165,76.55s5.42-5.56,8.14-6.71,11.09-6.64,13.94-9.57,3-5.72,1-5.34-9.62,4-12.18,1.41C173.72,59.71,165,76.55,165,76.55Z"/><path class="cls-9" d="M147.56,72.67s2.85-8.18,3.62-10.42.92-6.91,2.93-7,10.64,2,16.86-2.81C167.68,57.21,147.56,72.67,147.56,72.67Z"/><path class="cls-9" d="M173.13,50s.06-7.45-.11-12.64S174.13,17.87,175.7,12s3.76-12.08,5.36-12,1.43,9.9,2.37,16.23.11,13.76,4.78,13.91,8.73,0,6,5.75-9.9,13.19-15,14.65A43.79,43.79,0,0,1,173.13,50Z"/><path class="cls-10" d="M76.8,157.26s2-15.25,4.68-20.35a49.65,49.65,0,0,1,3-6.58c1.27-2,2.28-3.82,2.37-4.79s-.77-1.48.38-2.28a5.68,5.68,0,0,0,2-2.28c.46-.81-.14-1.7.74-2.58s2.34-.36,2.77-1.63-.41-2.47.84-3.28,2.81-.11,3.24-1.47.65-3.18,1.71-4.16,1.86.27,3.65-1.72.47-3.17,1.6-3.64,2,1,2.8-.38.31-2.7,1.38-3.4,1.37.62,2.46-.69,1.17-3.16,2.42-3.78a7.35,7.35,0,0,1,2.55-.69s1.25-3.26,2.71-3.71,1.38.8,2.49-.14,1.74-3.61,3.05-4.09,1.85,1,2.9-.11,1.41-2.94,2.35-3.41,1.84.78,3.07-.49.86-2.82,2.48-3.55,3-.35,4.38-1.77,1.25-2.38,2.56-2.08A4.57,4.57,0,0,0,145.69,73c1.72-1.43,19-15.73,22.24-18.77s4.7-4.37,6.92-10.17,2.08-15.91,2.25-19.61S177.75,7.7,179,7.81s0,6.74,1.43,14.24,3.3,16.35,2.35,21.62-6.76,15.66-11.11,23.06a201,201,0,0,1-19,27.51c-8,9.4-29.55,31.23-34.19,35.83s-8.46,9.84-10.3,10.13-2.66-.55-4.59,1.32-12.33,10.93-12.33,10.93-1.64-2.17-1-4a7.67,7.67,0,0,0-1.72,5.64s-6.72,4.66-8.51,5.6S76.77,161.78,76.8,157.26Z"/><path class="cls-8" d="M104.66,140.69c-.26-2.22-1-7.93-1.69-9.81-.87-2.35-5.35-3.31-7.6-3s-5.77,7.52-7.63,11.64,1.89,6.68,4,8.32a5.13,5.13,0,0,0,3.8.89c3.11-2.73,6.95-6.12,8-7.18A5.71,5.71,0,0,1,104.66,140.69Z"/><polygon class="cls-11" points="96.7 124.39 99.18 126.61 101.55 126.02 99.46 124.15 96.7 124.39"/><polygon class="cls-11" points="100.04 121.25 101.65 122.69 104.81 122.37 102.17 120.53 100.04 121.25"/><polygon class="cls-11" points="104 117.44 105.57 119.38 109.14 118.72 106.5 116.97 104 117.44"/><polygon class="cls-11" points="108.5 112.98 109.53 114.78 114.09 114.75 111.57 112.49 108.5 112.98"/><polygon class="cls-11" points="112.98 107.98 114.23 110.59 117.86 111.03 116.19 108.4 112.98 107.98"/><polygon class="cls-11" points="118.71 102.95 120.09 105.51 123.97 105.39 121.83 103.03 118.71 102.95"/><polygon class="cls-11" points="123.75 98.89 125.11 100.89 128.04 101.42 126.47 99.22 123.75 98.89"/><polygon class="cls-11" points="129.85 95.59 130.81 97.06 133.18 97.35 132.21 95.69 129.85 95.59"/><polygon class="cls-12" points="135.28 91.09 136.4 92.88 139.44 92.8 137.79 90.54 135.28 91.09"/><polygon class="cls-12" points="139.78 87.24 140.91 89.3 143.76 89.06 142.59 87.22 139.78 87.24"/><polygon class="cls-12" points="145.04 83.37 145.87 84.64 148.24 84.84 147.16 83.52 145.04 83.37"/><polygon class="cls-12" points="148.77 80.33 149.53 81.53 151.15 81.58 150.23 80.75 148.77 80.33"/><polygon class="cls-12" points="153.01 77.55 154.17 78.6 155.59 78.38 154.67 77.55 153.01 77.55"/><polygon class="cls-12" points="156.49 73.67 157.24 74.78 158.68 74.93 157.81 74.15 156.49 73.67"/><polygon class="cls-12" points="160.07 70.84 160.88 71.99 162.5 71.35 161.03 70.55 160.07 70.84"/><path class="cls-2" d="M89.81,160.79s-4.58.43-7.21-2.65l.26-.22c2.51,2.94,6.87,2.53,6.92,2.53Z"/><path class="cls-2" d="M89.56,158.54a6.27,6.27,0,0,1-6.06-.95l.22-.26a5.9,5.9,0,0,0,5.71.89Z"/><path class="cls-2" d="M89,156.56a6.26,6.26,0,0,1-4.49.45l.12-.32a6,6,0,0,0,4.22-.43Z"/><path class="cls-8" d="M108.2,140.2s9.74-1,14.56-3.16,6.74-3.42,4.62-4.18-8.57-3.82-10.17-2.72S111.29,138.5,108.2,140.2Z"/><circle class="cls-6" cx="82.61" cy="145.48" r="2.3" transform="matrix(0.67, -0.74, 0.74, 0.67, -80.87, 109.96)"/><circle class="cls-2" cx="82.88" cy="145.52" r="0.83" transform="translate(-80.81 110.17) rotate(-48.15)"/><path class="cls-10" d="M38.9,91.39s-4.82,8.22-4.1,13,1.93,6.8,4.41,5,7.38-4.38,6.35-6.5-4.65-7.16-3.68-8.8C40.83,93.13,38.9,91.39,38.9,91.39Z"/><path class="cls-10" d="M62.69,107.34s.63,6.3,2.18,9.32,2,4.19,4.7,3.37,7.7-5.42,7.36-7.16-4-7.56-4-7.56Z"/><polygon class="cls-13" points="64.81 107.7 68.02 117.75 66.14 107.67 64.81 107.7"/><polygon class="cls-14" points="67.98 107.4 71.17 115.73 69.14 107.14 67.98 107.4"/><polygon class="cls-14" points="71.17 106.09 73.67 112.24 72.1 105.47 71.17 106.09"/><path class="cls-10" d="M80.24,86.15a24,24,0,0,0,6,1.51c2.61.17,6.8-.34,6.39-5.41s-3-25.43-4.92-27.1-12.19.41-15.86,2.13a18,18,0,0,0-4.9,3l8.7,18Z"/><path class="cls-15" d="M79.53,83.83s5.55-1,8.36-.49-6,1.31-7.19,2.18S79.53,83.83,79.53,83.83Z"/><path class="cls-15" d="M77.08,79.45s8.07-2.12,11.66-1c-2.84.73-10.38,3.1-10.38,3.1Z"/><path class="cls-15" d="M74.58,72.85s10-2.59,14-1.78c-3,.84-12.63,5-12.63,5Z"/><path class="cls-15" d="M72.51,66.59s9.36-3,14.46-2.18c-3.38.76-13.84,5.28-13.84,5.28Z"/><path class="cls-15" d="M68.74,61.58S79.28,56,87,57.12c-12.49,4.54-16.32,7.22-16.32,7.22Z"/><path class="cls-10" d="M92.41,99.42s11.1.51,15.92,1.95,8.08,1.32,6.46,3.88-10.44,4.2-12.48,9.12S97.59,131.19,94.22,131s-10.71-15-11.75-19.4,5.79-12.17,5.79-12.17Z"/><path class="cls-15" d="M40.79,54.63a28.59,28.59,0,0,1-10.56-2.16,61.14,61.14,0,0,0-8.34-2.89c-1-.32-.65,2.83.67,4.41C21,54.55,19,51,18.91,51.37s-.54,9.06,1.73,13.45,10.23,16.56,13.25,21S42,94.14,46.26,97.71s13.5,9.77,18.55,10,9.75-3.53,13.07-.31a49,49,0,0,1,4.19,4.38s10.25-4.23,10.33-12.35c-3.1-1.9-11.8-12.59-13.46-19.62S74.74,61,64.84,58.13A97.59,97.59,0,0,0,40.79,54.63Z"/><path class="cls-10" d="M40.62,54.63a29.12,29.12,0,0,1-10.38-2.16,61.14,61.14,0,0,0-8.34-2.89c-1-.32-.65,2.83.67,4.41C21,54.55,19,51,18.91,51.37s-.54,9.06,1.73,13.45c.86,1.66,2.53,4.43,4.44,7.47l5.27-1.15c6.45-1.44,9.22-5.61,10.25-9.87A16.9,16.9,0,0,0,40.62,54.63Z"/><circle class="cls-16" cx="28.56" cy="56.77" r="2.94" transform="translate(-34.23 46.94) rotate(-54.4)"/><circle class="cls-17" cx="29.46" cy="56.34" r="0.77" transform="translate(-33.5 47.49) rotate(-54.4)"/><path class="cls-10" d="M33.58,72.91s9.52,2.67,11.62,5.67S44.89,83,43,83.83s-4.83.37-7.5-1.54S33.58,72.91,33.58,72.91Z"/><path class="cls-18" d="M19.38,174.56c-24.85,8.8-24.85,23.3,33.14,25.89,39.48,1.76,72.85,19.47,90,1.85,20.46-21,60.79-17,29.23-29.23C137.73,159.85,60,160.17,19.38,174.56Z"/><path class="cls-9" d="M122.39,196.88c7.71-.47,25.13-4.94,18.95-9.89s13.59-11.12-2.47-13.18S34.4,174.56,31.81,184.4C29.81,192,79.5,199.49,122.39,196.88Z"/><path class="cls-19" d="M167.78,81.67c26.61,11.71,30.87,58.54-9.58,74.51-36.4,14.37-28.74,28.74-28.74,28.74s-10.58,5.41-31.85,5.41a122.71,122.71,0,0,1-36.77-5.41s7.67-14.37-28.74-28.74c-40.45-16-36.19-62.8-9.58-74.51,0,0,27.07,13.4,75,13.4S167.78,81.67,167.78,81.67Z"/><path class="cls-20" d="M9.68,97s31.85,16.82,88.24,16.82S180.62,97,180.62,97"/><path class="cls-20" d="M4.29,109s33.86,22.15,93.8,22.15S186,111.57,186,111.57"/><path class="cls-20" d="M7.81,130.52S40.36,147.34,98,147.34s84.51-16.82,84.51-16.82"/><path class="cls-20" d="M34.58,153.15a202.09,202.09,0,0,0,64.15,10.11A187.62,187.62,0,0,0,152,156"/><path class="cls-20" d="M60.55,170.89A124.24,124.24,0,0,0,98,176.59a118.14,118.14,0,0,0,29.7-3.68"/><path class="cls-20" d="M35.79,89.36c-5.8,8.11-19,30.84-1.36,50.15C51.2,157.87,70.62,156.8,67.7,185"/><path class="cls-20" d="M154.75,89.51c5.85,8.24,18.77,30.8,1.25,50-16.76,18.36-36.19,17.3-33.26,45.5"/><path class="cls-20" d="M136.22,94.56c4.3,10.4,9.1,28.86-1.43,44.95-12,18.36-25.95,17.3-23.85,45.5"/><path class="cls-20" d="M54.28,93.69c-4.38,10.22-9.77,29.27,1.06,45.82,12,18.36,25.95,17.3,23.85,45.5"/><path class="cls-20" d="M79,96.81c-1.66,10.67-3.12,27.71,1,42.7,5,18.36,10.78,17.3,9.91,45.5"/><path class="cls-20" d="M110.85,97.49c1.59,10.71,2.88,27.35-1,42-4.92,18.36-10.62,17.3-9.76,45.5"/><path class="cls-18" d="M26.18,205.71s-21-6.45-25.81,1.61S40.69,208.13,26.18,205.71Z"/></g></g></svg>