<svg xmlns="http://www.w3.org/2000/svg" viewBox="0 0 248.26 188.64"><defs><style>.cls-1{fill:#242837;}.cls-2{fill:#8f499c;}.cls-3{fill:#c797c5;}.cls-4{fill:#e5f1d4;}.cls-5{fill:#9ddcf9;}.cls-6,.cls-8{fill:none;stroke-linecap:round;stroke-linejoin:round;stroke-width:1.98px;}.cls-6{stroke:#242837;}.cls-7{fill:#f8b6c1;}.cls-8{stroke:#fff;}.cls-9{fill:#cd733a;}.cls-10{fill:#e5bd79;}</style></defs><title>figure-18</title><g id="Layer_2" data-name="Layer 2"><g id="Layer_1-2" data-name="Layer 1"><path class="cls-1" d="M43.85,92.71S45.31,57,40.2,56.23,28.83,66.36,28.83,66.36s-22.19,5.19-20,26.35Z"/><path class="cls-2" d="M86.53,188s3,.62,89.84.62S219.09,87.26,190,74.45c-19-2-98.32,14.91-98.32,14.91s-3.19,35.46-23.2,36.12c-18.24.6-16.19-34.4-16.19-34.4L.71,90.62s-10.08,85.47,87.74,85.47Z"/><path class="cls-3" d="M52.28,91.08s0,7.09.83,15.77c-7.84.86-51.41,5.76-51.41,5.76s-3-11.28-1-22c6.15,0,51.57.46,51.57.46"/><polygon class="cls-3" points="116.23 138.56 98.63 138.24 78.67 188.02 98.88 188.02 116.23 138.56"/><path class="cls-1" d="M99.15,138.22s-29.84-6.76-32,13.92C66,163.37,85.83,168.91,85.83,168.91Z"/><path class="cls-4" d="M198.94,77.18c10.18,22.06-26.49,40.63-59.17,40.63S69.74,99,80.61,77.18c12.47-25.07,26.49-48,59.17-48s47.87,23.56,59.17,48"/><path class="cls-5" d="M140.74,95.19s14.65-1,18.68,6.75c6,11.41-20.89,44.91-20.89,44.91s-25.17-33.5-19.2-44.91c4-7.71,18.68-6.75,18.68-6.75Z"/><line class="cls-6" x1="138.78" y1="98.08" x2="138.78" y2="106.01"/><path class="cls-1" d="M138.67,100.9c-2.06,0-7.77-3.53-8-8s4.93-5.26,8.27-5.26,8.41.77,8.15,5.26-6.33,8-8.4,8"/><ellipse class="cls-6" cx="138.87" cy="111.27" rx="9.9" ry="5.25"/><path class="cls-7" d="M108.91,96.25c6.91-1,12.77-3.51,16-6.55.16,4.25-6.54,10.14-15.46,11.42S92.71,98.6,91.67,94.47c4,2,10.33,2.77,17.24,1.78"/><path class="cls-1" d="M99.59,89.86c6.28,5.45,17.13,3.23,24.22-5s7.75-19.23,1.47-24.68-17.13-3.23-24.22,5S93.3,84.41,99.59,89.86"/><path class="cls-7" d="M168.13,96.25c-6.91-1-12.77-3.51-16-6.55-.16,4.25,6.54,10.14,15.47,11.42s16.79-2.53,17.82-6.65c-4,2-10.33,2.77-17.24,1.78"/><path class="cls-1" d="M177.46,89.86c-6.28,5.45-17.13,3.23-24.22-5s-7.75-19.23-1.47-24.68S168.9,57,176,65.18s7.75,19.23,1.47,24.68"/><path class="cls-8" d="M154.14,77.81s1.68-6.44,9.43-4.34"/><path class="cls-8" d="M123.66,77.81s-1.68-6.44-9.43-4.34"/><path class="cls-9" d="M30.59,42c-.11,11.69,50.92,21.63,111,22.19s106.53-8.48,106.64-20.17L142.21,0Z"/><path class="cls-10" d="M139.15,9.53q7.83.07,15.3-.08L141.87,4.23l-13.54,5.1q5.34.16,10.81.21"/><path class="cls-10" d="M139,21.57c14.86.14,28.83-.35,41.37-1.33l-12-5c-9,.43-18.51.61-28.45.52-9.07-.08-17.92-.4-26.39-.9l-13,4.91c12,1,25,1.66,38.48,1.78"/><path class="cls-10" d="M138.81,45.64c35.34.33,65.67-2.86,83.54-8l-8.45-3.51c-18.2,3.76-44.4,6-74.15,5.7-28.83-.27-55.45-2.83-74.64-6.72l-9.91,3.73c19.33,5,50,8.47,83.6,8.78"/><path class="cls-10" d="M236.35,43.48,231,41.24c-15.8,6.65-50.15,11-91.31,10.65-39.89-.37-75.54-5.12-93.15-11.75l-7.43,2.8c13.84,8.15,54,14.31,99.63,14.74,48.09.45,86.9-5.62,97.65-14.2"/><path class="cls-10" d="M138.92,33.6c24.7.23,47-1.26,64.21-3.92l-10.34-4.3a445.65,445.65,0,0,1-52.93,2.43,482,482,0,0,1-52.18-3.19L76.15,29a455.06,455.06,0,0,0,62.78,4.63"/></g></g></svg>