<svg xmlns="http://www.w3.org/2000/svg" viewBox="0 0 466.73 177.48"><defs><style>.cls-1{fill:#fcdee0;}.cls-2{fill:#c0406d;}.cls-3{fill:#f5f19a;}.cls-11,.cls-3{stroke:#242837;}.cls-11,.cls-3,.cls-5,.cls-8{stroke-linecap:round;stroke-linejoin:round;stroke-width:1.98px;}.cls-4{fill:#242837;}.cls-11,.cls-5,.cls-8{fill:none;}.cls-5{stroke:#e5f1d4;}.cls-6{fill:#583f99;}.cls-7{fill:#fbfdfb;}.cls-8{stroke:#fff;}.cls-9{fill:#8f499c;}.cls-10{fill:#9ddcf9;}.cls-12{fill:#d99f59;}.cls-13{fill:#ae275f;}</style></defs><title>figure-15</title><g id="Layer_2" data-name="Layer 2"><g id="Layer_1-2" data-name="Layer 1"><path class="cls-1" d="M193.43,69.23c7.63,23.84-38.75,39.92-92.57,41.62C48.14,112.51,1,104.59,0,78.55c-1.13-30,70.3-38.05,102-37.39a292.62,292.62,0,0,1,83.81,14.72l22.56-7.16S198.2,59.69,193.43,69.23Z"/><path class="cls-2" d="M215.83,118.24s-2,59.25,55,59.25c21.74,0,40.84-.29,40.84-.29s47.1-2.72,47.1-54.38c0-49.41-65.46-62.44-65.46-62.44L240.49,73.47,239,119.29"/><path class="cls-2" d="M252.57,43.25s-32,6.36-47.83,43.81a61.29,61.29,0,0,0,5,57.78l54.68-24.68L254.7,74.81Z"/><path class="cls-2" d="M317,36.71s40.36,7.72,59,58.07c8.39,22.67-16.69,43.13-35.83,30.55-18.13-11.93-22.66-18.63-22.66-18.63"/><text></text><path class="cls-2" d="M410.67,77.3a29.12,29.12,0,0,1,8-20.75,4.62,4.62,0,0,1,3.59-1.72A4,4,0,0,1,425,61.7a19,19,0,0,0-5.15,10.45,8.2,8.2,0,0,1,8,8.42c0,5.15-3.59,8.89-8.42,8.89C414.41,89.47,410.67,85.72,410.67,77.3Z"/><path class="cls-2" d="M433.32,77.3a29.12,29.12,0,0,1,8-20.75,4.62,4.62,0,0,1,3.59-1.72,4,4,0,0,1,2.81,6.86,19,19,0,0,0-5.15,10.45,8.2,8.2,0,0,1,8,8.42c0,5.15-3.59,8.89-8.42,8.89C437.07,89.47,433.32,85.72,433.32,77.3Z"/><path class="cls-3" d="M236,153.56"/><path class="cls-4" d="M332.51,131.84"/><path class="cls-5" d="M362.5,49.25s3.06-1.59,4.24,1.61"/><ellipse class="cls-6" cx="283" cy="3.1" rx="9.22" ry="2.13"/><path class="cls-4" d="M313.94,22.19c2.6,2.74,7.39,4.32,10.37,1.5s3.46-7.51.84-10.27-7.26-2.59-10.3.29S311.34,19.44,313.94,22.19Z"/><path class="cls-4" d="M253.27,22.19c-2.6,2.74-7.39,4.32-10.37,1.5s-3.46-7.51-.84-10.27,7.26-2.59,10.3.29S255.87,19.44,253.27,22.19Z"/><path class="cls-7" d="M337.68,55.74c9.38,20.34-24.43,37.46-54.56,37.46s-64.58-17.32-54.56-37.46c11.5-23.12,24.43-44.3,54.56-44.3S327.26,33.16,337.68,55.74Z"/><ellipse class="cls-4" cx="307.25" cy="54.14" rx="9.61" ry="12.51" transform="translate(39.63 214.49) rotate(-40.92)"/><path class="cls-8" d="M303,54.46s4.31,2.83,9,2.32"/><ellipse class="cls-4" cx="259.95" cy="54.14" rx="12.51" ry="9.61" transform="translate(48.77 215.09) rotate(-49.08)"/><path class="cls-8" d="M264.23,54.46s-4.31,2.83-9,2.32"/><path class="cls-9" d="M267.1,15.31C268,3.5,272.36,0,283.3,0s15.28,3.5,16.19,15.31C293.88,20.41,272.71,20.41,267.1,15.31Z"/><path class="cls-10" d="M280.15,73.38s-19.58-2-26.33,12.49,4.39,57.39-12.15,69.88c10.8-4.39,26.33-13.5,26-32.75-.18-10.49-3.38-31.06,3-40.51C274.07,77.52,280.15,73.38,280.15,73.38Z"/><path class="cls-11" d="M271,29.9c5.64-2.09,10.26.68,11.81,3.15,1.34-2.67,7.09-6,12.07-3.15"/><path class="cls-10" d="M299,44.4s5.44-16,21.15-14.22,17.21-.6,22.65-5.44c-5.44,12.09-8.14,16.92-20.83,16.92S308.7,39,299,44.4Z"/><path class="cls-10" d="M268.79,45.84s-5.44-16-21.15-14.22S230.43,31,225,26.18c5.44,12.09,8.14,16.92,20.83,16.92S259.12,40.4,268.79,45.84Z"/><path class="cls-10" d="M286.7,73.38s19.58-2,26.33,12.49-4.39,57.39,12.15,69.88c-10.8-4.39-26.33-13.5-26-32.75.18-10.49,3.38-31.06-3-40.51C292.78,77.52,286.7,73.38,286.7,73.38Z"/><path class="cls-4" d="M282.85,71.9c-1.37,0-5.15-2.34-5.32-5.32s3.27-3.49,5.49-3.49,5.58.51,5.41,3.49S284.22,71.9,282.85,71.9Z"/><path class="cls-11" d="M279,82.84c2-3.27,6.29-3.12,7.86,0"/><line class="cls-11" x1="282.97" y1="70.83" x2="282.97" y2="80.37"/><polygon class="cls-12" points="224.34 138.31 393.18 65.5 396.09 73.25 228.32 145.89 224.34 138.31"/><path class="cls-5" d="M230.22,138s3.41.5,2.5,3.79"/><path class="cls-5" d="M253.86,127.55s3.41.5,2.5,3.79"/><path class="cls-5" d="M307.75,104.24s3.41.5,2.5,3.79"/><path class="cls-5" d="M363.41,80.55s3.41.5,2.5,3.79"/><path class="cls-4" d="M271.92,117.3s5.75,28.88-15,30.34c-11.26.79-13.63-9.19-15.74-17C246,111.34,271.92,117.3,271.92,117.3Z"/><path class="cls-4" d="M356.35,91.32c-1.48-3.82-15.45-26.4-32-13.85-9,6.82,2.86,25.45,2.86,25.45S342.09,116.19,356.35,91.32Z"/><path class="cls-13" d="M271.92,117.3s-25.49-5.88-30.73,13.32c-11.19,4.76-31,13.64-31,13.64S222.74,99.92,271.92,117.3Z"/><path class="cls-13" d="M309,110.94c18.76,19.31,51.57,8.1,47.38-19.62,0,0-7.7,18.58-29.16,11.6Z"/></g></g></svg>