<svg xmlns="http://www.w3.org/2000/svg" viewBox="0 0 440.61 241.24"><defs><style>.cls-1{fill:#c797c5;}.cls-2{fill:#8f499c;}.cls-3{fill:#242837;}.cls-4{fill:#e0def0;}.cls-5{fill:#f5f19a;}.cls-5,.cls-8{stroke:#242837;}.cls-12,.cls-13,.cls-5,.cls-8{stroke-linecap:round;stroke-linejoin:round;stroke-width:1.98px;}.cls-6{fill:#fbfdfb;}.cls-7{fill:#9ddcf9;}.cls-12,.cls-13,.cls-8{fill:none;}.cls-9{fill:#f8b6c1;}.cls-10{fill:#3a9948;}.cls-11{fill:#e5f1d4;}.cls-12{stroke:#fff;}.cls-13{stroke:#e5f1d4;}</style></defs><title>figure-13</title><g id="Layer_2" data-name="Layer 2"><g id="Layer_1-2" data-name="Layer 1"><path class="cls-1" d="M362.46,115.33l-35.6,54.5S371.13,169.25,362.46,115.33Z"/><path class="cls-2" d="M220.16,112s-17.77,8.89-27.54,43.09c-15,52.46,93,73,93,73l35-58.65-79.46,5.68"/><polygon class="cls-2" points="316.78 115.51 346.22 140.19 316.36 180.38 217.46 194.02 213.68 137.27 218.41 108.89 316.78 115.51"/><path class="cls-3" d="M226,75.93c-2.27-1.21-5.46-4.81-6.79-6.23-4.12-4.4-4.41-11.34-.33-15.15s10.89-3.16,15.1,1.34a25.07,25.07,0,0,1,5,9.11"/><path class="cls-3" d="M301.91,75.93c2.27-1.21,5.46-4.81,6.79-6.23,4.12-4.4,4.41-11.34.33-15.15s-10.89-3.16-15.1,1.34A25.07,25.07,0,0,0,289,65"/><path class="cls-4" d="M181.93,142c7.63,23.84-23,51.9-85.66,55.3C43.6,200.19,4.7,194,.32,161.09c-5.72-42.9,66.89-49.29,98.58-48.63,45.76,1,75.41,16.21,75.41,16.21l22.56-7.16S186.7,132.49,181.93,142Z"/><path class="cls-2" d="M400.79,114.45a29.12,29.12,0,0,1,8-20.75A4.62,4.62,0,0,1,412.34,92a4,4,0,0,1,2.81,6.86A19,19,0,0,0,410,109.3a8.2,8.2,0,0,1,8,8.42c0,5.15-3.59,8.89-8.42,8.89C404.54,126.62,400.79,122.87,400.79,114.45Z"/><path class="cls-2" d="M423.45,114.45a29.12,29.12,0,0,1,8-20.75A4.62,4.62,0,0,1,435,92a4,4,0,0,1,2.81,6.86,19,19,0,0,0-5.15,10.45,8.2,8.2,0,0,1,8,8.42c0,5.15-3.59,8.89-8.42,8.89C427.19,126.62,423.45,122.87,423.45,114.45Z"/><path class="cls-5" d="M226.1,190.71"/><path class="cls-6" d="M323,98.5c10.18,22.06-26.49,40.63-59.17,40.63s-70-18.79-59.17-40.63c12.47-25.07,26.49-48,59.17-48S311.66,74,323,98.5Z"/><path class="cls-7" d="M264.76,116.51s14.65-1,18.68,6.74c6,11.41-20.89,52.92-20.89,52.92s-25.17-41.5-19.21-52.92c4-7.71,18.68-6.74,18.68-6.74Z"/><line class="cls-8" x1="262.8" y1="119.4" x2="262.8" y2="125.92"/><path class="cls-3" d="M262.69,122.22c-2.06,0-7.77-3.53-8-8s4.93-5.26,8.27-5.26,8.41.77,8.15,5.26S264.75,122.22,262.69,122.22Z"/><path class="cls-3" d="M322.63,169"/><path class="cls-8" d="M254.84,129.66c5.71-4.36,9.67-4.74,16.11,0"/><path class="cls-9" d="M232.93,117.57c6.91-1,12.77-3.51,16-6.55.16,4.25-6.54,10.14-15.47,11.42s-16.79-2.53-17.82-6.65C219.69,117.79,226,118.56,232.93,117.57Z"/><ellipse class="cls-3" cx="236.45" cy="96.36" rx="19.61" ry="15.06" transform="translate(8.76 211.9) rotate(-49.08)"/><path class="cls-9" d="M292.15,117.57c-6.91-1-12.77-3.51-16-6.55-.16,4.25,6.54,10.14,15.47,11.42s16.79-2.53,17.82-6.65C305.4,117.79,299.06,118.56,292.15,117.57Z"/><ellipse class="cls-3" cx="288.64" cy="96.36" rx="15.06" ry="19.61" transform="translate(7.42 212.62) rotate(-40.92)"/><polygon class="cls-10" points="281.33 5.84 304.38 2.69 282.35 9.42 281.33 5.84"/><path class="cls-7" d="M288.58,12.81c-.37-7-12.79-12.51-26-12.81h-.06c-13.2.29-25.63,5.84-26,12.81-.66,12.57,13.47,10.76,16.34,17.57,4.4,10.42-9,17.15-5.75,27.43,1.35,4.29,6.45,7,15.43,7s14.08-2.74,15.43-7c3.24-10.28-10.15-17-5.75-27.43C275.11,23.57,289.24,25.38,288.58,12.81Z"/><path class="cls-2" d="M255,30.35s9.91-3.86,14.87.37a15.12,15.12,0,0,0-.07,8s-2.84-4.73-14.66,0C256.5,33.47,255,30.35,255,30.35Z"/><path class="cls-10" d="M214.47,22.68l3.8,10s30.53-10.56,33.89-11.87,3.25-4.36-.18-4.2S214.47,22.68,214.47,22.68Z"/><ellipse class="cls-11" cx="215.86" cy="27.8" rx="3.57" ry="5.31" transform="translate(9.61 97.31) rotate(-25.96)"/><path class="cls-12" d="M278.15,98.12s1.67-7.55,9.33-5.67"/><path class="cls-12" d="M248.38,98.12s-1.67-7.55-9.33-5.67"/><polygon class="cls-10" points="279.62 237.41 374.16 79.71 381.05 84.3 287.27 241.24 279.62 237.41"/><polygon class="cls-1" points="285.32 228.09 318.67 172.05 305.04 168.84 271.02 224.58 285.32 228.09"/><path class="cls-3" d="M318.66,172.05s22.74,20.46,7.09,34.16c-8.49,7.43-23.92-5.38-23.92-5.38Z"/><path class="cls-3" d="M362.46,115.33c-3.7-1.77-29.33-8.68-32.82,11.82-1.9,11.13,16,16.27,16,16.27S369.09,143.22,362.46,115.33Z"/><path class="cls-13" d="M284.2,233.71s3.06-1.59,4.24,1.61"/><path class="cls-13" d="M297.3,211.43s3.06-1.59,4.24,1.61"/><path class="cls-13" d="M327.43,161s3.06-1.59,4.24,1.61"/><path class="cls-13" d="M358.78,109.31s3.06-1.59,4.24,1.61"/><path class="cls-13" d="M352.62,86.4s3.06-1.59,4.24,1.61"/></g></g></svg>