<svg xmlns="http://www.w3.org/2000/svg" viewBox="0 0 411.32 192.1"><defs><style>.cls-1{fill:#242837;}.cls-2{fill:#e1f4fd;}.cls-3{fill:#27aae1;}.cls-4,.cls-7,.cls-8{fill:none;stroke-linecap:round;stroke-linejoin:round;stroke-width:1.98px;}.cls-4{stroke:#e5f1d4;}.cls-5{fill:#c0406d;}.cls-6{fill:#fbfdfb;}.cls-7{stroke:#242837;}.cls-8{stroke:#fff;}</style></defs><title>figure-14</title><g id="Layer_2" data-name="Layer 2"><g id="Layer_1-2" data-name="Layer 1"><path class="cls-1" d="M239.16.28s20.91-2.93,19.42,10.2c-1.32,11.63-19.31,17.39-19.31,17.39Z"/><path class="cls-2" d="M159.87,106.56c7.67,24-6,52.2-69.05,55.62-53,2.88-86.06-3.38-90.47-36.44C-5.41,82.59,61.59,76.17,93.46,76.84c46,1,58.74,16.3,58.74,16.3l22.69-7.2S164.67,97,159.87,106.56Z"/><path class="cls-3" d="M371.5,91.91a29.12,29.12,0,0,1,8-20.75A4.62,4.62,0,0,1,383,69.45a4,4,0,0,1,2.81,6.86,19,19,0,0,0-5.15,10.45,8.2,8.2,0,0,1,8,8.42c0,5.15-3.59,8.89-8.42,8.89C375.25,104.08,371.5,100.34,371.5,91.91Z"/><path class="cls-3" d="M394.16,91.91a29.12,29.12,0,0,1,8-20.75,4.62,4.62,0,0,1,3.59-1.72,4,4,0,0,1,2.81,6.86,19,19,0,0,0-5.15,10.45,8.2,8.2,0,0,1,8,8.42c0,5.15-3.59,8.89-8.42,8.89C397.9,104.08,394.16,100.34,394.16,91.91Z"/><path class="cls-1" d="M296.63,149.53"/><path class="cls-4" d="M301.1,142.12s2.85-1.48,4,1.51"/><path class="cls-3" d="M213.43,74.52c-19.53-8.41-2.75-22.6,25.81-36.54V.23c-17.49,2.52-71.4,23.11-55.46,84.49-1.06,11.71-3.55,107.21,47,107.21,47.44,0,60-69.93,60-69.93s18.65,13.87,9.12,38.94c20.56,0,42.12.5,42.12.5s-19.51-67.91-62.38-64.59C256.59,98.64,234.45,83.56,213.43,74.52Z"/><path class="cls-1" d="M299.82,160.93s-5,16.65,6.41,17.33c9.86.59,18.69-17.22,18.69-17.22Z"/><path class="cls-5" d="M229.95,124.48s-15.5,14-42.85,14c-5.85-31.78-3.49-54.27-3.49-54.27l10.16-6S191.71,100.53,229.95,124.48Z"/><path class="cls-5" d="M229.95,124.48s59.23,49.72,81.1-16.07c-12-10.09-21.43-11.11-21.43-11.11Z"/><path class="cls-1" d="M219.38,46.06c-1.71-1.87-3.49-6.26-4.26-8-2.38-5.43-.37-12,4.66-14.17s11.14.63,13.57,6.18A24.67,24.67,0,0,1,235,40.15"/><path class="cls-1" d="M293.1,72.08c2.5-.38,6.65-2.68,8.34-3.56,5.26-2.73,7.8-9.07,5.27-14s-9.07-6.5-14.44-3.71a24.67,24.67,0,0,0-7.6,6.82"/><path class="cls-6" d="M298.81,107.08c1.07,25.8-38.26,33.32-67.33,23.06S176,88.89,193.55,69.91c20.17-21.78,40.95-40.92,70-30.66S297.62,78.43,298.81,107.08Z"/><path class="cls-3" d="M263.57,39.26c-26-9.16-45.3,5.12-63.51,23.79l.1,0s-2.28,14.47,10.49,23.55,21.4-4,32.16,3l4,1.4c12.75,1.33,13.44,17.67,29.07,18.63s22.39-12.64,22.39-12.64h0C296.1,71.85,289.19,48.3,263.57,39.26Z"/><line class="cls-7" x1="242.88" y1="94.88" x2="239.17" y2="105.41"/><path class="cls-1" d="M242.31,95.87c-2.23-.79-7-6.76-5.6-11.7s7.32-3.8,10.92-2.53,8.77,4,6.79,8.78S244.53,96.66,242.31,95.87Z"/><ellipse class="cls-1" cx="224.76" cy="68.67" rx="15.82" ry="12.15" transform="translate(-4.56 120.11) rotate(-29.63)"/><path class="cls-8" d="M227.77,71.68s.74-6.21-5.34-6.69"/><ellipse class="cls-1" cx="273.71" cy="85.96" rx="12.15" ry="15.82" transform="translate(-12.47 106.18) rotate(-21.48)"/><path class="cls-8" d="M269.47,86.4s3.32-5.3,8.36-1.85"/><ellipse class="cls-7" cx="238.53" cy="110.61" rx="9.34" ry="4.91" transform="translate(-3.43 7.73) rotate(-1.84)"/><path class="cls-1" d="M231.44,192.1h28.85c4.08,0,9.07-1.36,9.07-9.07V156c0-6-12.24-6.71-12.24,0,0,8.8-8.32,9.26-11.79,9.26h-8.46C242.75,174,242.06,188.26,231.44,192.1Z"/></g></g></svg>