<svg xmlns="http://www.w3.org/2000/svg" xmlns:xlink="http://www.w3.org/1999/xlink" viewBox="0 0 324.32 362.68"><defs><style>.cls-1{fill:none;}.cls-2{isolation:isolate;}.cls-3{fill:#8f499c;}.cls-4{fill:#242837;}.cls-5{clip-path:url(#clip-path);}.cls-6{fill:#4e5064;}.cls-7{fill:#894b9d;}.cls-8{fill:#fffffe;}.cls-9{fill:#e0def0;}.cls-10{fill:#9ddcf9;}.cls-11{fill:#c9c3a7;}.cls-11,.cls-17,.cls-21{mix-blend-mode:multiply;}.cls-12{fill:#e5bd79;}.cls-13{fill:#454546;}.cls-14{fill:#f2bfa4;}.cls-15{fill:#c89b70;}.cls-16{fill:#d7ad74;}.cls-17{opacity:0.76;}.cls-18{fill:#d99f59;}.cls-19{fill:#d2587e;}.cls-20{fill:#c99ac6;}.cls-21{fill:#dcd0e7;}</style><clipPath id="clip-path" transform="translate(-21.07)"><path class="cls-1" d="M310.9,131.42a129.33,129.33,0,0,1-258.66,0C-95.66,86.88,110.14,2.09,181.57,2.09S512.68,97.34,310.9,131.42Z"/></clipPath></defs><title>logo-small</title><g class="cls-2"><g id="Layer_2" data-name="Layer 2"><g id="Layer_1-2" data-name="Layer 1"><circle class="cls-3" cx="160.49" cy="131.42" r="129.33"/><path class="cls-4" d="M181.57,262.83c-72.46,0-131.42-59-131.42-131.42S109.1,0,181.57,0,313,59,313,131.42,254,262.83,181.57,262.83Zm0-258.66A127.24,127.24,0,1,0,308.81,131.42,127.39,127.39,0,0,0,181.57,4.17Z" transform="translate(-21.07)"/><g class="cls-5"><path class="cls-6" d="M227.62,318.81v29.1c0,5.71-1.9,12.69-12.69,12.69H173.5c-8.44,0-20-12.88-10.55-12.88,15.28,0,8.57-18.74,8.57-18.74Z" transform="translate(-21.07)"/><path class="cls-4" d="M214.93,362.68H173.5c-7.34,0-16.17-7.82-16.17-12.73a3.93,3.93,0,0,1,1.73-3.34,6.69,6.69,0,0,1,3.89-1c3.15,0,5.29-.86,6.54-2.63,2.62-3.71.93-10.87.06-13.32a2.09,2.09,0,0,1,1.59-2.76l56.11-10.17a2.09,2.09,0,0,1,2.46,2.05v29.1C229.71,357.44,224.46,362.68,214.93,362.68Zm-40.76-32.07c.88,3.53,1.92,10.25-1.26,14.78-2.06,2.93-5.41,4.41-10,4.41a2.82,2.82,0,0,0-1.53.26,8,8,0,0,0,1.6,2.64c2.4,2.85,7,5.81,10.48,5.81h41.43c7.23,0,10.6-3.37,10.6-10.6v-26.6Z" transform="translate(-21.07)"/><path class="cls-6" d="M132.19,318.81v29.1c0,5.71,1.9,12.69,12.69,12.69h44.76c8.44,0,9.39-11.42-.07-11.42-15.28,0-13.2-16.5-13.2-16.5Z" transform="translate(-21.07)"/><path class="cls-4" d="M189.64,362.68H144.88c-9.53,0-14.78-5.25-14.78-14.78v-29.1a2.09,2.09,0,0,1,2.71-2L177,330.69a2.09,2.09,0,0,1,1.44,2.25c0,.07-.79,6.91,2.83,11,1.85,2.09,4.65,3.15,8.3,3.15a9.25,9.25,0,0,1,6.52,2.26,7.17,7.17,0,0,1,2.31,5.32C198.41,358.56,195.34,362.68,189.64,362.68Zm-55.36-41v26.26c0,7.23,3.37,10.6,10.6,10.6h44.76c3,0,4.59-1.93,4.59-3.83a3,3,0,0,0-1-2.26,5.35,5.35,0,0,0-3.68-1.15c-4.91,0-8.76-1.54-11.44-4.58-3.58-4.06-4-9.67-3.93-12.5Z" transform="translate(-21.07)"/><path class="cls-7" d="M272.17,260.7c0,50.79-28.39,78.65-91.75,78.65S88.67,311.49,88.67,260.7s56.57-105.29,91.75-105.29S272.17,209.9,272.17,260.7Z" transform="translate(-21.07)"/><path class="cls-4" d="M180.42,341.43c-62.26,0-93.84-27.16-93.84-80.74,0-50.81,55.93-107.37,93.84-107.37s93.84,56.56,93.84,107.37C274.26,314.27,242.69,341.43,180.42,341.43Zm0-183.94c-35.4,0-89.66,55.35-89.66,103.2,0,51.52,29.33,76.56,89.66,76.56s89.66-25,89.66-76.56C270.08,212.85,215.83,157.5,180.42,157.5Z" transform="translate(-21.07)"/><path class="cls-8" d="M121.83,324.38c50.44-35.22,58-63.79,58-63.79l2.58,1.84s6.18,26.73,56.62,62c0,0-16.64,13.91-56.76,13.91S121.83,324.38,121.83,324.38Z" transform="translate(-21.07)"/><path class="cls-8" d="M261.22,133.65C274.83,163.16,225.77,188,182,188s-93.72-25.14-79.18-54.37C119.55,100.1,138.3,69.36,182,69.36S246.1,100.88,261.22,133.65Z" transform="translate(-21.07)"/><path class="cls-4" d="M182,190.1c-33.41,0-68.43-14.28-79.72-32.51-5-8-5.43-16.63-1.32-24.87,17.16-34.49,36.27-65.45,81-65.45s65.38,31.48,81.08,65.5h0c3.9,8.44,3.21,17.19-2,25.29C249.45,176.33,215.44,190.1,182,190.1Zm0-118.66c-42.39,0-60.76,29.86-77.31,63.13-3.47,7-3.09,14,1.14,20.82,10.61,17.12,44.07,30.54,76.18,30.54,31.58,0,64.78-13.23,75.59-30.11,4.44-6.94,5-14.11,1.7-21.29h0C244.21,101.76,224.38,71.44,182,71.44Z" transform="translate(-21.07)"/><path class="cls-9" d="M182,176.86c-25.8,0-53.79-6.4-69.23-16,7.67,14.53,40,25.24,69.21,25.24s61.1-10.6,68.9-25.19C235.56,170.52,207.86,176.86,182,176.86Z" transform="translate(-21.07)"/><path class="cls-10" d="M184.85,152.13s22.48-1.48,28.67,10.35c9.16,17.52-32.07,64.38-32.07,64.38S142.81,180,152,162.48c6.19-11.84,28.67-10.35,28.67-10.35Z" transform="translate(-21.07)"/><path class="cls-4" d="M181.45,228.94h0a2.09,2.09,0,0,1-1.58-.76c-4-4.91-39.24-48.45-29.72-66.67C156.86,148.62,179.8,150,180.78,150h4c1.7-.1,24-1.19,30.59,11.47,9.55,18.26-28,61.82-32.35,66.72A2.09,2.09,0,0,1,181.45,228.94Zm-3.11-74.78c-5.66,0-20.11.85-24.52,9.29-6.66,12.75,16.42,46.05,27.68,60.16,12-14.08,36.81-47.44,30.16-60.16-5.48-10.48-26.47-9.25-26.68-9.24h-4.34C180.57,154.21,179.72,154.16,178.34,154.16Z" transform="translate(-21.07)"/><path class="cls-8" d="M200,156.21s7.69,2.94,7.09,14.19c-.73,13.91-25.37,53-25.37,53s28.41-29.52,30.82-51.93C214.16,156.23,200,156.21,200,156.21Z" transform="translate(-21.07)"/><path class="cls-4" d="M181.6,169.4c-13,0-21.07-6.13-21.41-6.39a2.09,2.09,0,0,1,2.54-3.31,33.49,33.49,0,0,0,18.87,5.52c11.43,0,18.14-5.42,18.21-5.47a2.09,2.09,0,0,1,2.67,3.21C202.16,163.22,194.62,169.4,181.6,169.4Z" transform="translate(-21.07)"/><path class="cls-4" d="M181.84,168.95a2.09,2.09,0,0,1-2.09-2.09V156.57a2.09,2.09,0,0,1,4.17,0v10.29A2.09,2.09,0,0,1,181.84,168.95Z" transform="translate(-21.07)"/><ellipse class="cls-4" cx="144.01" cy="126.61" rx="21.81" ry="16.75" transform="translate(-67.06 152.49) rotate(-49.08)"/><path class="cls-8" d="M134,133.68a2.09,2.09,0,0,1-1.11-3.86A29.45,29.45,0,0,1,152.79,126a2.09,2.09,0,0,1-.83,4.09h0a25.63,25.63,0,0,0-16.84,3.29A2.07,2.07,0,0,1,134,133.68Z" transform="translate(-21.07)"/><ellipse class="cls-4" cx="218.34" cy="126.61" rx="16.75" ry="21.81" transform="translate(-50.65 173.96) rotate(-40.92)"/><path class="cls-8" d="M228.33,133.68a2.07,2.07,0,0,1-1.1-.32,25.38,25.38,0,0,0-16.83-3.3,2.09,2.09,0,1,1-.83-4.09,29.42,29.42,0,0,1,19.88,3.85,2.09,2.09,0,0,1-1.11,3.86Z" transform="translate(-21.07)"/><path class="cls-11" d="M251.09,113.89C236.77,89.27,216.79,69.36,182,69.36c-35.07,0-54.08,19.78-68.85,44.91,15.72,12.92,43.35,21.47,68.85,21.47C207.87,135.74,235.55,127.07,251.09,113.89Z" transform="translate(-21.07)"/><path class="cls-12" d="M23.16,84.81c0,17.19,75.18,31.12,163.59,31.12S343.3,102,343.3,84.81L186.75,21.47Z" transform="translate(-21.07)"/><path class="cls-4" d="M186.75,118c-81.44,0-165.68-12.42-165.68-33.2a2.09,2.09,0,0,1,1.33-1.95L186,19.52a2.09,2.09,0,0,1,1.54,0L344.09,82.88a2.09,2.09,0,0,1,1.3,1.93C345.39,106.38,263.66,118,186.75,118ZM25.46,86.16c4.14,13.36,69.22,27.68,161.29,27.68,89.48,0,150.51-14.08,154.28-27.7L186.73,23.71Z" transform="translate(-21.07)"/><path class="cls-7" d="M226.6,224.32,182,238v25.44s10.56,30.33,61,65.55" transform="translate(-21.07)"/><path class="cls-4" d="M243,331.09a2.08,2.08,0,0,1-1.19-.38c-50.41-35.2-61.33-65.31-61.77-66.58a2.09,2.09,0,0,1-.12-.69V238a2.09,2.09,0,0,1,1.47-2L226,222.32a2.09,2.09,0,1,1,1.23,4l-43.1,13.25v23.51c1.29,3.25,13.61,31.76,60.1,64.22a2.09,2.09,0,0,1-1.2,3.8Z" transform="translate(-21.07)"/><line class="cls-13" x1="190.28" y1="212.58" x2="183.24" y2="231.17"/><path class="cls-4" d="M204.32,233.25a2.06,2.06,0,0,1-.74-.14,2.09,2.09,0,0,1-1.21-2.69l7-18.59a2.09,2.09,0,0,1,3.9,1.48l-7,18.59A2.09,2.09,0,0,1,204.32,233.25Z" transform="translate(-21.07)"/><path class="cls-7" d="M137.33,224.32,181.91,238v25.44s-10.56,30.33-61,65.55" transform="translate(-21.07)"/><path class="cls-4" d="M120.91,331.09a2.09,2.09,0,0,1-1.2-3.8c46.5-32.47,58.82-61,60.1-64.22V239.56l-43.1-13.25a2.09,2.09,0,1,1,1.23-4L182.52,236a2.09,2.09,0,0,1,1.47,2v25.44a2.09,2.09,0,0,1-.12.69c-.44,1.27-11.36,31.37-61.77,66.58A2.08,2.08,0,0,1,120.91,331.09Z" transform="translate(-21.07)"/><line class="cls-13" x1="131.51" y1="212.58" x2="138.55" y2="231.17"/><path class="cls-4" d="M159.62,233.25a2.09,2.09,0,0,1-2-1.35l-7-18.59a2.09,2.09,0,0,1,3.9-1.48l7,18.59a2.09,2.09,0,0,1-1.21,2.69A2.06,2.06,0,0,1,159.62,233.25Z" transform="translate(-21.07)"/><path class="cls-14" d="M227.54,149.62c-9.34,0-17.59-2.23-22.5-5.63.59,5.66,10.59,12.19,22.65,12.19S249.46,149.65,250,144C245.13,147.39,236.89,149.62,227.54,149.62Z" transform="translate(-21.07)"/><path class="cls-14" d="M137.75,149.62c9.34,0,17.59-2.23,22.5-5.63-.59,5.66-10.59,12.19-22.65,12.19s-21.76-6.54-22.35-12.19C120.17,147.39,128.41,149.62,137.75,149.62Z" transform="translate(-21.07)"/><path class="cls-15" d="M340.71,86.43l-154-62.5,96.49,83.24C318.5,101.59,337,93.94,340.71,86.43Z" transform="translate(-21.07)"/><path class="cls-16" d="M186.76,24,25.86,86.25c3.14,5.13,9.08,8,21.77,12.36Z" transform="translate(-21.07)"/><path class="cls-13" d="M173.66,348.1s6.36.42,11.71.87" transform="translate(-21.07)"/><path class="cls-4" d="M185.37,351.05h-.18c-5.33-.45-11.67-.87-11.67-.87l.28-4.16s6.38.42,11.74.87a2.09,2.09,0,0,1-.17,4.17Z" transform="translate(-21.07)"/><g class="cls-17"><path class="cls-18" d="M182.37,35.53q11.51,0,22.5-.33L186.3,27.68l-19.83,7.68Q174.33,35.52,182.37,35.53Z" transform="translate(-21.07)"/><path class="cls-18" d="M182.37,53.23c21.86,0,42.4-.9,60.82-2.53l-17.68-7.15c-13.2.75-27.22,1.16-41.83,1.16-13.34,0-26.37-.34-38.83-1l-19.1,7.4C143.39,52.48,162.53,53.23,182.37,53.23Z" transform="translate(-21.07)"/><path class="cls-18" d="M182.37,88.64c52,0,96.54-5.1,122.75-12.88l-12.47-5c-26.72,5.78-65.21,9.4-109,9.4-42.41,0-81.59-3.4-109.87-8.87L59.3,76.86C87.8,84,132.89,88.64,182.37,88.64Z" transform="translate(-21.07)"/><path class="cls-18" d="M325.79,84.13l-8-3.23c-23.14,10-73.6,16.92-134.14,16.92-58.67,0-111.17-6.5-137.16-16L35.64,86c20.47,11.79,79.55,20.31,146.73,20.31C253.1,106.34,310.09,96.89,325.79,84.13Z" transform="translate(-21.07)"/><path class="cls-18" d="M182.37,70.93c36.33,0,69-2.49,94.38-6.65l-15.26-6.17a655.79,655.79,0,0,1-77.81,4.3,708.79,708.79,0,0,1-76.78-4L90,65C116,68.72,148.12,70.93,182.37,70.93Z" transform="translate(-21.07)"/></g><path class="cls-19" d="M197,235.94s14.43,49.24,62.8,75.82a68,68,0,0,1-15.43,15.33s-47.81-34-60-63.94c-.47-19.19-.14-23.51-.14-23.51Z" transform="translate(-21.07)"/><path class="cls-19" d="M166.74,235.94s-14.43,49.24-62.8,75.82a68,68,0,0,0,15.43,15.33s48.16-33.86,60.33-63.81c.47-19.19-.21-23.63-.21-23.63Z" transform="translate(-21.07)"/><path class="cls-20" d="M264.89,259.55c0,47.11-21.65,61.45-22.16,62.23,18.4-12.26,27.22-33.84,27.22-61.39,0-28.87-18.88-58.25-41.12-78.82C229.17,182.7,264.89,215.91,264.89,259.55Z" transform="translate(-21.07)"/><path class="cls-21" d="M121.83,324.38s49.58-24.2,58.54-41.94c9.92,17.74,39.74,35.48,58.63,41.94-32.58-22.52-48.91-42.68-58.63-60.76C173.42,278,153.77,302.44,121.83,324.38Z" transform="translate(-21.07)"/><path class="cls-4" d="M181.74,158.44c-2.4,0-9-4.11-9.34-9.34S178.15,143,182,143s9.78.9,9.49,6.12S184.15,158.44,181.74,158.44Z" transform="translate(-21.07)"/></g><path class="cls-4" d="M181.57,262.83c-72.46,0-131.42-59-131.42-131.42h4.17a127.24,127.24,0,0,0,254.48,0H313C313,203.88,254,262.83,181.57,262.83Z" transform="translate(-21.07)"/></g></g></g></svg>