<svg xmlns="http://www.w3.org/2000/svg" xmlns:xlink="http://www.w3.org/1999/xlink" viewBox="0 0 796.24 429.04">
    <defs>
        <style>.cls-1,.cls-15,.cls-8{fill:none;}.cls-2{isolation:isolate;}.cls-3{clip-path:url(#clip-path);}.cls-4{fill:#e5bd79;}.cls-5{fill:#cd733a;}.cls-6{clip-path:url(#clip-path-2);}.cls-7{fill:#27aae1;}.cls-8{stroke:#242837;}.cls-15,.cls-8{stroke-linecap:round;stroke-linejoin:round;stroke-width:4px;}.cls-9{fill:#4e5064;}.cls-10{fill:#fffffe;}.cls-11{mix-blend-mode:multiply;}.cls-12{clip-path:url(#clip-path-3);}.cls-13{fill:#dcd0e7;}.cls-14{fill:#242837;}.cls-15{stroke:#fffffe;}.cls-16{fill:#787180;}.cls-17{fill:#007dc5;}.cls-18{fill:#c0406d;}.cls-19{fill:#e7839a;}</style><clipPath id="clip-path" transform="translate(-426.31 -676.05)"><rect class="cls-1" width="1673.9" height="1105.09"/></clipPath><clipPath id="clip-path-2" transform="translate(-426.31 -676.05)"><rect class="cls-1" width="1673.9" height="1105.09"/></clipPath><clipPath id="clip-path-3" transform="translate(-426.31 -676.05)"><rect class="cls-1" x="719.92" y="836.07" width="206.32" height="45.02"/></clipPath></defs><title>panda</title><g class="cls-2"><g id="Layer_2" data-name="Layer 2"><g id="Layer_1-2" data-name="Layer 1"><g class="cls-3"><polygon class="cls-4" points="762.1 355.38 745.16 318.48 69.15 318.48 46.17 355.38 762.1 355.38"/><rect class="cls-5" x="46.17" y="355.38" width="715.93" height="12.32"/><polygon class="cls-4" points="780.35 396.68 763.4 359.77 43.24 359.77 20.27 396.68 780.35 396.68"/><rect class="cls-5" x="20.27" y="396.68" width="760.08" height="12.32"/><polygon class="cls-4" points="17.42 401.06 0 429.04 796.24 429.04 783.4 401.06 17.42 401.06"/><g class="cls-6"><path class="cls-7" d="M740.74,858.58S606.39,887.33,616.41,992.37l68.1,3.86c.84-16.5,1.73-37.35,1.73-37.35" transform="translate(-426.31 -676.05)"/><path class="cls-8" d="M740.74,858.58S606.39,887.33,616.41,992.37l68.1,3.86c.84-16.5,1.73-37.35,1.73-37.35" transform="translate(-426.31 -676.05)"/><path class="cls-7" d="M956.41,994.08A202.09,202.09,0,0,0,961.8,949c0-75.88-54.71-99.26-138-99.26a13.41,13.41,0,0,1-1.39,0c-83.24,0-137.95,23.38-137.95,99.26a214.64,214.64,0,0,0,5.6,46.07" transform="translate(-426.31 -676.05)"/><path class="cls-8" d="M956.41,994.08A202.09,202.09,0,0,0,961.8,949c0-75.88-54.71-99.26-138-99.26a13.41,13.41,0,0,1-1.39,0c-83.24,0-137.95,23.38-137.95,99.26a214.64,214.64,0,0,0,5.6,46.07" transform="translate(-426.31 -676.05)"/><path class="cls-9" d="M739.83,727.84c-4.73-2.53-11.39-10-14.16-13-8.59-9.18-9.19-23.64-.68-31.6s22.71-6.59,31.48,2.79c4.07,4.35,8.08,11.64,10.37,19" transform="translate(-426.31 -676.05)"/><path class="cls-8" d="M739.83,727.84c-4.73-2.53-11.39-10-14.16-13-8.59-9.18-9.19-23.64-.68-31.6s22.71-6.59,31.48,2.79c4.07,4.35,8.08,11.64,10.37,19" transform="translate(-426.31 -676.05)"/><path class="cls-9" d="M905.53,727.84c4.73-2.53,11.39-10,14.16-13,8.59-9.18,9.19-23.64.68-31.6s-22.71-6.59-31.48,2.79c-4.07,4.35-8.08,11.64-10.37,19" transform="translate(-426.31 -676.05)"/><path class="cls-8" d="M905.53,727.84c4.73-2.53,11.39-10,14.16-13,8.59-9.18,9.19-23.64.68-31.6s-22.71-6.59-31.48,2.79c-4.07,4.35-8.08,11.64-10.37,19" transform="translate(-426.31 -676.05)"/><path class="cls-10" d="M941.63,793.74c20.34,50.81-53,93.59-118.29,93.59s-140-43.28-118.28-93.59C730,736,758,683.07,823.34,683.07S919,737.34,941.63,793.74" transform="translate(-426.31 -676.05)"/><path class="cls-8" d="M941.63,793.74c20.34,50.81-53,93.59-118.29,93.59s-140-43.28-118.28-93.59C730,736,758,683.07,823.34,683.07S919,737.34,941.63,793.74Z" transform="translate(-426.31 -676.05)"/><g class="cls-11"><g class="cls-12"><path class="cls-13" d="M823.34,863.75c-38.54,0-80.36-9.6-103.42-27.68,11.46,27.31,59.82,45,103.39,45s91.28-17.5,102.92-44.91c-22.94,18.08-64.32,27.57-102.9,27.57" transform="translate(-426.31 -676.05)"/></g></g><path class="cls-7" d="M820.36,768.28c-40-12.47-72.64,32.42-107.07,5.59,3.6-7.63.06,0,.06,0,21.87-48.64,52.3-90.83,109.9-90.83h-.19c57.6,0,88,42.19,109.9,90.83,0,0-3.55-7.66.06,0-34.42,26.83-67.07-18.06-107.07-5.59Z" transform="translate(-426.31 -676.05)"/><path class="cls-8" d="M820.36,768.28c-40-12.47-72.64,32.42-107.07,5.59,3.6-7.63.06,0,.06,0,21.87-48.64,52.3-90.83,109.9-90.83h-.19c57.6,0,88,42.19,109.9,90.83,0,0-3.55-7.66.06,0-34.42,26.83-67.07-18.06-107.07-5.59Z" transform="translate(-426.31 -676.05)"/><line class="cls-8" x1="394.94" y1="101.04" x2="394.94" y2="116.35"/><path class="cls-14" d="M820.8,779.47c-5,0-18.82-8.56-19.44-19.44s12-12.75,20-12.75,20.37,1.87,19.75,12.75-15.35,19.44-20.35,19.44" transform="translate(-426.31 -676.05)"/><path class="cls-14" d="M756.37,757.87c9.35,8.1,25.48,4.8,36-7.37s11.53-28.61,2.18-36.72-25.48-4.8-36,7.37-11.53,28.61-2.18,36.72" transform="translate(-426.31 -676.05)"/><path class="cls-15" d="M788,723.93s-10.09-8.58-18.08,1.61" transform="translate(-426.31 -676.05)"/><path class="cls-14" d="M890.79,757.87c-9.35,8.1-25.48,4.8-36-7.37s-11.53-28.61-2.18-36.72,25.48-4.8,36,7.37,11.53,28.61,2.18,36.72" transform="translate(-426.31 -676.05)"/><path class="cls-15" d="M859.15,723.93s10.09-8.58,18.08,1.61" transform="translate(-426.31 -676.05)"/><path class="cls-16" d="M918.35,686.85s7.18,12.57-16.16,29.33a22.16,22.16,0,0,1,4.79,6.58s25.74-18.55,11.37-35.91" transform="translate(-426.31 -676.05)"/><path class="cls-16" d="M733.74,682.44s15.47-.77,23.46,21.14a17.88,17.88,0,0,0,3.61-3.1s-7.74-22.95-27.07-18" transform="translate(-426.31 -676.05)"/><path class="cls-7" d="M920,858.58s112.43,30.1,108.39,133.79l-68.1,3.86c-.85-16.5-1.73-47.09-1.73-47.09" transform="translate(-426.31 -676.05)"/><path class="cls-8" d="M920,858.58s112.43,30.1,108.39,133.79l-68.1,3.86c-.85-16.5-1.73-47.09-1.73-47.09" transform="translate(-426.31 -676.05)"/><path class="cls-17" d="M814.7,890.93s39.31,67.59,191.6,32.65c-2.51-4.09-5.78-7.92-8.33-12.08-41.2-11.23-183.27-20.57-183.27-20.57" transform="translate(-426.31 -676.05)"/><path class="cls-18" d="M917.17,858.58s43.13,5.08,80.8,49.68c-35.72,10.21-160.43,21-180.84-20.87,36.76-.15,79.58-15.49,100-28.82" transform="translate(-426.31 -676.05)"/><path class="cls-8" d="M917.17,858.58s43.13,5.08,80.8,49.68c-35.72,10.21-160.43,21-180.84-20.87C853.9,887.25,896.72,871.9,917.17,858.58Z" transform="translate(-426.31 -676.05)"/><path class="cls-18" d="M871.75,898.68s-26.78,3.93-55.35-10" transform="translate(-426.31 -676.05)"/><path class="cls-8" d="M871.75,898.68s-26.78,3.93-55.35-10" transform="translate(-426.31 -676.05)"/><path class="cls-18" d="M786.3,834.48s8.36-9.16,34.81-9.16,34.81,9.74,34.81,9.74-36.15,24.79-69.62-.58" transform="translate(-426.31 -676.05)"/><path class="cls-8" d="M820.36,846.2c-46.66,0-74-39.64-61.39-48S802.49,793,820.36,793s48.77-3.22,61.38,5.17S867,846.2,820.36,846.2Z" transform="translate(-426.31 -676.05)"/><path class="cls-7" d="M669.18,945.18s11,1.48,11.85,1.56c0-2.09,6-3.44,7,.31l30.39,4.68,1.46-45.91-43.57-4.31Z" transform="translate(-426.31 -676.05)"/><path class="cls-17" d="M829.15,891s-38.36,67.53-190.65,32.59c2.51-4.09,5.78-7.92,8.33-12.08C688,900.27,829.15,891,829.15,891" transform="translate(-426.31 -676.05)"/><path class="cls-18" d="M727.63,858.58s-43.13,5.08-80.8,49.68c35.72,10.21,160.43,21,180.84-20.87-36.76-.15-79.58-15.49-100-28.82" transform="translate(-426.31 -676.05)"/><path class="cls-8" d="M727.63,858.58s-43.13,5.08-80.8,49.68c35.72,10.21,160.43,21,180.84-20.87C790.91,887.25,748.08,871.9,727.63,858.58Z" transform="translate(-426.31 -676.05)"/><path class="cls-18" d="M773.05,898.68s26.78,3.93,55.35-10" transform="translate(-426.31 -676.05)"/><path class="cls-8" d="M773.05,898.68s26.78,3.93,55.35-10" transform="translate(-426.31 -676.05)"/><path class="cls-9" d="M608.56,999.79c-1.43,30,100.69,34.75,84.53-15.5-23.94-46.65-85.1-6.72-84.53,15.5" transform="translate(-426.31 -676.05)"/><path class="cls-8" d="M608.56,999.79c-1.43,30,100.69,34.75,84.53-15.5C669.15,937.64,608,977.57,608.56,999.79Z" transform="translate(-426.31 -676.05)"/><line class="cls-8" x1="241.83" y1="327.04" x2="242.76" y2="343.92"/><line class="cls-8" x1="220.15" y1="330.13" x2="220.16" y2="344.42"/><path class="cls-9" d="M1036.24,999.79c1.43,30-100.69,34.75-84.54-15.5,23.94-46.65,85.1-6.72,84.54,15.5" transform="translate(-426.31 -676.05)"/><path class="cls-8" d="M1036.24,999.79c1.43,30-100.69,34.75-84.54-15.5C975.65,937.64,1036.81,977.57,1036.24,999.79Z" transform="translate(-426.31 -676.05)"/><line class="cls-8" x1="550.36" y1="327.04" x2="549.43" y2="343.92"/><line class="cls-8" x1="572.04" y1="330.13" x2="572.02" y2="344.42"/><path class="cls-19" d="M918.47,862.39s38.93,15.6,56.93,46.87c8-1.3,16.32-3,16.32-3s-33.54-37.46-73.25-43.84" transform="translate(-426.31 -676.05)"/></g></g></g></g></g></svg>