<svg id="Layer_1" data-name="Layer 1" xmlns="http://www.w3.org/2000/svg" xmlns:xlink="http://www.w3.org/1999/xlink" viewBox="0 0 1673.9 1105.09"><defs><style>.cls-1,.cls-11,.cls-9{fill:none;}.cls-2{clip-path:url(#clip-path);}.cls-3{fill:#5dbc68;}.cls-4{fill:#9ddcf9;}.cls-5{clip-path:url(#clip-path-2);}.cls-6{fill:#3a9948;}.cls-7{fill:#d2587e;}.cls-8{fill:#f5f19a;}.cls-9{stroke:#ae275f;stroke-linecap:square;stroke-width:1.98px;}.cls-11,.cls-9{stroke-miterlimit:10;}.cls-10{fill:#4e5064;}.cls-11{stroke:#4e5064;stroke-linecap:round;stroke-width:0.85px;}.cls-12{fill:#84c98b;}.cls-13{fill:#2f8a47;}</style><clipPath id="clip-path"><polyline class="cls-1" points="1673.9 1105.09 1673.9 0 0 0 0 1105.09"/></clipPath><clipPath id="clip-path-2"><polyline class="cls-1" points="0 1105.09 0 0 1673.9 0 1673.9 1105.09"/></clipPath></defs><title>panda-bg</title><g class="cls-2"><rect class="cls-3" y="826.19" width="1673.9" height="278.9"/><rect class="cls-4" width="1673.9" height="835.62"/><g class="cls-5"><path class="cls-6" d="M149,868.54c-7.67,7.19-16.68,13.44-27,15.52s-22.06-.71-28.62-8.92-5.88-22,2.77-28c-15.31-5.26-20.34-28.42-8.6-39.56,3.51-3.33,8.07-5.62,10.84-9.58,2.16-3.09,3-6.89,4.77-10.22a21.35,21.35,0,0,1,19.44-11.09c4.08.2,8.08,1.59,12.15,1.34,5.41-.32,10.17-3.44,15-5.81,12.47-6.07,30.25-6,37.35,5.9,11.65-6.13,26.46-8.21,37.73-1.42s15.81,24.35,6.5,33.66c11.35,2.12,20.49,12.83,20.8,24.37s-8.26,22.72-19.49,25.43c5.68,2.31,13.37,15.57.48,24-9.43,6.14-24.12,4-38.83,4.87a16.89,16.89,0,0,0-8.44-1.5c-3.42.24-10.47.25-13.78,1.12-5.2,1.36-6.57,1-10-3.18S157,876,155.4,870.92"/><path class="cls-3" d="M111.84,884.57c-3-2.63-3-3-5-6.41s-2.67-7.85-.85-11.37c2.05-4,6.91-6.2,8.19-10.49a16.84,16.84,0,0,0,.2-5.92c-.5-7.57,1.37-16.28,8-20,6.9-3.95,15.6-.73,22.55,3.13a4.79,4.79,0,0,0,2.45.83,5.1,5.1,0,0,0,2.93-1.68c5.27-4.72,12.43-7.67,19.45-6.72s13.54,6.37,14.62,13.37A12.26,12.26,0,0,1,199,858.45c-1,1.06-2.21,2-2.58,3.44-.51,2,.87,3.86,1.51,5.79,1.37,4.11-.78,8.76-4.13,11.52s-7.66,4-11.88,5c-22.35,5.34-41.75,6.25-64.33,2"/><path class="cls-6" d="M308.7,877.81c-4.67-3.82-9.49-7.82-12-13.29s-2.06-12.84,2.72-16.51c1.64-1.25,3.78-2.14,4.55-4.06.86-2.15-.41-4.48-1.27-6.63a19.41,19.41,0,0,1,25.8-25c1.72.76,3.44,1.79,5.32,1.68,2.85-.16,4.81-2.78,6.77-4.85a24.27,24.27,0,0,1,41.84,18.45c5.44-.36,11-.7,16.23.84s10.12,5.37,11.36,10.67c2,8.43-5.49,15.86-12.27,21.23,5.08,3,10.85,7.33,10.37,13.24-.29,3.63-3,6.61-5.92,8.78a32.29,32.29,0,0,1-21.74,6.14c-3.58-.31-7.15-1.22-10.73-.83-9.67,1.07-26.46,1.28-36-.76"/><path class="cls-3" d="M353.32,886.94c3-2.63,6-5.33,7.92-8.78s2.67-7.85.85-11.37c-2.05-4-6.91-6.2-8.2-10.49a16.84,16.84,0,0,1-.2-5.92c.5-7.57-1.37-16.28-8-20-6.9-3.95-15.6-.73-22.55,3.13a4.8,4.8,0,0,1-2.45.83,5.11,5.11,0,0,1-2.93-1.68c-5.27-4.72-12.43-7.67-19.45-6.72s-13.54,6.37-14.62,13.37A12.26,12.26,0,0,0,269,858.45c1,1.06,2.21,2,2.58,3.44.51,2-.87,3.86-1.51,5.79-1.37,4.11.78,8.76,4.13,11.52s7.66,4,11.88,5a164.6,164.6,0,0,0,68.41,1.68"/><polyline class="cls-7" points="345.32 667.94 346.02 810.71 364.4 810.71 359.45 667.24"/><polyline class="cls-8" points="343.9 887.75 346.02 810.71 364.4 810.71 367.23 888.46"/><polyline class="cls-7" points="187.85 667.94 187.14 810.71 168.76 810.71 173.71 667.24"/><polyline class="cls-8" points="189.59 887.75 187.14 810.71 168.76 810.71 166.11 888.38"/><polyline class="cls-9" points="171.43 722.59 111.97 722.59 116.93 705.25 170.81 705.25"/><line class="cls-9" x1="344.44" y1="722.59" x2="189.12" y2="722.59"/><polyline class="cls-9" points="362.07 705.25 416.06 705.25 421.01 722.59 363.43 722.59"/><line class="cls-9" x1="282.29" y1="705.25" x2="344.44" y2="705.25"/><line class="cls-9" x1="187.53" y1="705.25" x2="252.56" y2="705.25"/><path class="cls-7" d="M264.95,670.57c129.44,0,180.22-15.48,180.22-15.48l4.34-24.15s-27.87,22.3-183.94,22.3h.62c-156.07,0-183.94-22.3-183.94-22.3l4.33,24.15s50.78,15.48,180.22,15.48Z"/><line class="cls-9" x1="189.12" y1="688.19" x2="253.05" y2="688.19"/><line class="cls-9" x1="281.76" y1="688.19" x2="344.55" y2="688.19"/><rect class="cls-10" x="245.31" y="679.74" width="44.22" height="34.27"/><rect class="cls-8" x="251.61" y="686.06" width="31.45" height="22.38"/><path class="cls-11" d="M130.74,840.35s4.14,24.14,19,38.63"/><path class="cls-11" d="M116.6,868.28s12.42,7.24,23.45-2.07"/><path class="cls-11" d="M140.75,843.45s1.72,6.21-6.21,11"/><path class="cls-11" d="M120.4,792.75s.69,20,9.66,30"/><path class="cls-11" d="M99.7,815.51s11,10.69,24.83-1"/><path class="cls-11" d="M130.74,793.44s3.45,8.62-8.62,10.35"/><path class="cls-11" d="M215.25,796.54s-2.07,17.59-17.59,26.9"/><path class="cls-11" d="M203.18,800.33s-6.69,9,2.27,14.49"/><path class="cls-11" d="M294.58,841s4.14,24.49,30,37.25"/><path class="cls-11" d="M307,843.79a10.89,10.89,0,0,1-6.55,11"/><path class="cls-11" d="M285.61,867.94s13.11,7.93,24.49,1"/><path class="cls-11" d="M390.46,840a159.1,159.1,0,0,1-16.21,13.11"/><path class="cls-11" d="M375.63,836.55a29.89,29.89,0,0,0,4.83,11.38"/><line class="cls-11" x1="401.93" y1="644.71" x2="401.93" y2="657.66"/><line class="cls-11" x1="375.32" y1="648.99" x2="375.32" y2="659.87"/><line class="cls-11" x1="348.71" y1="651.2" x2="348.71" y2="662.09"/><line class="cls-11" x1="322.1" y1="653.41" x2="322.1" y2="662.08"/><line class="cls-11" x1="295.5" y1="653.41" x2="295.5" y2="664.3"/><line class="cls-11" x1="268.89" y1="653.41" x2="268.89" y2="664.3"/><line class="cls-11" x1="242.28" y1="653.41" x2="242.28" y2="664.3"/><line class="cls-11" x1="215.68" y1="653.41" x2="215.68" y2="662.08"/><line class="cls-11" x1="189.07" y1="651.2" x2="189.07" y2="662.09"/><line class="cls-11" x1="162.46" y1="648.99" x2="162.46" y2="659.87"/><line class="cls-11" x1="135.85" y1="646.78" x2="135.85" y2="657.66"/><path class="cls-12" d="M1515.51,1206.58h0s7.19-1.95,7.66-10.85-6.49-11.35-6.49-11.35l4.29-82-19.75-1-4.29,82s-7.16,1.38-7.64,10.61,6.48,11.59,6.48,11.59"/><path class="cls-13" d="M1513.24,1102l7.72.4-4.29,82s7,2.45,6.49,11.35-7.66,10.85-7.66,10.85l-7.72-.4Z"/><path class="cls-12" d="M1520.42,1104.1h0s7.11-2.2,7.26-11.12-6.9-11.11-6.9-11.11l1.34-82.11-19.77-.32-1.34,82.11s-7.11,1.64-7.26,10.88,6.89,11.35,6.89,11.35"/><path class="cls-13" d="M1514.39,999.63l7.73.13-1.34,82.11s7,2.2,6.9,11.11-7.26,11.12-7.26,11.12l-7.73-.13Z"/><path class="cls-12" d="M1521.62,1001.75h0s7.07-2.33,7.06-11.25-7.09-11-7.09-11l-.12-82.12-19.77,0,.13,82.12s-7.08,1.76-7.06,11,7.1,11.23,7.1,11.23"/><path class="cls-13" d="M1513.73,897.4h7.73l.12,82.12s7.08,2.07,7.1,11-7.06,11.25-7.06,11.25h-7.73Z"/><path class="cls-12" d="M1521.9,901.6h0s7-2.51,6.78-11.42-7.37-10.81-7.37-10.81l-2.18-82.1-19.77.52,2.18,82.1s-7,1.94-6.79,11.18,7.37,11,7.37,11"/><path class="cls-13" d="M1511.4,797.48l7.73-.2,2.18,82.1s7.13,1.9,7.37,10.81-6.78,11.42-6.78,11.42l-7.73.2Z"/><path class="cls-3" d="M1518.74,801.17h0s7-2.51,6.78-11.42-7.37-10.81-7.37-10.81l-2.18-82.1-19.77.52,2.18,82.1s-7,1.94-6.79,11.18,7.37,11,7.37,11"/><path class="cls-13" d="M1508.24,697.05l7.73-.2,2.18,82.1s7.13,1.89,7.37,10.81-6.78,11.42-6.78,11.42l-7.73.2Z"/><path class="cls-3" d="M1515.93,699h0s7-2.51,6.78-11.42-7.37-10.81-7.37-10.81l-2.18-82.1-19.77.52,2.18,82.1s-7,1.94-6.79,11.18,7.37,11,7.37,11"/><path class="cls-13" d="M1505.44,594.87l7.73-.2,2.18,82.1s7.13,1.89,7.37,10.81-6.78,11.42-6.78,11.42l-7.73.2Z"/><path class="cls-3" d="M1512.94,596.19h0s6.9-2.81,6.27-11.71-7.84-10.47-7.84-10.47l-5.8-81.92-19.72,1.4,5.8,81.92s-6.94,2.25-6.29,11.47,7.85,10.71,7.85,10.71"/><path class="cls-13" d="M1497.86,492.63l7.71-.55,5.8,81.92s7.21,1.58,7.84,10.47-6.27,11.71-6.27,11.71l-7.71.55Z"/><path class="cls-3" d="M1504.47,493h0s6.9-2.81,6.27-11.71-7.84-10.47-7.84-10.47l-5.8-81.92-19.72,1.4,5.8,81.92s-6.94,2.25-6.28,11.47,7.85,10.71,7.85,10.71"/><path class="cls-13" d="M1489.39,389.42l7.71-.55,5.8,81.92s7.21,1.58,7.84,10.47-6.27,11.71-6.27,11.71l-7.71.55Z"/><path class="cls-3" d="M1496.38,389.54h0s6.77-3.11,5.75-12-8.29-10.12-8.29-10.12l-9.39-81.59-19.64,2.26,9.39,81.59s-6.83,2.55-5.77,11.74,8.32,10.35,8.32,10.35"/><path class="cls-13" d="M1476.76,286.75l7.68-.88,9.39,81.59s7.27,1.26,8.29,10.12-5.75,12-5.75,12l-7.68.88Z"/><path class="cls-3" d="M1485.32,288.91h0s6.77-3.11,5.75-12-8.29-10.12-8.29-10.12l-9.39-81.59-19.64,2.26,9.39,81.59s-6.83,2.55-5.77,11.74,8.32,10.35,8.32,10.35"/><path class="cls-13" d="M1465.71,186.12l7.68-.88,9.39,81.59s7.27,1.26,8.29,10.12-5.75,12-5.75,12l-7.68.88Z"/><path class="cls-3" d="M1474,187.47h0s6.68-3.3,5.42-12.12-8.56-9.89-8.56-9.89l-11.61-81.3-19.57,2.8,11.61,81.3s-6.76,2.74-5.45,11.89,8.6,10.12,8.6,10.12"/><path class="cls-13" d="M1451.55,85.25l7.65-1.09,11.61,81.3s7.3,1.06,8.56,9.89-5.42,12.12-5.42,12.12l-7.65,1.09Z"/><path class="cls-3" d="M1460,85h0s6.68-3.3,5.42-12.12-8.56-9.89-8.56-9.89l-11.61-81.3-19.57,2.8,11.61,81.3s-6.76,2.74-5.45,11.89,8.6,10.12,8.6,10.12"/><path class="cls-13" d="M1437.56-17.23l7.65-1.09L1456.83,63s7.3,1.06,8.56,9.89S1460,85,1460,85l-7.66,1.09Z"/><path class="cls-13" d="M1423,1192.62h0s-6.73-3.19-5.6-12,8.41-10,8.41-10l10.37-81.47,19.61,2.5-10.37,81.47s6.8,2.63,5.63,11.81-8.44,10.25-8.44,10.25"/><path class="cls-12" d="M1443.82,1090.07l-7.67-1-10.37,81.47s-7.28,1.17-8.41,10,5.6,12,5.6,12l7.67,1Z"/><path class="cls-13" d="M1436.37,1090.91h0s-6.61-3.44-5.17-12.23S1440,1069,1440,1069l13.3-81,19.51,3.2-13.3,81s6.7,2.88,5.2,12-8.8,9.94-8.8,9.94"/><path class="cls-12" d="M1460.9,989.18l-7.63-1.25-13.3,81s-7.32.91-8.77,9.71,5.17,12.23,5.17,12.23l7.63,1.25Z"/><path class="cls-13" d="M1453.4,990h0s-6.55-3.55-4.95-12.32,8.94-9.55,8.94-9.55l14.74-80.79,19.45,3.55-14.74,80.79s6.65,3,5,12.09-9,9.78-9,9.78"/><path class="cls-12" d="M1479.73,888.7l-7.61-1.39-14.74,80.79s-7.34.78-8.94,9.55S1453.4,990,1453.4,990l7.61,1.39Z"/><path class="cls-13" d="M1470.95,891.37h0s-6.46-3.71-4.64-12.44,9.17-9.33,9.17-9.33l16.75-80.4,19.36,4-16.75,80.4s6.57,3.16,4.69,12.21-9.22,9.55-9.22,9.55"/><path class="cls-12" d="M1499.81,790.78l-7.57-1.58-16.75,80.4s-7.36.6-9.17,9.33,4.64,12.44,4.64,12.44l7.57,1.58Z"/><path class="cls-13" d="M1491.93,793.11h0s-6.46-3.71-4.64-12.44,9.17-9.32,9.17-9.32l16.75-80.4,19.36,4-16.75,80.4s6.57,3.16,4.69,12.21-9.22,9.56-9.22,9.56"/><path class="cls-12" d="M1520.79,692.52l-7.57-1.58-16.75,80.4s-7.35.6-9.17,9.33,4.64,12.44,4.64,12.44l7.57,1.58Z"/><path class="cls-13" d="M1512.88,693.06h0s-6.46-3.71-4.64-12.44,9.17-9.32,9.17-9.32l16.75-80.4,19.36,4-16.75,80.4s6.57,3.16,4.69,12.21-9.22,9.56-9.22,9.56"/><path class="cls-3" d="M1541.74,592.47l-7.57-1.58-16.75,80.4s-7.35.6-9.17,9.33,4.64,12.44,4.64,12.44l7.57,1.58Z"/><path class="cls-13" d="M1534.12,592.43h0s-6.29-4-4.08-12.64,9.58-8.91,9.58-8.91l20.28-79.58,19.16,4.88-20.28,79.58s6.43,3.45,4.14,12.41-9.63,9.14-9.63,9.14"/><path class="cls-3" d="M1567.38,493.21l-7.49-1.91-20.28,79.58s-7.37.27-9.58,8.91,4.08,12.64,4.08,12.64l7.49,1.91Z"/><path class="cls-13" d="M1560.83,492.38h0s-6.29-4-4.09-12.64,9.58-8.91,9.58-8.91l20.28-79.58,19.16,4.88-20.28,79.58s6.43,3.45,4.14,12.41-9.63,9.14-9.63,9.14"/><path class="cls-3" d="M1594.09,393.16l-7.49-1.91-20.28,79.58s-7.37.27-9.58,8.91,4.08,12.64,4.08,12.64l7.49,1.91Z"/><path class="cls-13" d="M1587.19,392h0s-6.1-4.27-3.52-12.8,10-8.48,10-8.48l23.76-78.61,18.93,5.72-23.76,78.61s6.27,3.73,3.59,12.58-10,8.71-10,8.71"/><path class="cls-3" d="M1624.79,294.37l-7.4-2.24-23.76,78.61s-7.38-.05-10,8.48,3.52,12.8,3.52,12.8l7.4,2.24Z"/><path class="cls-13" d="M1616,295h0s-6.1-4.27-3.53-12.8,10-8.48,10-8.48l23.76-78.61,18.93,5.72-23.76,78.61s6.27,3.72,3.59,12.58-10,8.71-10,8.71"/><path class="cls-3" d="M1653.58,197.31l-7.4-2.24-23.76,78.61s-7.38-.05-10,8.48S1616,295,1616,295l7.4,2.24Z"/><path class="cls-13" d="M1645.21,197.17h0s-6-4.43-3.18-12.89,10.19-8.21,10.19-8.21l25.89-77.94,18.77,6.23L1671,182.3s6.17,3.9,3.25,12.67S1664,203.4,1664,203.4"/><path class="cls-3" d="M1685.45,100.57l-7.34-2.44-25.89,77.94s-7.37-.26-10.19,8.21,3.18,12.89,3.18,12.89l7.34,2.44Z"/><path class="cls-3" d="M1677.22,98.82h0s-6-4.43-3.18-12.89,10.19-8.21,10.19-8.21L1710.12-.22,1728.88,6,1703,84s6.17,3.9,3.25,12.67-10.26,8.43-10.26,8.43"/><path class="cls-13" d="M1717.46,2.22l-7.34-2.44-25.89,77.94s-7.37-.26-10.19,8.21,3.17,12.89,3.17,12.89l7.34,2.44Z"/><path class="cls-13" d="M1476.84,572.43s-29.85-30.73-98.92-15.79c49.46,48.19,98.92,15.79,98.92,15.79"/><path class="cls-13" d="M1439.63,176.92s-23.28-24-77.17-12.32c38.58,37.6,77.17,12.32,77.17,12.32"/><path class="cls-13" d="M1475.19,591.31s-26.36-5.83-57.54,26c42.74,8.23,57.54-26,57.54-26"/><path class="cls-13" d="M1508.65,380.09s32.2,10.64,75.21-25.14c-52.36-15.72-75.21,25.14-75.21,25.14"/><path class="cls-13" d="M1544.51,677.83s24.62,8.14,57.51-19.22c-40-12-57.51,19.22-57.51,19.22"/><path class="cls-13" d="M1549.67,687.41s11.45,18.39,47.19,18.41c-19.27-29.12-47.19-18.41-47.19-18.41"/><path class="cls-13" d="M1502.41,364.56s26.07-7,39-49.64c-41.7,12.47-39,49.64-39,49.64"/></g></g></svg>