<svg fill="#36a9e0" height="48px" viewBox="-6 0 512 512" width="48px" xmlns="http://www.w3.org/2000/svg"><path d="m196.722656 96.191406-3.667968 21.375c-1.675782 9.769532 2.265624 19.453125 10.28125 25.277344 8.019531 5.828125 18.445312 6.578125 27.214843 1.96875l19.195313-10.09375 19.199218 10.09375c10.621094 5.53125 19.050782 2.277344 22.351563.828125 7.214844-3.171875 12.707031-9.550781 14.6875-17.054687 1.058594-4.007813-1.328125-8.109376-5.335937-9.167969-4.007813-1.0625-8.109376 1.328125-9.164063 5.335937-.828125 3.128906-3.15625 5.804688-6.226563 7.15625-1.753906.769532-5.296874 1.746094-9.332031-.375l-22.6875-11.925781c-2.1875-1.148437-4.796875-1.148437-6.980469 0l-22.6875 11.925781c-3.734374 1.964844-8.003906 1.65625-11.421874-.824218-3.414063-2.480469-5.023438-6.445313-4.3125-10.605469l4.332031-25.261719c.417969-2.433594-.386719-4.917969-2.15625-6.640625l-18.355469-17.890625c-3.019531-2.945312-4.046875-7.101562-2.742188-11.113281 1.304688-4.015625 4.578126-6.773438 8.753907-7.382813l25.363281-3.683594c2.445312-.355468 4.554688-1.890624 5.648438-4.105468l11.34375-22.980469c1.871093-3.785156 5.503906-6.046875 9.722656-6.046875 4.222656 0 7.855468 2.261719 9.726562 6.042969l11.34375 22.984375c1.089844 2.214844 3.203125 3.75 5.644532 4.105468l25.363281 3.683594c4.179687.609375 7.449219 3.367188 8.753906 7.378906 1.304687 4.015626.28125 8.171876-2.742187 11.117188l-18.355469 17.890625c-2.964844 2.890625-3.023438 7.640625-.132813 10.605469s7.640625 3.027344 10.605469.136718l18.351563-17.890624c7.097656-6.917969 9.601562-17.070313 6.539062-26.492188-3.0625-9.425781-11.054688-16.164062-20.859375-17.589844l-21.464844-3.117187-9.597656-19.449219c-4.386719-8.886719-13.265625-14.40625-23.175781-14.40625-9.90625 0-18.785156 5.519531-23.171875 14.40625l-9.597657 19.449219-21.464843 3.117187c-9.808594 1.425782-17.800781 8.164063-20.863281 17.589844-3.058594 9.421875-.554688 19.574219 6.539062 26.492188zm0 0"/><path d="m228.726562 333.953125 6.308594-4.828125v46.175781c0 13.222657 10.757813 23.980469 23.980469 23.980469 13.226563 0 23.980469-10.757812 23.980469-23.980469v-94.726562c0-9.191407-5.117188-17.429688-13.359375-21.503907-8.242188-4.066406-17.894531-3.125-25.195313 2.460938l-44.863281 34.328125c-10.5 8.039063-12.503906 23.121094-4.46875 33.621094 8.03125 10.5 23.113281 12.503906 33.617187 4.472656zm-20.03125-26.179687 44.863282-34.332032c2.730468-2.089844 6.351562-2.441406 9.433594-.917968 3.085937 1.523437 5.003906 4.609374 5.003906 8.050781v94.726562c0 4.953125-4.027344 8.980469-8.980469 8.980469s-8.980469-4.027344-8.980469-8.980469v-61.359375c0-2.855468-1.621094-5.460937-4.179687-6.726562-1.050781-.519532-4.945313-1.589844-7.878907.769531l-18.363281 14.054687c-3.933593 3.007813-9.585937 2.257813-12.59375-1.675781-3.007812-3.929687-2.257812-9.578125 1.675781-12.589843zm0 0"/><path d="m124.988281 179.507812c4.925781 4.925782 21.859375 13.644532 35.71875 0 9.566407-9.414062 9.847657-25.871093 0-35.71875l-42.660156-42.65625c-4.769531-4.773437-21.617187-14.558593-35.714844 0-15.386719 15.882813-4.773437 30.945313-.003906 35.714844zm-32.050781-67.769531c5.460938-5.359375 12.566406-1.9375 14.503906 0l42.660156 42.660157c3.996094 4 3.996094 10.503906 0 14.503906-4 4-10.503906 4-14.503906 0l-42.660156-42.660156c-1.9375-1.9375-5.460938-9.144532 0-14.503907zm0 0"/><path d="m374.507812 179.507812 42.65625-42.65625c4.773438-4.773437 15.28125-21.335937 0-35.71875-15.503906-14.597656-30.945312-4.769531-35.714843 0l-42.660157 42.660157c-9.847656 9.847656-10.382812 26.511719 0 35.714843 16.089844 14.269532 30.792969 4.925782 35.71875 0zm-25.113281-25.109374 42.660157-42.660157c1.9375-1.9375 8.914062-5.277343 14.503906 0 5.589844 5.277344 1.9375 12.566407 0 14.503907l-42.660156 42.660156c-4 3.996094-10.503907 3.996094-14.503907 0-3.996093-4-4-10.503906 0-14.503906zm0 0"/><path d="m437.417969 328.355469h-77.269531v-73.714844c0-31.140625-25.332032-56.472656-56.472657-56.472656h-107.859375c-31.136718 0-56.46875 25.332031-56.46875 56.472656v22.621094h-82.875c-31.136718 0-56.472656 25.332031-56.472656 56.472656v134.972656c0 23.871094 19.421875 43.292969 43.292969 43.292969h417.34375c21.429687 0 38.859375-17.429688 38.859375-38.855469v-82.710937c0-34.230469-27.847656-62.078125-62.078125-62.078125zm0 15c25.960937 0 47.078125 21.121093 47.078125 47.078125v52.277344h-124.347656v-99.355469zm-241.601563-130.1875h107.863282c22.867187 0 41.46875 18.605469 41.46875 41.472656v188.070313h-190.800782v-188.070313c0-22.867187 18.601563-41.472656 41.46875-41.472656zm-180.816406 255.539062v-10.996093h100.351562c4.144532 0 7.5-3.359376 7.5-7.5 0-4.144532-3.355468-7.5-7.5-7.5h-100.351562v-108.976563c0-22.867187 18.605469-41.472656 41.472656-41.472656h82.875v157.929687.019532.015624 46.773438h-96.054687c-15.601563 0-28.292969-12.691406-28.292969-28.292969zm139.347656 28.292969v-39.289062h190.800782v39.289062zm306.289063 0h-100.488281v-39.289062h124.347656v15.433593c0 13.152344-10.703125 23.855469-23.859375 23.855469zm0 0"/></svg>