<svg xmlns="http://www.w3.org/2000/svg" viewBox="0 0 164.46 157.58"><defs><style>.cls-1{fill:#3a9948;}.cls-2{fill:#fff;stroke:#4e5064;stroke-linejoin:round;stroke-width:3.69px;}.cls-2,.cls-3{stroke-linecap:round;}.cls-3{fill:none;stroke:#3a9948;stroke-miterlimit:10;stroke-width:1.42px;}</style></defs><title>program-1</title><g id="Layer_2" data-name="Layer 2"><g id="Layer_1-2" data-name="Layer 1"><circle class="cls-1" cx="85.67" cy="78.79" r="78.79"/><path class="cls-2" d="M97.15,138.07c6.89-.11,10.86-6.26,13.63-10.15s38.32-55,38.32-55C128,62.67,136.33,40.73,136.33,40.73L91.9,104S76.42,122.74,97.15,138.07Z"/><polyline class="cls-2" points="114.11 42.39 136.33 40.73 92.12 102.46 12.47 104.2"/><path class="cls-2" d="M97.15,138.07c-13-8.76-13.58-23.75-5-35l-.56-.09H19.44a17.6,17.6,0,0,0-17.6,17.6h0a17.6,17.6,0,0,0,17.6,17.6Z"/><path class="cls-2" d="M8.14,105.85l77.65-24.3s28.88-40.27,32.49-47.49a117.16,117.16,0,0,0,6.39-16.94S95.51,20.73,75,31.29,47.19,46.56,47.19,46.56L5.82,108.76"/><line class="cls-3" x1="95.79" y1="115.43" x2="129.39" y2="64.89"/><line class="cls-3" x1="98.69" y1="127.94" x2="134.66" y2="73.5"/><line class="cls-3" x1="15.81" y1="111.28" x2="72.18" y2="111.28"/><line class="cls-3" x1="15.26" y1="123.2" x2="18.84" y2="123.2"/><line class="cls-3" x1="45.09" y1="123.2" x2="76.07" y2="123.2"/><polyline class="cls-1" points="22.45 111.78 22.45 132.3 31.77 125.7 42.36 133.69 42.36 111.78"/><path class="cls-1" d="M28.76,90.07l26-37.29s17.93-10.57,29.61-15,26.11-9,26.11-9L79,73.56A474.33,474.33,0,0,0,28.76,90.07Z"/></g></g></svg>