<svg xmlns="http://www.w3.org/2000/svg" viewBox="0 0 157.58 166.98"><defs><style>.cls-1,.cls-8{fill:#27aae1;}.cls-2,.cls-4,.cls-5,.cls-9{fill:none;}.cls-2,.cls-3,.cls-4,.cls-5,.cls-8{stroke:#4e5064;}.cls-2,.cls-3,.cls-4,.cls-8,.cls-9{stroke-linecap:round;}.cls-2,.cls-5,.cls-9{stroke-miterlimit:10;stroke-width:1.42px;}.cls-3,.cls-6{fill:#fff;}.cls-3,.cls-4,.cls-8{stroke-linejoin:round;stroke-width:3.69px;}.cls-5{stroke-linecap:square;}.cls-7{fill:#4e5064;}.cls-9{stroke:#007dc5;}</style></defs><title>program-3</title><g id="Layer_2" data-name="Layer 2"><g id="Layer_1-2" data-name="Layer 1"><circle class="cls-1" cx="78.79" cy="81.81" r="78.79"/><path class="cls-2" d="M84.57,17a65.17,65.17,0,0,1,40.37,110.9"/><path class="cls-2" d="M44.81,139.58a65.56,65.56,0,0,1-25.17-28.1"/><path class="cls-2" d="M87.18,27.21a55.32,55.32,0,0,1,38.47,84"/><path class="cls-2" d="M49,131.14a55.05,55.05,0,0,1-19.32-20"/><path class="cls-2" d="M91.16,37.93a45.68,45.68,0,0,1,33.27,44"/><path class="cls-3" d="M68.35,131h34.16a19.7,19.7,0,0,1,19.7,19.7v8.89a0,0,0,0,1,0,0H48.65a0,0,0,0,1,0,0V150.7A19.7,19.7,0,0,1,68.35,131Z"/><line class="cls-4" x1="63.47" y1="125.18" x2="107.39" y2="125.18"/><line class="cls-5" x1="39.31" y1="166.27" x2="131.55" y2="166.27"/><path class="cls-6" d="M103.17,114.88c2.57-5.33,3-10.52,1.16-15.46C102,93.08,95.78,87.31,87.66,84A44,44,0,0,0,71,80.81c-14,0-28.82,6.13-44.06,18.24-3.94,3.13-6.38,3.78-7.74,3.78a3.33,3.33,0,0,1-3-1.83C11.9,94,15.69,69.2,28,44.81c12.8-25.32,31.25-43,39.8-43A3.7,3.7,0,0,1,70.68,3C71.75,4.11,73,6.74,72.6,12.87,70.7,46.49,87,65,94.07,71.34c18.59,16.73,17.83,29.44,15.72,35.52a14.54,14.54,0,0,1-6.53,8.24Z"/><path class="cls-7" d="M67.83,3.68a1.85,1.85,0,0,1,1.51.55c.54.57,1.77,2.56,1.43,8.52-2,34.42,14.79,53.39,22.08,60,13,11.7,18.54,23.93,15.21,33.55a15.74,15.74,0,0,1-1,2.3,20,20,0,0,0-1-9.77C102.47,88.95,92.48,84,88.35,82.31A45.86,45.86,0,0,0,71,79c-14.42,0-29.63,6.27-45.2,18.64C22,100.66,19.9,101,19.2,101h0c-.45,0-.89-.07-1.43-.95-4-6.58.18-31.24,11.9-54.4C41.61,22,60,3.68,67.83,3.68m0-3.68c-10,0-29.15,19.65-41.45,44-14.22,28.12-18.73,60.7-7.18,60.7,2.31,0,5.25-1.3,8.89-4.18C45.51,86.66,60,82.65,71,82.65a42.14,42.14,0,0,1,16,3.07c10.64,4.33,21.7,14.82,14.11,29.22.78,1.13.87,1.92.35,2.62C109.28,117,125,96.74,95.31,70,87.8,63.21,72.6,45.43,74.44,13,75,3.89,72.29,0,67.83,0Z"/><polyline class="cls-5" points="59.28 147.18 53.99 152.46 48.71 147.18"/><polyline class="cls-5" points="69.8 147.18 64.52 152.46 59.23 147.18"/><polyline class="cls-5" points="80.33 147.18 75.05 152.46 69.76 147.18"/><polyline class="cls-5" points="90.86 147.18 85.58 152.46 80.29 147.18"/><polyline class="cls-5" points="101.39 147.18 96.1 152.46 90.82 147.18"/><polyline class="cls-5" points="111.92 147.18 106.63 152.46 101.35 147.18"/><polyline class="cls-5" points="122.44 147.18 117.16 152.46 111.87 147.18"/><circle class="cls-8" cx="98.74" cy="108.43" r="8.29"/><circle class="cls-6" cx="98.74" cy="108.43" r="3.77"/><circle class="cls-7" cx="96.36" cy="143.8" r="1.34"/><circle class="cls-7" cx="106.63" cy="143.8" r="1.34"/><circle class="cls-7" cx="85.75" cy="143.8" r="1.34"/><circle class="cls-7" cx="75.07" cy="143.8" r="1.34"/><circle class="cls-7" cx="65.13" cy="143.8" r="1.34"/><line class="cls-2" x1="98.74" y1="116.82" x2="98.74" y2="121.43"/><path class="cls-9" d="M64,14.18s4.81,39.5-36.57,74.18"/><path class="cls-9" d="M51.77,45.67A96.86,96.86,0,0,1,39,67.32"/></g></g></svg>