<svg xmlns="http://www.w3.org/2000/svg" viewBox="0 0 176.01 157.58"><defs><style>.cls-1{fill:#8f499c;}.cls-2,.cls-3,.cls-5{fill:#fff;}.cls-2,.cls-3,.cls-5,.cls-7{stroke:#4e5064;}.cls-2,.cls-5,.cls-7{stroke-linecap:square;}.cls-2,.cls-3{stroke-linejoin:round;stroke-width:3.69px;}.cls-3,.cls-4{stroke-linecap:round;}.cls-4,.cls-7{fill:none;}.cls-4{stroke:#8f499c;}.cls-4,.cls-5,.cls-7{stroke-miterlimit:10;stroke-width:1.42px;}.cls-6{fill:#4e5064;}</style></defs><title>program-2</title><g id="Layer_2" data-name="Layer 2"><g id="Layer_1-2" data-name="Layer 1"><circle class="cls-1" cx="85.01" cy="78.79" r="78.79"/><rect class="cls-2" x="19.04" y="9.57" width="129.43" height="10.24"/><rect class="cls-2" x="28.92" y="9.52" width="109.67" height="139.14"/><polygon class="cls-2" points="7.3 23.3 19.04 19.81 19.04 9.57 7.3 6.08 7.3 23.3"/><polygon class="cls-2" points="160.13 23.3 148.39 19.81 148.39 9.57 160.13 6.08 160.13 23.3"/><line class="cls-3" x1="48.5" y1="27.34" x2="68.73" y2="27.34"/><line class="cls-3" x1="48.5" y1="40.34" x2="76.5" y2="40.34"/><line class="cls-3" x1="57.75" y1="20.03" x2="57.75" y2="46.53"/><line class="cls-3" x1="66.61" y1="34.38" x2="66.61" y2="46.53"/><line class="cls-3" x1="75.06" y1="106.1" x2="70.73" y2="106.1"/><line class="cls-3" x1="75.06" y1="112.3" x2="70.73" y2="112.3"/><line class="cls-3" x1="53.36" y1="106.1" x2="47.03" y2="106.1"/><line class="cls-3" x1="53.36" y1="112.3" x2="47.03" y2="112.3"/><line class="cls-3" x1="48.5" y1="119.1" x2="76.5" y2="119.1"/><line class="cls-3" x1="57.75" y1="98.79" x2="57.75" y2="125.29"/><line class="cls-3" x1="65.28" y1="98.79" x2="65.28" y2="125.29"/><line class="cls-3" x1="73.73" y1="67.72" x2="63.11" y2="67.72"/><line class="cls-3" x1="73.73" y1="61.85" x2="63.11" y2="61.85"/><line class="cls-3" x1="48.5" y1="79.72" x2="61.11" y2="79.72"/><line class="cls-3" x1="57.75" y1="59.41" x2="57.75" y2="85.91"/><line class="cls-3" x1="66.61" y1="73.76" x2="66.61" y2="85.91"/><line class="cls-3" x1="72.81" y1="73.76" x2="72.81" y2="85.91"/><line class="cls-4" x1="88.21" y1="24.75" x2="124.52" y2="24.75"/><line class="cls-4" x1="88.21" y1="30.95" x2="116.99" y2="30.95"/><line class="cls-4" x1="88.21" y1="37.59" x2="116.99" y2="37.59"/><line class="cls-4" x1="88.21" y1="63.07" x2="124.52" y2="63.07"/><line class="cls-4" x1="88.21" y1="69.27" x2="124.08" y2="69.27"/><line class="cls-4" x1="88.21" y1="75.91" x2="102.82" y2="75.91"/><line class="cls-4" x1="88.21" y1="101.38" x2="108.58" y2="101.38"/><line class="cls-4" x1="88.21" y1="107.58" x2="116.99" y2="107.58"/><line class="cls-4" x1="88.21" y1="114.22" x2="109.18" y2="114.22"/><rect class="cls-5" x="144.45" y="41.55" width="6.5" height="86.09" transform="matrix(0.82, 0.57, -0.57, 0.82, 75.08, -69.35)"/><path class="cls-6" d="M126.55,120.72a12.54,12.54,0,0,1-1.91,8.9c-4,5.79-14.58,8.79-14.58,8.79l.12.08s-.8-10.93,3.24-16.72a12.54,12.54,0,0,1,7.7-4.86Z"/><rect class="cls-1" x="121.07" y="113.63" width="7.81" height="6.93" transform="translate(89.6 -50.47) rotate(34.94)"/><line class="cls-7" x1="19.62" y1="19.54" x2="19.62" y2="77.91"/><circle class="cls-2" cx="19.62" cy="76.98" r="17.77"/><circle class="cls-1" cx="19.62" cy="76.98" r="9.51"/></g></g></svg>