<svg xmlns="http://www.w3.org/2000/svg" viewBox="0 0 169.82 157.58"><defs><style>.cls-1{fill:#d2587e;}.cls-2,.cls-3,.cls-6{fill:#fff;}.cls-2,.cls-6{stroke:#d2587e;}.cls-2,.cls-4,.cls-6{stroke-miterlimit:10;stroke-width:1.42px;}.cls-3,.cls-4{stroke:#4e5064;}.cls-3{stroke-linecap:square;stroke-linejoin:round;stroke-width:3.69px;}.cls-4{fill:none;}.cls-4,.cls-6{stroke-linecap:round;}.cls-5{fill:#4e5064;}</style></defs><title>program-4</title><g id="Layer_2" data-name="Layer 2"><g id="Layer_1-2" data-name="Layer 1"><circle class="cls-1" cx="84.27" cy="78.79" r="78.79"/><path class="cls-2" d="M32,124c-3.47,3.25-7.55,6.08-12.21,7s-10-.32-12.95-4-2.66-10,1.26-12.66C1.21,112-1.07,101.5,4.24,96.46c1.59-1.51,3.65-2.54,4.9-4.33,1-1.4,1.36-3.12,2.16-4.62a9.66,9.66,0,0,1,8.8-5c1.85.09,3.65.72,5.5.61,2.45-.15,4.6-1.56,6.81-2.63,5.64-2.74,13.69-2.72,16.9,2.67,5.27-2.77,12-3.72,17.07-.64s7.15,11,2.94,15.23a11.52,11.52,0,0,1,.59,22.53c2.57,1,6,7,.22,10.84-4.27,2.78-10.91,1.82-17.57,2.2-1.28-.56-2.52.12-3.91.21-1.55.11-4.86-.33-7.73-.33-2.43,0-1.39.38-2.93-1.5a19.28,19.28,0,0,1-3.05-6.57"/><path class="cls-2" d="M15.23,131.28a7.76,7.76,0,0,1-2.25-2.9,5.53,5.53,0,0,1-.39-5.14c.93-1.8,3.13-2.8,3.71-4.75a7.61,7.61,0,0,0,.09-2.68c-.22-3.42.62-7.36,3.6-9.07s7.06-.33,10.2,1.41a2.17,2.17,0,0,0,1.11.38,2.31,2.31,0,0,0,1.33-.76,11.26,11.26,0,0,1,8.8-3,7.71,7.71,0,0,1,6.61,6,5.55,5.55,0,0,1,6.65,8.69A4,4,0,0,0,53.51,121c-.23.89.39,1.75.68,2.62.62,1.86,0,5.2-1.47,6.44s-.41,2.19-2.32,2.65c-10.11,2.42-22.34,1.21-32.56-.71Z"/><path class="cls-2" d="M104.29,128.22c-2.11-1.73-4.29-3.54-5.44-6s-.93-5.81,1.23-7.47c.74-.57,1.71-1,2.06-1.84s-.18-2-.58-3a9,9,0,0,1,2-9.59c2.49-2.41,6.47-.13,9.65,1.26a5.48,5.48,0,0,0,2.41.76c1.29-.07,2.18-1.26,3.06-2.19a11.27,11.27,0,0,1,12.41-2.5c4.12,1.81,6.85,3.37,6.52,7.85a21.09,21.09,0,0,1,7.34.38c2.36.7,4.58,2.43,5.14,4.83.89,3.81-2.48,7.18-5.55,9.61,2.3,1.38,4.91,3.32,4.69,6a8,8,0,0,1-2.63,4.69c-1.6,1.39-6.42,2.36-9.88,2.06-1.62-.14-11.13,0-13.7-.05"/><path class="cls-2" d="M130.66,133.06c1.34-1.19-1.09-3.64-.21-5.2s-1.2-3-2-4.62c-.93-1.8-3.13-2.8-3.71-4.75a7.61,7.61,0,0,1-.09-2.68c.22-3.42-.62-7.36-3.6-9.07s-7.06-.33-10.2,1.41a2.17,2.17,0,0,1-1.11.38,2.31,2.31,0,0,1-1.33-.76,11.26,11.26,0,0,0-8.8-3,7.71,7.71,0,0,0-6.61,6,5.55,5.55,0,0,0-6.65,8.69A4,4,0,0,1,87.51,121c.23.89-.39,1.75-.68,2.62a5,5,0,0,0,1.87,5.21c1.51,1.25,2.69,5.23,20,4.65,12.93-.44,11.07,0,16.81-.2Z"/><polyline class="cls-3" points="120.85 33.28 121.17 97.87 129.48 97.87 127.24 32.97"/><polyline class="cls-3" points="120.1 131.82 121.17 97.87 129.48 97.87 130.86 131.96"/><polyline class="cls-3" points="49.61 33.28 49.29 97.87 40.98 97.87 43.22 32.97"/><polyline class="cls-3" points="50.4 131.72 49.29 97.87 40.98 97.87 39.78 132"/><line class="cls-4" x1="59.56" y1="133.13" x2="33.78" y2="133.13"/><line class="cls-4" x1="113.46" y1="139.21" x2="23.68" y2="139.21"/><line class="cls-4" x1="141.08" y1="143.25" x2="76.21" y2="143.25"/><line class="cls-4" x1="129.98" y1="148.18" x2="81.68" y2="148.18"/><line class="cls-4" x1="111.85" y1="133.13" x2="137.63" y2="133.13"/><polyline class="cls-4" points="42.19 58.01 15.29 58.01 17.53 50.16 41.91 50.16"/><line class="cls-4" x1="120.45" y1="58.01" x2="50.19" y2="58.01"/><polyline class="cls-4" points="128.43 50.16 152.85 50.16 155.09 58.01 129.04 58.01"/><line class="cls-4" x1="92.33" y1="50.16" x2="120.45" y2="50.16"/><line class="cls-4" x1="49.47" y1="50.16" x2="78.89" y2="50.16"/><path class="cls-3" d="M166,27.47l2-14.93S142.5,24.63,84.77,24.63,1.84,12.54,1.84,12.54l2,14.93s28.48,7,81.53,7S166,27.47,166,27.47Z"/><line class="cls-4" x1="50.19" y1="42.45" x2="79.11" y2="42.45"/><line class="cls-4" x1="92.1" y1="42.45" x2="120.5" y2="42.45"/><rect class="cls-5" x="75.61" y="38.62" width="20" height="15.5"/><rect class="cls-3" x="78.46" y="41.48" width="14.23" height="10.12"/><path class="cls-6" d="M23.78,111.28s1.87,10.92,8.58,17.48"/><path class="cls-6" d="M17.38,123.91S23,127.19,28,123"/><path class="cls-6" d="M28.31,112.68s.78,2.81-2.81,5"/><path class="cls-6" d="M19.1,89.74s.31,9,4.37,13.57"/><path class="cls-6" d="M9.74,100s5,4.84,11.23-.47"/><path class="cls-6" d="M23.78,90.06s1.56,3.9-3.9,4.68"/><path class="cls-6" d="M62,91.46s-.94,8-8,12.17"/><path class="cls-6" d="M56.55,93.18s-3,4.06,1,6.55"/><path class="cls-6" d="M97.89,111.59a25.06,25.06,0,0,0,13.57,16.85"/><path class="cls-6" d="M103.51,112.84a4.93,4.93,0,0,1-3,5"/><path class="cls-6" d="M93.84,123.76s5.93,3.59,11.08.47"/><path class="cls-6" d="M141.27,111.12a72,72,0,0,1-7.33,5.93"/><path class="cls-6" d="M134.56,109.56a13.52,13.52,0,0,0,2.18,5.15"/><line class="cls-4" x1="158.49" y1="17.71" x2="158.49" y2="22.63"/><line class="cls-4" x1="146.46" y1="20.71" x2="146.46" y2="25.63"/><line class="cls-4" x1="134.42" y1="22.71" x2="134.42" y2="27.63"/><line class="cls-4" x1="122.38" y1="23.71" x2="122.38" y2="28.63"/><line class="cls-4" x1="110.35" y1="23.71" x2="110.35" y2="28.63"/><line class="cls-4" x1="98.31" y1="24.71" x2="98.31" y2="29.64"/><line class="cls-4" x1="86.27" y1="24.71" x2="86.27" y2="29.64"/><line class="cls-4" x1="74.24" y1="24.71" x2="74.24" y2="29.64"/><line class="cls-4" x1="62.2" y1="23.71" x2="62.2" y2="28.63"/><line class="cls-4" x1="50.17" y1="23.71" x2="50.17" y2="28.63"/><line class="cls-4" x1="38.13" y1="22.71" x2="38.13" y2="27.63"/><line class="cls-4" x1="26.09" y1="21.71" x2="26.09" y2="26.63"/><line class="cls-4" x1="14.06" y1="18.71" x2="14.06" y2="23.63"/></g></g></svg>