<?xml version="1.0" encoding="iso-8859-1"?>
<!-- Generator: Adobe Illustrator 19.0.0, SVG Export Plug-In . SVG Version: 6.00 Build 0)  -->
<svg version="1.1" id="Capa_1" xmlns="http://www.w3.org/2000/svg" xmlns:xlink="http://www.w3.org/1999/xlink" x="0px" y="0px"
	 viewBox="0 0 512.005 512.005" style="enable-background:new 0 0 512.005 512.005;" xml:space="preserve">
<g>
	<g>
		<path d="M440.878,64.609l-181.333-64c-2.292-0.813-4.792-0.813-7.083,0l-181.333,64c-4.271,1.51-7.125,5.542-7.125,10.063v128
			c0,165.646,24.563,226.188,187.188,308.188c1.521,0.76,3.167,1.146,4.813,1.146s3.292-0.385,4.813-1.146
			c162.625-82,187.188-142.542,187.188-308.188v-128C448.003,70.151,445.148,66.12,440.878,64.609z M309.232,329.182
			c0.438,3.063-0.479,6.156-2.521,8.49c-2.021,2.333-4.958,3.667-8.042,3.667h-85.333c-3.083,0-6.021-1.333-8.042-3.667
			c-2.042-2.333-2.958-5.427-2.521-8.49l12.375-87.958c-14.604-12.115-23.146-30.052-23.146-49.219c0-35.292,28.708-64,64-64
			s64,28.708,64,64c0,19.167-8.542,37.104-23.146,49.219L309.232,329.182z" fill="#954090"/>
	</g>
</g>
<g>
</g>
<g>
</g>
<g>
</g>
<g>
</g>
<g>
</g>
<g>
</g>
<g>
</g>
<g>
</g>
<g>
</g>
<g>
</g>
<g>
</g>
<g>
</g>
<g>
</g>
<g>
</g>
<g>
</g>
</svg>
