<svg height="512" viewBox="0 0 24 24" width="512" xmlns="http://www.w3.org/2000/svg"><g id="line"><path d="m21.7549 9.791a1 1 0 0 0 -1.9512.4355c.0319.1443.0609.2906.0859.4374a8.1791 8.1791 0 0 1 .1104 1.3361 8 8 0 1 1 -8-8 7.915 7.915 0 0 1 4.06 1.105 1 1 0 0 0 1.0132-1.725 9.9862 9.9862 0 1 0 4.6817 6.411z" fill="#b2b5b8" /><path d="m18.7266 7.6665a1 1 0 0 0 1.6777-1.0879 10.111 10.111 0 0 0 -.6865-.937 1 1 0 0 0 -1.543 1.2715 8.2342 8.2342 0 0 1 .5518.7534z" fill="#b2b5b8" /><path d="m11 7v5a1 1 0 0 0 .5527.8945l4 2a1 1 0 0 0 .8945-1.7891l-3.4472-1.7236v-4.3818a1 1 0 0 0 -2 0z" fill="#b2b5b8" /></g></svg>