<svg id="Capa_1" enable-background="new 0 0 512 512" height="512" viewBox="0 0 512 512" width="512" xmlns="http://www.w3.org/2000/svg"><g><path d="m77.5 54.996h6c4.142 0 7.5-3.358 7.5-7.5s-3.358-7.5-7.5-7.5h-6c-4.142 0-7.5 3.358-7.5 7.5s3.358 7.5 7.5 7.5z"/><path d="m43.5 54.996h6c4.142 0 7.5-3.358 7.5-7.5s-3.358-7.5-7.5-7.5h-6c-4.142 0-7.5 3.358-7.5 7.5s3.358 7.5 7.5 7.5z"/><path d="m63.5 53.996c-4.142 0-7.5 3.358-7.5 7.5v6c0 4.142 3.358 7.5 7.5 7.5s7.5-3.358 7.5-7.5v-6c0-4.142-3.358-7.5-7.5-7.5z"/><path d="m63.5 40.996c4.142 0 7.5-3.358 7.5-7.5v-6c0-4.142-3.358-7.5-7.5-7.5s-7.5 3.358-7.5 7.5v6c0 4.142 3.358 7.5 7.5 7.5z"/><path d="m450 147.496c0 4.142 3.358 7.5 7.5 7.5h6c4.142 0 7.5-3.358 7.5-7.5s-3.358-7.5-7.5-7.5h-6c-4.142 0-7.5 3.358-7.5 7.5z"/><path d="m429.5 139.996h-6c-4.142 0-7.5 3.358-7.5 7.5s3.358 7.5 7.5 7.5h6c4.142 0 7.5-3.358 7.5-7.5s-3.358-7.5-7.5-7.5z"/><path d="m443.5 174.996c4.142 0 7.5-3.358 7.5-7.5v-6c0-4.142-3.358-7.5-7.5-7.5s-7.5 3.358-7.5 7.5v6c0 4.142 3.358 7.5 7.5 7.5z"/><path d="m443.5 140.996c4.142 0 7.5-3.358 7.5-7.5v-6c0-4.142-3.358-7.5-7.5-7.5s-7.5 3.358-7.5 7.5v6c0 4.142 3.358 7.5 7.5 7.5z"/><path d="m467 247.534v-21.243c0-19.591-15.251-36.016-34.72-37.394-15.406-1.09-29.159-4.371-43.28-10.325-43.415-18.305-92.772-14.731-133.009 9.402-24.921-14.95-54.136-22.443-84.138-20.732-1.374-2.853-3.563-5.3-6.394-7.033h-.001c-4.346-2.659-8.967-4.799-13.784-6.385-1.586-4.817-3.726-9.438-6.385-13.785-6.57-10.731-22.024-10.709-28.578 0-2.659 4.344-4.8 8.966-6.387 13.785-4.815 1.586-9.438 3.726-13.785 6.385-9.771 5.982-10.766 19.56-2.27 26.91-4.669.819-9.448 1.407-14.46 1.758v-.002c-19.654 1.407-34.809 17.844-34.809 37.561v21.098c-25.627 3.662-45 25.69-45 51.962v160c0 28.936 23.446 52.5 52.5 52.5h278.569c4.141 0 7.5-3.36 7.5-7.5s-3.359-7.5-7.5-7.5h-278.569c-20.517 0-37.5-16.576-37.5-37.5v-160c0-18.371 13.099-33.334 30-36.75v129.295.005 49.995c0 13.761 11.195 24.956 24.957 24.956h372.087c13.761 0 24.956-11.195 24.956-24.956v-50-129.295c16.905 3.417 30 18.387 30 36.75v160c0 20.52-16.579 37.5-37.5 37.5h-98.431c-4.14 0-7.5 3.36-7.5 7.5s3.36 7.5 7.5 7.5h98.431c28.953 0 52.5-23.469 52.5-52.5v-160c0-26.343-19.453-48.312-45-51.962zm-362.631-74.529c11.471-7.018 17.532-4.358 19.26-11.268 1.26-4.889 3.237-9.554 5.877-13.868.68-1.111 2.309-1.11 2.989 0 7.379 12.058 4.392 17.49 11.268 19.259 4.885 1.258 9.55 3.234 13.866 5.876 1.112.68 1.111 2.311 0 2.991-5.134 3.142-11.089 5.328-13.871 5.885-2.923.753-4.957 3.22-5.391 5.393-1.255 4.878-3.231 9.541-5.872 13.856-.68 1.111-2.31 1.11-2.99-.001-7.06-11.536-4.355-17.37-11.215-19.228-4.021-1.089-8.525-2.604-13.919-5.906-1.167-.712-1.168-2.276-.002-2.989zm144.132 250.249v28.743h-178.545c-5.49 0-9.956-4.466-9.956-9.956v-27.111c3.102 1.35 6.475 2.066 9.96 2.066 20.411 0 40.457-4.146 58.8-11.88l.07-.03c39.208-16.523 83.645-13.119 119.671 8.58zm0-26.764c-39.69-20.773-85.791-21.969-125.501-5.224l-.87.37c-16.63 6.87-34.18 10.36-52.17 10.36-5.48-.01-9.95-4.48-9.96-9.95v-.005-165.605c0-11.87 9.16-21.8 20.859-22.59v-.006c10.858-.759 20.771-2.488 30.656-5.331 1.413 3.603 3.145 7.099 5.196 10.449 6.57 10.731 22.023 10.709 28.579-.001 2.659-4.345 4.797-8.963 6.382-13.774 4.809-1.585 9.432-3.729 13.788-6.395 2.651-1.623 4.733-3.877 6.116-6.5 26.415-1.735 53.265 4.432 76.927 18.679l-.004.006zm203.499 45.551c0 5.49-4.467 9.956-9.957 9.956h-178.542v-38.338c36.176-21.789 80.604-25.039 119.671-8.566 18.733 7.899 38.541 11.904 58.872 11.904 3.538 0 6.904-.745 9.956-2.078zm0-50c0 5.49-4.467 9.956-9.957 9.956-18.318 0-36.164-3.609-53.043-10.726-40.491-17.073-86.487-15.221-125.501 5.188l.002-195.5c36.177-21.787 80.604-25.039 119.671-8.566 15.684 6.613 30.952 10.256 48.05 11.466 11.651.825 20.778 10.678 20.778 22.432z"/><path d="m193.552 237.202c-4.143 0-7.5 3.358-7.5 7.5v12c0 4.142 3.357 7.5 7.5 7.5s7.5-3.358 7.5-7.5v-12c0-4.142-3.358-7.5-7.5-7.5z"/><path d="m318.448 237.202c-4.143 0-7.5 3.358-7.5 7.5v12c0 4.142 3.357 7.5 7.5 7.5s7.5-3.358 7.5-7.5v-12c0-4.142-3.357-7.5-7.5-7.5z"/><path d="m200.718 98.425-3.191 18.712c-4.03 23.635 20.699 41.642 41.815 30.48l16.658-8.807 16.658 8.808c21.083 11.152 45.845-6.844 41.815-30.48l-3.192-18.712 13.511-13.245c17.081-16.741 7.611-45.881-15.974-49.327l-18.636-2.724-8.342-17c-10.532-21.463-41.109-21.541-51.681 0l-8.342 16.999-18.636 2.724c-23.566 3.443-33.066 32.574-15.974 49.327zm4.634-47.73 26.452-3.866 11.822-24.09c5.083-10.358 19.678-10.333 24.748.001l11.822 24.089 26.452 3.866c11.374 1.664 15.871 15.707 7.644 23.774l-19.116 18.739 4.511 26.45c1.951 11.434-9.896 20.048-20.017 14.699l-23.67-12.514-23.67 12.515c-10.136 5.356-21.964-3.282-20.017-14.699l4.51-26.45-19.115-18.739c-8.239-8.08-3.712-22.114 7.644-23.775z"/><path d="m376.542 80.415c4.358 2.667 8.98 4.81 13.787 6.395 1.585 4.814 3.724 9.433 6.382 13.775 6.57 10.732 22.023 10.709 28.579-.001 2.658-4.344 4.797-8.962 6.383-13.774 4.807-1.585 9.429-3.728 13.787-6.395 10.732-6.571 10.708-22.024 0-28.579h-.001c-4.346-2.659-8.967-4.799-13.784-6.385-1.586-4.819-3.726-9.44-6.385-13.785-6.57-10.731-22.024-10.709-28.578 0-2.659 4.344-4.8 8.966-6.387 13.785-4.816 1.586-9.438 3.726-13.784 6.385-10.733 6.57-10.71 22.025.001 28.579zm7.828-15.784c7.289-4.461 13.026-5.66 18.154-6.979 1.312-5.093 2.511-10.853 6.981-18.155.712-1.167 2.276-1.167 2.99 0 4.465 7.297 5.666 13.055 6.979 18.155 5.1 1.313 10.856 2.512 18.156 6.979 1.165.714 1.167 2.276 0 2.989-7.319 4.478-13.029 5.67-18.157 6.99-1.308 5.08-2.507 10.838-6.979 18.145-.712 1.167-2.276 1.167-2.99 0-4.464-7.293-5.663-13.041-6.976-18.145-5.114-1.317-10.821-2.499-18.158-6.99-1.165-.714-1.169-2.272 0-2.989z"/></g></svg>