<svg id="Capa_1" enable-background="new 0 0 512 512" height="512" viewBox="0 0 512 512" width="512" xmlns="http://www.w3.org/2000/svg"><path d="m426.046 63.728c-2.469-6.855-5.71-13.442-9.714-19.629-2.251-3.478-6.896-4.471-10.371-2.222-3.478 2.25-4.473 6.894-2.223 10.371 8.511 13.152 13.01 28.425 13.01 44.168 0 44.893-36.523 81.416-81.417 81.416-44.893 0-81.416-36.523-81.416-81.416s36.523-81.416 81.416-81.416c16.222 0 31.885 4.755 45.294 13.751 3.441 2.307 8.099 1.389 10.407-2.05 2.308-3.44 1.39-8.099-2.05-10.407-15.89-10.659-34.442-16.294-53.651-16.294-29.452 0-55.857 13.279-73.557 34.159l-55.956-9.867c-32.639-5.755-63.877 16.116-69.632 48.757l-5.006 28.393h-26.77c-33.144 0-60.107 26.964-60.107 60.108v229.742c0 4.142 3.358 7.5 7.5 7.5s7.5-3.358 7.5-7.5v-229.743c0-24.872 20.235-45.108 45.107-45.108h33.038c.011 0 .022.002.034.002.011 0 .022-.001.033-.002h103.498c9.243 43.586 48.019 76.391 94.319 76.391 10.349 0 20.319-1.646 29.671-4.678v263.737c0 24.872-20.235 45.108-45.108 45.108h-215.485c-24.873 0-45.107-20.235-45.107-45.108v-25.749c0-4.142-3.358-7.5-7.5-7.5s-7.5 3.358-7.5 7.5v25.749c0 33.144 26.964 60.108 60.107 60.108h215.485c29.404 0 53.927-21.228 59.09-49.16 19.558-7.592 33.697-24.658 37.383-45.565l50.417-285.932c5.229-29.645-12.49-58.52-40.739-67.614zm-187.131 32.688c0 1.685.044 3.361.13 5.025h-92.634l4.547-25.788c4.319-24.495 27.761-40.91 52.255-36.589l48.948 8.631c-8.412 14.307-13.246 30.959-13.246 48.721zm213.099 32.322-50.417 285.932c-2.341 13.272-10.311 24.465-21.595 31.055v-263.886c30.732-16.136 51.746-48.369 51.746-85.422 0-4.793-.359-9.548-1.053-14.235 15.653 9.364 24.634 27.755 21.319 46.556zm-201.787 116.424c0-4.142-3.358-7.5-7.5-7.5h-51.357c-4.142 0-7.5 3.358-7.5 7.5s3.358 7.5 7.5 7.5h51.357c4.142 0 7.5-3.358 7.5-7.5zm11.854 72.34h-70.71c-4.142 0-7.5 3.358-7.5 7.5s3.358 7.5 7.5 7.5h70.71c4.143 0 7.5-3.358 7.5-7.5s-3.357-7.5-7.5-7.5zm-70.711 39.301h51.357c4.142 0 7.5-3.358 7.5-7.5s-3.358-7.5-7.5-7.5h-51.357c-4.142 0-7.5 3.358-7.5 7.5s3.358 7.5 7.5 7.5zm78.211 72.34c0-4.142-3.357-7.5-7.5-7.5h-70.71c-4.142 0-7.5 3.358-7.5 7.5s3.358 7.5 7.5 7.5h70.71c4.143 0 7.5-3.358 7.5-7.5zm-78.211 16.801c-4.142 0-7.5 3.358-7.5 7.5s3.358 7.5 7.5 7.5h51.357c4.142 0 7.5-3.358 7.5-7.5s-3.358-7.5-7.5-7.5zm70.711-232.583h-70.71c-4.142 0-7.5 3.358-7.5 7.5s3.358 7.5 7.5 7.5h70.71c4.143 0 7.5-3.358 7.5-7.5s-3.357-7.5-7.5-7.5zm-86.052-27.776-14.464 14.464c-4.321-4.561-10.427-7.415-17.192-7.415h-28.185c-13.064 0-23.692 10.628-23.692 23.692v28.185c0 13.064 10.628 23.692 23.692 23.692h28.185c13.064 0 23.692-10.628 23.692-23.692v-28.185c0-.508-.022-1.01-.053-1.51l18.624-18.623c2.929-2.929 2.929-7.678 0-10.606-2.929-2.932-7.678-2.932-10.607-.002zm-22.964 58.925c0 4.793-3.899 8.692-8.692 8.692h-28.185c-4.793 0-8.692-3.899-8.692-8.692v-28.185c0-4.793 3.899-8.692 8.692-8.692h28.185c2.629 0 4.984 1.178 6.579 3.028l-16.982 16.982-6.851-6.852c-2.929-2.929-7.678-2.929-10.606 0-2.929 2.929-2.929 7.678 0 10.606l12.155 12.155c1.464 1.465 3.384 2.197 5.303 2.197s3.839-.732 5.303-2.197l13.792-13.792v14.75zm200.013-155.594h-10.247v-19.083c0-4.142-3.357-7.5-7.5-7.5s-7.5 3.358-7.5 7.5v26.583c0 4.142 3.357 7.5 7.5 7.5h17.747c4.143 0 7.5-3.358 7.5-7.5s-3.357-7.5-7.5-7.5zm-63.466 347.727h34.696c4.143 0 7.5-3.358 7.5-7.5s-3.357-7.5-7.5-7.5h-34.696c-4.143 0-7.5 3.358-7.5 7.5s3.358 7.5 7.5 7.5zm45.719-406.781c-36.698 0-66.554 29.857-66.554 66.555s29.855 66.554 66.554 66.554c36.698 0 66.555-29.856 66.555-66.554s-29.857-66.555-66.555-66.555zm0 118.109c-28.427 0-51.554-23.127-51.554-51.554s23.127-51.555 51.554-51.555c28.428 0 51.555 23.128 51.555 51.555s-23.127 51.554-51.555 51.554zm-45.719 80.39h34.696c4.143 0 7.5-3.358 7.5-7.5s-3.357-7.5-7.5-7.5h-34.696c-4.143 0-7.5 3.358-7.5 7.5s3.358 7.5 7.5 7.5zm-197.116 120.29c0 13.064 10.628 23.692 23.692 23.692h28.185c13.064 0 23.692-10.628 23.692-23.692v-28.185c0-.508-.022-1.01-.053-1.51l18.624-18.623c2.929-2.929 2.929-7.678 0-10.606-2.928-2.929-7.677-2.929-10.607 0l-14.464 14.464c-4.321-4.562-10.427-7.416-17.192-7.416h-28.185c-13.064 0-23.692 10.628-23.692 23.692zm15-28.185c0-4.793 3.899-8.692 8.692-8.692h28.185c2.629 0 4.984 1.178 6.579 3.028l-16.982 16.982-6.851-6.852c-2.929-2.929-7.678-2.929-10.606 0-2.929 2.929-2.929 7.678 0 10.607l12.155 12.155c1.464 1.465 3.384 2.197 5.303 2.197s3.839-.732 5.303-2.197l13.792-13.792v14.749c0 4.792-3.899 8.692-8.692 8.692h-28.185c-4.793 0-8.692-3.899-8.692-8.692v-28.185zm-15 132.326c0 13.064 10.628 23.692 23.692 23.692h28.185c13.064 0 23.692-10.628 23.692-23.692v-28.185c0-13.064-10.628-23.692-23.692-23.692h-28.185c-13.064 0-23.692 10.628-23.692 23.692zm15-28.185c0-4.792 3.899-8.692 8.692-8.692h28.185c4.793 0 8.692 3.9 8.692 8.692v28.185c0 4.793-3.899 8.692-8.692 8.692h-28.185c-4.793 0-8.692-3.899-8.692-8.692zm182.116-92.105h34.696c4.143 0 7.5-3.358 7.5-7.5s-3.357-7.5-7.5-7.5h-34.696c-4.143 0-7.5 3.358-7.5 7.5s3.358 7.5 7.5 7.5z"/></svg>