<svg id="Capa_1" enable-background="new 0 0 512 512" height="512" viewBox="0 0 512 512" width="512" xmlns="http://www.w3.org/2000/svg"><path d="m406 0h-300c-28.938 0-52.5 23.448-52.5 52.5v50c0 28.94 23.451 52.5 52.5 52.5 28.14 0 51.138-22.126 52.439-50h45.061v212c-32.547 0-54 25.025-54 52.5 0 6.34 1.12 12.55 3.33 18.44 1.444 3.855 5.803 5.845 9.649 4.38 3.88-1.45 5.84-5.78 4.391-9.65-1.57-4.21-2.37-8.64-2.37-13.17 0-20.707 16.753-37.5 37.5-37.5h9c4.118 0 7.5-3.352 7.5-7.5v-227c0-4.152-3.386-7.5-7.5-7.5h-60c-4.135 0-7.5 3.37-7.5 7.5v5c0 20.603-16.661 37.5-37.5 37.5-20.566 0-37.5-16.622-37.5-37.5v-50c0-20.514 16.574-37.5 37.5-37.5h300c20.76 0 37.5 16.827 37.5 37.5v50c0 20.675-16.744 37.5-37.5 37.5-20.566 0-37.5-16.622-37.5-37.5v-5c0-4.152-3.386-7.5-7.5-7.5h-60c-4.135 0-7.5 3.37-7.5 7.5v227c0 4.134 3.368 7.5 7.5 7.5h9c20.647 0 37.5 16.701 37.5 37.5 0 20.603-16.661 37.5-37.5 37.5h-108c-6.88 0-13.61-1.88-19.46-5.44-3.537-2.127-8.116-1.069-10.311 2.51-2.155 3.544-1.022 8.163 2.511 10.31h.01c8.189 4.99 17.609 7.62 27.229 7.62h108.021c28.941 0 52.5-23.447 52.5-52.5 0-27.426-21.404-52.5-54-52.5v-212h45.06c1.302 27.881 24.309 50 52.44 50 28.93 0 52.5-23.445 52.5-52.5v-50c0-28.94-23.452-52.5-52.5-52.5z"/><path d="m415 437h-324c-20.737 0-37.5 16.764-37.5 37.5 0 20.716 16.761 37.5 37.5 37.5h324.02c8 0 15.63-2.49 22.07-7.19 3.34-2.44 4.07-7.14 1.63-10.48-2.38-3.28-7.064-4.121-10.47-1.64-3.87 2.82-8.45 4.31-13.25 4.31h-324c-12.38-.02-22.48-10.12-22.5-22.5.02-12.38 10.12-22.48 22.5-22.5h324.02c11.9 0 21.76 9.3 22.44 21.18.24 4.11 3.79 7.29 7.92 7.05s7.3-3.79 7.06-7.92c-1.156-19.72-17.451-35.29-37.44-35.31z"/><path d="m217.5 41.5c-4.142 0-7.5 3.358-7.5 7.5v10c0 4.142 3.358 7.5 7.5 7.5s7.5-3.358 7.5-7.5v-10c0-4.142-3.358-7.5-7.5-7.5z"/><path d="m303 59v-10c0-4.142-3.358-7.5-7.5-7.5s-7.5 3.358-7.5 7.5v10c0 4.142 3.358 7.5 7.5 7.5s7.5-3.358 7.5-7.5z"/><path d="m257 74.5c9.687 0 18.623-5.599 22.766-14.265 1.787-3.737.206-8.215-3.531-10.001-3.738-1.789-8.215-.206-10.001 3.531-1.666 3.484-5.291 5.735-9.234 5.735s-7.568-2.251-9.234-5.735c-1.787-3.737-6.265-5.317-10.001-3.531s-5.318 6.265-3.531 10.001c4.143 8.666 13.079 14.265 22.766 14.265z"/></svg>