<svg viewBox="0 -53 512.00008 512" xmlns="http://www.w3.org/2000/svg"><path d="m510.996094 204.546875-15.121094-36.289063c-1.414062-3.394531-3.96875-6.054687-7.109375-7.625-31.617187-50.046874-114.871094-160.632812-232.765625-160.632812s-201.148438 110.585938-232.765625 160.632812c-3.140625 1.574219-5.695313 4.230469-7.109375 7.625l-15.121094 36.289063c-1.675781 4.027344-1.234375 8.601563 1.1875 12.234375 2.417969 3.628906 6.46875 5.796875 10.835938 5.796875h5.980468c3.214844 11.410156 13.554688 19.855469 25.894532 20.203125 6.820312 18.4375 20.390625 43.082031 47.25 64.566406 33.558594 26.84375 79.609375 42.25 136.941406 45.851563.703125 2.828125 1.84375 5.488281 3.34375 7.902343l-29.910156 32.582032c-2.800782 3.050781-2.597656 7.796875.453125 10.597656 1.4375 1.320312 3.257812 1.972656 5.070312 1.972656 2.027344 0 4.046875-.816406 5.527344-2.425781l29.90625-32.582031c3.761719 1.910156 8.011719 2.996094 12.515625 2.996094s8.753906-1.082032 12.515625-2.996094l29.90625 32.582031c1.480469 1.609375 3.5 2.425781 5.527344 2.425781 1.8125 0 3.632812-.652344 5.070312-1.972656 3.050781-2.800781 3.253907-7.546875.453125-10.597656l-29.910156-32.582032c1.5-2.414062 2.640625-5.074218 3.339844-7.902343 33.652344-2.121094 63.683594-8.367188 89.347656-18.597657 3.847656-1.535156 5.722656-5.898437 4.1875-9.746093-1.535156-3.847657-5.902344-5.722657-9.746094-4.1875-24.066406 9.59375-52.382812 15.484375-84.25 17.53125-3.542968-11.234375-14.054687-19.398438-26.441406-19.398438s-22.898438 8.164063-26.445312 19.398438c-115.742188-7.386719-156.03125-62.519531-170.023438-99.117188 6.1875-3.578125 10.863281-9.480469 12.84375-16.5h367.25c1.976562 7.019531 6.652344 12.917969 12.835938 16.5-7.941407 20.707031-24.515626 47.613281-59.082032 68.429688-3.546875 2.136719-4.691406 6.746093-2.554687 10.292969 1.40625 2.339843 3.890625 3.632812 6.433593 3.632812 1.316407 0 2.652344-.347656 3.859376-1.078125 39.078124-23.53125 57.398437-54.320313 65.980468-77.578125 12.339844-.347656 22.679688-8.792969 25.890625-20.203125h5.984375c4.363282 0 8.414063-2.167969 10.835938-5.796875 2.421875-3.632812 2.863281-8.207031 1.1875-12.234375zm-254.996094 129.253906c7.015625 0 12.722656 5.707031 12.722656 12.71875 0 7.015625-5.707031 12.722657-12.722656 12.722657s-12.722656-5.707032-12.722656-12.722657c0-7.011719 5.707031-12.71875 12.722656-12.71875zm213.851562-174.753906h-77.273437c-8.417969-22.671875-24.253906-60.914063-45.8125-93.640625-11.21875-17.03125-22.738281-30.75-34.503906-41.15625 74.902343 24.753906 130.050781 93.480469 157.589843 134.796875zm-270.113281-134.796875c-11.765625 10.40625-23.285156 24.125-34.503906 41.15625-21.558594 32.726562-37.394531 70.972656-45.8125 93.640625h-77.273437c27.539062-41.316406 82.6875-110.042969 157.589843-134.796875zm-154.046875 203.550781c-4.210937 0-7.953125-2.058593-10.269531-5.222656h20.539063c-2.316407 3.164063-6.054688 5.222656-10.269532 5.222656zm420.617188 0c-4.210938 0-7.953125-2.058593-10.269532-5.222656h20.539063c-2.316406 3.164063-6.054687 5.222656-10.269531 5.222656zm20.222656-20.222656h-470.539062l13.941406-33.511719c.007812 0 .015625 0 .023437-.003906.027344-.003906.050781-.011719.078125-.015625h147.414063c4.140625 0 7.5-3.359375 7.5-7.5 0-4.144531-3.359375-7.5-7.5-7.5h-41.996094c8.546875-22.34375 23.109375-56.246094 42.308594-85.390625 25.640625-38.921875 51.960937-58.65625 78.238281-58.65625 26.273438 0 52.597656 19.734375 78.238281 58.65625 19.199219 29.144531 33.761719 63.046875 42.308594 85.390625h-170.789063c-4.140624 0-7.5 3.355469-7.5 7.5 0 4.140625 3.359376 7.5 7.5 7.5l181.378907-.015625c.066406.003906.132812.015625.199219.015625.121093 0 .242187-.007813.359374-.015625l93.949219-.003906c.105469.003906.210938.015625.316407.019531.027343.003906.054687.011719.082031.015625l13.964843 33.515625zm0 0"/><path d="m256 141.75c9.648438 0 18.632812-5.203125 23.445312-13.574219 2.066407-3.589843.828126-8.175781-2.761718-10.238281s-8.175782-.828125-10.242188 2.761719c-2.144531 3.730469-6.144531 6.050781-10.441406 6.050781s-8.296875-2.320312-10.441406-6.050781c-2.066406-3.589844-6.648438-4.828125-10.242188-2.761719-3.589844 2.0625-4.828125 6.648438-2.761718 10.238281 4.8125 8.371094 13.796874 13.574219 23.445312 13.574219zm0 0"/><path d="m320.398438 112.144531c4.140624 0 7.5-3.355469 7.5-7.5v-11.480469c0-4.140624-3.359376-7.5-7.5-7.5-4.144532 0-7.5 3.359376-7.5 7.5v11.480469c0 4.144531 3.355468 7.5 7.5 7.5zm0 0"/><path d="m191.605469 112.144531c4.140625 0 7.5-3.355469 7.5-7.5v-11.480469c0-4.140624-3.359375-7.5-7.5-7.5-4.144531 0-7.5 3.359376-7.5 7.5v11.480469c0 4.144531 3.355469 7.5 7.5 7.5zm0 0"/><path d="m314.65625 133.851562h11.480469c4.144531 0 7.5-3.359374 7.5-7.5 0-4.140624-3.355469-7.5-7.5-7.5h-11.480469c-4.144531 0-7.5 3.359376-7.5 7.5 0 4.140626 3.355469 7.5 7.5 7.5zm0 0"/><path d="m204.84375 126.351562c0-4.140624-3.355469-7.5-7.5-7.5h-11.480469c-4.140625 0-7.5 3.359376-7.5 7.5 0 4.140626 3.359375 7.5 7.5 7.5h11.480469c4.144531 0 7.5-3.359374 7.5-7.5zm0 0"/></svg>