<svg height="512" viewBox="0 0 64 64" width="512" xmlns="http://www.w3.org/2000/svg"><g id="Volume"><path d="m14 21h-9a1 1 0 0 0 -1 1v20a1 1 0 0 0 1 1h9z"/><path d="m36.458 6.1108a.9993.9993 0 0 0 -1.0391.0752l-19.4189 13.8709v23.8862l19.4189 13.8709a1 1 0 0 0 1.5811-.814v-50a1 1 0 0 0 -.542-.8892z"/><path d="m40.6553 38.6558a1 1 0 0 1 -.7071-1.7071 7.0081 7.0081 0 0 0 0-9.9 1 1 0 1 1 1.4141-1.414 9.0108 9.0108 0 0 1 0 12.728.9969.9969 0 0 1 -.707.2931z"/><path d="m46.3125 44.3125a1 1 0 0 1 -.707-1.707 15.0189 15.0189 0 0 0 0-21.2134 1 1 0 0 1 1.4145-1.4141 17.02 17.02 0 0 1 0 24.0415.9967.9967 0 0 1 -.7075.293z"/><path d="m51.97 49.9692a1 1 0 0 1 -.707-1.707 23.0275 23.0275 0 0 0 0-32.5268 1 1 0 0 1 1.4141-1.4141 25.0288 25.0288 0 0 1 0 35.355.997.997 0 0 1 -.7071.2929z"/></g></svg>