<svg
        xmlns="http://www.w3.org/2000/svg"
        xmlns:xlink="http://www.w3.org/1999/xlink"
        width="1148px" height="1045px">
  <path fill-rule="evenodd"  fill="rgb(248, 251, 253)"
        d="M160.731,224.480 C172.529,213.635 186.360,202.459 196.916,193.551 C197.043,193.898 197.170,194.246 197.297,194.593 C187.916,202.961 170.157,215.000 165.683,224.828 C193.739,198.998 221.803,173.159 249.860,147.329 C249.733,147.213 249.606,147.097 249.479,146.981 C243.875,152.257 216.952,179.055 212.532,179.302 C231.695,161.687 257.472,133.515 278.807,122.306 C285.964,118.547 293.405,108.864 297.852,107.015 C307.881,99.023 317.913,91.028 327.942,83.035 C327.271,84.523 327.480,83.445 327.562,84.773 C327.815,84.541 328.070,84.310 328.323,84.078 C332.005,81.183 335.688,78.286 339.369,75.389 C339.196,76.477 338.724,75.857 339.750,76.432 C343.305,73.652 346.860,70.872 350.415,68.091 C349.743,69.580 349.953,68.501 350.034,69.829 C350.288,69.598 350.542,69.366 350.796,69.134 C353.081,67.281 355.367,65.427 357.652,63.573 C358.160,64.037 358.668,64.500 359.176,64.964 C361.334,62.994 363.493,61.025 365.651,59.056 C365.651,59.056 366.869,60.267 367.936,59.751 C369.840,58.014 371.745,56.275 373.649,54.538 C380.595,52.475 399.846,43.618 407.168,37.162 C407.760,38.606 406.823,37.895 408.311,38.899 C409.961,37.393 411.612,35.887 413.262,34.381 C413.854,35.825 412.918,35.114 414.405,36.119 C416.055,34.613 417.706,33.107 419.356,31.601 C419.483,32.179 419.610,32.759 419.737,33.339 C430.213,26.580 439.370,25.437 450.209,22.218 C451.478,21.060 452.748,19.900 454.018,18.743 C470.197,14.329 486.138,10.388 503.533,6.231 C509.270,4.860 528.412,6.303 535.528,1.366 C535.495,2.327 535.333,2.411 535.528,3.451 C546.356,-3.309 594.482,1.777 610.945,2.756 C625.650,3.630 641.148,8.497 660.080,9.359 C660.969,10.170 661.858,10.981 662.746,11.792 C668.250,13.499 686.457,19.090 694.360,19.090 C695.848,19.090 699.972,22.965 702.740,23.955 C712.510,27.450 719.986,29.298 728.641,31.601 C730.291,33.107 731.942,34.613 733.592,36.119 C742.608,36.808 755.161,46.630 765.206,51.758 C778.600,58.594 793.014,63.901 808.247,77.127 C808.628,76.548 809.009,75.969 809.390,75.389 C813.452,78.865 817.516,82.340 821.578,85.816 C821.578,85.121 821.578,84.425 821.578,83.730 C833.310,94.495 845.620,100.803 856.239,110.490 C859.590,113.547 872.827,124.939 872.237,122.306 C881.553,125.363 895.297,148.207 905.374,150.456 C904.486,149.414 903.597,148.371 902.708,147.329 C923.020,165.399 943.338,183.474 963.651,201.543 C972.067,209.222 985.757,218.892 989.551,227.261 C988.245,226.438 987.989,225.284 987.647,226.913 C997.295,235.948 1006.946,244.986 1016.595,254.021 C1016.468,254.137 1016.341,254.253 1016.214,254.368 C1015.706,254.137 1015.198,253.905 1014.690,253.673 C1025.172,265.945 1042.886,278.388 1047.066,289.469 C1050.875,293.176 1054.684,296.884 1058.493,300.590 C1056.862,299.977 1058.044,300.168 1056.588,300.242 C1060.016,303.601 1063.445,306.962 1066.872,310.321 C1066.745,310.436 1066.618,310.552 1066.492,310.668 C1065.028,310.584 1066.217,310.427 1064.587,311.016 C1072.199,318.084 1071.726,320.296 1078.680,326.655 C1078.045,326.771 1077.410,326.886 1076.776,327.002 C1084.820,335.718 1087.570,341.989 1092.773,350.634 C1094.170,351.909 1095.566,353.183 1096.963,354.457 C1098.311,359.842 1102.569,367.137 1108.009,372.182 C1107.374,372.529 1106.739,372.877 1106.104,373.224 C1111.872,378.484 1109.778,382.022 1115.627,387.473 C1114.992,387.589 1114.357,387.704 1113.722,387.820 C1123.907,398.775 1121.339,413.667 1130.481,422.573 C1129.847,422.689 1129.212,422.805 1128.577,422.921 C1134.897,429.980 1135.942,445.320 1137.718,452.808 C1142.259,471.953 1146.557,489.868 1148.002,508.761 L1145.717,540.734 C1145.844,541.081 1145.971,541.429 1146.098,541.776 C1146.606,541.545 1147.114,541.313 1147.621,541.081 C1145.149,543.769 1142.849,564.969 1143.051,568.884 C1143.559,568.653 1144.066,568.420 1144.574,568.189 C1144.423,568.329 1134.009,603.600 1133.909,606.417 C1134.544,606.302 1135.179,606.185 1135.814,606.070 C1134.671,607.344 1133.528,608.618 1132.386,609.892 C1133.021,610.008 1133.655,610.125 1134.290,610.240 C1131.997,612.306 1122.914,635.164 1122.102,638.737 C1122.736,638.622 1123.371,638.506 1124.006,638.390 C1122.610,639.896 1121.213,641.403 1119.816,642.908 C1120.451,643.024 1121.086,643.140 1121.721,643.256 C1116.517,647.997 1114.987,657.513 1112.579,662.023 C1106.818,672.811 1102.378,679.081 1095.439,689.477 C1096.074,689.593 1096.709,689.709 1097.344,689.825 C1094.863,691.861 1091.908,694.397 1091.630,696.427 C1092.138,696.427 1092.646,696.427 1093.154,696.427 C1083.550,705.123 1076.831,716.910 1072.967,725.273 C1070.174,727.821 1067.380,730.370 1064.587,732.918 C1063.257,735.174 1058.866,740.426 1055.446,744.735 C1056.080,744.850 1056.715,744.967 1057.350,745.082 C1053.161,749.136 1048.970,753.192 1044.781,757.246 C1044.908,757.362 1045.035,757.478 1045.161,757.593 C1045.796,757.478 1046.431,757.362 1047.066,757.246 C1041.861,762.226 1036.654,767.209 1031.450,772.190 C1031.703,772.421 1031.957,772.653 1032.211,772.885 C1032.846,772.537 1033.481,772.190 1034.116,771.842 C1027.133,778.445 1020.149,785.049 1013.167,791.652 C1013.420,791.883 1013.674,792.115 1013.928,792.347 C1014.563,791.999 1015.198,791.652 1015.833,791.304 C1005.931,800.570 996.026,809.840 986.123,819.107 C986.885,819.107 987.647,819.107 988.409,819.107 C966.181,839.538 942.186,862.671 918.706,884.095 C909.140,892.823 897.354,906.987 886.711,911.202 C888.488,909.349 890.266,907.495 892.043,905.642 C880.998,915.024 869.950,924.409 858.906,933.792 C861.008,932.043 862.507,930.577 862.714,928.926 C855.478,935.065 848.240,941.206 841.003,947.345 C842.931,945.685 843.864,944.695 844.051,943.175 C838.338,947.924 832.623,952.675 826.911,957.424 C827.418,956.729 827.926,956.034 828.434,955.338 C823.991,958.698 819.546,962.058 815.103,965.417 C815.484,964.838 815.865,964.258 816.246,963.680 C812.437,966.459 808.627,969.240 804.819,972.020 C805.491,970.532 805.281,971.611 805.200,970.283 C799.165,976.030 786.956,982.982 788.060,981.751 C787.933,981.635 787.806,981.520 787.679,981.403 C782.099,984.973 776.575,990.774 770.539,992.872 C770.792,992.177 771.047,991.482 771.300,990.787 C768.254,993.104 765.206,995.421 762.159,997.737 C763.540,996.196 763.524,996.264 763.683,994.957 C761.017,996.926 758.350,998.896 755.684,1000.865 C756.991,999.270 756.840,999.842 756.826,998.432 C754.414,1000.170 752.002,1001.908 749.590,1003.645 C750.633,1002.059 750.383,1002.948 750.351,1001.560 C738.532,1010.057 726.432,1009.796 716.071,1018.937 C715.414,1017.566 715.847,1018.130 714.928,1017.199 C713.278,1018.474 711.627,1019.748 709.977,1021.022 C710.231,1020.327 710.485,1019.632 710.739,1018.937 C708.707,1020.327 706.676,1021.717 704.644,1023.107 C705.784,1021.620 705.644,1021.915 705.787,1020.675 C701.086,1024.133 700.866,1024.164 695.503,1025.888 C695.757,1025.424 696.011,1024.961 696.265,1024.497 C693.476,1025.503 692.203,1028.021 692.075,1026.235 C689.312,1026.326 669.044,1032.066 665.412,1035.271 C664.547,1034.059 665.807,1033.774 664.270,1034.228 C663.127,1034.808 661.984,1035.386 660.842,1035.966 C661.224,1035.047 660.911,1035.590 660.080,1035.271 C658.938,1035.850 657.795,1036.429 656.652,1037.008 C657.324,1035.520 657.115,1036.599 657.033,1035.271 C654.099,1037.502 650.181,1038.131 650.177,1037.356 C642.168,1037.296 633.652,1040.373 626.942,1042.569 C627.614,1041.081 627.405,1042.160 627.323,1040.831 C616.337,1047.409 579.180,1044.156 562.953,1044.654 C517.107,1046.061 432.878,1027.608 383.934,994.609 C383.807,995.189 383.680,995.768 383.553,996.347 C376.959,990.182 350.978,975.189 351.939,977.929 C343.589,974.342 338.821,965.361 330.609,964.027 C325.568,963.208 319.459,949.346 316.897,954.296 C311.565,949.662 306.231,945.028 300.899,940.395 C300.106,941.451 300.515,940.277 300.137,941.785 C266.565,911.186 232.844,887.334 198.058,855.597 C186.730,845.262 162.901,827.767 157.684,816.674 C159.461,818.063 161.239,819.454 163.016,820.844 C163.143,820.728 163.270,820.612 163.397,820.497 C151.718,809.377 140.035,798.253 128.355,787.134 C130.518,789.330 133.074,791.760 135.211,791.999 C127.848,784.817 120.483,777.633 113.119,770.452 C113.881,771.147 114.643,771.842 115.405,772.537 C115.532,772.190 115.659,771.842 115.786,771.495 C110.708,766.398 105.628,761.300 100.550,756.203 C101.566,756.898 102.582,757.593 103.597,758.289 C103.724,758.173 103.851,758.057 103.978,757.941 C100.043,753.887 96.106,749.831 92.170,745.777 C92.805,746.356 93.440,746.936 94.075,747.515 C94.202,747.168 94.329,746.820 94.456,746.472 C91.028,743.114 87.600,739.753 84.172,736.394 C84.806,736.278 85.442,736.162 86.076,736.046 C79.741,730.091 75.158,724.084 72.745,718.323 C70.206,715.774 67.666,713.225 65.127,710.677 C65.889,710.908 66.651,711.140 67.412,711.372 C67.159,711.140 66.905,710.908 66.651,710.677 C64.366,708.128 62.080,705.579 59.795,703.031 C60.810,703.726 61.826,704.421 62.842,705.116 C62.969,705.000 63.096,704.885 63.223,704.768 C60.557,701.873 57.890,698.976 55.224,696.080 C55.986,696.544 56.747,697.007 57.509,697.470 C57.636,697.123 57.763,696.775 57.890,696.427 C55.605,694.111 53.319,691.794 51.034,689.477 C52.784,691.035 53.299,691.406 54.843,691.562 C52.685,689.130 50.526,686.697 48.368,684.264 C50.106,685.216 49.132,684.988 50.653,684.959 C48.749,682.759 46.844,680.557 44.940,678.357 C46.678,679.308 45.704,679.080 47.225,679.052 C45.575,677.082 43.924,675.113 42.274,673.144 C43.018,673.293 42.591,673.708 43.035,673.144 C41.525,668.953 38.113,662.431 33.132,657.852 C33.894,657.852 34.656,657.852 35.418,657.852 C33.767,655.882 32.116,653.913 30.466,651.944 C31.101,652.292 31.736,652.639 32.370,652.986 C32.497,652.639 32.624,652.292 32.751,651.944 C31.355,650.438 29.958,648.932 28.562,647.426 C30.191,648.465 29.868,648.338 31.228,648.469 C30.974,648.237 30.720,648.005 30.466,647.774 C29.070,646.036 27.673,644.298 26.276,642.561 C27.165,643.140 28.054,643.719 28.942,644.298 C29.069,644.182 29.196,644.066 29.323,643.951 C27.800,642.329 26.276,640.707 24.753,639.085 C26.112,638.288 25.613,639.494 25.895,638.043 C24.880,636.653 23.864,635.262 22.848,633.873 C24.586,634.825 23.613,634.596 25.134,634.567 C23.864,632.945 22.594,631.323 21.325,629.702 C22.631,630.524 22.887,631.679 23.229,630.050 C21.959,628.659 20.690,627.269 19.420,625.879 C20.545,626.050 20.924,626.328 22.086,626.227 C20.944,624.952 19.801,623.678 18.658,622.403 C20.222,621.910 19.011,622.522 20.182,621.709 C18.174,619.822 16.435,617.040 15.611,614.063 C17.508,614.443 16.134,614.312 17.516,613.715 C13.533,610.016 12.084,602.700 10.660,598.424 C12.291,599.037 11.108,598.847 12.564,598.772 C12.310,598.308 12.056,597.845 11.802,597.381 C11.040,596.686 10.279,595.991 9.517,595.296 C11.416,595.267 10.187,595.531 11.421,594.949 C9.816,593.092 6.896,584.239 6.470,581.395 C7.105,581.511 7.740,581.627 8.374,581.742 C5.948,578.720 6.255,578.003 4.946,574.445 C6.577,575.057 5.395,574.866 6.851,574.792 C4.710,572.041 5.013,571.233 3.804,567.841 C5.435,568.455 4.252,568.263 5.708,568.189 C4.946,567.263 4.184,566.335 3.423,565.409 C4.476,565.440 4.568,565.587 5.708,565.409 C-0.911,558.408 7.369,542.647 0.376,535.521 C1.822,535.059 2.144,536.085 1.899,534.130 C1.433,530.407 0.468,525.609 -0.005,519.187 C1.399,518.163 1.935,513.020 1.518,510.847 C1.391,511.194 1.264,511.541 1.137,511.889 C-0.176,492.122 5.943,473.932 9.517,455.589 C9.009,455.821 8.501,456.052 7.993,456.284 C7.866,456.169 7.740,456.052 7.612,455.936 C13.968,449.932 14.367,430.427 19.801,422.573 C19.166,422.458 18.531,422.341 17.897,422.226 C21.749,418.686 20.018,418.256 22.848,414.233 C22.213,414.117 21.578,414.001 20.944,413.885 C22.983,412.108 39.571,377.152 39.607,376.699 C39.099,376.699 38.592,376.699 38.084,376.699 C40.343,374.844 42.421,372.933 42.655,371.139 C42.147,371.139 41.639,371.139 41.131,371.139 C49.329,363.680 61.875,340.657 65.127,333.258 C67.612,327.605 75.608,324.088 76.554,318.662 C76.046,318.893 75.538,319.124 75.030,319.356 C74.903,319.241 74.776,319.124 74.649,319.009 C77.857,316.312 83.730,311.817 84.172,308.930 C82.347,308.210 91.206,301.252 93.313,298.505 C92.551,298.505 91.789,298.505 91.028,298.505 C100.999,289.368 112.031,278.670 116.547,270.355 C120.675,262.756 132.023,257.611 134.449,251.240 C143.209,243.016 151.971,234.790 160.731,226.566 C160.731,225.871 160.731,225.176 160.731,224.480 ZM126.451,266.879 C127.466,265.953 128.482,265.026 129.498,264.099 C128.482,265.026 127.466,265.953 126.451,266.879 Z"/>
</svg>