<svg xmlns="http://www.w3.org/2000/svg" viewBox="0 0 370.66 157.88"><defs><style>.cls-1{fill:#27aae1;}.cls-2{fill:#c0406d;}.cls-3{fill:#4e5064;}.cls-4{fill:#fffffe;}.cls-5,.cls-7{fill:none;stroke-linecap:round;stroke-linejoin:round;stroke-width:2px;}.cls-5{stroke:#53b7e8;}.cls-6{fill:#242837;}.cls-7{stroke:#fffffe;}.cls-8{fill:#e1f4fd;}</style></defs><title>cloud-with-panda</title><g id="Слой_2" data-name="Слой 2"><g id="Слой_1-2" data-name="Слой 1"><path class="cls-1" d="M117.74,57.06s8.94-1.14,19.46-17.35c8.49,1.34,17.36,2.6,17.36,2.6s-8.25,20.94-25.23,31.59-35.72,0-35.72,0l5.53-13.68Z"/><path class="cls-1" d="M91.71,58.76s71,12.18,76,36.32c-13.81,9.92-15.66,39.37-15.66,39.37l-32.36,3.61L28.78,134.9,32,85,41.56,50.2"/><path class="cls-2" d="M85.87,81.09s37,13.37,48.92-10.78C128,68.06,111.07,63,111.07,63Z"/><path class="cls-2" d="M86.57,80.9s-12.79,12.16-35,18.19c-17.35,4.72-21.75-6.83-21.75-6.83V73.45l11-6.21Z"/><path class="cls-3" d="M23.34,55.92s-3.75-18.44,11.16-16c12,2,5.24,23.05,5.24,23.05Z"/><path class="cls-1" d="M41.56,122.94s-15.79-13-21.35-23.75C10.28,80,23.33,55.92,23.33,55.92L39.74,63s-9,27.58,17.85,37.09"/><path class="cls-3" d="M39.92,28.78c-1.9-.64-4.82-3-6-3.9C30.17,22,29.06,16.75,31.69,13.3s7.94-3.84,11.75-.93a19.42,19.42,0,0,1,5,6.34"/><path class="cls-3" d="M100.86,18.5c1.58-1.22,3.57-4.39,4.4-5.66,2.59-3.9,1.92-9.26-1.71-11.66s-8.76-1-11.4,3a19.52,19.52,0,0,0-2.64,7.63"/><path class="cls-4" d="M118.23,40.5c10.63,17.43-13.68,37.71-37.71,41.76S26.34,75,31.21,55.17c5.59-22.78,12.62-44,36.65-48s38.56,14,50.37,33.36"/><path class="cls-1" d="M67.86,7.14C46.4,10.75,38.5,28.05,33.08,47.93l.05-.07s4,10.88,16.28,12.26,13.27-11,23.38-10.27l3.27-.55c9.32-4,16.06,7.06,27.24,1.73s10.63-17.32,10.63-17.32l0,0C102.85,17.19,89,3.56,67.86,7.14"/><line class="cls-5" x1="74.89" y1="53.52" x2="77.13" y2="66.83"/><path class="cls-6" d="M74.87,54.42c-1.84.31-7.46-2-8.36-5.94s3.61-5.43,6.58-5.93S80.7,42,81.15,46s-4.44,8.1-6.28,8.41"/><path class="cls-5" d="M93.61,58.79S80.05,72.91,58.92,64.64"/><path class="cls-6" d="M45.8,53c4.53,2.76,11.11.22,14.71-5.68s2.83-12.92-1.7-15.68-11.11-.21-14.7,5.69S41.27,50.27,45.8,53"/><path class="cls-7" d="M55.55,43.27s-1.87-4.57-6.26-2.57"/><path class="cls-6" d="M102.42,43.48c-3.37,4.1-10.43,3.85-15.75-.54s-6.92-11.27-3.54-15.37,10.42-3.84,15.75.55,6.91,11.27,3.54,15.36"/><path class="cls-7" d="M90,37.46s.26-4.93,5.06-4.48"/><path class="cls-8" d="M20.47,157.88H333.13c36.57,0,52.74-37.46,19.28-50.75s-67.3,13.29-67.3,13.29S262.86,85.09,223.48,88.2c-46,3.62-61.54,37.64-61.54,37.64S130.81,83.41,92.59,90.66s-50.93,26.27-50.93,26.27-21.25-19.8-36-5.3C-13,130.06,20.47,157.88,20.47,157.88"/><path class="cls-3" d="M141.65,114.89s-4-9.93.75-15.73c8.77-10.79,19.76-6.49,22.64-2.77s11.41,25.21,2.79,33.44c-8,7.6-35.24,18.65-38.21,5.85-3-13.09,18-24.11,18-24.11"/><path class="cls-1" d="M138.91,81.46s3.8-3.55,19.3-7.56l-1.9,6.65"/><path class="cls-3" d="M166,72.31s-10.69.37-14.11,7c-6.35,12.38,2,20.71,6.58,21.85s27.67.3,31.74-10.9c3.75-10.33,2.89-39.77-10-37.33C167,55.43,165.35,79.15,165.35,79.15"/><path class="cls-3" d="M137.2,39.71s3.11-13.91,13.29-12.22c9.59,1.6,4.07,14.81,4.07,14.81Z"/></g></g></svg>