<svg xmlns="http://www.w3.org/2000/svg" viewBox="0 0 1649.1 661.75"><defs><style>.cls-1{fill:#e1f4fd;}.cls-2{fill:none;stroke:#53b7e8;stroke-linecap:round;stroke-linejoin:round;stroke-width:2px;}</style></defs><title>lake</title><g id="Слой_2" data-name="Слой 2"><g id="Слой_1-2" data-name="Слой 1"><path class="cls-1" d="M1021.37,0c-92.61,0-274.94-.26-289,37.13s131.45,44.1,114.86,87.54-364.48,9.13-369.92,49.68,213.34,35,212.35,79.61S.9,246.25,10,360.13c3.77,47.45-71.51,139.64,140.94,164,297.4,34.14,826.38,0,647.48,100.4-68.93,38.68,11.9,37.17,454.41,37.17,410,0,633.32-422.21,4.06-426.27-80.21-.52-170.51-97.44,73.07-105.56C1398.8,127.62,1508.54,0,1021.37,0"/><path class="cls-2" d="M530.56,283.89s35.08-136.23,54.33-141.28,26,16.54,26,16.54-5.77-10.3-15.43-5.2-29.78,129.94-29.78,129.94"/><path class="cls-2" d="M639.42,169.25s-11.09-.47-7.71-13.84,12.69-35.87,24.11-32.66S652.18,166.94,639.42,169.25Z"/><path class="cls-2" d="M549.24,152.41s-5.3,3.39-8.08-3.91-5.8-20.77.55-23S554.41,147.18,549.24,152.41Z"/><path class="cls-2" d="M771.92,199.1s-5.34-3.33.07-9,16.3-14.12,21-9.34S778.85,201.54,771.92,199.1Z"/><path class="cls-2" d="M603.12,283.89s5.16-74.56,33.12-115.43"/><line class="cls-2" x1="655.81" y1="121.62" x2="674.01" y2="85.53"/><path class="cls-2" d="M585.28,283.89s1.19-44.62-7.14-66.31-47.58-19-47.58-19S568,181,582.9,193.48s28,90.41,28,90.41"/><path class="cls-2" d="M297,293.16c9.33,0,9.33,13.06,18.66,13.06s9.32-13.06,18.65-13.06,9.33,13.06,18.65,13.06,9.33-13.06,18.65-13.06,9.33,13.06,18.66,13.06,9.32-13.06,18.65-13.06,9.33,13.06,18.66,13.06"/><path class="cls-2" d="M558.12,293.16c-9.33,0-9.33,13.06-18.66,13.06s-9.32-13.06-18.65-13.06-9.33,13.06-18.65,13.06-9.33-13.06-18.65-13.06-9.33,13.06-18.66,13.06-9.32-13.06-18.65-13.06-9.33,13.06-18.65,13.06"/><path class="cls-2" d="M558.12,293.16c-9.33,0-9.33,13.06-18.66,13.06s-9.32-13.06-18.65-13.06-9.33,13.06-18.65,13.06-9.33-13.06-18.65-13.06-9.33,13.06-18.66,13.06-9.32-13.06-18.65-13.06-9.33,13.06-18.65,13.06"/><path class="cls-2" d="M558.12,293.16c9.32,0,9.32,13.06,18.65,13.06s9.32-13.06,18.65-13.06,9.33,13.06,18.65,13.06,9.33-13.06,18.66-13.06,9.32,13.06,18.65,13.06,9.33-13.06,18.65-13.06,9.33,13.06,18.66,13.06"/><path class="cls-2" d="M558.12,293.16c9.32,0,9.32,13.06,18.65,13.06s9.32-13.06,18.65-13.06,9.33,13.06,18.65,13.06,9.33-13.06,18.66-13.06,9.32,13.06,18.65,13.06,9.33-13.06,18.65-13.06,9.33,13.06,18.66,13.06"/><path class="cls-2" d="M819.26,293.16c-9.33,0-9.33,13.06-18.66,13.06s-9.32-13.06-18.65-13.06-9.32,13.06-18.65,13.06-9.33-13.06-18.65-13.06-9.33,13.06-18.66,13.06-9.32-13.06-18.65-13.06-9.33,13.06-18.65,13.06"/><path class="cls-2" d="M819.26,293.16c-9.33,0-9.33,13.06-18.66,13.06s-9.32-13.06-18.65-13.06-9.32,13.06-18.65,13.06-9.33-13.06-18.65-13.06-9.33,13.06-18.66,13.06-9.32-13.06-18.65-13.06-9.33,13.06-18.65,13.06"/><path class="cls-2" d="M558.12,310.47c9.32,0,9.32,13.06,18.65,13.06s9.32-13.06,18.65-13.06,9.33,13.06,18.65,13.06,9.33-13.06,18.66-13.06,9.32,13.06,18.65,13.06,9.33-13.06,18.65-13.06,9.33,13.06,18.66,13.06"/><path class="cls-2" d="M558.12,310.47c9.32,0,9.32,13.06,18.65,13.06s9.32-13.06,18.65-13.06,9.33,13.06,18.65,13.06,9.33-13.06,18.66-13.06,9.32,13.06,18.65,13.06,9.33-13.06,18.65-13.06,9.33,13.06,18.66,13.06"/><path class="cls-2" d="M819.26,310.47c-9.33,0-9.33,13.06-18.66,13.06s-9.32-13.06-18.65-13.06-9.32,13.06-18.65,13.06-9.33-13.06-18.65-13.06-9.33,13.06-18.66,13.06-9.32-13.06-18.65-13.06-9.33,13.06-18.65,13.06"/><path class="cls-2" d="M819.26,310.47c-9.33,0-9.33,13.06-18.66,13.06s-9.32-13.06-18.65-13.06-9.32,13.06-18.65,13.06-9.33-13.06-18.65-13.06-9.33,13.06-18.66,13.06-9.32-13.06-18.65-13.06-9.33,13.06-18.65,13.06"/><path class="cls-2" d="M819.26,310.47c9.32,0,9.32,13.06,18.65,13.06s9.33-13.06,18.65-13.06,9.33,13.06,18.65,13.06"/><path class="cls-2" d="M819.26,310.47c9.32,0,9.32,13.06,18.65,13.06s9.33-13.06,18.65-13.06,9.33,13.06,18.65,13.06"/><path class="cls-2" d="M595.42,330.89c-9.32,0-9.32,13.06-18.65,13.06s-9.33-13.06-18.65-13.06S548.79,344,539.46,344s-9.32-13.06-18.65-13.06S511.49,344,502.16,344s-9.33-13.06-18.65-13.06S474.18,344,464.85,344"/><path class="cls-2" d="M595.42,330.89c-9.32,0-9.32,13.06-18.65,13.06s-9.33-13.06-18.65-13.06S548.79,344,539.46,344s-9.32-13.06-18.65-13.06S511.49,344,502.16,344s-9.33-13.06-18.65-13.06S474.18,344,464.85,344"/><path class="cls-2" d="M595.42,330.89c9.33,0,9.33,13.06,18.65,13.06s9.33-13.06,18.66-13.06S642.05,344,651.38,344"/><path class="cls-2" d="M595.42,330.89c9.33,0,9.33,13.06,18.65,13.06s9.33-13.06,18.66-13.06S642.05,344,651.38,344"/><path class="cls-2" d="M809.22,422.94c-9.32,0-9.32,13.06-18.65,13.06s-9.33-13.06-18.65-13.06S762.59,436,753.26,436s-9.32-13.06-18.65-13.06S725.29,436,716,436s-9.33-13.06-18.65-13.06S688,436,678.65,436"/><path class="cls-2" d="M809.22,422.94c9.33,0,9.33,13.06,18.65,13.06s9.33-13.06,18.66-13.06S855.85,436,865.18,436"/><path class="cls-2" d="M699.78,440.55c-9.33,0-9.33,13.05-18.65,13.05s-9.33-13.05-18.65-13.05-9.33,13.05-18.66,13.05-9.32-13.05-18.65-13.05-9.33,13.05-18.65,13.05-9.33-13.05-18.66-13.05-9.32,13.05-18.65,13.05"/><path class="cls-2" d="M699.78,439.55c9.33,0,9.33,13.05,18.65,13.05s9.33-13.05,18.66-13.05,9.32,13.05,18.65,13.05"/><line class="cls-2" x1="537.95" y1="107.41" x2="541.71" y2="125.5"/><line class="cls-2" x1="549.24" y1="152.41" x2="558.12" y2="189.89"/><line class="cls-2" x1="803.72" y1="171.15" x2="793.02" y2="180.78"/><path class="cls-2" d="M771.92,199.1S746,222,734.57,236.45"/><path class="cls-2" d="M661.14,279s13.08-53.8,43.21-79.86,45.88-30.64,45.88-30.64S682.51,228.19,689.67,279c0,0,18.64-56,42.71-66.09C718,234.36,717.06,279,717.06,279"/><path class="cls-2" d="M759.08,283.89s-28-61.83-53.4-78.46c18.39,36.76,26.7,78.46,26.7,78.46"/><path class="cls-2" d="M674,283.89s-9.1-53.72-42.94-78.46c20.31,44.64,17.74,78.46,17.74,78.46"/></g></g></svg>