<svg xmlns="http://www.w3.org/2000/svg" viewBox="0 0 279.38 330.87"><defs><style>.cls-1{fill:#4e5064;}.cls-10,.cls-2{fill:none;stroke-linecap:round;stroke-linejoin:round;stroke-width:4px;}.cls-2{stroke:#242837;}.cls-3{fill:#f5f19a;}.cls-4{fill:#e5bd79;}.cls-5{fill:#fff;}.cls-6{fill:#242837;}.cls-7{fill:#5dbc68;}.cls-8{fill:#fffffe;}.cls-9{fill:#f8b6c1;}.cls-10{stroke:#fffffe;}.cls-11{fill:#787180;}.cls-12{fill:#9ddcf9;}.cls-13{fill:#72c6ef;}.cls-14{fill:#c0406d;}.cls-15{fill:#e7839a;}.cls-16{fill:#faf9d5;}</style></defs><title>panda1</title><g id="Слой_2" data-name="Слой 2"><g id="Слой_1-2" data-name="Слой 1"><path class="cls-1" d="M71.71,291.48S72.76,308,68.76,313s6.64,8.9,6.64,8.9l31.91-16.53Z"/><path class="cls-2" d="M71.71,291.48S72.76,308,68.76,313s6.64,8.9,6.64,8.9l31.91-16.53Z"/><path class="cls-1" d="M115.68,297.3s0,35-45.52,30.44c-31.95-3.19-17.33-16.63,8.15-14.73"/><path class="cls-2" d="M115.68,297.3s0,35-45.52,30.44c-31.95-3.19-17.33-16.63,8.15-14.73"/><path class="cls-1" d="M150.4,289.34S142,308.72,146,313.73s-6.64,8.91-6.64,8.91L107.48,306.1Z"/><path class="cls-2" d="M150.4,289.34S142,308.72,146,313.73s-6.64,8.91-6.64,8.91L107.48,306.1Z"/><path class="cls-1" d="M99.11,298s0,35,45.52,30.44c32-3.19,17.33-16.63-8.15-14.74"/><path class="cls-2" d="M99.11,298s0,35,45.52,30.44c32-3.19,17.33-16.63-8.15-14.74"/><path class="cls-3" d="M187.87,252.74c-17.4,41.6-77.43,67.05-117.83,47.59-28.39-13.68-41.41-47.47-35.33-82.24,1.29-7.38-4.52-28.86-1.47-36.15,17.4-41.6,84.57-52.79,113.37-40.74s58.66,69.94,41.26,111.54"/><path class="cls-2" d="M187.87,252.74c-17.4,41.6-77.43,67.05-117.83,47.59-28.39-13.68-41.41-47.47-35.33-82.24,1.29-7.38-4.52-28.86-1.47-36.15,17.4-41.6,84.57-52.79,113.37-40.74S205.27,211.14,187.87,252.74Z"/><polygon class="cls-4" points="136.76 169.95 127.82 240.94 110.66 252.97 120.67 161.3 136.76 169.95"/><polygon class="cls-5" points="137.4 165.46 128.94 232.18 190.41 181.94 137.4 165.46"/><path class="cls-6" d="M93.65,80.52a31,31,0,0,1-7.75-5.7c-5.67-6.11-6-15.7-.37-20.95s15.07-4.31,20.86,1.93a34.62,34.62,0,0,1,6.83,12.61"/><path class="cls-6" d="M255.84,81.44a30.87,30.87,0,0,0,8.43-4.66c6.4-5.33,8-14.79,3.05-20.73s-14.39-6.21-20.94-.76A34.66,34.66,0,0,0,238,66.93"/><path class="cls-3" d="M126.77,10.52A8.17,8.17,0,1,1,119,2a8.16,8.16,0,0,1,7.81,8.51"/><path class="cls-2" d="M126.77,10.52A8.17,8.17,0,1,1,119,2,8.16,8.16,0,0,1,126.77,10.52Z"/><path class="cls-1" d="M214.52,37.35c-.66,15.58-16.16,27.56-34.6,26.78S147.06,50.07,147.73,34.5s16.16-27.56,34.6-26.77,32.86,14.05,32.19,29.62"/><path class="cls-2" d="M214.52,37.35c-.66,15.58-16.16,27.56-34.6,26.78S147.06,50.07,147.73,34.5s16.16-27.56,34.6-26.77S215.19,21.78,214.52,37.35Z"/><path class="cls-7" d="M204.47,46.33c-.47,11.08-11.49,19.6-24.6,19S156.5,55.37,157,44.3s11.49-19.6,24.6-19,23.37,10,22.89,21.07"/><path class="cls-8" d="M255.61,131.38c12.22,29.79-37.38,52.3-80.66,50.45S83.28,153,98.9,124.68C116.84,92.19,136.7,62.57,180,64.42s62.06,33.9,75.64,67"/><path class="cls-2" d="M255.61,131.38c12.22,29.79-37.38,52.3-80.66,50.45S83.28,153,98.9,124.68C116.84,92.19,136.7,62.57,180,64.42S242,98.32,255.61,131.38Z"/><path class="cls-6" d="M175.77,151.23c-2-.09-7.26-3.68-7.32-8s4.91-4.81,8.09-4.68,8,1.08,7.55,5.35-6.36,7.38-8.32,7.3"/><line class="cls-2" x1="176.09" y1="150.71" x2="171.79" y2="161.26"/><path class="cls-1" d="M182.45,37.49v0l-.7,0-.69,0v0c-86.65-6-126.57,76.45-84.69,101.19,30.69-74.52,63.29-72.39,83-47,.15-3.53.25-3.53.1,0,21.82-23.61,53-23,77.25,53.86,43.83-21.08,17.29-104.22-74.29-108"/><path class="cls-2" d="M182.45,37.49v0l-.7,0-.69,0v0c-86.65-6-126.57,76.45-84.69,101.19,30.69-74.52,63.29-72.39,83-47,.15-3.53.25-3.53.1,0,21.82-23.61,53-23,77.25,53.86C300.57,124.4,274,41.26,182.45,37.49Z"/><line class="cls-2" x1="125.84" y1="14.94" x2="148.89" y2="24.88"/><line class="cls-2" x1="215.84" y1="33.32" x2="237.6" y2="27.42"/><path class="cls-5" d="M127.82,124s-7-1.46-6.9-8.52c-1.51,6,4.21,10.07,4.21,10.07Z"/><path class="cls-9" d="M221.51,144.71c8.47-3.38,17.36-1,19.86,5.22S239,164,230.56,167.38s-17.37,1.05-19.87-5.21,2.35-14.08,10.82-17.46"/><path class="cls-6" d="M227.14,150.41c-6.9,5.49-18.3,2.65-25.44-6.35s-7.35-20.73-.44-26.22,18.3-2.65,25.45,6.35,7.34,20.73.43,26.22"/><path class="cls-10" d="M206,133.35a15.08,15.08,0,0,1,13.57,2.49"/><path class="cls-9" d="M136.17,137.17c-8.15-4.1-17.21-2.53-20.23,3.5s1.13,14.22,9.28,18.31,17.21,2.52,20.23-3.5-1.13-14.22-9.28-18.31"/><path class="cls-6" d="M130.07,142.37c6.41,6,18,4.19,25.89-4.16s9.09-20,2.68-26.09-18-4.2-25.9,4.15-9.09,20-2.67,26.1"/><path class="cls-10" d="M152.58,127.17a15.11,15.11,0,0,0-13.74,1.32"/><path class="cls-11" d="M223,48.43s75.43,37.17,32.89,87.72a56.86,56.86,0,0,1,2.25,5.67s11.55-5.68,16.3-23.51S264.12,61.72,223,48.43"/><path class="cls-2" d="M178.41,167.86c0,3.87-4.46,7-10,7s-10-3.14-10-7,4.46-7,10-7S178.41,164,178.41,167.86Z"/><path class="cls-12" d="M36.4,45.63A103.16,103.16,0,0,1,61.67,246.11L24,144.53Z"/><path class="cls-2" d="M36.4,45.63A103.16,103.16,0,0,1,61.67,246.11L24,144.53Z"/><path class="cls-13" d="M25.06,144.77,63.7,54.31A100.58,100.58,0,0,1,83.8,65Z"/><path class="cls-13" d="M25.41,144.19,101.27,79a105,105,0,0,1,13.4,18.65Z"/><path class="cls-13" d="M25.61,144.51l98.17-26.79s4.25,11.23,4.6,22.33Z"/><path class="cls-13" d="M25.9,144.69,128,162.58a77.94,77.94,0,0,1-5.76,21.22Z"/><path class="cls-13" d="M25.75,144.6l86.35,59.18S106.18,214,97.57,221Z"/><path class="cls-13" d="M26.75,146.2l55.11,87S71.39,240.74,63,243.13Z"/><path class="cls-4" d="M173.32,190.31s-42,60.36-130.22,80c5.45,10.88,11,15.93,11,15.93S152,259.44,177.56,209.08c4.14-15.09-4.24-18.77-4.24-18.77"/><path class="cls-3" d="M186.79,255.39c35.14-13.69,44-30.57,38.32-44.68S193,170,193,170l-41.4,65.41,16.82,9.39"/><path class="cls-2" d="M186.79,255.39c35.14-13.69,44-30.57,38.32-44.68S193,170,193,170l-41.4,65.41,16.82,9.39"/><path class="cls-1" d="M189,176.31s-26.36-14.13-35.68.6c-11.37,18,14,33.56,14,33.56Z"/><path class="cls-2" d="M189,176.31s-26.36-14.13-35.68.6c-11.37,18,14,33.56,14,33.56Z"/><path class="cls-14" d="M193,172.17l-39.27,62.54,15.94,9.17s36.54-52.46,38.48-55c-4.84-6.5-15.15-16.75-15.15-16.75"/><path class="cls-3" d="M37.15,218.29s-22.43-16.35-29.82-34c-14.07-33.68,4.16-69.82,4.16-69.82L57,160.86s-18.53,24.88-19.9,33.8"/><path class="cls-2" d="M37.15,218.29s-22.43-16.35-29.82-34c-14.07-33.68,4.16-69.82,4.16-69.82L57,160.86s-18.53,24.88-19.9,33.8"/><path class="cls-1" d="M11.49,114.43s17.06-13.58,24.21-1.37,3.12,27.84,3.12,27.84Z"/><path class="cls-2" d="M11.49,114.43s17.06-13.58,24.21-1.37,3.12,27.84,3.12,27.84Z"/><path class="cls-14" d="M11.86,117S6.7,129.3,6.12,135c3.19,3,39.33,40.24,39.33,40.24L55.11,161Z"/><polygon class="cls-15" points="189.16 178.34 203.88 194.96 208.18 188.92 193.03 172.17 189.16 178.34"/><path class="cls-16" d="M203.88,195s18.12,21.8,18.67,32c5.76-12.14-.49-22.18-14.37-38.09l-4.3,6"/></g></g></svg>