<svg xmlns="http://www.w3.org/2000/svg" xmlns:xlink="http://www.w3.org/1999/xlink" viewBox="0 0 997.04 723.65">
    <defs>
        <style>
            .cls-1,.cls-15,.cls-4,.cls-8{fill:none;}.cls-2{isolation:isolate;}.cls-3{fill:#4e5064;}.cls-4{stroke:#242837;}.cls-15,.cls-4,.cls-8{stroke-linecap:round;stroke-linejoin:round;}.cls-4,.cls-8{stroke-width:4px;}.cls-5{fill:#9f6eaf;}.cls-6{fill:#fffffe;}.cls-7{fill:#242837;}.cls-8{stroke:#fffffe;}.cls-9{fill:#d99f59;}.cls-10{fill:#e5bd79;}.cls-11{fill:#c89b70;}.cls-12{opacity:0.76;mix-blend-mode:multiply;}.cls-13{clip-path:url(#clip-path);}.cls-14{fill:#c797c5;}.cls-15{stroke:#53b7e8;stroke-width:2px;}.cls-16{fill:#d2587e;}.cls-17{fill:#e7839a;}.cls-18{fill:#9ddcf9;}
        </style>
        <clipPath id="clip-path">
            <rect class="cls-1" x="26.83" y="14.36" width="576.19" height="156.54"/>
        </clipPath>
    </defs>
    <title>panda2</title>
    <g class="cls-2">
        <g id="Слой_2" data-name="Слой 2">
            <g id="Слой_1-2" data-name="Слой 1">
                <path class="cls-3"
                      d="M454.46,502.78s15.78,24.68,14.6,88.16c-1.15,62.29-71,79.37-111,78.75-20.26-.32-28.29-19.17-9.4-31.74,39.58-26.35,16.79-107,16.79-107Z"/>
                <path class="cls-4"
                      d="M454.46,502.78s15.78,24.68,14.6,88.16c-1.15,62.29-71,79.37-111,78.75-20.26-.32-28.29-19.17-9.4-31.74,39.58-26.35,16.79-107,16.79-107Z"/>
                <path class="cls-3" d="M367.68,647.21s-6.84,11.15,0,22.3"/>
                <path class="cls-4" d="M367.68,647.21s-6.84,11.15,0,22.3"/>
                <path class="cls-3" d="M391.5,645.49s-5.61,14.67,0,21"/>
                <path class="cls-4" d="M391.5,645.49s-5.61,14.67,0,21"/>
                <path class="cls-3" d="M589.1,515.54s43.78,52.32,86.34,41.15S709,479.53,645.11,456.13"/>
                <path class="cls-4" d="M589.1,515.54s43.78,52.32,86.34,41.15S709,479.53,645.11,456.13"/>
                <line class="cls-3" x1="664.38" y1="540.88" x2="679.21" y2="555.51"/>
                <line class="cls-4" x1="664.38" y1="540.88" x2="679.21" y2="555.51"/>
                <line class="cls-3" x1="681.58" y1="523.89" x2="698.55" y2="537.6"/>
                <line class="cls-4" x1="681.58" y1="523.89" x2="698.55" y2="537.6"/>
                <path class="cls-5"
                      d="M204,386.82C259.52,578.74,442.88,591,525.89,573.43s179.3-93.62,135.49-222.67C637.87,281.48,557.14,214.62,511.9,196.94L146.14,230.1,135.84,335"/>
                <path class="cls-4"
                      d="M204,386.82C259.52,578.74,442.88,591,525.89,573.43s179.3-93.62,135.49-222.67C637.87,281.48,557.14,214.62,511.9,196.94L146.14,230.1,135.84,335"/>
                <path class="cls-6"
                      d="M529,198c36.73,68.84-77.39,135.22-182.17,141.3s-228.09-47.2-197.31-119.26c35.34-82.72,76-159,180.8-165.07S488.17,121.63,529,198"/>
                <path class="cls-4"
                      d="M529,198c36.73,68.84-77.39,135.22-182.17,141.3s-228.09-47.2-197.31-119.26c35.34-82.72,76-159,180.8-165.07S488.17,121.63,529,198Z"/>
                <path class="cls-7"
                      d="M225.26,246.45c14.65,11.28,38.42,5,53.11-14.11s14.72-43.68.08-55-38.42-5-53.11,14.11-14.72,43.67-.08,54.95"/>
                <path class="cls-8" d="M267,200.09c-10.25-3.15-25.83-1.47-30.5,8.38"/>
                <path class="cls-7"
                      d="M439,244c-14.07,13.7-39.94,10-57.79-8.36s-20.9-44.28-6.84-58,39.94-9.95,57.79,8.37,20.9,44.28,6.84,58"/>
                <path class="cls-9" d="M325,7,7.4,135.76c6.39,10.09,18.29,15.53,43.62,23.85Z"/>
                <path class="cls-10" d="M2,133c.54,34.13,150.31,59.42,325.88,56.62S638.36,157,637.82,122.85L324.89,2Z"/>
                <path class="cls-4" d="M2,133c.54,34.13,150.31,59.42,325.88,56.62S638.36,157,637.82,122.85L324.89,2Z"/>
                <path class="cls-11" d="M632.73,126.15,324.87,6.9,519.15,169.17c69.94-12.22,106.51-28,113.58-43"/>
                <g class="cls-12">
                    <g class="cls-13">
                        <path class="cls-9"
                              d="M316.63,30.06q22.88-.36,44.69-1.36L324.2,14.37,285.05,30.25q15.61.06,31.58-.19"/>
                        <path class="cls-9"
                              d="M317.2,65.22c43.4-.69,84.17-3.14,120.7-6.94L402.57,44.63c-26.19,1.91-54,3.16-83,3.62-26.5.42-52.37.17-77.15-.69l-37.7,15.29c35.09,2.13,73.11,3,112.52,2.37"/>
                        <path class="cls-9"
                              d="M318.32,135.54c103.24-1.64,191.57-13.19,243.37-29.46l-24.92-9.62c-52.88,12.32-129.22,20.73-216.12,22.11-84.22,1.35-162.14-4.16-218.48-14.13L73.52,116.06c56.83,13.29,146.53,21.05,244.8,19.48"/>
                        <path class="cls-9"
                              d="M603,122l-15.94-6.15c-45.64,20.58-145.65,35.92-265.87,37.84-116.53,1.86-221-9.39-272.91-27.44L26.83,135c41,22.77,158.62,37.83,292.05,35.7C459.36,168.46,572.24,147.88,603,122"/>
                        <path class="cls-9"
                              d="M317.76,100.38c72.15-1.15,137-7.14,187.24-16.19L474.49,72.41c-44.41,6.12-97.11,10.09-154.4,11-55,.88-107.26-1.16-152.62-5.46L134.09,91.49c51.75,6.59,115.65,10,183.67,8.89"/>
                    </g>
                </g>
                <path class="cls-4" d="M2,133c.54,34.13,150.31,59.42,325.88,56.62S638.36,157,637.82,122.85L324.89,2Z"/>
                <path class="cls-8" d="M408.7,198H386.49a47.05,47.05,0,0,0,11.1,13.29"/>
                <path class="cls-5"
                      d="M166.53,315.85V165.45s-100.11,33.24-106.27,102C55.85,316.73,89,383.67,204,386.82"/>
                <path class="cls-4"
                      d="M166.53,315.85V165.45s-100.11,33.24-106.27,102C55.85,316.73,89,383.67,204,386.82"/>
                <path class="cls-3"
                      d="M166.53,165.45s85.07-24.8,92.65,0C262.88,177.54,236.13,188,204,198c-4.57,18.88-15.64,35.92-37.42,41.3Z"/>
                <path class="cls-4"
                      d="M166.53,165.45s85.07-24.8,92.65,0C262.88,177.54,236.13,188,204,198c-4.57,18.88-15.64,35.92-37.42,41.3Z"/>
                <path class="cls-3" d="M579.61,418.21s-10.42,40.32,26.45,41c44.13.79,46.09-46.57,46.09-46.57Z"/>
                <path class="cls-4" d="M579.61,418.21s-10.42,40.32,26.45,41c44.13.79,46.09-46.57,46.09-46.57Z"/>
                <path class="cls-5"
                      d="M564.65,295s26.47,78.15,0,128.12c38.82,4.11,122.38-8.89,122.38-8.89s-14.7-92.6-81.46-149"/>
                <path class="cls-4"
                      d="M564.65,295s26.47,78.15,0,128.12c38.82,4.11,122.38-8.89,122.38-8.89s-14.7-92.6-81.46-149"/>
                <path class="cls-14"
                      d="M164.1,168.69c-67,26.51-115.37,67.54-98.49,131.22C62.52,224.25,164.1,192.3,164.1,192.3"/>
                <path class="cls-6"
                      d="M695.25,684c-13.82-11.3-28.09-23.16-35.61-39.35s-6.11-38,8.05-48.88c4.85-3.72,11.18-6.35,13.46-12,2.56-6.36-1.21-13.28-3.77-19.63-8.5-21-3-47,13.25-62.75S733,480.91,753.75,490c5.1,2.24,10.2,5.3,15.76,5,8.43-.47,14.24-8.22,20-14.36,20.21-21.39,54.27-28.27,81.21-16.39s44.82,41.66,42.66,71c16.08-1,32.57-2.06,48,2.49s30,15.89,33.63,31.59c5.83,25-16.25,47-36.34,62.87,15,9,32.11,21.7,30.71,39.18-.87,10.74-8.87,19.57-17.54,26a95.6,95.6,0,0,1-64.34,18.18c-10.61-.92-21.18-3.62-31.76-2.45-28.63,3.17-78.32,3.78-106.49-2.26"/>
                <path class="cls-15"
                      d="M695.25,684c-13.82-11.3-28.09-23.16-35.61-39.35s-6.11-38,8.05-48.88c4.85-3.72,11.18-6.35,13.46-12,2.56-6.36-1.21-13.28-3.77-19.63-8.5-21-3-47,13.25-62.75S733,480.91,753.75,490c5.1,2.24,10.2,5.3,15.76,5,8.43-.47,14.24-8.22,20-14.36,20.21-21.39,54.27-28.27,81.21-16.39s44.82,41.66,42.66,71c16.08-1,32.57-2.06,48,2.49s30,15.89,33.63,31.59c5.83,25-16.25,47-36.34,62.87,15,9,32.11,21.7,30.71,39.18-.87,10.74-8.87,19.57-17.54,26a95.6,95.6,0,0,1-64.34,18.18c-10.61-.92-21.18-3.62-31.76-2.45-28.63,3.17-78.32,3.78-106.49-2.26"/>
                <path class="cls-6"
                      d="M853.29,651.4C846.82,639.82,832.82,633,829,620.34c-1.69-5.64-1-11.66-.59-17.53,1.47-22.41-4.06-48.19-23.56-59.35-20.41-11.68-46.17-2.15-66.74,9.26-2.26,1.26-4.67,2.57-7.26,2.46-3.41-.16-6.15-2.71-8.68-5-15.61-14-36.81-22.71-57.57-19.88s-40.07,18.86-43.27,39.57c-15-7.91-35.43-3.42-45.74,10.06s-9.31,34.36,2.24,46.78c2.93,3.15,6.56,6,7.63,10.18,1.5,5.82-2.56,11.43-4.47,17.14-4.06,12.17,2.31,25.93,12.22,34.09S616,699.81,628.41,703c63.74,16.14,114.19,27.91,201.89,12.5,0,0,45.23-24.24,23-64.06"/>
                <path class="cls-15"
                      d="M853.29,651.4C846.82,639.82,832.82,633,829,620.34c-1.69-5.64-1-11.66-.59-17.53,1.47-22.41-4.06-48.19-23.56-59.35-20.41-11.68-46.17-2.15-66.74,9.26-2.26,1.26-4.67,2.57-7.26,2.46-3.41-.16-6.15-2.71-8.68-5-15.61-14-36.81-22.71-57.57-19.88s-40.07,18.86-43.27,39.57c-15-7.91-35.43-3.42-45.74,10.06s-9.31,34.36,2.24,46.78c2.93,3.15,6.56,6,7.63,10.18,1.5,5.82-2.56,11.43-4.47,17.14-4.06,12.17,2.31,25.93,12.22,34.09S616,699.81,628.41,703c63.74,16.14,114.19,27.91,201.89,12.5C830.3,715.46,875.53,691.22,853.29,651.4Z"/>
                <path class="cls-6" d="M653.43,575.16s12.25,72.49,88.83,110.27"/>
                <path class="cls-15" d="M653.43,575.16s12.25,72.49,88.83,110.27"/>
                <path class="cls-6" d="M690.19,583.33s3.06,22.46-19.4,32.67"/>
                <path class="cls-15" d="M690.19,583.33s3.06,22.46-19.4,32.67"/>
                <path class="cls-6" d="M626.88,654.8s38.8,23.48,72.5,3.06"/>
                <path class="cls-15" d="M626.88,654.8s38.8,23.48,72.5,3.06"/>
                <path class="cls-6" d="M937.27,572.1a471,471,0,0,1-48,38.8"/>
                <path class="cls-15" d="M937.27,572.1a471,471,0,0,1-48,38.8"/>
                <path class="cls-6" d="M893.37,561.89s2,15.31,14.29,33.69"/>
                <path class="cls-15" d="M893.37,561.89s2,15.31,14.29,33.69"/>
                <path class="cls-6" d="M758.87,595.58s-12.5,7-7.73,25.41c10.11-7.74,7.73-25.41,7.73-25.41"/>
                <path class="cls-15" d="M758.87,595.58s-12.5,7-7.73,25.41C761.25,613.25,758.87,595.58,758.87,595.58Z"/>
                <path class="cls-6" d="M598.77,605.52s3.57,24.13,25.6,20.69c0-13-25.6-20.69-25.6-20.69"/>
                <path class="cls-15"
                      d="M598.77,605.52s3.57,24.13,25.6,20.69C624.37,613.25,598.77,605.52,598.77,605.52Z"/>
                <path class="cls-6" d="M773.75,692.41s-10.12-11.9,0-23.81c8.93,11.91,0,23.81,0,23.81"/>
                <path class="cls-15" d="M773.75,692.41s-10.12-11.9,0-23.81C782.68,680.51,773.75,692.41,773.75,692.41Z"/>
                <path class="cls-6" d="M839.56,494.55s-11,11.49-5,31c17.85-11.53,5-31,5-31"/>
                <path class="cls-15" d="M839.56,494.55s-11,11.49-5,31C852.42,514,839.56,494.55,839.56,494.55Z"/>
                <path class="cls-6" d="M721,509.44s-2.44,17.52,12.7,20.33c6.84-9.88-12.7-20.33-12.7-20.33"/>
                <path class="cls-15" d="M721,509.44s-2.44,17.52,12.7,20.33C740.56,519.89,721,509.44,721,509.44Z"/>
                <path class="cls-6" d="M881.73,672.79s3.38-10.43,18.79-14.74c-3.16,10.55-9,14.74-18.79,14.74"/>
                <path class="cls-15"
                      d="M881.73,672.79s3.38-10.43,18.79-14.74C897.36,668.6,891.5,672.79,881.73,672.79Z"/>
                <path class="cls-16"
                      d="M568.49,420.84s8.15-19.42,9.76-40c10.24-2.07,94.08-11.32,94.08-11.32s11.23,34.45,12,43.14c-47.43,8-100.05,10.15-115.87,8.22"/>
                <path class="cls-14"
                      d="M672.33,369.48C656,323.93,618.39,262.61,539.85,215.13c0,0,77.32,49.86,114.29,157.1Z"/>
                <path class="cls-17"
                      d="M666.88,415.28l-12.74-43,18.19-2.75s9.42,26.13,12,43.14c-7.93,1.27-17.48,2.66-17.48,2.66"/>
                <polygon class="cls-16" points="164.1 192.3 164.1 316.28 131.91 307.58 131.91 205.43 164.1 192.3"/>
                <path class="cls-17" d="M131.91,206.52s-.55-18-.55-22.8c7.72-5.66,32.74-15,32.74-15V192.3Z"/>
                <path class="cls-6"
                      d="M404.08,332.2c15.3,20.44,81.32,145.35,131.9,170.57,45.69,22.79,84.56,12.93,94.55,10.83-12.86,17.14-105.72,95.54-255.07,49.48,22.52-6.64,75.48-33.31,41.57-95.46-26.57-48.68-68.28-125.29-68.28-125.29s31.84-4.23,55.33-10.13"/>
                <path class="cls-18"
                      d="M330.66,253.91s42-3.32,53.85,18.66c17.55,32.53-58.38,121.13-58.38,121.13S252.76,307,269.45,274.06C280.73,251.79,322.8,254,322.8,254Z"/>
                <path class="cls-4"
                      d="M330.66,253.91s42-3.32,53.85,18.66c17.55,32.53-58.38,121.13-58.38,121.13S252.76,307,269.45,274.06C280.73,251.79,322.8,254,322.8,254Z"/>
                <path class="cls-6"
                      d="M361.83,261.94s13.73,6.82,12,26.31c-2.68,30-46.17,95.77-46.17,95.77s47.21-54,54.07-93.84c4.1-23.86-19.88-28.24-19.88-28.24"/>
                <line class="cls-4" x1="325.15" y1="262.29" x2="325.59" y2="296.25"/>
                <path class="cls-7"
                      d="M324.94,270.4c-5.92.08-22.42-9.84-23.32-22.72s14-15.28,23.53-15.41,24.16,1.9,23.59,14.79-17.88,23.26-23.8,23.34"/>
                <path class="cls-6"
                      d="M345.89,301.31c.55,7.63-5.56,14-19.25,14.94-11.17.81-20.65-4.58-21.19-12s8.08-14.14,19.25-14.94,20.65,4.58,21.19,12"/>
                <path class="cls-4"
                      d="M345.89,301.31c.55,7.63-5.56,14-19.25,14.94-11.17.81-20.65-4.58-21.19-12s8.08-14.14,19.25-14.94S345.35,293.86,345.89,301.31Z"/>
                <path class="cls-16" d="M471.42,361a13.52,13.52,0,1,1-13.52-13.52A13.52,13.52,0,0,1,471.42,361"/>
                <path class="cls-3" d="M464.9,361a7,7,0,1,1-7-7,7,7,0,0,1,7,7"/>
                <path class="cls-16" d="M362.27,397.54A13.52,13.52,0,1,1,348.75,384a13.52,13.52,0,0,1,13.52,13.52"/>
                <path class="cls-3" d="M355.75,397.54a7,7,0,1,1-7-7,7,7,0,0,1,7,7"/>
                <path class="cls-16" d="M395.7,448.24a13.52,13.52,0,1,1-13.52-13.52,13.52,13.52,0,0,1,13.52,13.52"/>
                <path class="cls-3" d="M389.18,448.24a7,7,0,1,1-7-7,7,7,0,0,1,7,7"/>
                <path class="cls-16" d="M417.61,502.78a13.53,13.53,0,1,1-13.53-13.53,13.53,13.53,0,0,1,13.53,13.53"/>
                <path class="cls-3" d="M411.09,502.78a7,7,0,1,1-7-7,7,7,0,0,1,7,7"/>
                <path class="cls-16" d="M506,415.28a13.52,13.52,0,1,1-13.52-13.53A13.53,13.53,0,0,1,506,415.28"/>
                <path class="cls-3" d="M499.52,415.28a7,7,0,1,1-7-7,7,7,0,0,1,7,7"/>
                <path class="cls-16" d="M545.33,463.31a13.52,13.52,0,1,1-13.52-13.52,13.52,13.52,0,0,1,13.52,13.52"/>
                <path class="cls-3" d="M538.82,463.31a7,7,0,1,1-7-7,7,7,0,0,1,7,7"/>
            </g>
        </g>
    </g>
</svg>