<svg xmlns="http://www.w3.org/2000/svg" width="713" height="469" viewBox="0 0 713 469"><g><g><path fill="#f8fbfd" d="M56.144 173.405c4.12-3.788 8.952-7.692 12.64-10.803l.132.364c-3.276 2.923-9.48 7.128-11.043 10.56l29.404-27.068-.133-.121c-1.958 1.842-11.362 11.202-12.906 11.288 6.694-6.153 15.698-15.992 23.15-19.907 2.5-1.313 5.1-4.695 6.653-5.34l10.51-8.376c-.234.52-.161.143-.133.607l.266-.243 3.859-3.034c-.06.38-.226.163.133.364l3.725-2.914c-.235.52-.162.143-.133.607l.266-.242 2.395-1.943.532.486 2.262-2.063s.426.423.798.242l1.996-1.82c2.426-.72 9.15-3.814 11.708-6.07.207.505-.12.257.4.608l1.729-1.579c.207.505-.12.257.399.607l1.73-1.578.132.607c3.66-2.36 6.858-2.76 10.644-3.884l1.33-1.214c5.652-1.541 11.22-2.918 17.297-4.37 2.003-.478 8.69.026 11.176-1.699-.012.336-.068.365 0 .728 3.782-2.36 20.593-.584 26.343-.242 5.136.305 10.55 2.005 17.163 2.306l.931.85c1.923.596 8.283 2.549 11.043 2.549.52 0 1.96 1.353 2.927 1.7 3.413 1.22 6.024 1.865 9.047 2.67l1.73 1.577c3.15.241 7.534 3.672 11.043 5.463 4.678 2.387 9.713 4.24 15.034 8.86l.4-.607 4.257 3.642v-.728c4.098 3.76 8.398 5.963 12.107 9.346 1.17 1.068 5.794 5.047 5.588 4.127 3.254 1.068 8.055 9.046 11.575 9.832l-.931-1.092 21.287 18.936c2.94 2.681 7.722 6.059 9.047 8.982-.456-.288-.546-.69-.665-.122l10.112 9.468c-.045.04-.09.081-.133.122l-.533-.243c3.662 4.286 9.85 8.632 11.31 12.502l3.99 3.885c-.569-.215-.156-.148-.664-.122l3.592 3.52-.133.122c-.511-.03-.096-.084-.665.121 2.659 2.469 2.493 3.241 4.922 5.462l-.665.122c2.81 3.044 3.77 5.234 5.588 8.254l1.464 1.335c.47 1.88 1.958 4.428 3.858 6.19l-.665.365c2.014 1.837 1.283 3.072 3.326 4.976l-.665.121c3.557 3.827 2.66 9.028 5.854 12.139l-.666.121c2.208 2.466 2.573 7.824 3.193 10.439 1.587 6.686 3.088 12.944 3.593 19.543l-.799 11.167.134.364.532-.243c-.864.939-1.667 8.343-1.597 9.71l.532-.242c-.052.049-3.69 12.368-3.725 13.352l.665-.121-1.197 1.335.665.121c-.801.722-3.974 8.705-4.257 9.954l.665-.122-1.464 1.578.666.122c-1.818 1.656-2.352 4.98-3.194 6.555-2.012 3.768-3.563 5.957-5.987 9.588l.666.122c-.867.711-1.9 1.597-1.996 2.306h.532c-3.355 3.037-5.702 7.154-7.051 10.075l-2.927 2.67c-.465.788-1.999 2.623-3.194 4.127l.666.122-4.39 4.248.132.122.665-.122-5.454 5.22.266.242.665-.364-7.318 6.92c.089.08.178.16.266.242l.665-.364-10.377 9.71h.798c-7.764 7.136-16.146 15.216-24.347 22.699-3.342 3.048-7.458 7.995-11.176 9.468l1.862-1.942-11.292 9.591c.584-.509.985-.96 1.048-1.459l-7.584 6.434c.673-.58 1-.926 1.064-1.457l-5.987 4.977.533-.729-4.657 3.52.399-.607-3.991 2.913c.234-.52.161-.142.133-.606-2.108 2.007-6.373 4.435-5.987 4.005-.045-.04-.09-.08-.133-.121-1.95 1.247-3.879 3.273-5.987 4.005l.266-.728-3.194 2.428c.483-.538.477-.515.533-.971l-2.794 2.063c.456-.557.404-.357.399-.85l-2.528 1.821c.364-.554.277-.243.266-.728-4.128 2.968-8.355 2.876-11.974 6.07-.23-.48-.079-.282-.4-.608l-1.729 1.335.266-.728-2.129 1.457c.398-.52.35-.417.4-.85-1.642 1.208-1.72 1.219-3.593 1.82l.266-.485c-.974.352-1.418 1.23-1.463.607-.965.032-8.045 2.037-9.313 3.156-.303-.423.138-.522-.4-.364l-1.197.607c.134-.32.024-.131-.266-.243l-1.197.607c.234-.52.161-.143.133-.607-1.025.78-2.394 1-2.395.729-2.798-.021-5.772 1.053-8.116 1.82.235-.52.161-.143.133-.607-3.837 2.298-16.817 1.162-22.485 1.336-16.014.491-45.435-5.954-62.532-17.48l-.133.607c-2.303-2.153-11.378-7.39-11.043-6.433-2.916-1.253-4.582-4.39-7.45-4.855-1.761-.286-3.895-5.128-4.79-3.399l-5.588-4.855c-.277.369-.134-.041-.266.485-11.727-10.687-23.506-19.018-35.657-30.103-3.957-3.61-12.28-9.72-14.103-13.594l1.863 1.456.133-.121-11.316-10.773c.501.43 1.013.768 1.47.82l-7.716-7.526.798.728.133-.364-5.322-5.341 1.065.728.133-.121-4.125-4.248.666.606.133-.364-3.593-3.52.666-.121c-2.213-2.08-3.814-4.178-4.657-6.19l-2.66-2.671.797.243-.266-.243-2.395-2.67 1.065.728.133-.122-2.794-3.034.798.485c.045-.12.089-.243.133-.364l-2.395-2.427c.611.544.791.673 1.33.728l-2.261-2.55c.607.333.267.254.798.243l-1.995-2.306c.607.333.267.253.798.243l-1.73-2.063c.26.052.111.197.266 0-.527-1.464-1.719-3.742-3.459-5.341h.798l-1.73-2.064.666.364.133-.364-1.463-1.578c.569.363.456.319.93.365l-.265-.243-1.464-1.821.932.607.133-.121-1.597-1.7c.475-.278.3.143.4-.364l-1.065-1.457c.607.333.267.253.798.243l-1.33-1.7c.456.288.546.691.665.122l-1.33-1.456c.392.06.525.156.93.12l-1.197-1.334c.547-.173.124.041.533-.243a5.96 5.96 0 0 1-1.597-2.67c.663.132.183.086.665-.122-1.39-1.292-1.897-3.847-2.395-5.34.57.213.157.147.666.12l-.266-.485-.799-.728c.664-.01.234.082.665-.121-.56-.65-1.58-3.741-1.73-4.734l.666.12c-.847-1.055-.74-1.305-1.197-2.548.57.214.156.147.665.121-.748-.96-.642-1.243-1.064-2.427.57.214.156.147.665.121l-.799-.971c.369.01.4.062.799 0-2.312-2.445.58-7.95-1.863-10.439.505-.161.618.197.532-.485-.163-1.301-.5-2.977-.665-5.22.49-.358.678-2.154.532-2.913l-.133.364c-.459-6.904 1.679-13.257 2.927-19.664l-.532.243-.133-.121c2.22-2.098 2.36-8.91 4.258-11.653l-.666-.122c1.346-1.236.741-1.386 1.73-2.791l-.665-.122c.712-.62 6.506-12.83 6.519-12.988h-.532c.789-.648 1.515-1.315 1.596-1.942h-.532c2.864-2.605 7.246-10.646 8.382-13.23.868-1.975 3.661-3.203 3.991-5.099l-.532.243-.133-.121c1.12-.942 3.172-2.512 3.326-3.52-.637-.252 2.458-2.682 3.193-3.642h-.798c3.483-3.191 7.337-6.927 8.914-9.832 1.442-2.654 5.406-4.45 6.254-6.676l9.18-8.618v-.728zM300.3 420.906c-.09.079-.184.159-.283.24l.283-.24zM45.76 370.803c-.318-.273-.631-.582-.924-.88l.924.88z"/></g><g><path fill="#f1f9fc" d="M246.018 272.37c.314-7.432 1.187-15.64 1.73-22.03l.467.218c-.334 5.825-2.213 15.606-.457 20.3l2.202-53.068-.239.012c-.108 3.57-.153 21.204-1.523 22.736.51-12.072-.272-29.78 3.054-40.463 1.116-3.583.381-9.203 1.234-11.27l2.01-17.748c.268.709-.018.286.445.695l.022-.478.775-6.478c.3.414-.058.365.467.217l.764-6.238c.268.709-.017.286.446.695l.022-.478.426-4.076.956-.044.187-4.064s.798-.003.979-.522l.164-3.587c1.604-2.957 5.017-12.184 5.302-16.706.668.28.128.354.945.195l.143-3.108c.669.28.128.353.946.195l.143-3.108.695.445c1.221-5.657 3.852-9.039 6.354-13.654l.11-2.39c3.864-6.76 7.804-13.287 12.15-20.362 1.434-2.333 8.192-8.144 8.908-12.1.304.326.278.406.684.683 1.337-5.773 18.805-19.904 24.531-24.987 5.115-4.54 11.8-8.032 18.298-13.964l1.674-.077c2.367-1.246 10.18-5.39 12.774-7.984.488-.488 3.114-.57 4.347-1.154 4.355-2.06 7.416-3.909 11.013-5.994l3.108-.143c3.186-2.734 10.53-3.632 15.51-5.247 6.641-2.154 13.115-5.144 22.457-5.805l-.196-.945 7.424-.58-.685-.685c7.384-.318 13.496-2.29 20.161-2.597 2.103-.097 10.188-.704 9.13-1.374 4.061-2.056 16.07.929 20.117-1.641l-1.902-.151 37.8-2.216c5.282-.243 12.95-1.564 16.942-.064-.699.159-1.162-.136-.74.511l18.4-.607-.011.239-.728.272c7.468.586 17.367-1.147 22.376 1.118l7.4-.102c-.736.334-.285.009-.739.511l6.684-.069-.011.24c-.508.452-.17.01-.511.739 4.818-.18 5.389.701 9.759.505l-.511.74c5.501.219 8.461 1.374 13.007 2.503l2.63-.121c2.21 1.324 6.001 2.32 9.443 2.19l-.283.967c3.62-.167 4.093 1.681 7.802 1.55l-.512.74c6.94.25 10.983 5.98 16.907 5.902l-.51.74c4.39.24 9.768 4.932 12.809 6.807 7.773 4.791 15.063 9.26 21.738 14.985l9.742 11.243.467.217.272-.728c.07 1.694 6.272 9.406 7.623 10.624l.273-.728c-.004.095 8.152 15.09 9.044 16.047l.51-.74.13 2.38.74-.511c-.076 1.431 4.444 11.914 5.35 13.353l.511-.739.107 2.859.74-.512c-.153 3.264 2.467 6.89 3.157 9.16 1.65 5.432 2.249 8.947 3.382 14.637l.74-.511c-.147 1.482-.284 3.285.29 4.042l.501-.5c-.3 6.007 1.363 12.08 2.839 16.094l-.242 5.26c.303 1.177.585 4.342.876 6.879l.74-.512-.135 8.119.239-.011.511-.74-.223 10.031.478-.022.284-.967-.377 13.378.478-.022.283-.967-.63 18.878.75-.75c-.592 14.002-.878 29.47-1.556 44.21-.276 6.004.503 14.522-1.608 19.4l-.074-3.576c-.534 6.54-1.068 13.083-1.6 19.624.07-1.026.022-1.826-.387-2.354-.362 4.39-.723 8.782-1.083 13.172.087-1.177.069-1.809-.369-2.369l-.95 10.303-.185-1.184-1.069 7.684-.195-.946-1.015 6.489c-.267-.709.018-.286-.445-.695-.095 3.867-1.821 10.157-1.863 9.39l-.24.011c-.66 3.004-.57 6.72-1.863 9.391l-.434-.934-.72 5.282c-.052-.96-.035-.932-.412-1.413l-.688 4.565c-.094-.953.044-.716-.423-1.174l-.665 4.087c-.178-.863.032-.49-.434-.934-1.092 6.668-5.15 10.555-5.552 16.956-.665-.234-.338-.19-.945-.195l-.371 2.88-.434-.934-.633 3.37c-.113-.863-.063-.72-.423-1.174-.408 2.678-.47 2.76-1.665 5.087l-.206-.706c-.586 1.245-.178 2.49-.806 1.945-.877.937-5.647 9.475-5.788 11.719-.682-.114-.361-.62-.717.033l-.555 1.696c-.176-.428-.1-.146-.478.022l-.555 1.695c-.268-.709.017-.286-.446-.695-.23 1.695-1.31 3.188-1.566 2.935-2.649 2.61-4.435 6.415-5.917 9.339-.268-.71.017-.287-.446-.696-1.448 5.766-14.714 16.897-19.878 22.388-14.59 15.513-48.297 37.11-75.195 42.349l.445.695c-4.188.141-17.637 3.75-16.423 4.334-3.918 1.564-8.43.183-11.564 2.44-1.924 1.387-8.479-1.156-7.696 1.31l-9.814.69c.087.606-.164.087.207.706-21.064.98-39.962 4.223-61.797 5.228-7.111.327-20.675 2.41-26.028.482l3.119-.383.011-.239-20.76.514c.877-.067 1.676-.23 2.154-.612l-14.323.181 1.434-.066-.217-.467-10.02-.016 1.685-.316.01-.24-7.867-.114 1.195-.056a749.99 749.99 0 0 0-.217-.467l-6.684.07.512-.74c-4.035.125-7.51-.341-10.193-1.44l-5.01-.008.978-.522-.478.022-4.76-.259 1.684-.316.011-.239-5.477-.225 1.207-.294-.218-.467-4.531-.03c1.085-.064 1.376-.11 1.934-.567l-4.52-.269c.883-.258.488-.013.978-.522l-4.042-.291c.882-.258.488-.014.978-.522l-3.565-.314c.294-.195.29.082.25-.25-1.87-.879-5.13-1.899-8.269-1.767l.75-.75-3.564-.313.967-.283-.217-.467-2.858-.107c.876-.194.728-.13 1.218-.534l-.479.022-3.086-.335 1.446-.305.01-.239-3.097-.096c.185-.708.417-.148.033-.718l-2.368-.368c.883-.258.488-.013.978-.522l-2.847-.346c.699-.159 1.162.136.74-.511l-2.62-.118c.425-.314.641-.347.99-.762l-2.38-.129c.35-.675.154-.077.272-.728-1.279.04-2.763-.302-4.01-1.009.747-.497.253-.09.511-.739-2.521.094-5.398-1.832-7.269-2.767.737-.335.286-.009.74-.511l-.707-.206-1.435.066c.614-.634.298-.144.512-.74-1.137-.082-5-2.029-6.074-2.822l.74-.511c-1.789-.195-1.923-.532-3.521-1.27.736-.334.286-.008.74-.511-1.606-.2-1.772-.565-3.282-1.28.737-.335.286-.01.74-.512l-1.663-.162c.356-.336.434-.317.75-.75-4.47-.124-6.924-8.015-11.559-8.058.323-.626.766-.395.044-.956-1.375-1.069-3.266-2.327-5.53-4.279.125-.797-1.386-2.66-2.236-3.237l.217.467c-6.919-6.056-10.879-14.034-15.725-21.227l-.272.728-.24.011c.117-4.057-6.153-10.589-6.946-14.95l-.74.511c.103-2.426-.606-2-.997-4.248l-.74.51c.087-1.252-5.939-18.17-6.075-18.33l-.5.5c.132-1.35.188-2.66-.325-3.325l-.5.5c.244-5.139-3.193-16.813-4.553-20.309-1.04-2.67.431-6.45-1.04-8.541l-.271.728-.24.01c.169-1.937.622-5.34-.18-6.433-.836.363-.211-4.83-.42-6.422l-.751.75c.275-6.272.386-13.404-.86-17.616-1.139-3.849.899-9.263-.395-12.15l.53-16.726-.684-.684zm462.024 3.07c-.01.159-.024.323-.04.493l.04-.493zM421.728 467.602c-.555.042-1.14.046-1.694.042l1.694-.042z"/></g></g></svg>