<svg width="78" height="97" viewBox="0 0 78 97" fill="none" xmlns="http://www.w3.org/2000/svg">
<path d="M49.4124 0.90332V35.9321H43.7969V73.1127C62.8654 71.8484 77.9436 55.9908 77.9436 36.6019C77.9436 19.161 65.7419 4.58014 49.4124 0.90332Z" fill="#303138"/>
<path d="M34.2134 35.9324H28.749V0.9375C12.4932 4.66832 0.364258 19.214 0.364258 36.6018C0.364258 55.8893 15.2859 71.6808 34.2134 73.09V35.9324Z" fill="#303138"/>
<path d="M46.1377 30.3167H32.1584C31.7473 30.3167 31.4111 29.9805 31.4111 29.5694V25.8566C31.4111 25.4455 31.7473 25.1094 32.1584 25.1094H46.1377C46.5488 25.1094 46.8849 25.4455 46.8849 25.8566V29.5694C46.8849 29.9805 46.5488 30.3167 46.1377 30.3167Z" fill="#889490"/>
<path d="M37.6602 30.7637V91.8321L38.6364 95.9179C38.677 96.0875 38.911 96.1051 38.9763 95.9435L40.6358 91.8321V30.7637H37.6602Z" fill="#889490"/>
<path d="M46.1377 16.4485H32.1584C31.7473 16.4485 31.4111 16.1124 31.4111 15.7013V11.9885C31.4111 11.5774 31.7473 11.2412 32.1584 11.2412H46.1377C46.5488 11.2412 46.8849 11.5774 46.8849 11.9885V15.7013C46.8849 16.112 46.5488 16.4485 46.1377 16.4485Z" fill="#889490"/>
<path d="M46.9232 18.0661L32.6115 23.6435C32.4692 23.6988 32.3076 23.628 32.2519 23.4857L31.7512 22.2009C31.696 22.0586 31.7667 21.897 31.909 21.8413L46.2207 16.2639C46.3631 16.2087 46.5246 16.2794 46.5803 16.4217L47.081 17.7065C47.1363 17.8488 47.0651 18.0104 46.9232 18.0661Z" fill="#889490"/>
<path d="M35.6074 16.8945L32.5522 18.0851C32.0566 18.2781 31.8091 18.8416 32.0021 19.3373C32.1951 19.8329 32.7586 20.0803 33.2543 19.8873L40.9344 16.8945H35.6074Z" fill="#889490"/>
<path d="M38.9876 24.663L46.281 21.8209C46.7767 21.6275 47.0241 21.0645 46.8311 20.5688C46.6377 20.0732 46.0742 19.8257 45.5785 20.0187L33.6602 24.663H38.9876Z" fill="#889490"/>
<path d="M43.3138 10.4752V8.42397C43.3138 8.12465 43.071 7.88184 42.7717 7.88184H35.5236C35.2243 7.88184 34.9814 8.12465 34.9814 8.42397V10.4752C34.9814 10.6515 35.1242 10.7942 35.3004 10.7942H42.9949C43.1711 10.7942 43.3138 10.6515 43.3138 10.4752Z" fill="#889490"/>
</svg>
