<svg xmlns="http://www.w3.org/2000/svg" xmlns:xlink="http://www.w3.org/1999/xlink" viewBox="0 0 2258.09 1342.26"><defs><style>.cls-1,.cls-13,.cls-31,.cls-6,.cls-8{fill:none;}.cls-2{isolation:isolate;}.cls-3{clip-path:url(#clip-path);}.cls-4{clip-path:url(#clip-path-2);}.cls-5{fill:#4f5163;}.cls-6{stroke:#292b38;}.cls-13,.cls-31,.cls-6,.cls-8{stroke-linecap:round;stroke-linejoin:round;}.cls-13,.cls-6{stroke-width:4px;}.cls-7{fill:#e6f3fd;}.cls-8{stroke:#7ab6e5;}.cls-31,.cls-8{stroke-width:2px;}.cls-9{fill:#b8587c;}.cls-10{fill:#926eac;}.cls-11{fill:#fffffe;}.cls-12{fill:#292b38;}.cls-13,.cls-31{stroke:#fffffe;}.cls-14{fill:#c99d5d;}.cls-15{fill:#dabc7c;}.cls-16{fill:#bb9a72;}.cls-17{opacity:0.76;mix-blend-mode:multiply;}.cls-18{clip-path:url(#clip-path-3);}.cls-19{fill:#ba96c2;}.cls-20{fill:#f4f19d;}.cls-21{fill:#fff;}.cls-22{fill:#80bb6d;}.cls-23{fill:#e7b4bf;}.cls-24{fill:#75707e;}.cls-25{fill:#b0dbf7;}.cls-26{fill:#8fc4ed;}.cls-27{fill:#a6426b;}.cls-28{fill:#d08298;}.cls-29{fill:#f9f8d6;}.cls-30{fill:#64a8df;}</style><clipPath id="clip-path" transform="translate(-881.5 -82.38)"><rect class="cls-1" y="0.01" width="3243.82" height="1642.94"/></clipPath><clipPath id="clip-path-2" transform="translate(-881.5 -82.38)"><rect class="cls-1" width="3243.82" height="1642.94"/></clipPath><clipPath id="clip-path-3" transform="translate(-881.5 -82.38)"><rect class="cls-1" x="1123.55" y="715.35" width="576.19" height="156.54"/></clipPath></defs><title>error-page-bg</title><g class="cls-2"><g id="Слой_2" data-name="Слой 2"><g id="Слой_1-2" data-name="Слой 1"><g class="cls-3"><g class="cls-4"><path class="cls-5" d="M1551.18,1203.76s15.78,24.68,14.61,88.17c-1.16,62.28-71,79.36-111,78.74-20.26-.31-28.29-19.17-9.4-31.74,39.58-26.35,16.79-107,16.79-107Z" transform="translate(-881.5 -82.38)"/><path class="cls-6" d="M1551.18,1203.76s15.78,24.68,14.61,88.17c-1.16,62.28-71,79.36-111,78.74-20.26-.31-28.29-19.17-9.4-31.74,39.58-26.35,16.79-107,16.79-107Z" transform="translate(-881.5 -82.38)"/><path class="cls-5" d="M1464.4,1348.2s-6.83,11.14,0,22.29" transform="translate(-881.5 -82.38)"/><path class="cls-6" d="M1464.4,1348.2s-6.83,11.14,0,22.29" transform="translate(-881.5 -82.38)"/><path class="cls-5" d="M1488.22,1346.47s-5.61,14.68,0,21" transform="translate(-881.5 -82.38)"/><path class="cls-6" d="M1488.22,1346.47s-5.61,14.68,0,21" transform="translate(-881.5 -82.38)"/><path class="cls-7" d="M2511.86,655.74c-92.61,0-274.94-.25-289,37.14s131.45,44.09,114.86,87.53-364.48,9.13-369.92,49.69,213.34,35,212.35,79.6-688.77-7.7-679.72,106.17c3.77,47.45-71.51,139.65,140.94,164,297.4,34.15,826.38,0,647.48,100.4-68.93,38.69,11.9,37.18,454.41,37.18,410,0,633.32-422.22,4.06-426.28-80.21-.52-170.51-97.43,73.07-105.55,68.89-2.3,178.63-129.92-308.54-129.92" transform="translate(-881.5 -82.38)"/><path class="cls-8" d="M2230.13,481.55c95-45.36,194.71-87,272.65-82.31" transform="translate(-881.5 -82.38)"/><path class="cls-8" d="M1493.5,551.75s84.29-57.95,164.26-38c42.75,10.64,96.35,31.09,153.63,47.85" transform="translate(-881.5 -82.38)"/><path class="cls-8" d="M2502.79,603.84S2195.2,432.23,2058.35,443.37,1825.2,595.14,1689.88,599.7c-114.7,3.86-247.79-97.92-385.26-67.76-35.13,7.7-92.58,46.42-137,80.78" transform="translate(-881.5 -82.38)"/><path class="cls-9" d="M2083.7,625.22l-27.62,33.89,50.62-26.79c26.66,6.51,147.76,12.73,203.05-10.28,30.05-12.51,35.05-51.27-6.82-64.33-63.34-19.76-187.63-19-233.42.43-29.78,12.63-34.48,52.58,14.19,67.08" transform="translate(-881.5 -82.38)"/><path class="cls-5" d="M1685.82,1216.53s43.78,52.32,86.34,41.15,33.51-77.16-30.33-100.57" transform="translate(-881.5 -82.38)"/><path class="cls-6" d="M1685.82,1216.53s43.78,52.32,86.34,41.15,33.51-77.16-30.33-100.57" transform="translate(-881.5 -82.38)"/><line class="cls-5" x1="879.61" y1="1159.48" x2="894.43" y2="1174.12"/><line class="cls-6" x1="879.61" y1="1159.48" x2="894.43" y2="1174.12"/><line class="cls-5" x1="896.8" y1="1142.49" x2="913.77" y2="1156.2"/><line class="cls-6" x1="896.8" y1="1142.49" x2="913.77" y2="1156.2"/><path class="cls-10" d="M1300.67,1087.81c55.57,191.91,238.93,204.14,321.94,186.6s179.3-93.62,135.49-222.67c-23.51-69.28-104.24-136.14-149.48-153.81l-365.76,33.15L1232.56,1036" transform="translate(-881.5 -82.38)"/><path class="cls-6" d="M1300.67,1087.81c55.57,191.91,238.93,204.14,321.94,186.6s179.3-93.62,135.49-222.67c-23.51-69.28-104.24-136.14-149.48-153.81l-365.76,33.15L1232.56,1036" transform="translate(-881.5 -82.38)"/><path class="cls-11" d="M1625.67,899c36.73,68.83-77.39,135.21-182.17,141.3s-228.09-47.2-197.31-119.27c35.34-82.71,76-159,180.8-165.07s157.9,66.63,198.68,143" transform="translate(-881.5 -82.38)"/><path class="cls-6" d="M1625.67,899c36.73,68.83-77.39,135.21-182.17,141.3s-228.09-47.2-197.31-119.27c35.34-82.71,76-159,180.8-165.07S1584.89,822.62,1625.67,899Z" transform="translate(-881.5 -82.38)"/><path class="cls-12" d="M1322,947.44c14.65,11.27,38.43,4.95,53.11-14.12s14.72-43.67.08-55-38.42-5-53.11,14.11-14.72,43.68-.08,55" transform="translate(-881.5 -82.38)"/><path class="cls-13" d="M1363.71,901.07c-10.25-3.14-25.83-1.47-30.5,8.38" transform="translate(-881.5 -82.38)"/><path class="cls-12" d="M1535.75,944.94c-14.07,13.7-39.94,10-57.79-8.37s-20.9-44.28-6.84-58,39.94-10,57.79,8.36,20.91,44.28,6.84,58" transform="translate(-881.5 -82.38)"/><path class="cls-14" d="M1421.72,708l-317.6,128.73c6.39,10.1,18.3,15.53,43.62,23.86Z" transform="translate(-881.5 -82.38)"/><path class="cls-15" d="M1098.72,834c.54,34.13,150.31,59.41,325.88,56.61s310.48-32.62,309.94-66.76L1421.61,703Z" transform="translate(-881.5 -82.38)"/><path class="cls-6" d="M1098.72,834c.54,34.13,150.31,59.41,325.88,56.61s310.48-32.62,309.94-66.76L1421.61,703Z" transform="translate(-881.5 -82.38)"/><path class="cls-16" d="M1729.45,827.14,1421.59,707.89l194.28,162.26c69.94-12.22,106.51-28,113.58-43" transform="translate(-881.5 -82.38)"/><g class="cls-17"><g class="cls-18"><path class="cls-14" d="M1413.36,731.05q22.86-.37,44.68-1.37l-37.12-14.33-39.15,15.88q15.62.06,31.59-.18" transform="translate(-881.5 -82.38)"/><path class="cls-14" d="M1413.92,766.21c43.4-.7,84.17-3.14,120.7-7l-35.33-13.65c-26.19,1.92-54,3.16-83,3.63-26.5.42-52.37.16-77.15-.7l-37.7,15.3c35.09,2.12,73.11,3,112.52,2.37" transform="translate(-881.5 -82.38)"/><path class="cls-14" d="M1415,836.53c103.24-1.65,191.57-13.2,243.37-29.46l-24.92-9.63c-52.88,12.33-129.21,20.73-216.12,22.12-84.22,1.34-162.14-4.17-218.48-14.14l-28.65,11.63c56.83,13.29,146.53,21,244.8,19.48" transform="translate(-881.5 -82.38)"/><path class="cls-14" d="M1699.74,823l-15.94-6.16c-45.64,20.58-145.65,35.93-265.87,37.85-116.53,1.85-221-9.4-272.91-27.44L1123.55,836c41,22.76,158.63,37.82,292,35.7,140.48-2.24,253.36-22.82,284.14-48.66" transform="translate(-881.5 -82.38)"/><path class="cls-14" d="M1414.48,801.37c72.15-1.15,137-7.14,187.24-16.2l-30.51-11.78c-44.41,6.13-97.11,10.09-154.4,11-55,.87-107.26-1.17-152.62-5.47l-33.38,13.54c51.75,6.6,115.65,10,183.67,8.9" transform="translate(-881.5 -82.38)"/></g></g><path class="cls-6" d="M1098.72,834c.54,34.13,150.31,59.41,325.88,56.61s310.48-32.62,309.94-66.76L1421.61,703Z" transform="translate(-881.5 -82.38)"/><path class="cls-13" d="M1505.42,899h-22.21a47.05,47.05,0,0,0,11.1,13.29" transform="translate(-881.5 -82.38)"/><path class="cls-10" d="M1263.25,1016.83V866.44s-100.11,33.23-106.27,102c-4.41,49.24,28.77,116.17,143.69,119.33" transform="translate(-881.5 -82.38)"/><path class="cls-6" d="M1263.25,1016.83V866.44s-100.11,33.23-106.27,102c-4.41,49.24,28.77,116.17,143.69,119.33" transform="translate(-881.5 -82.38)"/><path class="cls-5" d="M1263.25,866.44s85.07-24.81,92.65,0c3.7,12.09-23.05,22.58-55.23,32.52-4.57,18.88-15.64,35.92-37.42,41.31Z" transform="translate(-881.5 -82.38)"/><path class="cls-6" d="M1263.25,866.44s85.07-24.81,92.65,0c3.7,12.09-23.05,22.58-55.23,32.52-4.57,18.88-15.64,35.92-37.42,41.31Z" transform="translate(-881.5 -82.38)"/><path class="cls-5" d="M1676.33,1119.2s-10.42,40.32,26.45,41c44.13.79,46.09-46.56,46.09-46.56Z" transform="translate(-881.5 -82.38)"/><path class="cls-6" d="M1676.33,1119.2s-10.42,40.32,26.45,41c44.13.79,46.09-46.56,46.09-46.56Z" transform="translate(-881.5 -82.38)"/><path class="cls-10" d="M1661.38,996s26.46,78.15,0,128.13c38.81,4.1,122.37-8.9,122.37-8.9s-14.7-92.6-81.46-148.94" transform="translate(-881.5 -82.38)"/><path class="cls-6" d="M1661.38,996s26.46,78.15,0,128.13c38.81,4.1,122.37-8.9,122.37-8.9s-14.7-92.6-81.46-148.94" transform="translate(-881.5 -82.38)"/><path class="cls-19" d="M1260.82,869.68c-67,26.51-115.37,67.53-98.48,131.22-3.1-75.66,98.48-107.61,98.48-107.61" transform="translate(-881.5 -82.38)"/><path class="cls-7" d="M1808.64,266.45h200.69c22.05-38.38-34.66-63.38-58.09-32.4-15.85-61.33-104.22-35.92-106-8.66-24.11-8-58.92,13.39-36.6,41.06" transform="translate(-881.5 -82.38)"/><path class="cls-5" d="M1819.94,865.08s1,16.52-3,21.54,6.64,8.9,6.64,8.9L1855.54,879Z" transform="translate(-881.5 -82.38)"/><path class="cls-6" d="M1819.94,865.08s1,16.52-3,21.54,6.64,8.9,6.64,8.9L1855.54,879Z" transform="translate(-881.5 -82.38)"/><path class="cls-5" d="M1863.91,870.91s0,35-45.52,30.44c-32-3.19-17.33-16.63,8.15-14.73" transform="translate(-881.5 -82.38)"/><path class="cls-6" d="M1863.91,870.91s0,35-45.52,30.44c-32-3.19-17.33-16.63,8.15-14.73" transform="translate(-881.5 -82.38)"/><path class="cls-5" d="M1898.63,863s-8.37,19.37-4.37,24.39-6.64,8.9-6.64,8.9l-31.92-16.53Z" transform="translate(-881.5 -82.38)"/><path class="cls-6" d="M1898.63,863s-8.37,19.37-4.37,24.39-6.64,8.9-6.64,8.9l-31.92-16.53Z" transform="translate(-881.5 -82.38)"/><path class="cls-5" d="M1847.34,871.63s0,35,45.52,30.44c32-3.19,17.33-16.63-8.15-14.73" transform="translate(-881.5 -82.38)"/><path class="cls-6" d="M1847.34,871.63s0,35,45.52,30.44c32-3.19,17.33-16.63-8.15-14.73" transform="translate(-881.5 -82.38)"/><path class="cls-20" d="M1936.1,826.34c-17.4,41.6-77.44,67-117.84,47.59-28.38-13.67-41.4-47.47-35.33-82.23,1.29-7.38-4.51-28.87-1.46-36.15,17.4-41.6,84.56-52.79,113.37-40.74s58.65,69.94,41.26,111.53" transform="translate(-881.5 -82.38)"/><path class="cls-6" d="M1936.1,826.34c-17.4,41.6-77.44,67-117.84,47.59-28.38-13.67-41.4-47.47-35.33-82.23,1.29-7.38-4.51-28.87-1.46-36.15,17.4-41.6,84.56-52.79,113.37-40.74S1953.49,784.75,1936.1,826.34Z" transform="translate(-881.5 -82.38)"/><polygon class="cls-15" points="1003.49 661.18 994.54 732.16 977.39 744.19 987.39 652.52 1003.49 661.18"/><polygon class="cls-21" points="1004.12 656.68 995.67 723.41 1057.14 673.16 1004.12 656.68"/><path class="cls-12" d="M1841.88,654.13a30.85,30.85,0,0,1-7.75-5.71c-5.67-6.1-6-15.69-.38-20.94s15.07-4.32,20.87,1.92a34.6,34.6,0,0,1,6.82,12.62" transform="translate(-881.5 -82.38)"/><path class="cls-12" d="M2004.07,655.05a31.33,31.33,0,0,0,8.42-4.66c6.41-5.33,8-14.8,3.06-20.73s-14.4-6.21-20.94-.77a34.66,34.66,0,0,0-8.39,11.64" transform="translate(-881.5 -82.38)"/><path class="cls-20" d="M1875,584.13a8.17,8.17,0,1,1-7.82-8.52,8.19,8.19,0,0,1,7.82,8.52" transform="translate(-881.5 -82.38)"/><path class="cls-6" d="M1875,584.13a8.17,8.17,0,1,1-7.82-8.52A8.19,8.19,0,0,1,1875,584.13Z" transform="translate(-881.5 -82.38)"/><path class="cls-5" d="M1962.75,611c-.67,15.57-16.16,27.56-34.6,26.77s-32.86-14.05-32.19-29.63,16.15-27.56,34.6-26.77,32.85,14,32.19,29.63" transform="translate(-881.5 -82.38)"/><path class="cls-6" d="M1962.75,611c-.67,15.57-16.16,27.56-34.6,26.77s-32.86-14.05-32.19-29.63,16.15-27.56,34.6-26.77S1963.41,595.38,1962.75,611Z" transform="translate(-881.5 -82.38)"/><path class="cls-22" d="M1952.7,619.94c-.48,11.07-11.49,19.6-24.61,19s-23.36-10-22.89-21.06,11.49-19.6,24.61-19,23.36,10,22.89,21.07" transform="translate(-881.5 -82.38)"/><path class="cls-11" d="M2003.83,705c12.23,29.78-37.38,52.3-80.65,50.45s-91.68-28.84-76-57.15c17.94-32.49,37.8-62.12,81.07-60.27s62.06,33.91,75.63,67" transform="translate(-881.5 -82.38)"/><path class="cls-6" d="M2003.83,705c12.23,29.78-37.38,52.3-80.65,50.45s-91.68-28.84-76-57.15c17.94-32.49,37.8-62.12,81.07-60.27S1990.26,671.93,2003.83,705Z" transform="translate(-881.5 -82.38)"/><path class="cls-12" d="M1924,724.83c-2-.08-7.25-3.68-7.31-8s4.91-4.81,8.09-4.67,8,1.07,7.55,5.34-6.36,7.39-8.33,7.3" transform="translate(-881.5 -82.38)"/><line class="cls-6" x1="1042.82" y1="641.93" x2="1038.51" y2="652.49"/><path class="cls-5" d="M1930.67,611.09v0l-.69,0-.69,0v0c-86.66-6-126.57,76.45-84.7,101.19,30.7-74.52,63.29-72.38,83-47,.15-3.54.25-3.54.1,0,21.83-23.6,53-23,77.25,53.86,43.84-21.07,17.29-104.22-74.29-108" transform="translate(-881.5 -82.38)"/><path class="cls-6" d="M1930.67,611.09v0l-.69,0-.69,0v0c-86.66-6-126.57,76.45-84.7,101.19,30.7-74.52,63.29-72.38,83-47,.15-3.54.25-3.54.1,0,21.83-23.6,53-23,77.25,53.86C2048.8,698,2022.25,614.86,1930.67,611.09Z" transform="translate(-881.5 -82.38)"/><line class="cls-6" x1="992.56" y1="506.16" x2="1015.61" y2="516.11"/><line class="cls-6" x1="1082.57" y1="524.54" x2="1104.32" y2="518.65"/><path class="cls-21" d="M1876,697.62s-7-1.46-6.9-8.52c-1.5,6,4.22,10.06,4.22,10.06Z" transform="translate(-881.5 -82.38)"/><path class="cls-23" d="M1969.73,718.32c8.47-3.38,17.36-1.05,19.86,5.21s-2.34,14.08-10.81,17.46-17.36,1-19.86-5.22,2.34-14.07,10.81-17.45" transform="translate(-881.5 -82.38)"/><path class="cls-12" d="M1975.37,724c-6.91,5.49-18.3,2.64-25.45-6.35s-7.34-20.74-.44-26.23,18.31-2.64,25.45,6.35,7.35,20.74.44,26.23" transform="translate(-881.5 -82.38)"/><path class="cls-13" d="M1954.24,707a15.08,15.08,0,0,1,13.57,2.49" transform="translate(-881.5 -82.38)"/><path class="cls-23" d="M1884.39,710.77c-8.15-4.09-17.2-2.52-20.23,3.5s1.13,14.23,9.28,18.32,17.21,2.52,20.24-3.5-1.14-14.23-9.29-18.32" transform="translate(-881.5 -82.38)"/><path class="cls-12" d="M1878.29,716c6.41,6.06,18,4.2,25.9-4.15s9.09-20,2.67-26.1-18-4.19-25.89,4.16-9.09,20-2.68,26.09" transform="translate(-881.5 -82.38)"/><path class="cls-13" d="M1900.8,700.77a15.08,15.08,0,0,0-13.73,1.32" transform="translate(-881.5 -82.38)"/><path class="cls-24" d="M1971.27,622s75.42,37.17,32.89,87.72a59.1,59.1,0,0,1,2.25,5.67s11.54-5.69,16.29-23.52-10.36-56.58-51.43-69.87" transform="translate(-881.5 -82.38)"/><path class="cls-6" d="M1926.63,741.47c0,3.87-4.46,7-10,7s-10-3.13-10-7,4.46-7,10-7S1926.63,737.6,1926.63,741.47Z" transform="translate(-881.5 -82.38)"/><path class="cls-25" d="M1784.62,619.23a103.17,103.17,0,0,1,25.28,200.49l-37.66-101.59Z" transform="translate(-881.5 -82.38)"/><path class="cls-6" d="M1784.62,619.23a103.17,103.17,0,0,1,25.28,200.49l-37.66-101.59Z" transform="translate(-881.5 -82.38)"/><path class="cls-26" d="M1773.28,718.37l38.65-90.45a100.25,100.25,0,0,1,20.1,10.63Z" transform="translate(-881.5 -82.38)"/><path class="cls-26" d="M1773.63,717.79l75.87-65.19a104.19,104.19,0,0,1,13.39,18.65Z" transform="translate(-881.5 -82.38)"/><path class="cls-26" d="M1773.83,718.11,1872,691.33s4.24,11.22,4.59,22.33Z" transform="translate(-881.5 -82.38)"/><path class="cls-26" d="M1774.12,718.29l102.08,17.9a77.6,77.6,0,0,1-5.75,21.21Z" transform="translate(-881.5 -82.38)"/><path class="cls-26" d="M1774,718.2l86.34,59.19s-5.92,10.22-14.52,17.25Z" transform="translate(-881.5 -82.38)"/><path class="cls-26" d="M1775,719.8l55.1,87s-10.47,7.53-18.82,9.92Z" transform="translate(-881.5 -82.38)"/><path class="cls-15" d="M1921.55,763.91s-42,60.37-130.22,80c5.45,10.88,11,15.93,11,15.93s97.84-26.82,123.43-77.17c4.14-15.1-4.23-18.78-4.23-18.78" transform="translate(-881.5 -82.38)"/><path class="cls-20" d="M1935,829c35.13-13.69,44-30.56,38.31-44.68s-32.07-40.75-32.07-40.75L1899.86,809l16.82,9.39" transform="translate(-881.5 -82.38)"/><path class="cls-6" d="M1935,829c35.13-13.69,44-30.56,38.31-44.68s-32.07-40.75-32.07-40.75L1899.86,809l16.82,9.39" transform="translate(-881.5 -82.38)"/><path class="cls-5" d="M1937.23,749.92s-26.36-14.13-35.68.6c-11.36,18,14.06,33.56,14.06,33.56Z" transform="translate(-881.5 -82.38)"/><path class="cls-6" d="M1937.23,749.92s-26.36-14.13-35.68.6c-11.36,18,14.06,33.56,14.06,33.56Z" transform="translate(-881.5 -82.38)"/><path class="cls-27" d="M1941.26,745.78,1902,808.32l16,9.17s36.54-52.47,38.48-55c-4.84-6.5-15.15-16.75-15.15-16.75" transform="translate(-881.5 -82.38)"/><path class="cls-20" d="M1785.38,791.9s-22.44-16.36-29.83-34c-14.06-33.68,4.17-69.81,4.17-69.81l45.49,46.42s-18.52,24.89-19.89,33.81" transform="translate(-881.5 -82.38)"/><path class="cls-6" d="M1785.38,791.9s-22.44-16.36-29.83-34c-14.06-33.68,4.17-69.81,4.17-69.81l45.49,46.42s-18.52,24.89-19.89,33.81" transform="translate(-881.5 -82.38)"/><path class="cls-5" d="M1759.72,688s17.06-13.59,24.21-1.37,3.12,27.84,3.12,27.84Z" transform="translate(-881.5 -82.38)"/><path class="cls-6" d="M1759.72,688s17.06-13.59,24.21-1.37,3.12,27.84,3.12,27.84Z" transform="translate(-881.5 -82.38)"/><path class="cls-27" d="M1760.08,690.59s-5.15,12.32-5.74,18c3.2,3,39.33,40.24,39.33,40.24l9.66-14.27Z" transform="translate(-881.5 -82.38)"/><polygon class="cls-28" points="1055.88 669.56 1070.61 686.18 1074.91 680.14 1059.76 663.39 1055.88 669.56"/><path class="cls-29" d="M1952.11,768.56s18.12,21.8,18.67,32.05c5.76-12.14-.49-22.18-14.37-38.08l-4.3,6" transform="translate(-881.5 -82.38)"/><path class="cls-7" d="M2270.51,112.25h-80.64s-4-32.26,30.91-16.13c16.13-29.57,61.83-5.37,49.73,16.13" transform="translate(-881.5 -82.38)"/><path class="cls-8" d="M2021.05,939.63s35.07-136.23,54.33-141.27,26,16.53,26,16.53-5.77-10.29-15.43-5.2-29.79,129.94-29.79,129.94" transform="translate(-881.5 -82.38)"/><path class="cls-8" d="M2129.91,825s-11.09-.46-7.71-13.84,12.69-35.86,24.11-32.65S2142.67,822.68,2129.91,825Z" transform="translate(-881.5 -82.38)"/><path class="cls-8" d="M2039.73,808.15s-5.3,3.4-8.08-3.91-5.8-20.77.55-23S2044.9,802.92,2039.73,808.15Z" transform="translate(-881.5 -82.38)"/><path class="cls-8" d="M2262.41,854.85s-5.34-3.34.07-9,16.3-14.12,21-9.34S2269.34,857.28,2262.41,854.85Z" transform="translate(-881.5 -82.38)"/><path class="cls-8" d="M2093.61,939.63s5.16-74.56,33.12-115.43" transform="translate(-881.5 -82.38)"/><line class="cls-8" x1="1264.8" y1="694.98" x2="1283" y2="658.89"/><path class="cls-8" d="M2075.77,939.63s1.19-44.62-7.14-66.31-47.58-19-47.58-19,37.47-17.64,52.34-5.15,28,90.41,28,90.41" transform="translate(-881.5 -82.38)"/><path class="cls-8" d="M1787.46,948.91c9.33,0,9.33,13.05,18.66,13.05s9.32-13.05,18.65-13.05S1834.1,962,1843.42,962s9.33-13.05,18.65-13.05S1871.4,962,1880.73,962s9.32-13.05,18.65-13.05S1908.71,962,1918,962" transform="translate(-881.5 -82.38)"/><path class="cls-8" d="M1787.46,948.91c9.33,0,9.33,13.05,18.66,13.05s9.32-13.05,18.65-13.05S1834.1,962,1843.42,962s9.33-13.05,18.65-13.05S1871.4,962,1880.73,962s9.32-13.05,18.65-13.05S1908.71,962,1918,962" transform="translate(-881.5 -82.38)"/><path class="cls-8" d="M2048.61,948.91c-9.33,0-9.33,13.05-18.66,13.05s-9.32-13.05-18.65-13.05S2002,962,1992.65,962s-9.33-13.05-18.65-13.05S1964.67,962,1955.34,962s-9.32-13.05-18.65-13.05S1927.36,962,1918,962" transform="translate(-881.5 -82.38)"/><path class="cls-8" d="M2048.61,948.91c-9.33,0-9.33,13.05-18.66,13.05s-9.32-13.05-18.65-13.05S2002,962,1992.65,962s-9.33-13.05-18.65-13.05S1964.67,962,1955.34,962s-9.32-13.05-18.65-13.05S1927.36,962,1918,962" transform="translate(-881.5 -82.38)"/><path class="cls-8" d="M2048.61,948.91c9.32,0,9.32,13.05,18.65,13.05s9.32-13.05,18.65-13.05,9.33,13.05,18.65,13.05,9.33-13.05,18.66-13.05,9.32,13.05,18.65,13.05,9.33-13.05,18.65-13.05,9.33,13.05,18.66,13.05" transform="translate(-881.5 -82.38)"/><path class="cls-8" d="M2048.61,948.91c9.32,0,9.32,13.05,18.65,13.05s9.32-13.05,18.65-13.05,9.33,13.05,18.65,13.05,9.33-13.05,18.66-13.05,9.32,13.05,18.65,13.05,9.33-13.05,18.65-13.05,9.33,13.05,18.66,13.05" transform="translate(-881.5 -82.38)"/><path class="cls-8" d="M2309.75,948.91c-9.33,0-9.33,13.05-18.66,13.05s-9.32-13.05-18.65-13.05S2263.11,962,2253.79,962s-9.33-13.05-18.65-13.05S2225.81,962,2216.48,962s-9.32-13.05-18.65-13.05S2188.5,962,2179.18,962" transform="translate(-881.5 -82.38)"/><path class="cls-8" d="M2309.75,948.91c-9.33,0-9.33,13.05-18.66,13.05s-9.32-13.05-18.65-13.05S2263.11,962,2253.79,962s-9.33-13.05-18.65-13.05S2225.81,962,2216.48,962s-9.32-13.05-18.65-13.05S2188.5,962,2179.18,962" transform="translate(-881.5 -82.38)"/><path class="cls-8" d="M2048.61,966.21c9.32,0,9.32,13.06,18.65,13.06s9.32-13.06,18.65-13.06,9.33,13.06,18.65,13.06,9.33-13.06,18.66-13.06,9.32,13.06,18.65,13.06,9.33-13.06,18.65-13.06,9.33,13.06,18.66,13.06" transform="translate(-881.5 -82.38)"/><path class="cls-8" d="M2048.61,966.21c9.32,0,9.32,13.06,18.65,13.06s9.32-13.06,18.65-13.06,9.33,13.06,18.65,13.06,9.33-13.06,18.66-13.06,9.32,13.06,18.65,13.06,9.33-13.06,18.65-13.06,9.33,13.06,18.66,13.06" transform="translate(-881.5 -82.38)"/><path class="cls-8" d="M2309.75,966.21c-9.33,0-9.33,13.06-18.66,13.06s-9.32-13.06-18.65-13.06-9.33,13.06-18.65,13.06-9.33-13.06-18.65-13.06-9.33,13.06-18.66,13.06-9.32-13.06-18.65-13.06-9.33,13.06-18.65,13.06" transform="translate(-881.5 -82.38)"/><path class="cls-8" d="M2309.75,966.21c-9.33,0-9.33,13.06-18.66,13.06s-9.32-13.06-18.65-13.06-9.33,13.06-18.65,13.06-9.33-13.06-18.65-13.06-9.33,13.06-18.66,13.06-9.32-13.06-18.65-13.06-9.33,13.06-18.65,13.06" transform="translate(-881.5 -82.38)"/><path class="cls-8" d="M2309.75,966.21c9.32,0,9.32,13.06,18.65,13.06s9.32-13.06,18.65-13.06,9.33,13.06,18.65,13.06" transform="translate(-881.5 -82.38)"/><path class="cls-8" d="M2309.75,966.21c9.32,0,9.32,13.06,18.65,13.06s9.32-13.06,18.65-13.06,9.33,13.06,18.65,13.06" transform="translate(-881.5 -82.38)"/><path class="cls-8" d="M2085.91,986.63c-9.33,0-9.33,13.06-18.65,13.06s-9.33-13.06-18.65-13.06-9.33,13.06-18.66,13.06-9.32-13.06-18.65-13.06-9.32,13.06-18.65,13.06-9.33-13.06-18.66-13.06-9.32,13.06-18.65,13.06" transform="translate(-881.5 -82.38)"/><path class="cls-8" d="M2085.91,986.63c-9.33,0-9.33,13.06-18.65,13.06s-9.33-13.06-18.65-13.06-9.33,13.06-18.66,13.06-9.32-13.06-18.65-13.06-9.32,13.06-18.65,13.06-9.33-13.06-18.66-13.06-9.32,13.06-18.65,13.06" transform="translate(-881.5 -82.38)"/><path class="cls-8" d="M2085.91,986.63c9.33,0,9.33,13.06,18.65,13.06s9.33-13.06,18.66-13.06,9.32,13.06,18.65,13.06" transform="translate(-881.5 -82.38)"/><path class="cls-8" d="M2085.91,986.63c9.33,0,9.33,13.06,18.65,13.06s9.33-13.06,18.66-13.06,9.32,13.06,18.65,13.06" transform="translate(-881.5 -82.38)"/><path class="cls-8" d="M2299.71,1078.69c-9.32,0-9.32,13-18.65,13s-9.33-13-18.65-13-9.33,13-18.66,13-9.32-13-18.65-13-9.33,13-18.65,13-9.33-13-18.66-13-9.32,13-18.65,13" transform="translate(-881.5 -82.38)"/><path class="cls-8" d="M2299.71,1078.69c9.33,0,9.33,13,18.65,13s9.33-13,18.66-13,9.32,13,18.65,13" transform="translate(-881.5 -82.38)"/><path class="cls-8" d="M2190.27,1096.29c-9.33,0-9.33,13.06-18.65,13.06s-9.33-13.06-18.66-13.06-9.32,13.06-18.65,13.06-9.32-13.06-18.65-13.06-9.33,13.06-18.65,13.06-9.33-13.06-18.66-13.06-9.32,13.06-18.65,13.06" transform="translate(-881.5 -82.38)"/><path class="cls-8" d="M2190.27,1095.29c9.33,0,9.33,13.06,18.65,13.06s9.33-13.06,18.66-13.06,9.32,13.06,18.65,13.06" transform="translate(-881.5 -82.38)"/><line class="cls-8" x1="1146.94" y1="680.77" x2="1150.7" y2="698.86"/><line class="cls-8" x1="1158.23" y1="725.77" x2="1167.11" y2="763.25"/><line class="cls-8" x1="1412.71" y1="744.51" x2="1402.01" y2="754.14"/><path class="cls-8" d="M2262.41,854.85s-26,22.84-37.35,37.34" transform="translate(-881.5 -82.38)"/><path class="cls-8" d="M2151.63,934.7s13.08-53.8,43.21-79.85,45.88-30.65,45.88-30.65-67.73,59.73-60.56,110.5c0,0,18.64-56,42.71-66.09-14.35,21.5-15.32,66.09-15.32,66.09" transform="translate(-881.5 -82.38)"/><path class="cls-8" d="M2249.57,939.63s-28-61.83-53.4-78.46c18.39,36.77,26.7,78.46,26.7,78.46" transform="translate(-881.5 -82.38)"/><path class="cls-8" d="M2164.5,939.63s-9.1-53.72-42.94-78.46c20.31,44.64,17.74,78.46,17.74,78.46" transform="translate(-881.5 -82.38)"/><path class="cls-30" d="M1653.42,301.77s8.94-1.14,19.46-17.35c8.49,1.34,17.35,2.59,17.35,2.59S1682,308,1665,318.61s-35.71,0-35.71,0l5.53-13.68Z" transform="translate(-881.5 -82.38)"/><path class="cls-30" d="M1627.39,303.47s71,12.17,76,36.32c-13.81,9.92-15.66,39.37-15.66,39.37l-32.36,3.61-91-3.16,3.25-49.93,9.53-34.77" transform="translate(-881.5 -82.38)"/><path class="cls-27" d="M1621.55,325.8s37,13.37,48.92-10.79c-6.83-2.24-23.72-7.29-23.72-7.29Z" transform="translate(-881.5 -82.38)"/><path class="cls-27" d="M1622.25,325.61s-12.79,12.16-35,18.19c-17.35,4.72-21.75-6.83-21.75-6.83V318.16l11-6.21Z" transform="translate(-881.5 -82.38)"/><path class="cls-5" d="M1559,300.63s-3.74-18.44,11.17-16c12,2,5.24,23.05,5.24,23.05Z" transform="translate(-881.5 -82.38)"/><path class="cls-30" d="M1577.24,367.65s-15.79-13-21.35-23.75c-9.93-19.17,3.12-43.27,3.12-43.27l16.41,7.07s-9.05,27.57,17.85,37.08" transform="translate(-881.5 -82.38)"/><path class="cls-5" d="M1575.6,273.49c-1.9-.64-4.82-3-6-3.9-3.73-2.85-4.84-8.13-2.21-11.58s7.94-3.84,11.75-.93a19.42,19.42,0,0,1,5,6.34" transform="translate(-881.5 -82.38)"/><path class="cls-5" d="M1636.54,263.21c1.58-1.22,3.57-4.4,4.4-5.66,2.59-3.9,1.91-9.26-1.71-11.66s-8.76-1-11.4,3a19.53,19.53,0,0,0-2.64,7.62" transform="translate(-881.5 -82.38)"/><path class="cls-11" d="M1653.9,285.21c10.64,17.43-13.67,37.71-37.7,41.76s-54.18-7.23-49.31-27.09c5.59-22.78,12.62-44,36.65-48s38.56,14,50.36,33.37" transform="translate(-881.5 -82.38)"/><path class="cls-30" d="M1603.54,251.84c-21.46,3.62-29.36,20.91-34.78,40.8l0-.07s4,10.88,16.28,12.25,13.27-10.95,23.38-10.26l3.27-.55c9.32-4,16.06,7.06,27.24,1.73s10.63-17.32,10.63-17.32h0c-11.06-16.53-24.87-30.16-46-26.59" transform="translate(-881.5 -82.38)"/><line class="cls-8" x1="729.07" y1="215.85" x2="731.31" y2="229.16"/><path class="cls-12" d="M1610.55,299.13c-1.84.31-7.46-2-8.36-5.94s3.61-5.43,6.58-5.94,7.61-.57,8,3.47-4.43,8.1-6.27,8.41" transform="translate(-881.5 -82.38)"/><path class="cls-8" d="M1629.29,303.5s-13.57,14.12-34.69,5.85" transform="translate(-881.5 -82.38)"/><path class="cls-12" d="M1581.48,297.74c4.53,2.76,11.11.21,14.71-5.68s2.83-12.92-1.7-15.68-11.11-.21-14.7,5.69-2.84,12.91,1.69,15.67" transform="translate(-881.5 -82.38)"/><path class="cls-31" d="M1591.23,288s-1.87-4.57-6.26-2.57" transform="translate(-881.5 -82.38)"/><path class="cls-12" d="M1638.1,288.19c-3.37,4.09-10.43,3.85-15.76-.54s-6.91-11.27-3.53-15.37,10.42-3.84,15.75.55,6.91,11.27,3.54,15.36" transform="translate(-881.5 -82.38)"/><path class="cls-31" d="M1625.7,282.17s.26-4.93,5.06-4.48" transform="translate(-881.5 -82.38)"/><path class="cls-7" d="M1556.15,402.59h312.66c36.57,0,52.73-37.46,19.28-50.75s-67.3,13.29-67.3,13.29-22.25-35.33-61.63-32.22c-46,3.62-61.54,37.64-61.54,37.64s-31.13-42.43-69.35-35.18-50.93,26.27-50.93,26.27-21.25-19.8-36-5.3c-18.71,18.42,14.79,46.25,14.79,46.25" transform="translate(-881.5 -82.38)"/><path class="cls-5" d="M1677.33,359.6s-4-9.93.75-15.73c8.77-10.79,19.76-6.49,22.64-2.77s11.41,25.21,2.79,33.44c-8,7.59-35.24,18.65-38.21,5.85-3-13.1,18-24.11,18-24.11" transform="translate(-881.5 -82.38)"/><path class="cls-30" d="M1674.59,326.17s3.8-3.55,19.3-7.56l-1.9,6.64" transform="translate(-881.5 -82.38)"/><path class="cls-5" d="M1701.66,317s-10.69.37-14.11,7c-6.35,12.38,2,20.71,6.58,21.85s27.67.3,31.74-10.9c3.75-10.33,2.89-39.77-10-37.33-13.21,2.49-14.82,26.2-14.82,26.2" transform="translate(-881.5 -82.38)"/><path class="cls-5" d="M1672.88,284.42s3.11-13.92,13.29-12.22c9.59,1.6,4.06,14.81,4.06,14.81Z" transform="translate(-881.5 -82.38)"/><path class="cls-7" d="M1272.7,204.36h119.17s3.77-33.52-31-24.51c-22.25-31.64-57.79-9.87-62,4-22.62-13.78-30.39,4.27-26.21,20.51" transform="translate(-881.5 -82.38)"/><path class="cls-11" d="M1792,1385c-13.82-11.3-28.09-23.16-35.61-39.35s-6.11-38,8.05-48.89c4.85-3.71,11.18-6.34,13.46-12,2.56-6.36-1.21-13.27-3.77-19.63-8.5-21-3-47,13.25-62.75s42.36-20.49,63.12-11.37c5.1,2.24,10.2,5.29,15.76,5,8.43-.48,14.24-8.23,20-14.37,20.21-21.39,54.27-28.26,81.21-16.39s44.82,41.67,42.66,71c16.08-1,32.57-2.07,48,2.49s30,15.89,33.63,31.59c5.83,25-16.25,47-36.34,62.86,15.05,9,32.11,21.7,30.71,39.18-.87,10.75-8.87,19.58-17.54,26a95.6,95.6,0,0,1-64.34,18.18c-10.6-.91-21.18-3.61-31.76-2.44-28.63,3.16-78.32,3.77-106.49-2.27" transform="translate(-881.5 -82.38)"/><path class="cls-8" d="M1792,1385c-13.82-11.3-28.09-23.16-35.61-39.35s-6.11-38,8.05-48.89c4.85-3.71,11.18-6.34,13.46-12,2.56-6.36-1.21-13.27-3.77-19.63-8.5-21-3-47,13.25-62.75s42.36-20.49,63.12-11.37c5.1,2.24,10.2,5.29,15.76,5,8.43-.48,14.24-8.23,20-14.37,20.21-21.39,54.27-28.26,81.21-16.39s44.82,41.67,42.66,71c16.08-1,32.57-2.07,48,2.49s30,15.89,33.63,31.59c5.83,25-16.25,47-36.34,62.86,15.05,9,32.11,21.7,30.71,39.18-.87,10.75-8.87,19.58-17.54,26a95.6,95.6,0,0,1-64.34,18.18c-10.6-.91-21.18-3.61-31.76-2.44-28.63,3.16-78.32,3.77-106.49-2.27" transform="translate(-881.5 -82.38)"/><path class="cls-11" d="M1950,1352.38c-6.47-11.57-20.47-18.35-24.26-31.06-1.69-5.63-1-11.66-.59-17.53,1.47-22.4-4.06-48.19-23.56-59.34-20.41-11.68-46.17-2.16-66.74,9.25-2.26,1.26-4.67,2.58-7.26,2.46-3.41-.15-6.15-2.71-8.68-5-15.61-14-36.81-22.72-57.57-19.89s-40.07,18.86-43.27,39.57c-15-7.9-35.43-3.41-45.74,10.07s-9.31,34.35,2.24,46.78c2.93,3.14,6.56,6,7.63,10.17,1.5,5.82-2.56,11.44-4.47,17.14-4.06,12.18,2.31,25.93,12.22,34.09s22.72,11.68,35.17,14.83c63.74,16.15,114.19,27.91,201.89,12.5,0,0,45.23-24.24,23-64.06" transform="translate(-881.5 -82.38)"/><path class="cls-8" d="M1950,1352.38c-6.47-11.57-20.47-18.35-24.26-31.06-1.69-5.63-1-11.66-.59-17.53,1.47-22.4-4.06-48.19-23.56-59.34-20.41-11.68-46.17-2.16-66.74,9.25-2.26,1.26-4.67,2.58-7.26,2.46-3.41-.15-6.15-2.71-8.68-5-15.61-14-36.81-22.72-57.57-19.89s-40.07,18.86-43.27,39.57c-15-7.9-35.43-3.41-45.74,10.07s-9.31,34.35,2.24,46.78c2.93,3.14,6.56,6,7.63,10.17,1.5,5.82-2.56,11.44-4.47,17.14-4.06,12.18,2.31,25.93,12.22,34.09s22.72,11.68,35.17,14.83c63.74,16.15,114.19,27.91,201.89,12.5C1927,1416.44,1972.25,1392.2,1950,1352.38Z" transform="translate(-881.5 -82.38)"/><path class="cls-11" d="M1750.15,1276.15s12.25,72.49,88.83,110.27" transform="translate(-881.5 -82.38)"/><path class="cls-8" d="M1750.15,1276.15s12.25,72.49,88.83,110.27" transform="translate(-881.5 -82.38)"/><path class="cls-11" d="M1786.91,1284.31s3.06,22.47-19.4,32.68" transform="translate(-881.5 -82.38)"/><path class="cls-8" d="M1786.91,1284.31s3.06,22.47-19.4,32.68" transform="translate(-881.5 -82.38)"/><path class="cls-11" d="M1723.6,1355.78s38.8,23.49,72.5,3.07" transform="translate(-881.5 -82.38)"/><path class="cls-8" d="M1723.6,1355.78s38.8,23.49,72.5,3.07" transform="translate(-881.5 -82.38)"/><path class="cls-11" d="M2034,1273.08a471.51,471.51,0,0,1-48,38.8" transform="translate(-881.5 -82.38)"/><path class="cls-8" d="M2034,1273.08a471.51,471.51,0,0,1-48,38.8" transform="translate(-881.5 -82.38)"/><path class="cls-11" d="M1990.09,1262.87s2,15.32,14.29,33.7" transform="translate(-881.5 -82.38)"/><path class="cls-8" d="M1990.09,1262.87s2,15.32,14.29,33.7" transform="translate(-881.5 -82.38)"/><path class="cls-11" d="M1855.59,1296.57s-12.5,7-7.73,25.4c10.11-7.73,7.73-25.4,7.73-25.4" transform="translate(-881.5 -82.38)"/><path class="cls-8" d="M1855.59,1296.57s-12.5,7-7.73,25.4C1858,1314.24,1855.59,1296.57,1855.59,1296.57Z" transform="translate(-881.5 -82.38)"/><path class="cls-11" d="M1695.49,1306.5s3.57,24.14,25.6,20.7c0-13-25.6-20.7-25.6-20.7" transform="translate(-881.5 -82.38)"/><path class="cls-8" d="M1695.49,1306.5s3.57,24.14,25.6,20.7C1721.09,1314.24,1695.49,1306.5,1695.49,1306.5Z" transform="translate(-881.5 -82.38)"/><path class="cls-11" d="M1870.47,1393.39s-10.11-11.9,0-23.8c8.93,11.9,0,23.8,0,23.8" transform="translate(-881.5 -82.38)"/><path class="cls-8" d="M1870.47,1393.39s-10.11-11.9,0-23.8C1879.4,1381.49,1870.47,1393.39,1870.47,1393.39Z" transform="translate(-881.5 -82.38)"/><path class="cls-11" d="M1936.28,1195.54s-11,11.48-5,31c17.85-11.54,5-31,5-31" transform="translate(-881.5 -82.38)"/><path class="cls-8" d="M1936.28,1195.54s-11,11.48-5,31C1949.14,1215,1936.28,1195.54,1936.28,1195.54Z" transform="translate(-881.5 -82.38)"/><path class="cls-11" d="M1817.74,1210.42s-2.44,17.52,12.7,20.34c6.84-9.88-12.7-20.34-12.7-20.34" transform="translate(-881.5 -82.38)"/><path class="cls-8" d="M1817.74,1210.42s-2.44,17.52,12.7,20.34C1837.28,1220.88,1817.74,1210.42,1817.74,1210.42Z" transform="translate(-881.5 -82.38)"/><path class="cls-11" d="M1978.45,1373.77s3.38-10.43,18.79-14.74c-3.16,10.56-9,14.74-18.79,14.74" transform="translate(-881.5 -82.38)"/><path class="cls-8" d="M1978.45,1373.77s3.38-10.43,18.79-14.74C1994.08,1369.59,1988.22,1373.77,1978.45,1373.77Z" transform="translate(-881.5 -82.38)"/><path class="cls-9" d="M1261.47,589c42.87,14.89,41.71,65.65-1.9,87.71-35.8,18.1-69.57,23.22-98.76,27.06l45,55.25-90.16-47.71c-71.27.59-155.15-11.45-195.13-28.43-43.85-18.62-59.74-67.1.22-96.48,42.87-21,245.44-30.5,340.71,2.6" transform="translate(-881.5 -82.38)"/><path class="cls-21" d="M923.86,615.24a46.51,46.51,0,0,1-5.37,2.45l-1,.32v9.15h14.26q-.43-4.53-.43-7.5a54.34,54.34,0,0,0-.42-7.66c2.83.74,4.25,1.33,4.25,1.75s-.5.63-1.49,1q0,6.91.53,12.39h12.24l2.55-3c1.35,1,2.62,2,3.83,3,.28.18.42.37.42.58,0,.57-.26.85-.79.85H934.29c.11,1,.21,2,.32,2.88a50.76,50.76,0,0,0,1.81,9.52,28.53,28.53,0,0,0,1.11,3.72,46.52,46.52,0,0,0,4.42-6.38,29.47,29.47,0,0,0,3-5.91,39.7,39.7,0,0,1,3.93,2.08q.54.42.54.69c0,.21-.29.41-.86.58a7.86,7.86,0,0,1-2.12.32,63.92,63.92,0,0,1-5.8,8.35c-.71.85-1.4,1.62-2.08,2.29q.16.27.27.48a20.22,20.22,0,0,0,3.83,4.89,20,20,0,0,0,4.25,3.78,3.16,3.16,0,0,0,1.87.85,1,1,0,0,0,.69-.37,85.37,85.37,0,0,0,3-9l.79.64q-1.9,6.54-1.91,8.72a1.82,1.82,0,0,0,.9,1.6,2.08,2.08,0,0,1,.64,1.54c0,.74-.51,1.12-1.54,1.12a3.83,3.83,0,0,1-1.65-.38,11.89,11.89,0,0,1-3.77-2.23,21,21,0,0,1-5.54-4.68,25.64,25.64,0,0,1-3.61-5.21c-.64.6-1.25,1.15-1.81,1.65a51.16,51.16,0,0,1-7,4.94,42.1,42.1,0,0,1-7.88,3.35l-.42-.9A64.66,64.66,0,0,0,927,654a32.57,32.57,0,0,0,5.11-3.73,44.81,44.81,0,0,0,3.67-3.66,45.16,45.16,0,0,1-2-6,60.06,60.06,0,0,1-1.7-10.21c-.08-.64-.13-1.26-.16-1.87H917.48v12A16,16,0,0,0,919,640q4-1.54,9.36-4.1l.22,1a79.09,79.09,0,0,1-8.09,4.36c-1,.46-2,.93-3,1.39v14.09a4.21,4.21,0,0,1-.74,2.71,4.6,4.6,0,0,1-1.86,1.39,3.8,3.8,0,0,1-1.87.58l-.1-.74a1.68,1.68,0,0,0-.48-1.07,5.06,5.06,0,0,0-2.24-1.11,16.47,16.47,0,0,0-4-.75v-1.22a29.61,29.61,0,0,0,6.38.8,3.52,3.52,0,0,0,1.86-.32c.32-.22.48-.75.48-1.6V643.65c-.57.24-1.15.48-1.76.69a41.31,41.31,0,0,1-6.75,2.34c-.36,1.27-.64,1.91-.85,1.91s-1.09-1.41-2.5-4.25a70.12,70.12,0,0,0,8.29-1.81c1.14-.32,2.33-.67,3.57-1.06V628.59h-6.6a45.24,45.24,0,0,0-5.1.27l-1-2.39a21.81,21.81,0,0,0,6.11.69h6.6v-8.35c-1.17.32-2.31.58-3.41.79a64.88,64.88,0,0,1-7.44,1l-.21-1.11a42,42,0,0,0,5-.8,33.06,33.06,0,0,0,4.89-1.44,34.22,34.22,0,0,0,4.31-1.75,17.36,17.36,0,0,0,2.93-1.81c.63-.53,1.24-1.08,1.8-1.65,1.24.82,2.34,1.59,3.3,2.34a.57.57,0,0,1,.27.43c0,.46-.2.69-.59.69a11.47,11.47,0,0,1-2-.22m15.59-1.11a23.58,23.58,0,0,1,5,2.87,9.66,9.66,0,0,1,2.44,2.34,2.7,2.7,0,0,1,.64,1.59c0,1.17-.37,1.76-1.11,1.76a1.55,1.55,0,0,1-.85-.27,2.53,2.53,0,0,1-.91-1.17,14.08,14.08,0,0,0-2.29-3.35,19.79,19.79,0,0,0-3.56-2.92Z" transform="translate(-881.5 -82.38)"/><path class="cls-21" d="M969,611.63a36.78,36.78,0,0,1,4.52,1.86.88.88,0,0,1,.32.64c0,.32-.34.53-1,.63a10.87,10.87,0,0,1-1.7.22q-1.59,4.68-3.56,9c-.29.6-.55,1.15-.8,1.65,1.74.78,2.6,1.36,2.6,1.75s-.56.73-1.7,1.22v27.5a7.81,7.81,0,0,0,.32,2.56,5.75,5.75,0,0,1,.16,1.22c0,1.1-.64,1.68-1.91,1.75-.75,0-1.12-.28-1.12-.85v-32c-.5.93-1,1.79-1.49,2.61a62.35,62.35,0,0,1-5.32,6.65l-.8-.69a76.15,76.15,0,0,0,4.63-6.86,64.8,64.8,0,0,0,3-6.17c1-2.31,1.82-4.45,2.5-6.44a48,48,0,0,0,1.38-6.22m5.27,6.38a16.88,16.88,0,0,1,4.31,1.12.84.84,0,0,1,.58.79.62.62,0,0,1-.48.64,3.44,3.44,0,0,1-1.59.59v39.14c0,.75-.5,1.12-1.49,1.12a1.17,1.17,0,0,1-1.33-1.33c0-.42,0-1,.1-1.65s.11-1.38.11-1.91V622.26a31.07,31.07,0,0,0-.21-4.25m5.16-5.8a32.51,32.51,0,0,1,2.82,2.4,16,16,0,0,1,2.18,2.18,7.79,7.79,0,0,1,1.22,1.8,4,4,0,0,1,.32,1.55,3.17,3.17,0,0,1-.27,1.43,1.17,1.17,0,0,1-1,.69A.93.93,0,0,1,984,622a2.22,2.22,0,0,1-.58-1.33,13.59,13.59,0,0,0-1.07-2.72,16.57,16.57,0,0,0-1.54-2.44,13.94,13.94,0,0,0-2.29-2.61Zm8,3a31.31,31.31,0,0,0,6,.43H1002l1.65-2.34a9.36,9.36,0,0,1,2.76,2.23c.32.29.48.53.48.75s-.71.88-2.13,1.7v38.51a3.55,3.55,0,0,1-1,2.71,5.64,5.64,0,0,1-2.24,1.38,5.14,5.14,0,0,1-2.18.59,2.22,2.22,0,0,0-.64-1.81,6.38,6.38,0,0,0-2.5-1.17,24.28,24.28,0,0,0-4.52-.69v-1.22a45.16,45.16,0,0,0,8.14.85,4.05,4.05,0,0,0,2-.32c.39-.18.58-.66.58-1.44V617.1h-8.93a32.73,32.73,0,0,0-5.11.22Z" transform="translate(-881.5 -82.38)"/><path class="cls-21" d="M1012.58,625.83a26.83,26.83,0,0,1,5.48,2.76,12,12,0,0,1,2.66,2.29,2.64,2.64,0,0,1,.59,1.54c0,1.17-.43,1.76-1.28,1.76a1.94,1.94,0,0,1-1-.27,2.81,2.81,0,0,1-.85-1.11,14.42,14.42,0,0,0-2.45-3.25,17,17,0,0,0-3.77-2.82Zm11.49,12.39.43.8q-1.71,4.1-3.94,8.56-2.23,4.74-4.73,9.15-.33,2.55-.69,2.55T1012,655.4a60.79,60.79,0,0,0,6.59-8.3,101.53,101.53,0,0,0,5.48-8.88m-7.6-25.37a25.07,25.07,0,0,1,5.16,2.82,9.51,9.51,0,0,1,2.5,2.23,2.38,2.38,0,0,1,.63,1.55c0,1.13-.42,1.7-1.27,1.7a2.06,2.06,0,0,1-.91-.21,2.69,2.69,0,0,1-.9-1.12,14.34,14.34,0,0,0-2.29-3.3,18.44,18.44,0,0,0-3.56-2.77Zm10.85,23.24a30.58,30.58,0,0,0,5.9.43h19.41l1.92-2.13a18.78,18.78,0,0,1,3.24,2.71,1.22,1.22,0,0,1,.32.91c0,.14-.28.3-.85.48a10.93,10.93,0,0,1-2.07.37,79.44,79.44,0,0,1-7.18,8.78,40.5,40.5,0,0,1-5,4.36c.49.25,1,.49,1.43.74a66.06,66.06,0,0,0,7.5,3.14q4.53,1.27,10.22,2.29v.9a3.54,3.54,0,0,0-2.93,1.7,91.7,91.7,0,0,1-9.84-3.13,34.52,34.52,0,0,1-7-3.41,10.3,10.3,0,0,1-1.43-.9,54.28,54.28,0,0,1-9.1,5,59,59,0,0,1-9.47,3l-.69-1.12a50.38,50.38,0,0,0,10.48-4,52.37,52.37,0,0,0,7.07-4.15,31.26,31.26,0,0,1-2.66-2.45,26.74,26.74,0,0,1-4.89-6.28,15.8,15.8,0,0,1-2.18-5.37,8.22,8.22,0,0,0-1.44.16Zm6.33-24.09,3.45,2.34h9.52l2.13-2.34c1.17.85,2.25,1.67,3.25,2.45.28.17.42.35.42.53,0,.46-.11.73-.32.8a.83.83,0,0,1-.48.37,9.64,9.64,0,0,1-1.33.53v9.15a13.16,13.16,0,0,0,.16,2.39,2.6,2.6,0,0,0,.59.91,2.92,2.92,0,0,0,1.54.53,11.66,11.66,0,0,0,2.61.26,16.38,16.38,0,0,0,2.66-.21,4.49,4.49,0,0,0,1.8-.53,2.56,2.56,0,0,1,1-.32,2.58,2.58,0,0,1,1.38.37,2.16,2.16,0,0,1,.53,1.28.54.54,0,0,1-.16.42.63.63,0,0,1-.42.43,8,8,0,0,1-2.08.43,34.89,34.89,0,0,1-4.15.26,30,30,0,0,1-4.25-.26,5.5,5.5,0,0,1-1.76-.48,2.81,2.81,0,0,1-1.12-.8,3.75,3.75,0,0,1-.74-1.54,12.35,12.35,0,0,1-.16-2.24V615.88h-11.27a24.57,24.57,0,0,1-.59,5.69,19.93,19.93,0,0,1-1.65,4.63,11.23,11.23,0,0,1-2.39,3.3,23.44,23.44,0,0,1-5.22,3.78l-.85-.86a14.5,14.5,0,0,0,3.89-3.19,14,14,0,0,0,2.23-3.51,18.38,18.38,0,0,0,1.38-4.73,32.33,32.33,0,0,0,.64-5c0-1.49-.12-2.83-.26-4m-3,26a20.82,20.82,0,0,0,2.88,5.53,27.33,27.33,0,0,0,4.89,5.43,32,32,0,0,0,2.71,1.86A42.69,42.69,0,0,0,1052.21,638h-21.6Z" transform="translate(-881.5 -82.38)"/><path class="cls-21" d="M1066.46,623.11a25.37,25.37,0,0,0,6.17.59H1075v-8a28.28,28.28,0,0,0-.21-4.25,17.9,17.9,0,0,1,5.16,1.27c.35.18.53.39.53.64s-.23.57-.69.74a14.81,14.81,0,0,1-2.23.48v9.15h1.91l2.34-2.55c1.17.92,2.29,1.79,3.35,2.6a.75.75,0,0,1,.43.64c0,.57-.21.85-.64.85h-7.39v11.49q2.87-1.07,6.8-2.76l.22,1a58.45,58.45,0,0,1-5.59,3.13c-.53.29-1,.52-1.43.7v18.35a3.7,3.7,0,0,1-.91,2.71,4.33,4.33,0,0,1-2,1.38,4.93,4.93,0,0,1-2,.53l-.1-.9a1.6,1.6,0,0,0-.43-.85,4.23,4.23,0,0,0-1.81-1.12,10.93,10.93,0,0,0-3.24-.74v-1.23a18.61,18.61,0,0,0,5.1.8,4.59,4.59,0,0,0,2.19-.32q.63-.31.63-1.59V639.92a10.34,10.34,0,0,1-1,.43,39,39,0,0,1-4.63,1.65c-.36,1.27-.62,1.91-.8,1.91s-1.13-1.42-2.55-4.25a46.67,46.67,0,0,0,6-1.23,25.6,25.6,0,0,0,3-.85V625.24h-2.34c-2.52,0-4.23.09-5.16.16Zm41.12,2.4,2.07-3.25,4.31,2.82a.64.64,0,0,1,.32.53c0,.32-.2.54-.59.64l-17.71,2a53.33,53.33,0,0,0,.91,6.6,58.77,58.77,0,0,0,2.5,8.93c.21.5.42,1,.64,1.44l.47-.48a48.93,48.93,0,0,0,5-6.91,33.49,33.49,0,0,0,3.3-6.17,22.19,22.19,0,0,1,3.88,2.07c.39.28.59.51.59.69s-.3.34-.91.48a8.15,8.15,0,0,1-2.12.32,68.52,68.52,0,0,1-6.33,8.94,36.79,36.79,0,0,1-2.87,3,27.31,27.31,0,0,0,2.6,3.56,46.07,46.07,0,0,0,5.64,5.27,8.86,8.86,0,0,0,2.71,1.33,1,1,0,0,0,.8-.38q.64-1,3.24-9.36l.8.43q-1.9,8.57-1.91,9.52a2.11,2.11,0,0,0,.69,1.7,2.21,2.21,0,0,1,.85,1.54c0,.68-.51,1-1.54,1a8.32,8.32,0,0,1-3.25-1.17,21.52,21.52,0,0,1-5.47-3.88,31.25,31.25,0,0,1-5.16-5.32,20.07,20.07,0,0,1-1.87-2.6,10.9,10.9,0,0,1-1.54,1.38,54.52,54.52,0,0,1-7.71,5.32,45.47,45.47,0,0,1-8.62,3.56l-.42-.9a71,71,0,0,0,8.19-3.73,35.87,35.87,0,0,0,5.53-4,37.13,37.13,0,0,0,3.67-3.35q-.58-1.17-1.17-2.55a56.42,56.42,0,0,1-2.55-10c-.36-1.92-.62-3.92-.8-6l-6.38.74-2.24.48-1.43-2,3.61-.32,6.28-.58q-.21-2.88-.21-5.85c0-4.18-.11-7.31-.32-9.36,3.26.71,4.89,1.34,4.89,1.91q0,.54-2.34,1.44,0,6.85.27,11.65Zm-6.49-11.38a23,23,0,0,1,4.52,2.34,6.27,6.27,0,0,1,2.18,1.91,2,2,0,0,1,.53,1.28c0,1.13-.33,1.7-1,1.7a1.62,1.62,0,0,1-.8-.21,2.11,2.11,0,0,1-.79-.91,12.5,12.5,0,0,0-2.08-2.87,18.26,18.26,0,0,0-3.14-2.39Z" transform="translate(-881.5 -82.38)"/><path class="cls-21" d="M1120.72,615.46a24,24,0,0,0,6.17.64H1145l2.55-3q2,1.49,3.78,3c.32.14.48.33.48.58a.8.8,0,0,1-.91.9h-14.46a66.39,66.39,0,0,1-5.75,6.55,68.58,68.58,0,0,1-5.32,5.47c2-.1,3.73-.21,5.32-.31q3.36-.22,7.24-.64,3.4-.27,7.71-.75c-.39-.46-.76-.87-1.12-1.22a33,33,0,0,0-4.25-3.78l.69-.63a29.18,29.18,0,0,1,4.31,2.92,28.49,28.49,0,0,1,3,2.34,16.83,16.83,0,0,1,1.59,1.6,8,8,0,0,1,.59,1.17,2.75,2.75,0,0,1,.21,1.11c0,1-.37,1.44-1,1.44a1.44,1.44,0,0,1-.8-.21,14.2,14.2,0,0,1-1.54-2.34c-.32-.46-.62-.91-.9-1.33q-4,.79-7,1.22c-.75.14-1.46.27-2.13.37V641.2h5.58l2.56-3c1.34,1,2.6,2,3.77,3,.32.14.48.34.48.59a.8.8,0,0,1-.9.9h-11.49v11.17c1-.21,1.91-.45,2.87-.69q4.74-1,11-2.82l.21,1q-5.43,2-9.68,3.24-4.51,1.33-8.67,2.29-3.78,1-8,1.76-.59,1.86-.9,1.86t-2.56-4.2c3.66-.4,6.88-.84,9.69-1.33l3.51-.59v-11.7h-4.84c-2.52,0-4.22.11-5.11.21l-1.12-2.34a24.29,24.29,0,0,0,6.23.64h4.84V630.93c-.75.15-1.48.25-2.19.32q-3,.48-6.32.8c-.36,1.28-.63,1.92-.8,1.92s-1.14-1.42-2.56-4.26h.43q3.35-3.51,5.8-6.43a63.59,63.59,0,0,0,3.83-5.7h-6c-2.52,0-4.24.11-5.16.22ZM1155,618a22.71,22.71,0,0,1,5,1.12c.46.18.69.44.69.79s-.23.54-.69.64a6.16,6.16,0,0,1-2.29.59V643.7a7.73,7.73,0,0,0,.11,1.65,13.84,13.84,0,0,1,.11,1.54,1.5,1.5,0,0,1-1.71,1.7c-.81,0-1.22-.26-1.22-.79,0-.78,0-1.76.11-2.93s.05-2.34.05-3.3v-19.3A39.85,39.85,0,0,0,1155,618m10.43-6a18.12,18.12,0,0,1,5.15,1.38c.36.14.54.34.54.59s-.23.57-.69.74a22.7,22.7,0,0,1-2.24.53v41.49a3.68,3.68,0,0,1-.9,2.71,5.93,5.93,0,0,1-2.13,1.39,4.82,4.82,0,0,1-2.13.58l0-.69a1.79,1.79,0,0,0-.59-1.12,6.27,6.27,0,0,0-2.55-1.11,20.41,20.41,0,0,0-4.47-.75v-1.22a38,38,0,0,0,7.24.8,5.47,5.47,0,0,0,2.34-.32c.46-.22.69-.75.69-1.6V616.31a29.63,29.63,0,0,0-.21-4.31" transform="translate(-881.5 -82.38)"/><path class="cls-21" d="M1186.25,611.79a43.4,43.4,0,0,1,4.52,1.91.9.9,0,0,1,.37.64c0,.32-.36.53-1.07.64a8.32,8.32,0,0,1-1.7.26,90.39,90.39,0,0,1-3.62,9.21l-.26.53c1.45.64,2.18,1.13,2.18,1.49s-.59.78-1.76,1.27v29a8.93,8.93,0,0,0,.27,2.55,5.33,5.33,0,0,1,.16,1.23c0,1.06-.64,1.63-1.92,1.7-.7,0-1.06-.27-1.06-.8V629.23c-.53,1-1.08,1.88-1.65,2.77a73.79,73.79,0,0,1-5.32,6.86l-.85-.64a80.65,80.65,0,0,0,4.74-7q1.54-2.93,3-6.38t2.5-6.6a45.31,45.31,0,0,0,1.44-6.43m32.23,11,1.59-1.86a30.3,30.3,0,0,1,3.41,3,.74.74,0,0,1,.16.42c0,.22-.34.39-1,.53l-1.71.32q-1.28,5.43-3,11.28-1.76,6.33-3.61,11.28l-.8-.64q1.9-6.28,3-12c.81-3.79,1.44-7.39,1.86-10.8v0l-10.27,3.56v23.46c0,.74-.47,1.12-1.43,1.12a1.18,1.18,0,0,1-1.33-1.33,14.11,14.11,0,0,1,.11-1.65c.07-.75.1-1.39.1-1.92V628.75l-8.24,2.93V655.4a1.35,1.35,0,0,0,.74,1.33,9.67,9.67,0,0,0,3,.59,55.17,55.17,0,0,0,8.14.42q4.58,0,7.29-.16a21,21,0,0,0,3.46-.48,2.42,2.42,0,0,0,1.7-1.38c.6-1,1.19-3.51,1.75-7.55l1.12.21a41.82,41.82,0,0,0-.48,6.22,1.18,1.18,0,0,0,.37,1,2,2,0,0,0,.86.7,1.39,1.39,0,0,1,.9,1.22q0,.53-.9,1a10.42,10.42,0,0,1-3.36.85q-2.39.36-5.58.53-3.72.21-7.13.21-5,0-7.66-.21a27.92,27.92,0,0,1-4.52-.75,3.43,3.43,0,0,1-1.75-1.22,2.55,2.55,0,0,1-.59-1.59V632.53l-2.61,1-3.72,1.91-1.49-2.34,4.47-1.06,3.35-1.17V620.78a26.12,26.12,0,0,0-.21-3.67c1.7.35,3.15.71,4.36,1.06.39.11.58.32.58.64s-.19.51-.58.58a5.1,5.1,0,0,1-1.54.53V630l8.24-2.82V616.68a32,32,0,0,0-.21-4.26,15.52,15.52,0,0,1,4.31,1.17c.39.22.58.47.58.75a.71.71,0,0,1-.48.69,3.17,3.17,0,0,1-1.65.64v10.58Z" transform="translate(-881.5 -82.38)"/><path class="cls-21" d="M1240.4,651.31a2.19,2.19,0,0,1,2.14-2.4,2.39,2.39,0,1,1-2.14,2.4" transform="translate(-881.5 -82.38)"/><path class="cls-21" d="M1256.36,651.31a2.19,2.19,0,0,1,2.14-2.4,2.39,2.39,0,1,1-2.14,2.4" transform="translate(-881.5 -82.38)"/><path class="cls-21" d="M1272.32,651.31a2.19,2.19,0,0,1,2.13-2.4,2.39,2.39,0,1,1-2.13,2.4" transform="translate(-881.5 -82.38)"/><path class="cls-21" d="M2081.65,576.11h-8.85c-.92,7.93-2.62,16.75-6.37,22.91a18.36,18.36,0,0,0-1.63-1.67c3.36-5.48,4.89-13.66,5.7-21.24h-4.74v-2.26h5c.18-2,.32-3.86.42-5.63l3.08.32c0,.32-.32.49-.74.53-.14,1.52-.28,3.11-.46,4.78h8.6Zm-3.65,4.5c-.06.25-.35.42-.84.46a141.94,141.94,0,0,1-3.76,15.29c1.67-.28,3.51-.63,5.35-1a58.41,58.41,0,0,0-1.84-6l1.87-.67a52.08,52.08,0,0,1,2.8,10.13l-2,.74a22.72,22.72,0,0,0-.43-2.34c-3.08.68-6.12,1.31-8.17,1.74a.64.64,0,0,1-.43.53l-1.06-2.51,1.84-.32a130.08,130.08,0,0,0,3.72-16.82Zm20.18,16.67v2.2h-13.27v1.73h-2.23V580.72a34.25,34.25,0,0,1-2.69,4.1,14.34,14.34,0,0,0-1.56-1.66c2.76-3.44,5.34-9.24,6.9-14.9l2.84.84c-.11.25-.36.36-.82.36a60.15,60.15,0,0,1-2,5.77h4.49a50.49,50.49,0,0,0,2.41-6.62l2.73.88a.79.79,0,0,1-.78.36c-.53,1.56-1.35,3.61-2.16,5.38h5.8v2.19h-5.62v5.14h5.13v2.09h-5.13v5.2h5.13v2.09h-5.13v5.34ZM2090,577.42h-5.06v5.14H2090Zm0,7.23h-5.06v5.2H2090Zm-5.06,12.63H2090v-5.34h-5.06Z" transform="translate(-881.5 -82.38)"/><path class="cls-21" d="M2117.05,576.11h-8.85c-.92,7.93-2.62,16.75-6.37,22.91a18.36,18.36,0,0,0-1.63-1.67c3.36-5.48,4.89-13.66,5.7-21.24h-4.74v-2.26h5c.17-2,.32-3.86.42-5.63l3.08.32c0,.32-.32.49-.74.53-.14,1.52-.28,3.11-.46,4.78h8.6Zm-3.64,4.5c-.08.25-.36.42-.85.46a141.94,141.94,0,0,1-3.76,15.29c1.67-.28,3.51-.63,5.35-1a58.41,58.41,0,0,0-1.84-6l1.87-.67a52.08,52.08,0,0,1,2.8,10.13l-2,.74c-.11-.71-.22-1.49-.43-2.34-3.08.68-6.12,1.31-8.17,1.74a.64.64,0,0,1-.43.53l-1.06-2.51,1.84-.32a130.08,130.08,0,0,0,3.72-16.82Zm20.17,16.67v2.2h-13.27v1.73h-2.23V580.72a34.25,34.25,0,0,1-2.69,4.1,14.34,14.34,0,0,0-1.56-1.66c2.76-3.44,5.35-9.24,6.9-14.9l2.83.84c-.1.25-.35.36-.81.36a57.54,57.54,0,0,1-2.05,5.77h4.49a50.49,50.49,0,0,0,2.41-6.62l2.73.88a.79.79,0,0,1-.78.36c-.53,1.56-1.35,3.61-2.16,5.38h5.8v2.19h-5.63v5.14h5.14v2.09h-5.14v5.2h5.14v2.09h-5.14v5.34Zm-8.21-19.86h-5.06v5.14h5.06Zm0,7.23h-5.06v5.2h5.06Zm-5.06,12.63h5.06v-5.34h-5.06Z" transform="translate(-881.5 -82.38)"/><path class="cls-21" d="M2135.39,602.52a52.15,52.15,0,0,0,2.12-8.49l3.47-.36a45.58,45.58,0,0,1-3.4,8.61Z" transform="translate(-881.5 -82.38)"/><path class="cls-21" d="M2155.88,581.85a41.34,41.34,0,0,1-3.68,5.52,19.23,19.23,0,0,0-1.52-1.91c3.33-4,6.51-10.69,8.53-17.24l2.94.88c-.14.36-.46.43-.85.39a79.32,79.32,0,0,1-3.36,8.39l1,.29c-.07.21-.24.39-.7.42v22.52h-2.38Zm24.25.85c.29-1.31.64-3.29,1-5.21H2174v20.68c0,2.55-.92,3-5.87,3a9.68,9.68,0,0,0-.89-2.45c.89,0,1.74,0,2.41,0h1.42c.46,0,.6-.14.6-.6V577.49H2166a30,30,0,0,1-3.65,6.7,10.34,10.34,0,0,0-1.8-1.46c2.54-3.29,4.63-8.85,5.84-14.4l2.94.77c-.08.25-.32.39-.78.36a54.4,54.4,0,0,1-1.7,5.8h15.64l1.24,0a60.58,60.58,0,0,1-1.59,7.79Zm-11.33,1.17c-.1.24-.35.39-.77.39-1.14,4.35-3.08,9-5.31,11.82a10.94,10.94,0,0,0-1.88-1.2c2.16-2.69,4-7.26,5.1-11.79Zm12.85,11.93a48.6,48.6,0,0,0-4.85-12.22l2.09-.74a46.78,46.78,0,0,1,5,12.11Z" transform="translate(-881.5 -82.38)"/><path class="cls-21" d="M2202.08,569.07a.8.8,0,0,1-.81.39c-.46,1.45-1,3-1.56,4.46h18.72v2.3h-19.75a42.21,42.21,0,0,1-4.25,7.29l.39.11c-.07.25-.28.42-.71.46v17.1h-2.37V586.81a29.91,29.91,0,0,1-4.18,3.75,14.06,14.06,0,0,0-1.3-2.16,27.83,27.83,0,0,0,5.48-5.31v-.25l.15,0a38,38,0,0,0,4.1-6.66h-8.89v-2.3h10a51.28,51.28,0,0,0,1.95-5.66Zm6.59,18.41v10.58h9.76v2.23H2196.7v-2.23h9.56V587.48h-8.15v-2.23h8.15v-7.12l3.08.21c0,.25-.21.39-.67.46v6.45H2217v2.23Z" transform="translate(-881.5 -82.38)"/><path class="cls-21" d="M2231.07,590.81h-6.23v2.93h-2V572h8.21Zm-2-16.61h-4.25v14.41h4.25Zm14.55,6.45h-1.24c0,2.47,0,4.63,0,6.51h1.32v2.09h-1.35c-.11,6.76-.32,9.48-.89,10.41-.67,1.2-1.41,1.41-3.75,1.41-.53,0-1.06,0-1.66,0a5.28,5.28,0,0,0-.57-2.2c1.35.11,2.55.11,3.12.11s.7-.11,1-.68.6-3.15.71-9h-3.69a24.34,24.34,0,0,1-5.2,12,6.14,6.14,0,0,0-1.49-1.52,21.48,21.48,0,0,0,4.68-10.44h-2.66v-2.09h3a53.64,53.64,0,0,0,.35-6.51h-3v-2.09h3v-6.45h-3.47V570h9.7l1,0,0,8.5h1.24Zm-6.37,0a52.09,52.09,0,0,1-.36,6.51h3.4c0-1.88,0-4,.07-6.51Zm0-8.54v6.45h3.11l0-6.45Zm15.68-2.19,1.49.92a1,1,0,0,1-.29.35c-.88,3.12-2.23,7.47-3.47,10.84,2.66,3.32,3.65,6.12,3.65,8.7,0,5.38-2.65,5.42-5.42,5.28a5.76,5.76,0,0,0-.53-2,9.87,9.87,0,0,0,1.35.1c1.38,0,2.48,0,2.48-3.5,0-2.3-.89-5-3.54-8.36,1.13-3.15,2.23-7.25,3-10.12H2247v29.06H2245V570h7.65Z" transform="translate(-881.5 -82.38)"/><path class="cls-21" d="M2265,569.74l3.08.21c0,.25-.25.43-.71.5v11c0,7.3-.92,14.62-8.85,19.79a9.16,9.16,0,0,0-1.7-1.84c7.33-4.74,8.18-11.43,8.18-18Zm13.38,0,3.12.17c0,.29-.22.46-.71.53v26.13c0,1.66.25,2,1.45,2h4c1.31,0,1.52-1.56,1.66-7.61a6.58,6.58,0,0,0,2.23,1.09c-.25,6.59-.78,8.82-3.75,8.82H2282c-2.8,0-3.58-.92-3.58-4.29Z" transform="translate(-881.5 -82.38)"/><path class="cls-21" d="M2300.84,590.73a10.84,10.84,0,0,1-.28-2.19c0-2,.92-3.82,3.36-6s3.9-3.64,3.9-5.66c0-2.2-2-3.79-5.88-3.79a13,13,0,0,0-5.88,1.38l-.95-2.05a16.74,16.74,0,0,1,7.15-1.63c6.12,0,8.5,2.87,8.5,5.8,0,2.73-1.77,4.64-4.57,7-2.05,1.74-2.94,3.37-2.94,5.17,0,.29,0,.57.07.89l.18,1.09Zm-.63,5.67a2.13,2.13,0,0,1,2.09-2.37,2.25,2.25,0,1,1-2.09,2.37" transform="translate(-881.5 -82.38)"/><path class="cls-9" d="M1665.21,1121.82s8.15-19.42,9.76-40c10.24-2.06,94.08-11.32,94.08-11.32s11.23,34.45,12,43.15c-47.43,8-100,10.14-115.87,8.21" transform="translate(-881.5 -82.38)"/><path class="cls-19" d="M1769.05,1070.46c-16.32-45.55-53.94-106.86-132.48-154.34,0,0,77.32,49.85,114.29,157.1Z" transform="translate(-881.5 -82.38)"/><path class="cls-28" d="M1763.6,1116.26l-12.74-43,18.19-2.76s9.42,26.13,12,43.15c-7.93,1.27-17.48,2.65-17.48,2.65" transform="translate(-881.5 -82.38)"/><polygon class="cls-9" points="379.32 810.91 379.32 934.88 347.13 926.18 347.13 824.03 379.32 810.91"/><path class="cls-28" d="M1228.63,907.5s-.55-18-.55-22.79c7.72-5.67,32.74-15,32.74-15v23.61Z" transform="translate(-881.5 -82.38)"/><path class="cls-11" d="M1500.81,1033.19c15.29,20.43,81.31,145.34,131.89,170.57,45.69,22.79,84.57,12.93,94.55,10.82-12.86,17.15-105.72,95.54-255.07,49.48,22.52-6.64,75.48-33.3,41.57-95.45-26.57-48.69-68.28-125.29-68.28-125.29s31.84-4.23,55.34-10.13" transform="translate(-881.5 -82.38)"/><path class="cls-25" d="M1427.38,954.89s42-3.32,53.85,18.66c17.55,32.53-58.38,121.13-58.38,121.13s-73.37-86.65-56.68-119.63c11.28-22.28,53.35-20,53.35-20Z" transform="translate(-881.5 -82.38)"/><path class="cls-6" d="M1427.38,954.89s42-3.32,53.85,18.66c17.55,32.53-58.38,121.13-58.38,121.13s-73.37-86.65-56.68-119.63c11.28-22.28,53.35-20,53.35-20Z" transform="translate(-881.5 -82.38)"/><path class="cls-11" d="M1458.55,962.92s13.73,6.82,12,26.31c-2.68,30-46.17,95.77-46.17,95.77s47.21-54,54.07-93.84c4.1-23.86-19.88-28.24-19.88-28.24" transform="translate(-881.5 -82.38)"/><line class="cls-6" x1="540.37" y1="880.89" x2="540.81" y2="914.85"/><path class="cls-12" d="M1421.66,971.38c-5.92.08-22.42-9.84-23.32-22.72s14-15.28,23.53-15.41,24.16,1.9,23.59,14.8-17.87,23.26-23.8,23.33" transform="translate(-881.5 -82.38)"/><path class="cls-11" d="M1442.61,1002.29c.55,7.63-5.56,14-19.25,15-11.16.8-20.65-4.58-21.19-12s8.08-14.14,19.25-15,20.65,4.59,21.19,12" transform="translate(-881.5 -82.38)"/><path class="cls-6" d="M1442.61,1002.29c.55,7.63-5.56,14-19.25,15-11.16.8-20.65-4.58-21.19-12s8.08-14.14,19.25-15S1442.07,994.85,1442.61,1002.29Z" transform="translate(-881.5 -82.38)"/><path class="cls-9" d="M1568.14,1062a13.52,13.52,0,1,1-13.52-13.52,13.52,13.52,0,0,1,13.52,13.52" transform="translate(-881.5 -82.38)"/><path class="cls-5" d="M1561.62,1062a7,7,0,1,1-7-7,7,7,0,0,1,7,7" transform="translate(-881.5 -82.38)"/><path class="cls-9" d="M1459,1098.52a13.53,13.53,0,1,1-13.53-13.52,13.52,13.52,0,0,1,13.53,13.52" transform="translate(-881.5 -82.38)"/><path class="cls-5" d="M1452.48,1098.52a7,7,0,1,1-7-7,7,7,0,0,1,7,7" transform="translate(-881.5 -82.38)"/><path class="cls-9" d="M1492.42,1149.22a13.52,13.52,0,1,1-13.52-13.52,13.52,13.52,0,0,1,13.52,13.52" transform="translate(-881.5 -82.38)"/><path class="cls-5" d="M1485.9,1149.22a7,7,0,1,1-7-7,7,7,0,0,1,7,7" transform="translate(-881.5 -82.38)"/><path class="cls-9" d="M1514.33,1203.76a13.53,13.53,0,1,1-13.52-13.52,13.52,13.52,0,0,1,13.52,13.52" transform="translate(-881.5 -82.38)"/><path class="cls-5" d="M1507.81,1203.76a7,7,0,1,1-7-7,7,7,0,0,1,7,7" transform="translate(-881.5 -82.38)"/><path class="cls-9" d="M1602.76,1116.26a13.52,13.52,0,1,1-13.52-13.52,13.52,13.52,0,0,1,13.52,13.52" transform="translate(-881.5 -82.38)"/><path class="cls-5" d="M1596.24,1116.26a7,7,0,1,1-7-7,7,7,0,0,1,7,7" transform="translate(-881.5 -82.38)"/><path class="cls-9" d="M1642.06,1164.29a13.53,13.53,0,1,1-13.53-13.52,13.52,13.52,0,0,1,13.53,13.52" transform="translate(-881.5 -82.38)"/><path class="cls-5" d="M1635.54,1164.29a7,7,0,1,1-7-7,7,7,0,0,1,7,7" transform="translate(-881.5 -82.38)"/></g></g></g></g></g></svg>