<svg
        xmlns="http://www.w3.org/2000/svg"
        xmlns:xlink="http://www.w3.org/1999/xlink"
        width="710px" height="105px">
    <path fill-rule="evenodd"  fill="rgb(232, 235, 236)"
          d="M417.594,105.000 L292.406,105.000 L-0.000,105.000 L-0.000,104.437 L292.406,104.437 L417.594,104.437 L710.000,104.437 L710.000,105.000 L417.594,105.000 ZM292.406,84.906 L-0.000,84.906 L-0.000,84.344 L292.406,84.344 L417.594,84.344 L710.000,84.344 L710.000,84.906 L417.594,84.906 L292.406,84.906 ZM292.406,63.844 L-0.000,63.844 L-0.000,63.250 L292.406,63.250 L417.594,63.250 L710.000,63.250 L710.000,63.844 L417.594,63.844 L292.406,63.844 ZM292.406,42.750 L-0.000,42.750 L-0.000,42.187 L292.406,42.187 L417.594,42.187 L710.000,42.187 L710.000,42.750 L417.594,42.750 L292.406,42.750 ZM292.406,21.656 L-0.000,21.656 L-0.000,21.094 L292.406,21.094 L417.594,21.094 L710.000,21.094 L710.000,21.656 L417.594,21.656 L292.406,21.656 ZM292.406,0.562 L-0.000,0.562 L-0.000,-0.000 L292.406,-0.000 L417.594,-0.000 L710.000,-0.000 L710.000,0.562 L417.594,0.562 L292.406,0.562 Z"/>
</svg>