<svg
        xmlns="http://www.w3.org/2000/svg"
        xmlns:xlink="http://www.w3.org/1999/xlink"
        width="162px" height="62px">
    <path fill-rule="evenodd"  fill="rgb(40, 170, 225)"
          d="M161.678,32.665 C161.222,34.646 160.267,36.583 158.789,38.395 C155.832,42.014 150.775,45.158 143.412,47.045 C136.267,49.127 126.821,49.859 116.163,49.978 C114.831,49.994 113.480,50.002 112.111,50.004 C110.743,50.005 109.358,50.000 107.958,49.989 C105.158,49.969 102.299,49.930 99.398,49.884 C93.595,49.792 87.622,49.680 81.619,49.601 C72.997,49.435 64.784,49.314 57.105,49.064 L45.340,61.353 L48.286,48.696 C37.732,48.138 28.465,47.150 20.977,45.163 C13.657,43.293 8.017,40.625 4.437,37.585 C2.647,36.068 1.371,34.466 0.657,32.837 C0.300,32.023 0.083,31.201 0.013,30.377 C-0.022,29.964 -0.020,29.552 0.019,29.139 C0.058,28.727 0.134,28.314 0.248,27.902 C1.676,20.832 13.838,15.158 27.728,9.752 C42.127,4.549 58.203,0.390 79.274,0.109 C81.858,0.018 84.420,-0.021 86.954,-0.011 C89.488,-0.001 91.994,0.057 94.467,0.163 C99.412,0.375 104.221,0.776 108.845,1.353 C118.094,2.505 126.603,4.363 133.983,6.753 C148.745,11.540 158.997,18.393 161.584,26.670 C161.839,27.664 161.977,28.667 161.994,29.670 C162.011,30.673 161.907,31.674 161.678,32.665 Z"/>
</svg>