<svg
        xmlns="http://www.w3.org/2000/svg"
        xmlns:xlink="http://www.w3.org/1999/xlink"
        width="192px" height="127px">
    <path fill-rule="evenodd"  fill="rgb(40, 170, 225)"
          d="M191.634,62.871 C191.095,66.684 189.969,70.411 188.223,73.897 C184.733,80.862 178.765,86.913 170.074,90.544 C161.641,94.552 150.493,95.960 137.914,96.189 C136.341,96.221 134.746,96.236 133.132,96.238 C131.517,96.241 129.882,96.231 128.230,96.211 C124.925,96.172 121.550,96.096 118.126,96.009 C114.060,95.903 109.915,95.788 105.743,95.677 L76.659,126.055 L83.873,95.060 C60.430,94.324 40.149,93.230 25.569,86.924 C16.929,83.325 10.272,78.190 6.047,72.340 C3.934,69.420 2.428,66.338 1.585,63.203 C1.164,61.635 0.908,60.053 0.826,58.467 C0.784,57.674 0.786,56.880 0.832,56.086 C0.878,55.292 0.968,54.498 1.103,53.705 C2.788,40.099 17.142,29.179 33.537,18.777 C50.532,8.763 69.505,0.759 94.375,0.218 C97.424,0.044 100.448,-0.032 103.439,-0.013 C106.430,0.006 109.388,0.119 112.306,0.323 C118.143,0.731 123.818,1.502 129.276,2.612 C140.192,4.829 150.235,8.405 158.946,13.005 C176.369,22.217 188.469,35.405 191.522,51.334 C191.824,53.246 191.986,55.177 192.006,57.107 C192.026,59.037 191.903,60.965 191.634,62.871 Z"/>
</svg>